<svg xmlns="http://www.w3.org/2000/svg" width="124.5" height="125.921" viewBox="0 0 124.5 125.921">
  <g id="Grupo_16004" data-name="Grupo 16004" transform="translate(-146.425 -143.53)">
    <g id="Grupo_16001" data-name="Grupo 16001" transform="translate(146.425 143.53)">
      <g id="Grupo_15998" data-name="Grupo 15998" transform="translate(0 0)">
        <g id="Grupo_15997" data-name="Grupo 15997">
          <path id="Trazado_31535" data-name="Trazado 31535" d="M203.368,155.338a56.943,56.943,0,0,0-43.915,93.192L153.9,271.889a2.839,2.839,0,0,0,4.109,3.154l20.954-11.3a56.322,56.322,0,0,0,24.4,5.481,56.943,56.943,0,1,0,0-113.886Z" transform="translate(-146.425 -152.439)" fill="#fad009"/>
          <path id="Trazado_31536" data-name="Trazado 31536" d="M177.695,269.451a2.977,2.977,0,0,1-2.9-3.665l5.821-24.5a59.73,59.73,0,1,1,46.065,21.707,59.08,59.08,0,0,1-25.6-5.749l-21.98,11.853A2.972,2.972,0,0,1,177.695,269.451Zm48.989-119.966a53.774,53.774,0,0,0-40.574,89.066,2.978,2.978,0,0,1,.651,2.643L182.126,260.7l17.485-9.429a2.977,2.977,0,0,1,2.761-.034,53.2,53.2,0,0,0,24.311,5.8,53.775,53.775,0,1,0,0-107.551Z" transform="translate(-161.914 -143.53)"/>
        </g>
      </g>
      <g id="Grupo_16000" data-name="Grupo 16000" transform="translate(51.887 60.178)">
        <g id="Grupo_15999" data-name="Grupo 15999">
          <path id="Trazado_31537" data-name="Trazado 31537" d="M357.786,409.6a10.853,10.853,0,0,1,.929-2.812A7.725,7.725,0,0,0,357.786,409.6Z" transform="translate(-357.786 -402.343)" fill="none"/>
          <path id="Trazado_31538" data-name="Trazado 31538" d="M395.734,388.674h1.156C396.489,388.661,396.105,388.662,395.734,388.674Z" transform="translate(-386.418 -388.665)" fill="none"/>
        </g>
      </g>
    </g>
    <g id="Grupo_16002" data-name="Grupo 16002" transform="translate(203.173 168.345)">
      <path id="Trazado_31539" data-name="Trazado 31539" d="M385.61,299.846h0a5.955,5.955,0,0,1-5.949-5.541q-1.033-21.911-2.067-43.823c-.175-3.117,3.43-5.873,8.015-5.87h0c4.585,0,8.191,2.753,8.015,5.87L391.558,294.3A5.955,5.955,0,0,1,385.61,299.846Z" transform="translate(-377.588 -244.612)"/>
      <circle id="Elipse_1036" data-name="Elipse 1036" cx="6.395" cy="6.395" r="6.395" transform="translate(1.627 57.956)"/>
    </g>
  </g>
</svg>
