<svg xmlns="http://www.w3.org/2000/svg" xmlns:xlink="http://www.w3.org/1999/xlink" width="286.005" height="382.116" viewBox="0 0 286.005 382.116">
  <defs>
    <clipPath id="clip-path">
      <rect id="Rectángulo_3807" data-name="Rectángulo 3807" width="286.005" height="382.116" transform="translate(0 0)" fill="none"/>
    </clipPath>
  </defs>
  <g id="Grupo_16579" data-name="Grupo 16579" transform="translate(0 -0.004)">
    <g id="Grupo_16578" data-name="Grupo 16578" transform="translate(0 0.004)" clip-path="url(#clip-path)">
      <path id="Trazado_38569" data-name="Trazado 38569" d="M245.734,151.548a41.792,41.792,0,0,0,.162,5.9c.736,6.03-.071,12.579,3.184,17.983,1.307,2.17,3.5,3.648,4.888,5.669,2.585,3.772,5.4,7.314,6.23,12.012a22.619,22.619,0,0,1,.167,6.273c-.444,3.747-3.569,6.817.676,9.38,2.512,1.517,7.211,1.757,9.522,3.67,2.036,1.687,3.543,3.912,5.659,5.514,2.7,2.043,5.487,4.157,8.02,6.4,2.38,2.108,4.238,4.683,6.791,6.617a27.923,27.923,0,0,0,5.2,3.2c1.805.827,3.872.617,4.024,3.128.244,4.03-1.1,7.264-2.35,11.006-2.176,6.532-4.882,12.875-9.336,18.174-1.845,2.2-4.62,3.529-6.287,5.812-1.24,1.7-1.783,3.691-3.082,5.369-4.427,5.718-9.3,10.849-12.873,17.216-2.818,5.026-5.856,11.335-5.593,17.237a153.293,153.293,0,0,0,2.476,18.593c.4,2.3,2.125,13.258,3.209,15.461,6.633,13.472,22.22,19.71,36.651,17.836,8.64-1.121,10.177-10.81,12.756-17.387,3.776-9.629,8.937-18.789,13.823-27.887,3.544-6.6,8.356-12.9,11.408-19.72a24.081,24.081,0,0,0,.707-2.988c3.635-12.168-.529,2.147,2.247-5.675,1.816-5.116,2.659-10.967,3.773-16.239,1.125-5.321,2.833-10.585,4.15-15.871,1.25-5.012,1.554-10.215,2.266-15.33,1.353-9.711,2.814-19.679,2.829-29.495.014-10.656-1.513-19.771-3.285-30.188-2.551-14.99-.648-31.4-12.306-43.167-6.444-6.5-6.385-5.725-14.359-9.07-3.259-1.367-6.393-3.1-9.795-4.057-2.447-.686-5.058-.49-7.575-.819-26.054-3.405,9.8.694-17.189-1.869-9.815-.932-17.475-2.592-26.925.921a23.8,23.8,0,0,0-4.323,2.463c-1.919,1.219-3.808,2.49-5.625,3.855-5.014,3.768-7.119,7.5-8.855,13.21a28.59,28.59,0,0,0-1.058,6.862" transform="translate(-177.565 -88.904)" fill="#fff5f3" fill-rule="evenodd"/>
      <path id="Trazado_38570" data-name="Trazado 38570" d="M5.337,943.562c-1.47,1.291-1.116,2.593-1.536,4.5a50.235,50.235,0,0,0-1.241,8.247c-.789,13.972,5.827,27.415,14.952,37.631a102.641,102.641,0,0,0,18.517,16.831c5.56,3.784,12.186,7.842,17.922,11.271,4.725,2.825,8.838,4.381,13.555,7.2,6.135,3.668,13.037,6.063,18.98,10.08,3.144,2.125,5.324,5.281,8.154,7.755a76.945,76.945,0,0,0,11.857,8.246,17.553,17.553,0,0,0,5.373,2.6,19.735,19.735,0,0,0,6.723.02c.974-.144,2.12-.6,3.134-.666,2.416-.162,4.694,1.477,7.045,1.929a61.382,61.382,0,0,0,8.26,1c.761.042,2.533.376,3.29-.107.835-.534.394-1.559,1.353-2.072,1.316-.7,3.3-.207,4.476-1.126,1.229-.964,1.041-1.912,2.072-2.88,1.41-1.323,4.4,1.35,5.729-.216,1.861-2.192.156-6.725-1.034-8.414-.952-1.352-2-1.751-3.33-2.912-1.24-1.085-2.175-2.483-3.365-3.625-1.337-1.286-3.807-2.812-3.841-4.947-.031-2.025,2.22-2.469,3.727-2.957,3.255-1.054,8.282-1.969,7.928-6.323-.132-1.621-1.865-2.284-2.957-3.149a50.116,50.116,0,0,0-11.035-6.6c-.3-.134-4.739-2.429-6.248-3.042-4.627-1.882-9.8-2.375-14.66-3.234-12.536-2.215-25-5.032-35.064-13.243-5.037-4.107-8.314-9.986-12.169-15.11-3.37-4.477-6.65-9.01-10.03-13.487-5.92-7.84-12.834-13.54-20.928-18.963-7.945-5.323-15.7-8.891-25.386-7.457-1.92.285-3.533,1.34-5.256,2.044-1.819.745-3.426-.174-4.968,1.178" transform="translate(-1.804 -679.33)" fill="#fff5f3" fill-rule="evenodd"/>
      <path id="Trazado_38571" data-name="Trazado 38571" d="M421.222,995.789c.4-5.651.6-1.466-2.994-12.4A41.834,41.834,0,0,0,414.5,977a47.211,47.211,0,0,0-26.938-17.16c-16.458-3.475-33.418,4.522-49.8-.149a350.621,350.621,0,0,1-48.212-17.534c-14.167-6.408-29.885-14.027-45.792-13.511-5.013.162-8.785,1.353-13.678,2.751-4.579,1.308-10.547,2.512-14.422,5.6a40.41,40.41,0,0,0-15.011,27.888c-1.514,13.755,13.146,23.295,24.353,26.675,2.579.78,5.192,1.446,7.764,2.249,14.167,4.43,30.12,8.763,45.114,7.322,6.878-.659,13.623-3.259,20.2-5.18,9.647-2.817,19.9-4.686,29.988-3.747,5.93.552,11.975,2.067,16.444,6.243,3.118,2.913,3.993,7.9,7.4,10.4,4.42,3.242,11.088,3.609,16.23,4.287,3.222.425,6.4.617,9.645.847a62.017,62.017,0,0,0,9.846.117c2.49-.237,4.688-.561,7.173-.8,10.377-.991,25.505-4.531,26.415-17.513" transform="translate(-144.921 -671.091)" fill="#fff5f3" fill-rule="evenodd"/>
      <path id="Trazado_38572" data-name="Trazado 38572" d="M218.857,813.769c-3.3,0-6.97-.517-9.7-2.527a13.493,13.493,0,0,1-3.586-4.563c-3.282-5.835-4.9-12.581-6.275-19.068-.812-3.825-2.045-8.11-1.874-12.06.318-7.314,5.705-14.734,13.527-15.156,7.073-.382,12.776,3.889,16.133,9.86,1.378,2.449,1.7,5.284,3.178,7.742,2.133,3.554,5.268,6.589,7.253,10.185.887,1.609,2.922,3.5,3.666,5.133,1.612,3.546,1.169,6.441,1.3,10.349.032.93.508,2.994-.163,3.748-.845.952-3.491.371-4.563.327a29.058,29.058,0,0,0-9.127.733c-.848.243-1.534.77-2.362.978Z" transform="translate(-142.663 -549.501)" fill="#fff0ed" fill-rule="evenodd"/>
      <path id="Trazado_38573" data-name="Trazado 38573" d="M281.264,938.517c-1.729,1.153-3.6,2.312-5.378,3.422-.51.319-1.141.654-1.141,1.3Z" transform="translate(-198.551 -678.242)" fill="#fff0ed" fill-rule="evenodd"/>
      <path id="Trazado_38574" data-name="Trazado 38574" d="M397.693,831.48c-1-4.715-.05-9.025.657-13.8.615-4.148,2-9.825.412-13.964a11.334,11.334,0,0,0-2.547-2.957c-3.09-3.09-7.432-4.31-10.515-7.393-1.033-1.034-2.814-2.345-2.629-4.025.1-.868,1.338-.769,1.972-.739,1.249.059,6.138,2.234,6.9.328.4-1.009-.348-2.432-.74-3.286-1.222-2.667-2.611-5.294-4.025-7.885-.3-.555-1.877-3.083-.9-3.779.915-.654,2.48.707,3.2.164.351-.262.537-.981.822-1.313,1-1.164,3.764.558,4.847.657,1.037.095,1.338-.826,2.382-.738a9.934,9.934,0,0,1,2.383.985c1.029.4,2.917.33,3.778,1.068a25.44,25.44,0,0,1,4.764,5.585A18.047,18.047,0,0,1,411,786.63a50.112,50.112,0,0,0,1.56,8.542,189.735,189.735,0,0,1,6.572,30.641,49.423,49.423,0,0,1,.411,12.979,11.7,11.7,0,0,1-2.137,5.092c-.323.468-1.459,3.42-2.217,3.04-1.055-.527-1.908-1.994-2.547-2.793a23.868,23.868,0,0,0-3.2-3.2,78.53,78.53,0,0,0-7.228-5.175c-1.889-1.258-4.038-2-4.518-4.272" transform="translate(-276.825 -558.214)" fill="#fff0ed" fill-rule="evenodd"/>
      <path id="Trazado_38575" data-name="Trazado 38575" d="M603.718,1015.538a14.932,14.932,0,0,0-5.192,1.113c-3.241,1.258-11.157,6.53-14.878,9.643a61.684,61.684,0,0,0-6.183,6.388c.855-.055,1.7-.107,2.6-.165,3.356-.219,26.261-1.778,31.736-2.1a41.109,41.109,0,0,0,4.492-.576c.318-.05.484-.086.741-.124,2.966-1.034,5.726-1.129,5.318-1.773-1.948-3.062-3.41-5.525-5.647-6.965-4.437-2.859-8.186-5.526-12.983-5.44m-34.5,44.47c2.648,5.256,6.365,9.989,8.655,15.537.731,1.771.538,3.726.906,5.564.591,2.954,2.591,8.019,4.9,10.057,1.617,1.423,2.536-1.494,3.957-2.432a28.712,28.712,0,0,0,4.245-4.162c1.62-2.425,5.639-9.2,6.718-12.612.285-.9.8-3.1,1.195-4.7a103.582,103.582,0,0,0-12.2-3.215l-.783-.165c-4.359-.923-6.329-1.353-8.737-1.978a29.756,29.756,0,0,0-3.173-.618c-.19-.029-.356-.072-.7-.124a23.865,23.865,0,0,1-4.988-1.154" transform="translate(-411.362 -733.902)" fill="#fff0ed" fill-rule="evenodd"/>
      <path id="Trazado_38576" data-name="Trazado 38576" d="M226.6,69.179C219.485,67.1,218.688,55,219.418,52.747c1.387-4.289.811-3.35,2.353-6.3s5.387-5.761,7.295-7.816c3.934-4.236,5.089-8.7,8.255-13.448a60.343,60.343,0,0,1,10.406-12.35c7.044-6.037,15.937-9.167,25-10.98,4.665-.933,9.463-.32,13.907.706,3.949.911,8.406,1.545,12.063,3.54,6.725,3.668,12.966,9.375,19.478,12.486,4.952,2.366,10.638,5.193,14.483,9.24,4.822,5.074,8.314,8.394,10.44,13.355,3.325,7.759,2.079,17.047,6.738,24.3,3.1,4.824,10.933,7.969,15.3,11,4.721,3.282,6.6,5.613,8.465,10.944,1.637,4.674,3.177,12.606,2.464,17.6-.7,4.933-1.029,9.061.244,14.176,1.658,6.66,8.259,12.145,13.215,12.86a12.611,12.611,0,0,0,4.986-.105c.674-.092,8.184-4.935,7.073-.5-2.5,10-15.494,8.81-22.974,7.742-2.282-.326-4.512-1.61-6.742-2.247-.487-.14-2.407-1.109-2.923-.765-.039.025,2.493,5.019,2.687,5.5,1.283,3.209,1.709,3.151,2.6,6.511,2.67,10.085,2.426,15.306,1.265,24.6-.91,7.284-7.7,16.052-13.617,18.092-7.189,2.48-11.346,6.151-15.3,12.735-3.074,5.125-1.8,16.348,2.312,20.229.537.506,6.837,4.62,6.493,5.993-.219.877-2.03.9-2.5,1-2.751.611-4.561.25-7.493.25-3.416,0-4.77,1.643-7.242,3.5-3.19,2.392-7.387,3-11.237,3-1.869,0-4.93.223-6.243-1.747s4.393-4.694,5.244-5.744c2.809-3.469,5.407-9.275,4.337-13.552-1.744-6.977-8.08-10.4-11.329-16.664-3.691-7.118-5.867-11.966-6.139-19.9a87.818,87.818,0,0,1,.894-13.067c1.1-5.5,2.266-12.175,4.263-18.122,1.093-3.259,2.838-7.16,3.7-9.79a57.621,57.621,0,0,0,1.717-8.812,147.534,147.534,0,0,0,1.579-16.051c.192-4.613-.168-9.208-.168-13.827,0-6.379-1.947-11.139-4.411-16.891-1.983-4.627.136-10.778-5.177-13.4-3.889-1.919-10.145,2.457-10.737,5.493-.371,1.9,1.164,5.113-1.162,5.695C298.913,82.3,290.943,82.53,286.653,81c-3.434-1.227-4.263-5.84-7.932-5.48-3.9.384-10.375-3.416-14.114-3.991-6.158-.947-10.456-7.815-14.859-10.763-3.937-2.635-2.853-4.545-10.1-4.545-2.809,0-7.1.215-9.3,2.233-1.916,1.757-2.183,3.913-3.061,6.329-.392,1.074.481,4.736-.677,4.4" transform="translate(-158.41 -1.006)" fill="#ceb0a8" fill-rule="evenodd"/>
      <path id="Trazado_38577" data-name="Trazado 38577" d="M151.917,801.746c.5-2.709-1.53-3.893-3.731-4.608-4.092-1.327-10.327-.67-12.19-5.161-.91-2.193-.833-4.675-.887-6.989-.054-2.283-.335-4.715.288-6.954.585-2.1,2.623-3.871,3.778-5.674.952-1.486,1.782-4.45,3.383-5.355.645-.364,1.3.317,1.9.021,1-.487,1.5-1.708,2.651-1.894,2.041-.33,3.04,1.559,3.372,3.261.057.29-.112,1.447.017,1.545,1.564,1.18,3.625-.992,4.223-2.182,1.324-2.639.377-3.621-.351-6.306-1.916-7.07-12.658-14.239-20.472-13.329-2.709.315-1.3-.376-3.909.2-4.135.9-7.039,1.2-10.82,3.455a56.465,56.465,0,0,0-4.749,3.142,32.67,32.67,0,0,0-6.177,5.532c-2.145,2.842-4.028,5.024-5.939,8.006a39.02,39.02,0,0,0-2.739,5.937,30.332,30.332,0,0,0-1.9,10.291c-.133,3.852,1.269,7.88,2.37,11.541,2.392,7.947,11.262,18.275,13.615,19.844,6.51,4.336,14.573,2.4,21.992,1.361,3.661-.512,4.73-5.844,6.776-8.257a24.286,24.286,0,0,1,5.038-4.724c1.464-.959,4.136-.945,4.46-2.7" transform="translate(-70.574 -540.593)" fill="#fae1cb" fill-rule="evenodd"/>
      <path id="Trazado_38578" data-name="Trazado 38578" d="M128.808,497.306c1.352.94,1.349,3.876,1.215,5.191-.491,4.814-2.667,9.471-4.447,13.965a96.962,96.962,0,0,1-6.378,12.28c-2.98,5.173-5.633,10.539-8.995,15.5-2.886,4.256-6.273,8.162-9.3,12.289-2.412,3.292-4.9,6.613-7.263,9.948a26.632,26.632,0,0,1-4.981,3.564c-.617.311-2.416-2.742-2.88-3.229-1.154-1.211-1.683-1.841-2.846-3.039-1.138-1.171-3.577-1.447-4.861-2.376a15.851,15.851,0,0,0-5.278-2.113c-1.719-.315-2.482.055-4.1.315a34.212,34.212,0,0,0-5.774,1.362c-6.668,2.249-9.9,3.207-15.564,7.481a31.852,31.852,0,0,0-4.013,4.274c-4.518,4.963-8.2,11.7-8.75,18.534-.243,3.028.492,6.178.848,9.161a31.492,31.492,0,0,0,1.13,6.242,60.531,60.531,0,0,0,6.877,13.752,33.245,33.245,0,0,0,3.3,4.1,10,10,0,0,0,1.214,1.319c.251.193.843.864.526.865-.9,0-1.387-.65-2.092-1.062-1.48-.862-2.383-1.3-3.946-2.117-5.341-2.774-8.917-4.563-13.235-5.583a33.272,33.272,0,0,0-12.405-.9c-1.8.231-5.861,1.336-7.334.256-1.06-.777-.606-2.946-.61-2.99-.276-2.953,5.758-10.747,7.247-13.116,6.577-10.465,13.238-18.328,19.7-28.842,4.528-7.371,12.661-18.427,16.79-26.036,4.422-8.145,6.823-13.638,11.286-21.772,4.187-7.631,6.506-14.807,12.268-21.409,4.218-4.832,9.665-10.753,15.937-12.867,2.4-.809,7.054-2.874,9.558-2.948,1.672-.05,2.623-.385,4.266-.462,2.529-.119,4.909-.521,7.18.671,2.642,1.386,4.161,3.293,6.668,5.658a15.868,15.868,0,0,0,5.97,3.27c1.171.356,1.9.055,3.066.865" transform="translate(-6.344 -351.713)" fill="#e0decf" fill-rule="evenodd"/>
      <path id="Trazado_38579" data-name="Trazado 38579" d="M198.28,1037.76c1.049-.417-1.943-3.721-2.3-4.467-1.308-2.73-1.515-6.143-2.892-8.783-.243-.463-.9-.422-1.285-.689a3.615,3.615,0,0,1-1.393-1.6c-.516-1.189.514-2.07.022-3.013-.927-1.778-4.437-.546-4.828-3.276a3.515,3.515,0,0,1,.468-2.17c.237-.37,1.692-.549,1.393-1.24-.168-.386-.9-.558-1.163-.654-1.351-.491-3.492-1.128-3.157-3.006.376-2.107,2.26-2.452,4.146-2.617.727-.063,2.11.058,2.457-.8.219-.539-.322-.99-.731-1.139-1.253-.455-3.276-.887-3.939-2.225-.637-1.283.7-1.543,1.143-2.584a3.891,3.891,0,0,0-.654-3.235c-.91-1.207-3.1-.181-4.276.036-1.809.334-3.581-.108-5.369.063a31.122,31.122,0,0,0-3.79,1.1,14.289,14.289,0,0,1-4.28.326,5.1,5.1,0,0,1-1.4-.669c-.055-.026-.955-.309-.957-.17-.019,1.2,1.743,2.644,2.452,3.251a77.524,77.524,0,0,1,7.285,6.875c6.709,7.607,9.741,16.815,16.271,24.547,1.569,1.858,4.584,7,6.772,6.13" transform="translate(-119.602 -719.56)" fill="#e0decf" fill-rule="evenodd"/>
      <path id="Trazado_38580" data-name="Trazado 38580" d="M509.052,540.241c-.367-1.05-3.086,2.789-4.273,4.373-2.643,3.524-5.317,7.026-7.859,10.611-2.559,3.607-5.337,6.953-7.685,10.678-1.155,1.833-3.073,3.863-3.519,6.063-.277,1.369.406,2.934.346,4.336-.219,5.054.725,9.211,2.231,14.067a175.512,175.512,0,0,1,5.159,23.537,37.347,37.347,0,0,1-.12,12.261c-.455,3.151-.539,3.462,1.029,4.823a37.165,37.165,0,0,1,3.874,4.191c1.924,2.23,4.008,6.91,6.73,8.223,4.525,2.184,15.789.669,22.767.453,8.893-.276,17.8-1.241,26.779-1.846,5.417-.365,10.416-.957,15.747-1.61,5.967-.731,18.774-1.571,23.868-1.034a34.649,34.649,0,0,1,23.61,13.117c2.753,3.507,6.8,10.44,8.138,14.771.429,1.39,2.194,6.7,3.881,7.594.933.5,2.83-.428,3.588-1.167a5.239,5.239,0,0,0,1.878-4.139c.226-2.2,1-3.579,1.043-5.834.029-1.423-.14-3.247-.232-4.667-.331-5.03-2.6-13.016-3.422-18a75.012,75.012,0,0,1-1.007-18.519c.351-9.191.539-17.589.123-26.83a77.468,77.468,0,0,0-.967-8.1c-2.482-14.468-3.161-26.095-3.957-44.478a84.476,84.476,0,0,0-3.5-19.228c-1.7-5.172-6.514-10.469-8.937-13.153-7.3-8.088-12.7-11.967-26.649-18.635-3.209-1.535-8.4-3.225-11.549-4.889-3.032-1.6-5.081-2.477-8.086-4.147-1.544-.857-3.044-.793-4.69-1.422-.219-.083-2.995-2.736-3.327-2.587s.024.752.191,1.074c.984,1.9,1.69,2.216,2.846,4.619,1.752,3.643,2.619,4.253,3.151,7.049s.8,4.572,1.107,6.093c1.236,6.044,1.973,12.193.761,18.357-1.373,6.977-3.893,13.765-10.165,17.591-5.4,3.293-11.409,4.683-15.609,9.921-3.029,3.776-5.691,10.958-4.894,15.949a22.25,22.25,0,0,0,2.081,6.6c.843,1.406,2.832,3.3,1.676,5.045-.638.968-2.148,1.494-3.164,1.994-3.519,1.732-7.131,2.973-10.516,4.991-3.12,1.859-7.753,4.892-11.489,2.817-.844-.468.4-1.087.777-1.505,1.136-1.265,2.527-2.209,3.416-3.7a26.825,26.825,0,0,0,3.373-10.924c.58-7.524-5.271-11.461-9.22-16.737-1.927-2.573-4.535-5.758-5.335-8.045" transform="translate(-350.966 -346.196)" fill="#e0decf" fill-rule="evenodd"/>
      <path id="Trazado_38581" data-name="Trazado 38581" d="M452.021,1169.315c2.031-2.761,2.725-2.661,3.161-6.83s.7-4.7,7.437-2.464c2.946.975,13.955,4.113,15.486,4.381,3.739.653,6.351.107,9.535,1.564,3.254,1.489,3.446,4.815,5.222,12.931.89,4.069,2.593,11.488,1.287,15.651-1,3.182-3.809,3.536-6.08,5.777a28.614,28.614,0,0,1-8.872,5.6c-1.689.739-4.893,1.294-4.967,1.419s-3.469-.132-4.243-.7c-2.264-1.647-4.3-3.558-6.511-5.273-5.9-4.583-12-8.215-17.116-13.756-1.8-1.947-4.166-3.655-5.236-6.176-.956-2.259,4.451-.341,5.01-.16,4.859,1.571,9.456,3.833,14.679,2.818,1.174-.229,2.988-.2,3.374-1.721.293-1.153-1.518-2.738-2.3-3.157-1.846-.993-3.958-1.659-5.738-2.763a29.517,29.517,0,0,1-5.724-4.493c-.911-.869.935-1.754,1.593-2.65" transform="translate(-318.708 -837.377)" fill="#fff" fill-rule="evenodd"/>
      <path id="Trazado_38582" data-name="Trazado 38582" d="M302.271,1078.021a29.976,29.976,0,0,1-1.912,7.822c-.9,1.426-2.721,3.845-3.743,5.14-.57.72-2.622-2.572-3.983-2.223-1.914.489-9.721-3.43-13.828-2.871-2.634.359-6.331.168-8.962.592-2.007.325-4.115,1.609-6.185,1.384a29.5,29.5,0,0,1-11.73-3.411c-2.581-1.531-4.7-3.925-6.746-6.08-4.5-4.739-8.7-9.777-11.507-15.763a71.8,71.8,0,0,1-4.451-11.163c-.233-.832-1.274-3.078-.848-3.945.3-.608,2.841,1.709,3.335,1.889.106.038,2.394.891,2.183,1.092-1,.954-1.935.187-2.305,1.971-.52,2.5,3.263,2.594,4.416,3.721.9.876-.571,2.81.088,3.989.742,1.329,3.88,2.737,5.235,3.355a30.608,30.608,0,0,0,6.805,2.464,47.9,47.9,0,0,1,7.387,1.9c8.865,3.81,17.411,8.484,27.269,9.8,4.173.559,6.738.872,10.892.112,1.018-.186,2.015-.255,3.033-.42.212-.034,5.55.546,5.558.639" transform="translate(-164.968 -756.93)" fill="#fcd5cb" fill-rule="evenodd"/>
      <path id="Trazado_38583" data-name="Trazado 38583" d="M240.415,952.221a19.147,19.147,0,0,1,5.116-11.459,34.41,34.41,0,0,1,6.427-5.5c7.749-5.166,17.8-6.013,26.638-3.974a80.4,80.4,0,0,1,10.994,3.468c1.169.452,3.809,1.406,4.228,2.875.491,1.715.161,3.4.085,5.158-.025.58.419,1.785.17,2.283-.151.3-.682.142-.847.086-.886-.307-2.939-1.264-3.72-1.608-.706-.308-1.4-.633-2.114-.93-4.033-1.688-7.911-3.693-11.924-5.413-1.141-.488-3.5-2.15-4.82-1.522a2.827,2.827,0,0,0-1.691,3.383,13.63,13.63,0,0,0,5.5,7.356c1.265.81,3.6,1.666,4.819,2.538.409.291,1.414,1.045.931,1.184-3.351.957-7.087.261-10.486,0-5.29-.407-10.792.236-16.067.677a80.446,80.446,0,0,0-9.049,1.353c-.661.128-4.212.521-4.186.042" transform="translate(-173.741 -672.28)" fill="#fcd5cb" fill-rule="evenodd"/>
      <path id="Trazado_38584" data-name="Trazado 38584" d="M502.827,1022.329c-1.357.551-1.881,2.581-2.932,3.748-.12.135-.9.906-.743,1.188a10.727,10.727,0,0,0,1.931,1.855,28.614,28.614,0,0,0,6.978,5.272,33.333,33.333,0,0,0,4.529,1.708c.3.1,1.208.355,1.485.148,1.144-.859-1.016-2.6-1.485-3.118-2.419-2.669-4.33-5.7-6.681-8.389-.84-.96-1.891-2.9-3.082-2.412" transform="translate(-360.709 -738.756)" fill="#fcd5cb" fill-rule="evenodd"/>
      <path id="Trazado_38585" data-name="Trazado 38585" d="M581.442,991.161c-.882.066-9.62-.076-9.1-.742,2.389-3.072,11.293-14.808,14.481-17,6.32-4.345,7.016-4.227,20.238-3.508,1.618.088,17.181,2.519,29.579,4.144,5.807.761,10.179.354,14.972-6.187,1.815-2.478,3.472-8.832,6.553-8.943,4.664-.168,1.393,15.151,1.336,15.753-.629,6.746-1.2,10.878-1.529,11.064-1.284.728-26.094,2.473-35.709,2.609a70.875,70.875,0,0,0-11.857.8c-4.232.762-8.363.012-12.631.539a62.572,62.572,0,0,1-10.154.707c-2.267-.017-4.278.621-6.177.762" transform="translate(-413.599 -692.989)" fill="#fff0ed" fill-rule="evenodd"/>
      <path id="Trazado_38586" data-name="Trazado 38586" d="M479.324,1167.907a1.172,1.172,0,0,1-.632-.184,1.185,1.185,0,0,1-.37-1.637,25.546,25.546,0,0,0,2.96-6.724,5.987,5.987,0,0,0,.125-1.009,6.721,6.721,0,0,1,.27-1.686,1.187,1.187,0,0,1,2.254.744,4.807,4.807,0,0,0-.156,1.107,7.887,7.887,0,0,1-.2,1.437,27.591,27.591,0,0,1-3.251,7.4,1.184,1.184,0,0,1-1,.554" transform="translate(-345.538 -835.305)" fill="#743b2f"/>
      <path id="Trazado_38587" data-name="Trazado 38587" d="M616.772,1212.559a1.188,1.188,0,0,1-1.179-1.062c-.123-1.16-.234-2.338-.346-3.522-.686-7.305-1.4-14.859-5.289-20.941a1.187,1.187,0,1,1,2-1.28c4.2,6.566,4.94,14.412,5.654,22,.111,1.175.221,2.343.343,3.494a1.185,1.185,0,0,1-1.055,1.3,1.11,1.11,0,0,1-.126.007" transform="translate(-440.664 -856.518)" fill="#743b2f"/>
      <path id="Trazado_38588" data-name="Trazado 38588" d="M633.2,1222.56a2.551,2.551,0,0,1-.407-.032,1.186,1.186,0,1,1,.368-2.344c.392.047,1.281-.426,3.284-3.1l.232-.307a56.322,56.322,0,0,0,5.518-9.791l.221-.46a13,13,0,0,0,.675-2.021,10.673,10.673,0,0,1,1.349-3.356,1.187,1.187,0,1,1,1.932,1.378,9.2,9.2,0,0,0-1,2.615,14.865,14.865,0,0,1-.82,2.414l-.221.457a58.127,58.127,0,0,1-5.77,10.2l-.223.294c-1.153,1.538-3.035,4.048-5.144,4.048" transform="translate(-456.575 -867.682)" fill="#743b2f"/>
      <path id="Trazado_38589" data-name="Trazado 38589" d="M252.557,269.681a.984.984,0,0,1-.737-.329l-.708-.785c-2.149-2.373-4.371-4.827-5.269-8.139a31.431,31.431,0,0,1-.823-7.486,33.581,33.581,0,0,0-.536-6.083.989.989,0,1,1,1.934-.412,35.533,35.533,0,0,1,.58,6.44,29.531,29.531,0,0,0,.754,7.023c.774,2.854,2.834,5.129,4.827,7.33l.716.794a.989.989,0,0,1-.738,1.648" transform="translate(-176.667 -177.535)" fill="#743b2f"/>
      <path id="Trazado_38590" data-name="Trazado 38590" d="M296.27,387.855a1,1,0,0,1-.364-.069l-.67-.26c-1.94-.744-4.6-1.763-5.717-3.873-.985-1.856-.161-3.744.5-5.261a10.291,10.291,0,0,0,.668-1.812,16.57,16.57,0,0,0-.3-7.687.989.989,0,0,1,1.935-.412,18.618,18.618,0,0,1,.3,8.509,11.665,11.665,0,0,1-.791,2.194c-.568,1.3-1.1,2.53-.568,3.542.775,1.457,2.939,2.287,4.679,2.954l.69.268a.989.989,0,0,1-.364,1.909" transform="translate(-208.899 -265.726)" fill="#743b2f"/>
      <path id="Trazado_38591" data-name="Trazado 38591" d="M410.806,463.984a11.753,11.753,0,0,1-7.13-2.647,26.067,26.067,0,0,1-2.32-2.022.988.988,0,1,1,1.391-1.4,24.406,24.406,0,0,0,2.124,1.851c3.332,2.532,6.7,2.925,10.023,1.169,2.527-1.336,4.738-3.79,6.688-5.955a93.982,93.982,0,0,0,7.706-9.359c.382-.558.843-1.18,1.32-1.826a34.549,34.549,0,0,0,2.482-3.649.989.989,0,1,1,1.739.943,35.79,35.79,0,0,1-2.63,3.883c-.464.626-.908,1.228-1.279,1.769a95.851,95.851,0,0,1-7.854,9.55c-2.075,2.3-4.41,4.894-7.247,6.394a10.649,10.649,0,0,1-5.012,1.305" transform="translate(-289.837 -317.704)" fill="#743b2f"/>
      <path id="Trazado_38592" data-name="Trazado 38592" d="M362.34,445.893a.989.989,0,1,1,0-1.978c2.587,0,5.684-3.994,6.336-6.6a.989.989,0,0,1,1.919.479c-.805,3.224-4.508,8.1-8.254,8.1" transform="translate(-261.139 -315.495)" fill="#743b2f"/>
      <path id="Trazado_38593" data-name="Trazado 38593" d="M340.632,355.374a.989.989,0,0,1-.115-1.971,3.873,3.873,0,0,0,2.648-2.18.989.989,0,0,1,1.86.674,5.744,5.744,0,0,1-4.276,3.47.882.882,0,0,1-.117.007" transform="translate(-245.451 -253.349)" fill="#743b2f"/>
      <path id="Trazado_38594" data-name="Trazado 38594" d="M297.043,299.829a.99.99,0,0,1-.675-1.713c3.432-3.2,7.314-3.521,10.977-3.392a.99.99,0,0,1,.955,1.023.968.968,0,0,1-1.024.954c-3.243-.115-6.653.154-9.558,2.862a.988.988,0,0,1-.675.265" transform="translate(-213.95 -212.974)" fill="#743b2f"/>
      <path id="Trazado_38595" data-name="Trazado 38595" d="M523.068,254.7a.989.989,0,0,1-.939-1.3,10.946,10.946,0,0,1,6.982-6.706,7.923,7.923,0,0,1,7.3,1.056.989.989,0,1,1-1.185,1.584,5.992,5.992,0,0,0-5.517-.753,8.908,8.908,0,0,0-5.7,5.44.99.99,0,0,1-.939.678" transform="translate(-377.293 -177.967)" fill="#743b2f"/>
      <path id="Trazado_38596" data-name="Trazado 38596" d="M537.218,298.475a.99.99,0,0,1-.952-1.26,10.1,10.1,0,0,1,3.687-5.03.989.989,0,1,1,1.167,1.6,8.03,8.03,0,0,0-2.95,3.975.992.992,0,0,1-.952.718" transform="translate(-387.518 -211.017)" fill="#743b2f"/>
      <path id="Trazado_38597" data-name="Trazado 38597" d="M550.795,316.613a.989.989,0,0,1-.6-1.775,17.772,17.772,0,0,0,6.648-10.159.989.989,0,1,1,1.934.41,19.772,19.772,0,0,1-7.38,11.32.99.99,0,0,1-.6.2" transform="translate(-397.329 -219.619)" fill="#743b2f"/>
      <path id="Trazado_38598" data-name="Trazado 38598" d="M490.13,514.09a1.02,1.02,0,0,1-.166-.014.989.989,0,0,1-.81-1.14,22.654,22.654,0,0,0-.323-7.975c-1.2-6.738-3.217-12.137-6-16.044a.989.989,0,1,1,1.612-1.146c2.951,4.148,5.081,9.815,6.333,16.844a24.405,24.405,0,0,1,.326,8.651.988.988,0,0,1-.974.824" transform="translate(-348.798 -352.199)" fill="#743b2f"/>
      <path id="Trazado_38599" data-name="Trazado 38599" d="M303.079,581.64a.989.989,0,0,1-.872-1.456,58.031,58.031,0,0,1,5.569-8.127q1.9-2.427,3.815-4.834c2.827-3.564,5.752-7.248,8.462-10.973a112.844,112.844,0,0,0,8.911-15.328c1.329-2.588,2.7-5.264,4.177-7.881A69.313,69.313,0,0,0,339.05,519.9c.12-.381.253-.764.385-1.149.581-1.683,1.13-3.273.689-4.823-.116-.407-.294-.5-.47-.537a2.75,2.75,0,0,0-2.174.954,9.588,9.588,0,0,0-1.47,2.89c-.207.548-.415,1.1-.659,1.62a21.452,21.452,0,0,1-4.472,6.38c-.044.045-.134.149-.254.285-1.639,1.87-2.883,3.131-3.969,2.343-.573-.415-.545-.985-.332-3.335.021-.219.036-.386.039-.455a20.064,20.064,0,0,0-.649-6.565,22.368,22.368,0,0,0-2.532-4.9c-1.806-2.9-3.674-5.891-3.1-9.953a.99.99,0,0,1,1.96.275c-.47,3.35,1.129,5.916,2.823,8.632A24.16,24.16,0,0,1,327.6,516.9a21.884,21.884,0,0,1,.744,7.232c0,.071-.021.285-.046.571-.01.114-.026.286-.042.487.242-.256.535-.576.886-.978.173-.2.3-.338.358-.4a19.2,19.2,0,0,0,4.062-5.8c.224-.48.412-.981.6-1.483a11.183,11.183,0,0,1,1.816-3.474,4.64,4.64,0,0,1,4.1-1.6,2.573,2.573,0,0,1,1.952,1.929c.611,2.148-.1,4.2-.722,6.009-.128.368-.254.734-.367,1.1a71.285,71.285,0,0,1-6.074,13.519c-1.454,2.584-2.819,5.243-4.14,7.815a116.186,116.186,0,0,1-9.072,15.589c-2.734,3.757-5.672,7.459-8.512,11.039q-1.909,2.4-3.8,4.819a56.416,56.416,0,0,0-5.382,7.844.991.991,0,0,1-.875.523M328.171,526.8h0Z" transform="translate(-218.313 -362.644)" fill="#743b2f"/>
      <path id="Trazado_38600" data-name="Trazado 38600" d="M298.714,651.018a.988.988,0,0,1-.853-1.488c4.967-8.479,10.852-19.713,12.293-31.43a19.925,19.925,0,0,0,.1-2.286c0-.712.007-1.449.081-2.2a23.4,23.4,0,0,0-.958-8.458,7.094,7.094,0,0,1-.236-1.313,2.813,2.813,0,0,0-.381-1.428.989.989,0,0,1,1.425-1.373,4.2,4.2,0,0,1,.923,2.576,5.6,5.6,0,0,0,.158.948,25.1,25.1,0,0,1,1.038,9.238c-.063.66-.067,1.32-.07,2.019a21.67,21.67,0,0,1-.116,2.515c-1.484,12.077-7.486,23.546-12.549,32.188a.988.988,0,0,1-.855.489" transform="translate(-215.159 -434.142)" fill="#743b2f"/>
      <path id="Trazado_38601" data-name="Trazado 38601" d="M8.34,617.424a.989.989,0,0,1-.985-.916c-.242-3.276,1.4-7.326,4.87-12.037,2.221-3.012,4.272-6.23,6.256-9.34,2.006-3.146,4.081-6.4,6.352-9.48,2.5-3.391,4.82-7.012,7.062-10.512,1.922-3,3.91-6.1,6.015-9.067l1.2-1.683a211,211,0,0,0,11.953-18.106c2.914-5.154,5.59-10.581,8.178-15.829,1.646-3.339,3.349-6.792,5.1-10.143.518-.994,1.03-2,1.546-3.023a74.444,74.444,0,0,1,6.764-11.58c6.709-8.81,13.06-13.912,20.591-16.548.51-.178,1.029-.381,1.557-.587a17.6,17.6,0,0,1,5.013-1.409.989.989,0,0,1,.144,1.973,16.159,16.159,0,0,0-4.437,1.279c-.551.215-1.093.426-1.624.612-7.144,2.5-13.21,7.4-19.671,15.878a72.97,72.97,0,0,0-6.572,11.275c-.519,1.025-1.035,2.044-1.557,3.044-1.738,3.331-3.436,6.774-5.077,10.1-2.6,5.272-5.288,10.724-8.23,15.927a212.068,212.068,0,0,1-12.063,18.279l-1.195,1.681c-2.077,2.929-4.052,6.011-5.963,8.991-2.261,3.528-4.6,7.175-7.136,10.619-2.231,3.026-4.287,6.251-6.276,9.37-2,3.139-4.071,6.384-6.332,9.451-3.185,4.319-4.695,7.925-4.489,10.716a.99.99,0,0,1-.914,1.06l-.074,0" transform="translate(-5.298 -352.06)" fill="#743b2f"/>
      <path id="Trazado_38602" data-name="Trazado 38602" d="M17.144,945.525a.989.989,0,0,1-.354-1.912l.219-.084a7.129,7.129,0,0,1,1.107-.372c.4-.1,1.23-.318,3.743-1.068,3.99-1.189,9.776-1.8,13.713-.492a.99.99,0,0,1-.626,1.878c-3.51-1.169-8.95-.556-12.521.51-2.56.762-3.406.981-3.812,1.087a5.789,5.789,0,0,0-.894.3l-.22.084a.976.976,0,0,1-.354.065" transform="translate(-11.674 -679.937)" fill="#743b2f"/>
      <path id="Trazado_38603" data-name="Trazado 38603" d="M71.493,967.438c-3.734,0-7.92-2.13-10.541-3.465l-.25-.127c-.943-.481-1.052-.54-1.233-.745a10.966,10.966,0,0,1-1.051-.589c-7.844-4.38-19.481-9.956-29.944-7.794a.989.989,0,0,1-.4-1.937c11.112-2.3,23.189,3.47,31.31,8a8.75,8.75,0,0,1,1.484.917c.1.059.309.165.731.379l.251.129c3.381,1.722,9.672,4.923,12.909,2.192a.989.989,0,0,1,1.277,1.512,6.82,6.82,0,0,1-4.541,1.524" transform="translate(-19.718 -688.173)" fill="#743b2f"/>
      <path id="Trazado_38604" data-name="Trazado 38604" d="M85.774,1061.955a.989.989,0,0,1-.422-.1,56.809,56.809,0,0,1-5.913-3.412,55.962,55.962,0,0,0-5.779-3.34c-13.067-6.2-22.692-11.606-31.211-17.534-1.867-1.3-3.805-2.558-5.68-3.776-3.242-2.109-6.6-4.287-9.716-6.758-14.74-11.669-24.5-27.323-26.789-42.949-.59-4.036-.08-7.664.46-11.505.132-.939.265-1.887.382-2.849a.989.989,0,0,1,1.964.24c-.118.975-.254,1.933-.387,2.885-.52,3.7-1.01,7.188-.462,10.944,2.212,15.132,11.71,30.326,26.058,41.684,3.048,2.414,6.362,4.567,9.567,6.649,1.888,1.226,3.84,2.495,5.732,3.812,8.426,5.863,17.965,11.221,30.929,17.369a57.52,57.52,0,0,1,5.988,3.454,54.432,54.432,0,0,0,5.7,3.3.989.989,0,0,1-.425,1.883" transform="translate(0 -700.175)" fill="#743b2f"/>
      <path id="Trazado_38605" data-name="Trazado 38605" d="M207.98,1051.7a.953.953,0,0,1-.188-.018c-5.778-1.11-10.4-6.79-14.108-11.353-.6-.737-1.175-1.444-1.726-2.1-3.862-4.563-7.458-9.528-10.936-14.331l-1.224-1.688c-1.429-1.971-2.665-4.071-3.86-6.1a58.917,58.917,0,0,0-4.85-7.372,59.4,59.4,0,0,0-6.527-6.479c-1.267-1.135-2.578-2.308-3.794-3.506a.989.989,0,0,1,1.388-1.409c1.182,1.164,2.475,2.322,3.725,3.441a60.76,60.76,0,0,1,6.742,6.7,60.335,60.335,0,0,1,5.02,7.616c1.171,1.991,2.382,4.05,3.756,5.944l1.225,1.69c3.457,4.773,7.032,9.707,10.844,14.214.56.661,1.142,1.378,1.75,2.125,3.51,4.315,7.877,9.684,12.948,10.659a.989.989,0,0,1-.186,1.96" transform="translate(-115.97 -720.551)" fill="#743b2f"/>
      <path id="Trazado_38606" data-name="Trazado 38606" d="M397.487,1230.341a13.484,13.484,0,0,1-4.911-1.045c-.188-.088-.745-.292-1.216-.466-.367-.136-.688-.257-.793-.3-.574-.249-1.123-.548-1.671-.848l-.27-.147c-1.937-1.059-3.891-2.091-5.845-3.121l-2.846-1.5c-2.129-1.116-4.33-2.271-6.419-3.592-.448-.285-.942-.659-1.453-1.05a10.63,10.63,0,0,0-2.579-1.637.989.989,0,1,1,.613-1.88,11.605,11.605,0,0,1,3.167,1.946c.462.353.9.693,1.31.949,2.021,1.279,4.185,2.414,6.279,3.512l2.851,1.5c1.962,1.034,3.924,2.07,5.868,3.132l.274.149c.494.272.988.544,1.5.767.093.04.375.145.7.264.528.194,1.15.429,1.36.526,1.785.83,5.02,1.215,5.762.462.308-.312-.042-1.137-.207-1.478a7.022,7.022,0,0,0-1.268-1.873c-3.331-3.691-7.882-6.785-12.283-9.778q-1.065-.723-2.093-1.43c-.593-.408-1.173-.787-1.739-1.155a22.115,22.115,0,0,1-5.841-4.9c-1.347-1.708-2.756-3.269-4.249-4.923l-1.176-1.3c-1.177-1.269-1.767-2.112-1.5-2.93a2.123,2.123,0,0,1,1.16-1.31c1.445-.667,3.619.071,5.753.964l.311.129a36.71,36.71,0,0,0,11.112,2.934c1.68.139,3.759-.215,4.509-1.166a1.1,1.1,0,0,0,.166-.908,1.88,1.88,0,0,0-.859-1.221c-1-.545-2.026-1-3.113-1.477a29.287,29.287,0,0,1-4.943-2.575c-2.016-1.389-3.959-2.891-5.838-4.346l-1.651-1.272a6.472,6.472,0,0,0-2.55-.7,13.269,13.269,0,0,1-1.723-.334l-1.086-.324a36.539,36.539,0,0,0-10.286-2.019,43.461,43.461,0,0,0-6.7.749,33.456,33.456,0,0,1-10.011.6.989.989,0,0,1,.265-1.96,31.345,31.345,0,0,0,9.426-.592,45.514,45.514,0,0,1,7.005-.774,37.727,37.727,0,0,1,10.869,2.1l1.078.322a12.03,12.03,0,0,0,1.457.274,7.625,7.625,0,0,1,3.458,1.089l1.66,1.279c1.858,1.437,3.779,2.924,5.751,4.282a27.482,27.482,0,0,0,4.618,2.393c1.077.475,2.191.966,3.262,1.551a3.843,3.843,0,0,1,1.848,2.561,3.026,3.026,0,0,1-.55,2.528c-1.33,1.687-4.2,2.09-6.227,1.912a38.435,38.435,0,0,1-11.687-3.07l-.334-.138c-2.155-.9-3.543-1.231-4.13-1.006a10,10,0,0,0,.934,1.112l1.194,1.323c1.447,1.6,2.945,3.262,4.334,5.022a20.267,20.267,0,0,0,5.368,4.469c.58.379,1.173.765,1.781,1.185.68.469,1.377.941,2.082,1.422,4.289,2.916,9.148,6.221,12.639,10.087a8.994,8.994,0,0,1,1.583,2.34c.953,1.973.437,3.114-.165,3.726a4.284,4.284,0,0,1-3.094.989" transform="translate(-247.301 -854.626)" fill="#743b2f"/>
      <path id="Trazado_38607" data-name="Trazado 38607" d="M431.973,1326.085a15,15,0,0,1-4.829-.961c-1.341-.512-2.752-.984-4.118-1.438a56.467,56.467,0,0,1-7.739-3.014,52.47,52.47,0,0,1-6.554-4.2,48.519,48.519,0,0,0-6.549-4.166.989.989,0,1,1,.871-1.775,49.845,49.845,0,0,1,6.827,4.33,50.743,50.743,0,0,0,6.3,4.045,54.672,54.672,0,0,0,7.469,2.9c1.384.461,2.817.939,4.2,1.468,1.948.746,5.26,1.391,6.406.117.47-.522.8-.827,1.015-1.032.006-.005.011-.012.017-.017l0-.021-.041-.195a.989.989,0,1,1,1.937-.4l.039.183a1.611,1.611,0,0,1-.6,1.9c-.193.18-.48.45-.895.91a4.89,4.89,0,0,1-3.756,1.367m3.361-3.511h0Z" transform="translate(-290.247 -947.014)" fill="#743b2f"/>
      <path id="Trazado_38608" data-name="Trazado 38608" d="M409.73,1341.434a19.6,19.6,0,0,1-4.221-.618c-.457-.1-.909-.2-1.348-.288-7.765-1.492-15.82-5.291-23.943-11.288a.989.989,0,0,1,1.175-1.592c7.883,5.822,15.67,9.5,23.142,10.939.458.088.928.193,1.4.3,2,.447,4.074.908,5.811.224.542-.214,1.108-.737,1-1.065a.989.989,0,1,1,1.872-.639c.528,1.546-.71,2.98-2.143,3.546a7.458,7.458,0,0,1-2.746.483" transform="translate(-274.483 -959.318)" fill="#743b2f"/>
      <path id="Trazado_38609" data-name="Trazado 38609" d="M345.917,1327.327a10.284,10.284,0,0,1-1.8-.152c-5.926-1.036-11.036-4.912-15.544-8.333l-.425-.322c-.411-.312-.834-.626-1.265-.945a40.76,40.76,0,0,1-5.434-4.542.99.99,0,1,1,1.442-1.355,39.321,39.321,0,0,0,5.171,4.309c.435.323.864.642,1.28.957l.425.322c4.541,3.445,9.236,7.007,14.689,7.961a14.708,14.708,0,0,0,5.6-.463c.78-.164,1.559-.329,2.341-.446a.99.99,0,0,1,.294,1.958c-.743.111-1.484.268-2.227.424a21.922,21.922,0,0,1-4.549.627" transform="translate(-232.108 -947.69)" fill="#743b2f"/>
      <path id="Trazado_38610" data-name="Trazado 38610" d="M489.806,727.1a.989.989,0,0,1-.829-1.526A225.076,225.076,0,0,1,509.854,697.8a.989.989,0,0,1,1.481,1.311,223.085,223.085,0,0,0-20.7,27.532.989.989,0,0,1-.832.452" transform="translate(-353.256 -504.043)" fill="#743b2f"/>
      <path id="Trazado_38611" data-name="Trazado 38611" d="M244.9,201.545a.989.989,0,0,1-.989-.989,5.549,5.549,0,0,1,1.322-2.981l.215-.3c2.029-2.93,5.862-4.68,10.256-4.68a65.151,65.151,0,0,1,10.552,1.082l1.849.291c11.357,1.746,20.834.777,28.162-2.885a.989.989,0,0,1,.884,1.77c-7.7,3.848-17.574,4.883-29.347,3.07l-1.859-.292a63.664,63.664,0,0,0-10.242-1.057c-3.745,0-6.971,1.431-8.63,3.827l-.232.329a4.449,4.449,0,0,0-.953,1.83.989.989,0,0,1-.989.989" transform="translate(-176.271 -138.013)" fill="#743b2f"/>
      <path id="Trazado_38612" data-name="Trazado 38612" d="M378.764,254.413a25.008,25.008,0,0,1-8.239-1.345l-1.131-.414c-3.215-1.187-8.074-2.983-10.853-1.589a.99.99,0,0,1-.886-1.77c3.552-1.775,8.678.121,12.425,1.5l1.11.407c5.367,1.915,13.432,1.878,18.473-1.9a.989.989,0,1,1,1.187,1.583c-3.318,2.487-7.78,3.527-12.086,3.527" transform="translate(-258.073 -179.64)" fill="#743b2f"/>
      <path id="Trazado_38613" data-name="Trazado 38613" d="M461.214,273.448a38.186,38.186,0,0,1-11.576-1.759.99.99,0,0,1,.6-1.886,38.586,38.586,0,0,0,21.757.2c1.547-.418,3.114-.968,4.63-1.5a57.062,57.062,0,0,1,5.716-1.784l.626-.15c4.875-1.164,11.553-2.763,15.749,1.318a.989.989,0,1,1-1.378,1.418c-3.418-3.321-9.482-1.871-13.911-.812l-.63.151a55.613,55.613,0,0,0-5.516,1.727c-1.549.544-3.152,1.107-4.771,1.544a43.356,43.356,0,0,1-11.3,1.53" transform="translate(-324.443 -191.7)" fill="#743b2f"/>
      <path id="Trazado_38614" data-name="Trazado 38614" d="M180.509,213.046a18.644,18.644,0,0,1-2.834-.274c-5.991-.928-10.6-5.358-12.336-11.85a.989.989,0,0,1,1.911-.51c1.524,5.71,5.534,9.6,10.727,10.4a10.22,10.22,0,0,0,4.138.057.989.989,0,0,1,.511,1.912,8.144,8.144,0,0,1-2.118.26" transform="translate(-119.462 -144.303)" fill="#743b2f"/>
      <path id="Trazado_38615" data-name="Trazado 38615" d="M219.584,146.915a.988.988,0,0,1-.808-.418,8.2,8.2,0,0,1-1.241-3.8l-.066-.448c-1.012-6.6,3.836-12.457,6.816-15.36l.281-.274c1.779-1.73,3.8-3.691,4.65-5.914a.989.989,0,0,1,1.847.71c-1.011,2.629-3.193,4.751-5.118,6.623l-.28.272c-2.707,2.638-7.118,7.918-6.241,13.643l.069.462a6.5,6.5,0,0,0,.9,2.947.989.989,0,0,1-.807,1.56" transform="translate(-157.06 -86.768)" fill="#743b2f"/>
      <path id="Trazado_38616" data-name="Trazado 38616" d="M279.219,26.282a.989.989,0,0,1-.926-1.338,11.1,11.1,0,0,1,1.659-2.684c.2-.261.393-.517.569-.768a49.256,49.256,0,0,1,7.352-8.369,50.1,50.1,0,0,1,8.967-6.838,50.957,50.957,0,0,1,44.28-2.308c3.906,1.6,7.317,4.158,10.615,6.63,3.522,2.638,6.848,5.131,10.758,6.6a.989.989,0,0,1-.7,1.852c-4.174-1.571-7.77-4.265-11.248-6.871-3.2-2.4-6.507-4.875-10.181-6.383A48.99,48.99,0,0,0,297.8,8.016a48.494,48.494,0,0,0-8.606,6.583,47.279,47.279,0,0,0-7.053,8.034c-.189.269-.4.545-.612.826a9.473,9.473,0,0,0-1.382,2.183.99.99,0,0,1-.926.641" transform="translate(-201.069 -0.004)" fill="#743b2f"/>
      <path id="Trazado_38617" data-name="Trazado 38617" d="M708.736,229.346c-7.151,0-13.561-5.583-16.222-11.348-1.9-4.125-1.6-8.357-1.308-12.451.107-1.487.216-3.024.216-4.527a54.611,54.611,0,0,0-3.576-19.492c-2.084-5.557-6.846-8.27-11.886-11.143-4.611-2.629-9.379-5.346-11.916-10.419-1.944-3.889-2.635-8.215-3.3-12.4-.305-1.911-.622-3.886-1.051-5.75l-.1-.413c-.477-2.1-.971-4.262-2.371-5.662a.989.989,0,0,1,1.4-1.4c1.8,1.8,2.387,4.363,2.9,6.621l.093.408c.446,1.928.767,3.938,1.078,5.881.645,4.036,1.312,8.209,3.121,11.826,2.268,4.536,6.571,6.989,11.127,9.586,5.124,2.92,10.423,5.941,12.758,12.168a56.55,56.55,0,0,1,3.7,20.187c0,1.573-.112,3.146-.222,4.667-.287,4.02-.56,7.818,1.131,11.48,2.635,5.709,9.383,11.041,16.071,10.082a15.433,15.433,0,0,0,4.264-1.484l.561-.257a.989.989,0,0,1,.819,1.8l-.554.254a16.98,16.98,0,0,1-4.811,1.645,13.651,13.651,0,0,1-1.925.136" transform="translate(-474.747 -96.879)" fill="#743b2f"/>
      <path id="Trazado_38618" data-name="Trazado 38618" d="M564.968,452.587a.989.989,0,0,1-.6-1.78c.375-.281.76-.559,1.149-.84a16.677,16.677,0,0,0,4.815-4.559,26.363,26.363,0,0,0,.636-3.066l.05-.275a21.772,21.772,0,0,0,.524-7.256c-.5-4.96-3.662-8.471-7.012-12.188a41.931,41.931,0,0,1-5.286-6.73,37.935,37.935,0,0,1-4.722-14.842,73.722,73.722,0,0,1,.684-20.679,115.26,115.26,0,0,1,4.8-16.9,138.2,138.2,0,0,0,4.128-13.672C566,341.586,566,333.3,566,325.3c0-7.235,0-15.437-3.543-22.521a.989.989,0,1,1,1.77-.885c3.752,7.5,3.752,15.952,3.752,23.406,0,8.118,0,16.513-1.915,24.94a139.632,139.632,0,0,1-4.185,13.87,113.859,113.859,0,0,0-4.723,16.611,71.76,71.76,0,0,0-.666,20.116,35.986,35.986,0,0,0,4.464,14.065A40,40,0,0,0,566,421.3c3.417,3.79,6.951,7.709,7.511,13.316a23.545,23.545,0,0,1-.559,7.872l-.035.2c-.531,2.976-.727,3.474-.9,3.753a18.469,18.469,0,0,1-5.346,5.131c-.379.273-.754.544-1.118.816a.981.981,0,0,1-.593.2" transform="translate(-400.433 -217.773)" fill="#743b2f"/>
      <path id="Trazado_38619" data-name="Trazado 38619" d="M677.712,524.609a.983.983,0,0,1-.516-.146,16.026,16.026,0,0,1-6.918-7.869,21.311,21.311,0,0,1-1.731-8.41,19.338,19.338,0,0,1,.716-6.232c1.3-4.122,3.02-7.041,5.426-9.187a40.233,40.233,0,0,1,8.557-5.382,43.062,43.062,0,0,0,7.5-4.541,25.1,25.1,0,0,0,7.451-11.2c2.707-8.609,1.645-16.743.326-24.336a28.467,28.467,0,0,0-2.262-7.438c-1.3-2.627-2.822-5.174-4.292-7.637a81.825,81.825,0,0,1-5.754-10.844c-1.182-2.884-2.351-6.278-2.056-9.569a.974.974,0,0,1,1.074-.9.989.989,0,0,1,.9,1.074c-.258,2.869.825,5.979,1.917,8.643a80.3,80.3,0,0,0,5.621,10.579c1.491,2.5,3.034,5.078,4.367,7.775a30.423,30.423,0,0,1,2.439,7.976c1.36,7.833,2.451,16.237-.388,25.269a26.834,26.834,0,0,1-8.09,12.141,44.483,44.483,0,0,1-7.837,4.764,38.3,38.3,0,0,0-8.148,5.1c-2.128,1.9-3.671,4.537-4.854,8.3a17.539,17.539,0,0,0-.626,5.618,19.332,19.332,0,0,0,1.561,7.632,14.215,14.215,0,0,0,6.145,6.982.989.989,0,0,1-.519,1.833" transform="translate(-483.139 -296.958)" fill="#743b2f"/>
      <path id="Trazado_38620" data-name="Trazado 38620" d="M668.519,643.576h-.058a.991.991,0,0,1-.931-1.044c.428-7.446,5-12.534,9.419-17.454,1.414-1.572,2.875-3.2,4.177-4.878,2.526-3.258,3.517-8.559,3.827-10.687.092-.636.233-1.294.377-1.959a10.9,10.9,0,0,0,.37-4.348.989.989,0,1,1,1.934-.411,12.309,12.309,0,0,1-.371,5.177c-.134.62-.267,1.231-.353,1.825-.412,2.836-1.508,8.116-4.221,11.615-1.346,1.736-2.831,3.389-4.268,4.989-4.385,4.881-8.528,9.491-8.915,16.245a.99.99,0,0,1-.987.932" transform="translate(-482.405 -435.057)" fill="#743b2f"/>
      <path id="Trazado_38621" data-name="Trazado 38621" d="M812.746,518.725a.991.991,0,0,1-.842-.468c-6.9-11.132-16.449-18.635-31.913-25.087-1.136-.475-2.244-1-3.346-1.523a43.887,43.887,0,0,0-5.5-2.31,19.143,19.143,0,0,1-4.15-2.111,17.907,17.907,0,0,0-3.584-1.865,44.054,44.054,0,0,1-9.319-4,.989.989,0,1,1,1.035-1.684,42.418,42.418,0,0,0,8.907,3.808,19.654,19.654,0,0,1,4,2.058,17.457,17.457,0,0,0,3.711,1.91,45.866,45.866,0,0,1,5.747,2.408c1.075.51,2.154,1.021,3.262,1.484,15.662,6.535,25.789,14.514,32.832,25.869a.99.99,0,0,1-.319,1.362.98.98,0,0,1-.521.149" transform="translate(-544.623 -346.543)" fill="#743b2f"/>
      <path id="Trazado_38622" data-name="Trazado 38622" d="M880.927,798.444a3.023,3.023,0,0,1-1.473-.376c-1.807-.984-2.519-3.624-3.148-5.953a18.039,18.039,0,0,0-.721-2.31c-3.5-7.836-7.319-15.325-15.521-20.844a35.3,35.3,0,0,0-16.778-5.948,34.447,34.447,0,0,0-4.034.071,38.035,38.035,0,0,1-6.2-.01.99.99,0,0,1-.868-1.1,1,1,0,0,1,1.1-.868,36.184,36.184,0,0,0,5.866,0,35.945,35.945,0,0,1,4.286-.068,37.3,37.3,0,0,1,17.736,6.28c8.636,5.81,12.6,13.569,16.222,21.678a18.9,18.9,0,0,1,.826,2.6c.5,1.849,1.121,4.152,2.185,4.732a1.3,1.3,0,0,0,1.088.035c2.687-.858,3.315-5.139,3.731-7.972l.044-.3a27.823,27.823,0,0,0-.622-8.772c-.139-.785-.277-1.569-.4-2.346-.326-2.1-.668-4.2-1.011-6.286-.613-3.746-1.248-7.619-1.763-11.453-.841-6.236-.564-12.559-.295-18.674a129.736,129.736,0,0,0,.083-14.781c-.622-8.711-1.32-15.81-2.2-22.34-.107-.787-.271-1.579-.444-2.417a24.579,24.579,0,0,1-.594-3.947c-.507-12.876-1.343-25.116-2.555-37.423a36.825,36.825,0,0,0-.861-4.63,38.676,38.676,0,0,1-.9-4.861.989.989,0,1,1,1.968-.193,36.958,36.958,0,0,0,.856,4.612,38.728,38.728,0,0,1,.9,4.879C878.65,671.8,879.489,684.081,880,697a22.531,22.531,0,0,0,.557,3.626c.172.834.351,1.7.466,2.554.884,6.572,1.587,13.71,2.212,22.463a131.335,131.335,0,0,1-.081,15.008c-.264,6.029-.537,12.262.279,18.324.513,3.806,1.144,7.665,1.756,11.4.343,2.094.686,4.193,1.013,6.3.119.765.255,1.534.392,2.307a29.3,29.3,0,0,1,.631,9.4l-.045.3c-.457,3.118-1.222,8.335-5.085,9.571a3.855,3.855,0,0,1-1.164.192" transform="translate(-601.392 -469.07)" fill="#743b2f"/>
      <path id="Trazado_38623" data-name="Trazado 38623" d="M806.579,715.159a1.025,1.025,0,0,1-.254-.032.99.99,0,0,1-.7-1.21l.4-1.5a78.518,78.518,0,0,0,2.417-17.69,54.5,54.5,0,0,0-.9-9.228l-.043-.276a66.559,66.559,0,0,1-.577-8.271c-.065-2.343-.133-4.767-.422-7.082-1.942-15.525-4.143-33.121-.263-50.177a95.379,95.379,0,0,1,4.306-13.2l.082-.218c.911-2.379,2.041-5.341,4.1-7.229a.989.989,0,0,1,1.337,1.459c-1.718,1.573-2.714,4.177-3.592,6.476l-.084.219a93.664,93.664,0,0,0-4.223,12.931c-3.8,16.719-1.626,34.13.3,49.494.3,2.41.371,4.881.437,7.272a64.862,64.862,0,0,0,.555,8.023l.042.276a56.028,56.028,0,0,1,.921,9.565,80.632,80.632,0,0,1-2.482,18.158l-.4,1.5a.99.99,0,0,1-.956.737" transform="translate(-581.097 -432.728)" fill="#743b2f"/>
      <path id="Trazado_38624" data-name="Trazado 38624" d="M597.076,1059.882a.989.989,0,0,1-.084-1.975c1.729-.149,11.3-.8,21.434-1.481,12.507-.846,26.683-1.8,28.787-2.005,1.748-.169,3.477-.372,5.2-.576,3.233-.381,6.575-.775,9.96-.911a.965.965,0,0,1,1.028.948.988.988,0,0,1-.948,1.028c-3.31.133-6.614.523-9.808.9-1.741.206-3.487.411-5.248.579-2.13.205-16.321,1.165-28.842,2.012-10.123.684-19.686,1.33-21.4,1.477-.03,0-.058,0-.086,0" transform="translate(-430.777 -760.927)" fill="#743b2f"/>
      <path id="Trazado_38625" data-name="Trazado 38625" d="M553.124,1070.893c-.96,0-1.891-.013-2.8-.039a38.564,38.564,0,0,1-4.505-.479c-1.167-.171-2.372-.349-3.56-.426a.989.989,0,1,1,.129-1.973c1.266.081,2.513.264,3.718.442a36.419,36.419,0,0,0,4.275.459c2.25.066,4.62.047,7.247-.049a1.017,1.017,0,0,1,1.024.951.988.988,0,0,1-.952,1.025c-1.607.061-3.121.09-4.572.09" transform="translate(-391.205 -771.798)" fill="#743b2f"/>
      <path id="Trazado_38626" data-name="Trazado 38626" d="M594.641,1177.962c-1.368,0-2.734-.051-4.079-.1l-.49-.02c-3.261-.121-6.55-.34-9.733-.55l-.277-.02c-4.3-.283-85.475-19.825-90.415-21.352a.99.99,0,0,1,.585-1.891c4.555,1.409,86.027,21.009,89.961,21.269l.277.018c3.167.21,6.444.428,9.675.549l.49.018a54.039,54.039,0,0,0,7.785-.084c1.567-.174,3.134-.362,4.7-.55l1.552-.187c7.816-.929,16.531-2.47,21.014-9.049,1.8-2.64,2.617-4.882,2.569-7.05a.989.989,0,0,1,.967-1.011h.022a.989.989,0,0,1,.989.967c.075,3.418-1.627,6.323-2.912,8.209-4.954,7.264-14.168,8.919-22.416,9.9l-1.551.185c-1.572.189-3.146.378-4.719.551a36.217,36.217,0,0,1-4,.2" transform="translate(-353.352 -833.957)" fill="#743b2f"/>
      <path id="Trazado_38627" data-name="Trazado 38627" d="M392.595,978.812a.991.991,0,0,1-.856-.492,4.115,4.115,0,0,0-1.3-1.07,9.748,9.748,0,0,1-1.034-.728c-2.128-1.812-4.214-3.718-6.035-5.515-4.768-4.7-11.15-10.6-18.243-14.595a57.1,57.1,0,0,0-7.435-3.3c-1.19-.463-2.381-.927-3.562-1.428l-.425-.179a37.788,37.788,0,0,1-6.131-3.046c-.328-.215-.666-.48-1.012-.753-.837-.661-1.7-1.336-2.491-1.249a1.3,1.3,0,0,0-1.056.694,5.071,5.071,0,0,0,.12,3.905c1.5,3.3,5.663,6.278,8.9,7.649a.989.989,0,0,1-.773,1.821c-3.578-1.516-8.211-4.87-9.927-8.652a6.878,6.878,0,0,1-.045-5.69,3.259,3.259,0,0,1,2.543-1.69c1.6-.2,2.909.832,3.957,1.659.3.237.588.467.872.653a35.69,35.69,0,0,0,5.815,2.877l.428.18c1.161.493,2.336.949,3.507,1.406a59.444,59.444,0,0,1,7.689,3.425c7.3,4.107,13.8,10.124,18.66,14.909,1.788,1.763,3.838,3.637,5.93,5.417a7.622,7.622,0,0,0,.816.568,5.517,5.517,0,0,1,1.944,1.743.99.99,0,0,1-.358,1.352.976.976,0,0,1-.5.134" transform="translate(-246.209 -682.54)" fill="#743b2f"/>
      <path id="Trazado_38628" data-name="Trazado 38628" d="M238.939,1007.982H238.9c-1.31-.049-5.72-1.473-6.215-3.673-.134-.6-.1-1.727,1.629-2.629a10.506,10.506,0,0,1,3.5-.913c.472-.066.94-.129,1.387-.224a63.943,63.943,0,0,1,6.469-.892c1.065-.109,2.125-.219,3.17-.354a124.359,124.359,0,0,1,23.692-.475c1.3.077,2.582.036,3.945-.012a41.62,41.62,0,0,1,4.479.014,19.4,19.4,0,0,1,2.474.4,15.571,15.571,0,0,0,2.495.376.989.989,0,1,1-.075,1.976,17.08,17.08,0,0,1-2.817-.413,17.537,17.537,0,0,0-2.224-.361,39.928,39.928,0,0,0-4.267-.009c-1.346.045-2.739.087-4.129.009a122.022,122.022,0,0,0-23.318.462c-1.062.137-2.139.249-3.221.359a61.525,61.525,0,0,0-6.266.862c-.49.1-1,.175-1.522.247a8.877,8.877,0,0,0-2.862.707c-.534.278-.617.469-.617.471.121.668,3.16,2.054,4.363,2.1a.989.989,0,0,1-.037,1.977" transform="translate(-168.121 -721.573)" fill="#743b2f"/>
      <path id="Trazado_38629" data-name="Trazado 38629" d="M230.336,1034.966a1.007,1.007,0,0,1-.162-.013c-1.664-.273-4.872-1.856-5.339-4.034-.148-.685-.134-2.006,1.607-3.162,2.21-1.467,5.669-1.674,8.194-1.826l.5-.03c5-.314,10.165-.326,15.158-.337q1.963,0,3.914-.014a26.664,26.664,0,0,0,3.682-.377,20.813,20.813,0,0,1,5.493-.318,17.522,17.522,0,0,1,3.6.96,17.676,17.676,0,0,0,2.806.8.99.99,0,0,1-.322,1.953,19.234,19.234,0,0,1-3.128-.886,15.723,15.723,0,0,0-3.191-.864,18.813,18.813,0,0,0-4.968.311,28.656,28.656,0,0,1-3.959.4q-1.953.011-3.922.014c-4.965.012-10.1.023-15.039.333l-.509.032c-2.3.138-5.453.327-7.219,1.5-.878.583-.794.971-.767,1.1.212.988,2.313,2.264,3.725,2.5a.989.989,0,0,1-.159,1.965" transform="translate(-162.441 -740.579)" fill="#743b2f"/>
      <path id="Trazado_38630" data-name="Trazado 38630" d="M240.087,1061.575a.972.972,0,0,1-.287-.042l-.47-.139a11.143,11.143,0,0,1-2.506-.972,4.216,4.216,0,0,1-1.057-.9l-.176-.188a2.631,2.631,0,0,1-.879-2.846c.773-2.049,4.62-2.585,6.238-2.719,4.159-.349,8.5-.309,12.682-.274,2.2.02,4.393.039,6.555,0,.689-.006,1.389.022,2.1.058a14.865,14.865,0,0,0,3.905-.14.99.99,0,0,1,.441,1.929,16.229,16.229,0,0,1-4.444.187c-.668-.032-1.333-.063-1.972-.055-2.18.033-4.389.016-6.6,0-4.145-.034-8.43-.073-12.5.266-2.437.2-4.354.926-4.551,1.447-.039.106.086.393.454.776l.2.218a2.734,2.734,0,0,0,.561.515,9.5,9.5,0,0,0,2.106.8l.486.145a.989.989,0,0,1-.285,1.936" transform="translate(-169.521 -761.257)" fill="#743b2f"/>
      <path id="Trazado_38631" data-name="Trazado 38631" d="M308.682,1101.3c-1.039,0-2.077-.045-3.072-.089-.644-.028-1.261-.056-1.834-.066-8.6-.169-16.356-3.414-23.856-6.554a109.089,109.089,0,0,0-13.717-5.031,44.517,44.517,0,0,1-11.414-4.675l-.387-.24c-1.244-.762-2.654-1.625-2.885-3.055a2.846,2.846,0,0,1,.777-2.318c1.51-1.781,5.278-.712,7.773,0,.389.11.729.207.993.271a96.475,96.475,0,0,0,15.2,2.6c.468.037.955.089,1.45.143a14.127,14.127,0,0,0,4.438.041.99.99,0,0,1,.44,1.929,15.83,15.83,0,0,1-5.093,0c-.475-.052-.942-.1-1.389-.137a98.451,98.451,0,0,1-15.512-2.652c-.285-.068-.649-.172-1.066-.291-1.247-.354-5.036-1.432-5.722-.621a1.1,1.1,0,0,0-.333.725c.085.532,1.216,1.225,1.965,1.683l.406.25a41.905,41.905,0,0,0,10.874,4.44,110.54,110.54,0,0,1,13.969,5.117c7.668,3.209,14.911,6.24,23.131,6.4.587.012,1.221.039,1.882.068,2.674.117,5.995.263,8.151-.71a.989.989,0,1,1,.811,1.8,14.8,14.8,0,0,1-5.977.971" transform="translate(-181.742 -779.256)" fill="#743b2f"/>
      <path id="Trazado_38632" data-name="Trazado 38632" d="M320.528,841.53a.989.989,0,0,1-.859-1.479,8.5,8.5,0,0,0,.492-2.474,27.79,27.79,0,0,0-.249-5.9c-.618-5.261-3.752-9.631-6.736-13.21-.478-.573-.972-1.125-1.466-1.677a21.067,21.067,0,0,1-4.193-5.985c-.093-.228-.206-.471-.323-.724a7.3,7.3,0,0,1-.89-2.94.989.989,0,0,1,1.978,0,6.032,6.032,0,0,0,.706,2.109c.13.281.256.552.361.806a19.233,19.233,0,0,0,3.837,5.416c.509.568,1.019,1.138,1.511,1.729,3.169,3.8,6.5,8.471,7.181,14.246a29.922,29.922,0,0,1,.256,6.283,9.321,9.321,0,0,1-.744,3.3.991.991,0,0,1-.862.5" transform="translate(-221.358 -582.584)" fill="#743b2f"/>
      <path id="Trazado_38633" data-name="Trazado 38633" d="M250.619,854.206a8.069,8.069,0,0,1-3.148-.691c-4.7-2.1-7.627-5.458-8.452-9.719-.234-1.208-.22-4.343,1.348-5.788a2.718,2.718,0,0,1,2.667-.586.99.99,0,0,1-.532,1.906.723.723,0,0,0-.794.134c-.745.686-.963,2.841-.747,3.957.707,3.652,3.168,6.44,7.316,8.289a4.821,4.821,0,0,0,3.481.308,1.165,1.165,0,0,0,.662-.8.99.99,0,0,1,1.906.533,3.138,3.138,0,0,1-1.727,2.053,4.657,4.657,0,0,1-1.981.4" transform="translate(-172.654 -605.096)" fill="#743b2f"/>
      <path id="Trazado_38634" data-name="Trazado 38634" d="M231.539,768a.989.989,0,0,1-.8-1.57,6.48,6.48,0,0,0,.859-6.368c-1.971-5.353-9.971-10.7-15.918-12.14a19.946,19.946,0,0,0-8.744,0,.99.99,0,0,1-.443-1.929,21.694,21.694,0,0,1,9.655,0c5.7,1.384,14.886,6.805,17.306,13.379a8.462,8.462,0,0,1-1.113,8.212.99.99,0,0,1-.8.408" transform="translate(-148.673 -538.719)" fill="#743b2f"/>
      <path id="Trazado_38635" data-name="Trazado 38635" d="M275.763,791.835a.989.989,0,0,1-.913-1.37c1.66-3.981-.277-8.673-2.934-11.558a.989.989,0,0,1,1.456-1.34c3.083,3.347,5.3,8.87,3.3,13.66a.991.991,0,0,1-.913.608" transform="translate(-196.318 -561.698)" fill="#743b2f"/>
      <path id="Trazado_38636" data-name="Trazado 38636" d="M266.113,794.8a.969.969,0,0,1-.286-.042.989.989,0,0,1-.661-1.233,10.981,10.981,0,0,0,.163-6.773.99.99,0,1,1,1.929-.443,12.916,12.916,0,0,1-.2,7.788.989.989,0,0,1-.946.7" transform="translate(-191.597 -567.689)" fill="#743b2f"/>
      <path id="Trazado_38637" data-name="Trazado 38637" d="M213.236,833.534a.989.989,0,0,1-.781-.381c-2.23-2.866-2.061-6.07-1.9-9.169.03-.561.059-1.124.075-1.687.164-6.085-.555-10.269-2.48-14.439-.105-.23-.222-.5-.35-.791-.73-1.675-2.086-4.791-3.594-4.791a.989.989,0,1,1,0-1.978c2.8,0,4.371,3.6,5.407,5.98.121.278.232.533.333.751,2.552,5.53,2.787,10.632,2.66,15.323-.015.58-.046,1.159-.076,1.737-.151,2.863-.294,5.567,1.483,7.849a.989.989,0,0,1-.78,1.6" transform="translate(-146.862 -578.354)" fill="#743b2f"/>
      <path id="Trazado_38638" data-name="Trazado 38638" d="M254.606,917.5a7.013,7.013,0,0,1-5.235-2.97.989.989,0,1,1,1.592-1.174c1.037,1.4,2.964,2.555,4.381,2.041a.99.99,0,0,1,.67,1.863,4.151,4.151,0,0,1-1.408.241" transform="translate(-180.074 -659.771)" fill="#743b2f"/>
      <path id="Trazado_38639" data-name="Trazado 38639" d="M251.221,944.1h-.052c-.632-.032-1.17-.041-1.648-.05a8.585,8.585,0,0,1-4.633-1.012.989.989,0,0,1,.928-1.747,6.7,6.7,0,0,0,3.74.781c.5.009,1.057.019,1.713.053a.989.989,0,0,1-.049,1.977" transform="translate(-176.595 -680.162)" fill="#743b2f"/>
      <path id="Trazado_38640" data-name="Trazado 38640" d="M199.378,960.78c-.039,0-.079,0-.119-.006-5.21-.625-9.253-2.88-11.692-6.525a.989.989,0,0,1,1.645-1.1c2.662,3.98,7.061,5.274,10.283,5.659a.989.989,0,0,1-.116,1.972" transform="translate(-135.429 -688.499)" fill="#743b2f"/>
      <path id="Trazado_38641" data-name="Trazado 38641" d="M190.443,990.4c-3.427,0-6.9-1.048-8.929-3.443a.99.99,0,0,1,1.509-1.28c2.583,3.047,8.516,3.408,12.436,1.837a.989.989,0,1,1,.737,1.836,15.752,15.752,0,0,1-5.753,1.05" transform="translate(-131.006 -712.07)" fill="#743b2f"/>
      <path id="Trazado_38642" data-name="Trazado 38642" d="M106.106,810.224a.987.987,0,0,1-.767-.364,36.944,36.944,0,0,1-6.345-10.878,49.635,49.635,0,0,1-3-12.567,21.746,21.746,0,0,1,1-7.184l.239-.944c1.971-7.96,7.017-15.391,14.6-21.492,3.684-2.969,7.735-5.872,12.394-7a.989.989,0,1,1,.466,1.921c-4.281,1.039-8.114,3.8-11.619,6.621-7.239,5.828-12.051,12.891-13.916,20.427l-.242.958a20.336,20.336,0,0,0-.951,6.5,47.745,47.745,0,0,0,2.895,12.085,34.982,34.982,0,0,0,6.017,10.3.99.99,0,0,1-.766,1.615" transform="translate(-69.335 -541.837)" fill="#743b2f"/>
      <path id="Trazado_38643" data-name="Trazado 38643" d="M235.677,952.245a.988.988,0,0,1-.907-1.382,9.107,9.107,0,0,0,.457-2.129,14.582,14.582,0,0,1,.353-1.912,19.672,19.672,0,0,1,3.662-6.666c4.19-4.969,11.348-10.764,18.868-12.127a40.68,40.68,0,0,1,17.844.923c4.89,1.251,10.49,2.9,15.078,6.666a.989.989,0,0,1-1.254,1.53c-4.275-3.51-9.63-5.082-14.313-6.28a38.845,38.845,0,0,0-17-.893c-7,1.268-13.74,6.749-17.708,11.455a17.777,17.777,0,0,0-3.271,5.931,12.878,12.878,0,0,0-.3,1.645,10.32,10.32,0,0,1-.6,2.642.988.988,0,0,1-.908.6" transform="translate(-169.603 -670.231)" fill="#743b2f"/>
      <path id="Trazado_38644" data-name="Trazado 38644" d="M431.993,906.647h-.014a.989.989,0,0,1-.975-1c.067-4.557.587-9.155,1.092-13.6a115.02,115.02,0,0,0,1.062-16.133.991.991,0,0,1,.961-1.018,1,1,0,0,1,1.017.961,116.555,116.555,0,0,1-1.075,16.412c-.5,4.4-1.014,8.948-1.079,13.407a.989.989,0,0,1-.989.975" transform="translate(-311.475 -632.262)" fill="#743b2f"/>
      <path id="Trazado_38645" data-name="Trazado 38645" d="M489.754,907.172a.99.99,0,0,1-.719-1.668c2.045-2.166,3.185-6.033,3.39-11.493.293-7.745-1.521-14.887-3.441-22.45l-.392-1.543c-.348-1.379-.662-2.79-.979-4.208a70.982,70.982,0,0,0-2.357-8.8.989.989,0,0,1,1.857-.68,71.935,71.935,0,0,1,2.43,9.049c.313,1.4.622,2.792.967,4.154l.391,1.54c1.956,7.7,3.8,14.983,3.5,23.012-.222,5.953-1.543,10.252-3.928,12.776a.985.985,0,0,1-.719.31" transform="translate(-350.638 -618.379)" fill="#743b2f"/>
      <path id="Trazado_38646" data-name="Trazado 38646" d="M393.329,801.365a.986.986,0,0,1-.663-.256,34.072,34.072,0,0,0-6.019-4.017,44.617,44.617,0,0,1-5.124-3.242c-.852-.656-3.541-2.939-2.425-4.809,1.325-2.218,4.535-1.308,6.661-.7.526.148,1.023.29,1.345.341a8.3,8.3,0,0,0,1.267.106,10.294,10.294,0,0,0-.772-1.685c-.215-.405-.427-.81-.61-1.225-.832-1.9-1.81-3.67-2.845-5.537l-.958-1.73c-.8-1.411-2.142-3.774-.446-5.541,1.633-1.7,3.745.218,4.541.942a26.163,26.163,0,0,1,2.571,2.781c.406.487.814.976,1.253,1.46.16.176.34.368.532.571,1.133,1.2,2.543,2.7,2.937,4.264a.989.989,0,1,1-1.919.482c-.268-1.066-1.533-2.408-2.457-3.388-.2-.213-.389-.413-.558-.6-.457-.505-.883-1.015-1.307-1.522a24.079,24.079,0,0,0-2.307-2.517c-1.371-1.244-1.748-1.216-1.858-1.1-.623.65-.007,1.882.739,3.2l.967,1.747c1.013,1.826,2.059,3.714,2.929,5.7.161.369.353.73.545,1.091a8.91,8.91,0,0,1,1.114,2.891,1.341,1.341,0,0,1-.384,1.164c-.2.2-.814.8-3.285.4a14.8,14.8,0,0,1-1.573-.391c-1.453-.41-3.875-1.1-4.423-.186a5.529,5.529,0,0,0,1.933,2.228,42.5,42.5,0,0,0,4.9,3.091,35.449,35.449,0,0,1,6.364,4.269.989.989,0,0,1-.663,1.722" transform="translate(-273.771 -558.183)" fill="#743b2f"/>
      <path id="Trazado_38647" data-name="Trazado 38647" d="M415.457,780.011a.989.989,0,0,1-.894-.563,7.327,7.327,0,0,0-1.189-1.49c-.234-.252-.458-.491-.641-.713-.241-.289-.466-.58-.691-.87-.308-.4-.614-.8-.968-1.186l-.115-.125c-1-1.086-3.632-3.97-5.327-3.8-.265.027-.664.143-1.079.837a.989.989,0,0,1-1.7-1.015,3.36,3.36,0,0,1,2.576-1.79c2.648-.264,5.586,2.906,6.986,4.433l.113.124c.4.43.737.872,1.079,1.318.209.27.419.542.643.811.162.2.361.407.567.628a8.581,8.581,0,0,1,1.529,1.988.989.989,0,0,1-.891,1.415" transform="translate(-291.032 -555.939)" fill="#743b2f"/>
      <path id="Trazado_38648" data-name="Trazado 38648" d="M432.953,780.349A.989.989,0,0,1,432,779.6a6.094,6.094,0,0,0-1.533-2.278c-.206-.231-.408-.456-.6-.68l-.275-.33c-2.074-2.495-4.024-4.855-7.143-4.064a.99.99,0,1,1-.484-1.919c4.324-1.088,7,2.132,9.148,4.719l.273.327c.171.206.358.414.547.623a7.628,7.628,0,0,1,1.981,3.12.989.989,0,0,1-.719,1.2.949.949,0,0,1-.242.03" transform="translate(-304.402 -556.54)" fill="#743b2f"/>
      <path id="Trazado_38649" data-name="Trazado 38649" d="M456.919,797.563a.989.989,0,0,1-.989-.989c0-6.37-1.69-11.325-5.165-15.148l-.16-.176c-.761-.842-2.786-3.077-3.756-2.433a.989.989,0,1,1-1.1-1.646c2.4-1.6,5.048,1.342,6.321,2.752l.155.171c3.823,4.2,5.68,9.594,5.68,16.479a.989.989,0,0,1-.989.989" transform="translate(-321.815 -561.308)" fill="#743b2f"/>
      <path id="Trazado_38650" data-name="Trazado 38650" d="M521.564,1033.482a.989.989,0,0,1-.886-.547,15.144,15.144,0,0,0-1.873-2.635c-.419-.511-.833-1.019-1.2-1.529a68.89,68.89,0,0,0-7.532-8.849.989.989,0,0,1,1.4-1.4,70.717,70.717,0,0,1,7.743,9.1c.34.477.726.948,1.118,1.426a16.566,16.566,0,0,1,2.111,3,.989.989,0,0,1-.884,1.431" transform="translate(-368.41 -735.851)" fill="#743b2f"/>
      <path id="Trazado_38651" data-name="Trazado 38651" d="M550.848,1302.172a.989.989,0,0,1-.09-1.974c4.393-.406,8.3-2.044,13.051-5.475q.709-.512,1.434-1.024a51.868,51.868,0,0,0,6.178-4.877.989.989,0,1,1,1.38,1.417,53.414,53.414,0,0,1-6.413,5.073l-1.422,1.016c-5.062,3.652-9.255,5.4-14.026,5.841-.031,0-.062,0-.093,0" transform="translate(-397.369 -931.196)" fill="#743b2f"/>
      <path id="Trazado_38652" data-name="Trazado 38652" d="M571.093,1017.086a1.029,1.029,0,0,1-.3-.046.99.99,0,0,1-.641-1.244c.722-2.26,2.645-4.415,4.343-6.318.76-.851,1.477-1.656,2.041-2.41a52.685,52.685,0,0,1,9.759-9.782c3.792-3.027,10.8-2.765,15.441-2.592l1.222.042c8.628.267,17.667,1.962,26.185,3.674,3.689.743,8.475,1.508,12.792.839a.989.989,0,1,1,.3,1.955c-4.624.72-9.635-.078-13.486-.854-8.436-1.7-17.381-3.375-25.857-3.636l-1.234-.044c-4.344-.164-10.916-.408-14.134,2.161a50.878,50.878,0,0,0-9.409,9.421c-.614.822-1.36,1.658-2.15,2.542-1.642,1.841-3.34,3.743-3.933,5.6a.992.992,0,0,1-.943.687" transform="translate(-411.998 -718.773)" fill="#743b2f"/>
      <path id="Trazado_38653" data-name="Trazado 38653" d="M851.715,984.282a.976.976,0,0,1-.527-.153.988.988,0,0,1-.308-1.364,5.57,5.57,0,0,0,.564-1.62c.048-.2.091-.388.138-.547a18.733,18.733,0,0,0,.412-4.879v-.245A28.021,28.021,0,0,1,853,969.017a21.185,21.185,0,0,0,.886-7.2c-.133-1.19-.442-3.977-1.849-4.6-.556-.242-1.112.343-1.933,1.528l-.285.4a32.022,32.022,0,0,0-2.475,4.269c-1.422,2.76-2.893,5.613-5.484,7.464a.989.989,0,0,1-1.149-1.61c2.2-1.573,3.5-4.092,4.875-6.759a33.745,33.745,0,0,1,2.639-4.534l.254-.36c.713-1.028,2.2-3.166,4.362-2.207,2.445,1.086,2.827,4.535,3.01,6.191a22.98,22.98,0,0,1-.926,7.873,26.129,26.129,0,0,0-.955,6v.243a20.182,20.182,0,0,1-.489,5.425c-.038.134-.074.288-.113.457a7.186,7.186,0,0,1-.818,2.222.986.986,0,0,1-.838.461" transform="translate(-607.263 -690.276)" fill="#743b2f"/>
    </g>
  </g>
</svg>
