<svg xmlns="http://www.w3.org/2000/svg" xmlns:xlink="http://www.w3.org/1999/xlink" width="395.837" height="392.165" viewBox="0 0 395.837 392.165">
  <defs>
    <clipPath id="clip-path">
      <rect id="Rectángulo_3804" data-name="Rectángulo 3804" width="395.837" height="392.165" fill="none"/>
    </clipPath>
  </defs>
  <g id="Grupo_16573" data-name="Grupo 16573" transform="translate(0 0.005)">
    <g id="Grupo_16572" data-name="Grupo 16572" transform="translate(0 -0.005)" clip-path="url(#clip-path)">
      <path id="Trazado_38125" data-name="Trazado 38125" d="M933.664,147.932a6.808,6.808,0,0,1,2.957-2.343c1.519-.65,4.053-.74,5.531-.922,10.074-1.237,18.209,5.364,25.734,10.909,7.132,5.255,14.831,10.183,18.744,18.59,1.32,2.835,1.747,5.911,2.458,8.912a55.451,55.451,0,0,0,3.917,10.908,44.173,44.173,0,0,0,4.072,6.914c1.781,2.423,4.357,4.728,5.454,7.6.728,1.91.174,3.362.077,5.225a94.61,94.61,0,0,0,.231,9.679,13.916,13.916,0,0,1,.307,3.073c-.4,2.183-4.43,3.022-6.146,3.687-3.1,1.2-6.519,1.652-9.526,3.073-1.409.667-2.67,1.618-4.071,2.305-2.759,1.351-5.757,2.149-8.6,3.3a31.461,31.461,0,0,0-3.841,2.381c-1.67.987-3.474,1.725-5.07,2.842-2.692,1.884-5.335,4.746-7.759,6.914-2.359,2.111-6.025,5.774-9.162,6.915-4.486,1.631-3.615-5.263-4.444-7.957-1.308-4.253-2.695-8.636-6.924-10.7-2.852-1.389-7.242-.625-10.35-.4-3.8.275-5.991-.748-9.181-3.606-4.83-4.329-1.266-10.8-1.126-13.916.214-4.76.31-20.3-2.986-21.711-3.437-1.469-5.753-1.987-5.97-5.43-.273-4.338,10.446-10.388,12.235-15.151,2.192-5.831.609-12.5,6.158-20.625,1.732-2.536,4.488-6.915,7.285-10.479" transform="translate(-660.045 -105.052)" fill="#feede5" fill-rule="evenodd"/>
      <path id="Trazado_38126" data-name="Trazado 38126" d="M647,1120.833c1.164,4.534,1.813,6.23,3.716,9.263,4.382,6.989,7.677,13.452,14.15,18.68a78.024,78.024,0,0,0,13.335,8.7c.734.366,2.843,1.161,3.308,1.426,1.171.662-1.883,2.646-5.14,4.173a177.346,177.346,0,0,1-16.95,6.618c-3.328,1.19-8.836,2.642-12.289,3.435-9.86,2.266-20.89,4.436-28.031,7.838-6.629,3.158-12.622,7.776-19.042,11.27-8.352,4.547-16.757,6.573-26.383,8.661-8.736,1.9-17.368,3.242-22.766-.051-.852-.521-2.242-2.6,1.787-4.331.495-.213,9.948-1.231,11.88-1.845,3.546-1.129,11.157-5.7,7.867-4.864-1.614.41-4.711,1.449-9.311,2.816s-15.472,4.376-18.51,3.986c-.813-.1-3.2-.75-3.98-2.3-.7-1.377.5-3.757,2.125-5.645.689-.8-.532-.548-2.521-1.195-2.067-.672-2.822-3.048-.872-5.995.8-1.216,9.386-6.16,12.73-7.547.7-.289,3.828-1.556,3.048-1.961s-5.067,1.171-8.233,1.626c-2.327.334-6.964.113-8.151-.76-2.117-1.556-.251-3.537,1.424-4.544a36.831,36.831,0,0,1,8.594-3.9c1.175-.351,6.813-2.3,8.838-3.076,3.036-1.174,17.114-6.051,19.575-7.454.879-.5,2.815-2.48,2.36-3.215-1.035-1.671-4.767-1.834-7.273-2.816-7.36-2.886-10.736-9.156-8.434-11.8,1.947-2.242,7.7,1.653,9.449,2.508,2.208,1.076,7.554,2.328,9.517,2.729,3.565.726,13.107,1.437,15.228,1.867,4.577.927,10.085,5.116,11.867,5.789.335.126,3.332,1.489,10.293-3.556,11.929-8.642,13.9-12.525,18.876-17.926,1.87-2.028,7.416-8.568,7.92-6.605" transform="translate(-390.962 -814.508)" fill="#feede5" fill-rule="evenodd"/>
      <path id="Trazado_38127" data-name="Trazado 38127" d="M704.748,260.755c13.481,1.156,13.957,16.586,17.776,26.322,2.207,5.63,7.555,9.283,8.631,15.384a20.53,20.53,0,0,1-4.529,16.408c-2.13,2.381-5.226,3.261-7.435,5.47-2.443,2.442-3.98,6.582-5.641,9.572a52.1,52.1,0,0,0-4.615,10.939,25.119,25.119,0,0,0-1.11,6.837c0,3,1.863,7.458-.171,10.17-1.437,1.914-4.315,2.5-6.41,3.247-1.783.637-3.645,1.126-5.47,1.623-3.615.986-7.1,1.251-10.6,2.565-2.5.938-4.723,2.761-7.349,3.418-1.358.34-2.356-.685-3.645.431-.827.718-1.868,1.729-3.354,2.837a8.853,8.853,0,0,1-2.006.933c-.24-.06.917-3.61.972-3.774.69-2.075,1.762-3.556,2.036-5.748.763-6.1,1.109-10.882.275-16.994-.484-3.54-2.481-9.829-3.767-11.39a12.483,12.483,0,0,0-3.04-2.875c-2.274-1.231-5.169-1.415-7.481-2.572a7.887,7.887,0,0,1-3.294-3.346c-.7-1.549-.435-4.865-.213-6.505.952-7.057,5.319-11.785,6.1-19.033a19.881,19.881,0,0,0-1.465-9.991c-1.2-2.392-1.635-3.92-.341-5.212,2.307-2.308,8.2-1.8,12.221-5.129s7.249-11.6,12.99-16.066a47.366,47.366,0,0,1,10.511-6.324,25,25,0,0,1,10.427-1.2" transform="translate(-475.466 -189.479)" fill="#feede5" fill-rule="evenodd"/>
      <path id="Trazado_38128" data-name="Trazado 38128" d="M350.875,54.686c-1.86-1.117-3.658-3.809-5.084-5.509-8.211-9.8-3.743-29.5,8.866-38.959A30.489,30.489,0,0,1,359.23,6.86c1.653-.827,2.729-1.65,4.432-2.38,4.406-1.888,11.674-1.961,16.316-1.153a43.084,43.084,0,0,1,13.592,5.119c6.079,3.648,9.872,8.713,13.617,14.6,1.419,2.229,1.865,2.944,3.133,7.937,2.24,8.818-.862,11.266-1.119,17.17-.212,4.855,1.884,8.841.792,13.67-.788,3.489-2.05,5.309-4.106,8.259-1.67,2.4-3.533,4.817-5.226,7.185-.906,1.269-4.012,6.3-7.511,6.859-8.925,1.428-14.333-5.156-20.4-11.228-4.326-4.325-8.963-8.357-13.69-12.226a66.7,66.7,0,0,0-8.18-5.984" transform="translate(-248.346 -2.062)" fill="#feede5" fill-rule="evenodd"/>
      <path id="Trazado_38129" data-name="Trazado 38129" d="M458.489,431.9c.321-.343,1.14-.06,1.631-.284a21.331,21.331,0,0,0,5.075-3.057,13.74,13.74,0,0,0,2.81-3.172c.191-.3.7-1.483,1.11-1.54.28-.041.355.866.385,1.019a8.612,8.612,0,0,1,.113,3.511c-.279,1.469-.351,3.778-1.4,4.962-.4.446-1.166.547-1.473,1.02a14.28,14.28,0,0,1-2.265,3.149c-.765.679-1.418.269-2.289.5-.531.14-1.177.8-1.767.7-.329-.055-.536-.429-.839-.5-.472-.109-.872.339-1.337.045-1.695-1.07-.594-3.333-.227-4.8.123-.493.123-1.176.476-1.551" transform="translate(-332.444 -308.105)" fill="#feede5" fill-rule="evenodd"/>
      <path id="Trazado_38130" data-name="Trazado 38130" d="M789.367,242.973a8.131,8.131,0,0,1,1.553-4.428c5.123-6.765,11.582-6.447,18.228-4.7,1.9.5,4.281.443,5.972.735,2.342.4,4.705.209,7,.9,4.1,1.227,6.336,2.871,9.29,4.841.958.639,2.438,1.905,2.438,3.206,0,1.239-2.442,3.3-3.185,4.131-2.672,3.006-8.44,6.3-8.882,10.722-.417,4.183,6.016,3.427,7.314,6.543,2.032,4.876,1.792,11.773,1.792,16.854,0,1.874-.555,2.406-1.118,4.215-.2.638-.353.949-.469,1.4-.052.2-.264.751-.312.547-.372-1.589-.252-3.732-2.186-5.934-3.874-4.41-10.168,1.611-14.6,0a14.57,14.57,0,0,1-4.823-2.535,18.325,18.325,0,0,1-4.233-6.756c-1.7-4.592-.405-9.255-.091-15.047.256-4.713.536-10.325-1.471-13.838a6.272,6.272,0,0,0-4.06-3.044c-2.263-.358-4.35.917-6.246,1.951-.422.23-1.94.872-1.913.234" transform="translate(-573.819 -169.214)" fill="#d8aaa6" fill-rule="evenodd"/>
      <path id="Trazado_38131" data-name="Trazado 38131" d="M848.273,435.086c0,.113-.477-3.176-.031-3.1a12.351,12.351,0,0,0,4.255-.072c2.883-.443,6.505-2.421,8.877-4.081a10.547,10.547,0,0,0,2.927-3.925c.055-.109,2.513-8.327,2.555-8.3.177.117.031,6.656,0,6.758a13.862,13.862,0,0,0-.861,3.778c-.168,3.531.8,5.115,3.513,7.356,6.1,5.036,14.7-.277,18.868,3.176,1.607,1.332-1.6,5.216-2.194,6.319a58.731,58.731,0,0,0-6.385,20.95c-.522,4-1.265,10.766-.865,14.764a49.1,49.1,0,0,0,1.263,7.913c.339,1.387,1.128,3.247.666,4.922a35.929,35.929,0,0,1-1.079,3.781,15.28,15.28,0,0,0-.791,2.885c-.237,1.3-.2,2.087-.83,2.609-.426.355-1.255-.7-1.291-.829a40.554,40.554,0,0,0-1.529-4.388,19.1,19.1,0,0,0-.732-1.929,29.267,29.267,0,0,0-9.444-10.774,77.237,77.237,0,0,1-7.648-6.052c-1.519-1.322-2.98-2.856-4.988-3.458-2.153-.647-5.024.107-6.984,1-.579.264-2.781,1.621-3.458,1.2-1.6-1-2.007-3.7-2.262-5.321-1.277-8.173,3.916-14.421,6.252-22.014a62.626,62.626,0,0,0,2.128-8.911c.116-.845.016-2.4.067-3.258.019-.332,0-1,0-1" transform="translate(-610.355 -302.124)" fill="#d8aaa6" fill-rule="evenodd"/>
      <path id="Trazado_38132" data-name="Trazado 38132" d="M1005.761,100.372a10.7,10.7,0,0,0-3.827.115c-.2.057-1.125.481-1.3.306s.077-1.291.077-1.454a18.693,18.693,0,0,0-.14-4.016c-1.128-4.752.19-8.323,5.358-12.428a15.962,15.962,0,0,1,3.046-1.843,20.526,20.526,0,0,1,8.433-1.691c2.2.076,7.785.3,12.541.3,6.784,0,14.96-.675,21.627.84,7.387,1.679,15.058,4.984,20.4,10.325,1.859,1.859,3.6,5.661,5,7.933a34.651,34.651,0,0,1,5.493,14.021c1.578,7.94,1.317,18.433-.062,26.4-1.414,8.171-3.763,13.433-5.421,21.519-.368,1.789-.785,6.2-1.1,8.328-.1.712.42,1.549-.179,2.222-1.687,1.9-6.352,1.546-9.581.794-7.556-1.762-14.793-6.109-17.285-13.663-1.49-4.518-2.562-10.383-1.935-15.021.5-3.688,1.887-7.513.323-11.088-1.341-3.065-5.385-4.358-9.445-2.933-2.377.835-2.876,3.437-4.544,4.643-.486.35-2.966,1.418-3.321.837s.095-3.408-.032-4.706a21.675,21.675,0,0,0-1.193-5.641c-1.059-2.914-4.093-5.06-5.705-7.735-2.793-4.636-6.209-8.462-9.693-12.527a12.586,12.586,0,0,0-7.527-3.843" transform="translate(-727.079 -57.683)" fill="#fee1c5" fill-rule="evenodd"/>
      <path id="Trazado_38133" data-name="Trazado 38133" d="M672.438,428.677c-.351-.794.507-2.285.649-3.2.031-.2,0-.963.138-1.1.172-.173.469.145.69.248a12.689,12.689,0,0,0,2.569.913c.993.242,2.164.348,3.149.579.292.069.908.056,1.05.388.415.967-1.4,1.707-1.934,1.961a6.461,6.461,0,0,1-1.989.47c-1.244.177-4.006.47-4.324-.249" transform="translate(-488.758 -308.451)" fill="#fcd5cb" fill-rule="evenodd"/>
      <path id="Trazado_38134" data-name="Trazado 38134" d="M939.552,373.038c-.644-.023-.218-1.61-.218-2.327a29.83,29.83,0,0,0-.443-4.764c-.053-.355-.4-1.885-.2-2.187.1-.146,1.5.061,1.59.066a14.672,14.672,0,0,0,2.8-.191c1.077-.075,3.074-.742,3.882-.149,1.172.859.568,3.49.076,4.508a8.906,8.906,0,0,1-4.284,4.133,7.772,7.772,0,0,1-3.2.911" transform="translate(-682.322 -264.053)" fill="#fcd5cb" fill-rule="evenodd"/>
      <path id="Trazado_38135" data-name="Trazado 38135" d="M954.061,497.152c.44-1.874,2.3-5.479,2.533-6.64.876-4.38-.553-8.813,3.01-12.54,2.138-2.237,3.52-2.532,8.514-5.908,4.031-2.725,11.337-7.46,16.232-10.646,6.786-4.417,10.418-5.9,17.711-10.874,3.69-2.517,15.459-7.43,20.485-5.086,3.694,1.724,3.042,8.632,4.63,13.344a23.875,23.875,0,0,0,5.5,8.418,78.9,78.9,0,0,1,9.055,10.506c3,4.022,5.118,7.506,8.457,12.828,4.573,7.286,8.208,12.712,10.03,20.965.647,2.932,1.879,6.625,2.376,10.3.547,4.021.249,7.048.678,10.105.88,6.28,2.215,9.622,2.912,15.883.8,7.188.593,17.752.145,26.1-.35,6.518-.772,13.647-.886,20.193-.141,8.076.676,16.854.962,25.259.363,10.66.005,18.126.005,28.908,0,13.838.318,26.209,2.239,37.645.463,2.758,1.864,10.523,2.325,13.286.669,4.021,1.688,8.2,2.228,11.214.076.428.981,3.654.647,3.99-.491.491-137.042,1.825-137.486.693-1.072-2.727-.2-6.238-.241-11.62-.04-4.776.09-12.338.179-16.646.066-3.153-1.256-4.577,1.66-5.519,2.013-.65,2.5-.7,4.532-1.3,2.871-.852,4.755-1.391,8.7-2.737,3.481-1.187,5.9-2.266,9.331-3.679,1.85-.761,9.154-3.947,9.378-5.294.148-.895-5.264-2.547-6.022-3.045-1.231-.807-3.406-1.99-4.673-2.743-6.862-4.084-12.46-9.944-17.433-17.553-4.178-6.391-6.812-12.384-7.693-20.022-1.331-11.533.789-24.229,1.408-37.754.783-17.1,5.3-41.385,10.239-61.958,1.7-7.07,3.988-14.462,5.9-20.977.713-2.431.922-3.118,1.5-4.854.064-.19.857-1.939.927-2.236" transform="translate(-678.711 -323.37)" fill="#fff" fill-rule="evenodd"/>
      <path id="Trazado_38136" data-name="Trazado 38136" d="M441.776,406.6c-.379-1.325,2.668-2.952,4.045-4.636a17.966,17.966,0,0,1,4.046-3.428c1.462-.956,1.608-1.216,2.529-1.742.277-.158,1.044-1.6,1.4-1.46a9.4,9.4,0,0,1,2.472,1.742c.668.583,2.083,1.554,2.192,2.528.5,4.516-3.541,8.311-7.136,10-1.014.477-4.261,2.034-5.114,1.18-1.462-1.462-4.271-3.6-4.439-4.187" transform="translate(-321.119 -287.372)" fill="#fff" fill-rule="evenodd"/>
      <path id="Trazado_38137" data-name="Trazado 38137" d="M212.106,402.006c1.011-3.365,5.285-1.518,7.389-.775a27.139,27.139,0,0,1,2.562.953c.679.32,1.384.622,2.085.895.919.358,1.844.647,2.741,1.072a35.987,35.987,0,0,1,4.349,2.5c1.171.753,2.771,2.014,3.932,2.74,5.22,3.262,9.4,5.834,12.513,11.023a16.275,16.275,0,0,1,2.2,6.554c.108,1.736.12,3.157.178,5.958.026,1.2.566,3.022.036,4.08-.152.306-2.677-1.5-2.836-1.637-.8-.671-1.953-.958-2.775-1.605-3.646-2.864-7.05-7.481-10.631-10.431a112.491,112.491,0,0,0-13.584-9.652c-5.3-3.4-8.878-4.708-10.009-5.779-.9-.855,1.461-4.615,1.846-5.9" transform="translate(-152.697 -290.812)" fill="#fff" fill-rule="evenodd"/>
      <path id="Trazado_38138" data-name="Trazado 38138" d="M288.257,358.179c-.429-.43-1.823-3.854-2.744-5.389-1.533-2.555-4.271-4.017-5.686-6.744-1.589-3.063-2.778-6.422-4.5-9.389-1.839-3.175-4.785-5.1-7.075-7.933a28.3,28.3,0,0,1-3.9-6.876c-.421-.972-1.129-3.035-.463-4.1s2.259-.786,3.306-.066c1.716,1.179,2.539,3,4.033,4.429a67.8,67.8,0,0,0,5.685,4.826c1.072.834,2.568,1.968,3.7,2.711.371.243,1.075.6,1.256.2.529-1.191-1.224-2.411-1.786-3.042-3.474-3.9-7.156-7.49-9.322-12.363-.577-1.3-1.373-3.82.594-4.7a1.115,1.115,0,0,1,1.522.6,36.406,36.406,0,0,0,5.554,7.6c4.043,4.3,7.4,9.176,11.437,13.487,2.269,2.424,5,4.584,7.405,6.877a52.594,52.594,0,0,0,7.6,6.611c.773.495,3.131,1.652,4.1,1.124a5.582,5.582,0,0,0,2.05-1.652c.1-.153.4-1.158.728-1.058.973.291,1.59,1.281,2.248,1.982.527.563,1.872,1.252,2.116,1.984a9.659,9.659,0,0,1-.4,6.017c-.284.739-.778,2.461-1.652,2.71-1.187.34-2.735-.247-3.835-.462-1.588-.313-3.348-.607-4.958-.794a29.462,29.462,0,0,0-9.785.264c-1.586.318-3.206.182-4.7.926-1.089.546-2.116,2.645-2.546,2.215" transform="translate(-191.635 -225.08)" fill="#feede5" fill-rule="evenodd"/>
      <path id="Trazado_38139" data-name="Trazado 38139" d="M456.878,311.994c-.471.236-.608-.345-.925-.662a36.933,36.933,0,0,0-3.107-3.042c-1.286-1.009-3.015-1.017-3.637-2.776a10.577,10.577,0,0,1-.2-3.439c0-4.41,2.116-10.247,4.959-12.363a5.784,5.784,0,0,1,2.248-.992c1.493-.187,2.387,1.449,2.314,2.71-.14,2.37-1.509,4.465-1.786,6.811-.341,2.9.191,5.9.4,8.793.082,1.166,1.079,4.286-.265,4.959" transform="translate(-326.371 -209.87)" fill="#feede5" fill-rule="evenodd"/>
      <path id="Trazado_38140" data-name="Trazado 38140" d="M249.186,264.88c-4.239-5-11.3-8.316-16.321-11.069a34.144,34.144,0,0,0-5.459-2.5,22.89,22.89,0,0,0-6.067-1.672c-.786-.112-2.35.3-2.455-.685-.173-1.657,3.5-6.012,4.928-7.99,1.974-2.741,4.267-9.95,5.805-12.936,3.045-5.912,2.553-8.457,5.589-14.368,1.921-3.742,4.621-5.845,7.526-8.824a47.938,47.938,0,0,1,7.155-6.453c3.775-2.573,7.874-6.159,12.61-5.011a35.391,35.391,0,0,1,7.273,2.467c1.631.764,4.843,1.907,6.544,2.5,4.149,1.46,6.447,3.261,9.792,6.968,2.533,2.807,6.265,9.713,7.819,13.267.811,1.854,2.466,2.86,2.2,4.866-.244,1.842-.914,6.309-1.221,10.186-.341,4.31-.309,7.977-.339,8.31-.146,1.607-.212,5.33-2.665,5.33-.227,0-.518-1.218-.562-1.473-.29-1.744-1.388-3.08-1.473-4.841-.272-5.725-.724-11.68.351-17.323.249-1.307.68-4.075-1.333-4.209-2.567-.171-3.571,2.169-4.71,4.048-2.128,3.511-2.432,9.722-2.167,11.115.646,3.38,1.45,2.63,3.935,4.42,1.442,1.038,4.614,4.237,5.228,5.9.7,1.888.591,3.838-.862,5.09-2.456,2.115-8.479,6.052-9.928,8.669a5.706,5.706,0,0,1-4.994,3.409c-3.129.313-7.115-4.036-9.188-6.073-2.72-2.672-8.09-7.6-12.586-12.139-2.273-2.3-6.223-6.1-7.972-9.077s-3.21-4.686-4.239-8.069c-.485-1.595-1.509-1.779-2.806-1.347-1.941.647-1.063,2.649-.571,3.844,1.839,4.467,5.012,6.866,7.8,10.693.763,1.049,2.331,2.674,2.994,3.779.067.113.351,1.375.17,1.594-.48.575-5.193-3.483-5.629-3.849-3.574-3.011-5.474-5.021-9.146-8.589-.359-.348-2.064-.841-2.751.153s-.055,2.915.348,3.921a24.046,24.046,0,0,0,4.887,8.062c1.679,1.8,3.714,3.4,5.1,5.446a24.769,24.769,0,0,1,2.147,3.379c1.2,2.706,2.1,5.478,3.714,7.906.37.555,1.991,3.7,1.535,3.163" transform="translate(-159.111 -140.411)" fill="#fcd5cb" fill-rule="evenodd"/>
      <path id="Trazado_38141" data-name="Trazado 38141" d="M69.843,433.232a22.366,22.366,0,0,1,2.7-1.838c2.685-1.407,3.991-.746,6.344.43,2.592,1.3,5.546,2.725,8.04,4.22a93.961,93.961,0,0,1,12.076,8.872c2.577,2.1,6.817,5.9,8.937,7.979a25.81,25.81,0,0,0,4.53,3.865c1.338.837,3.672,1.484,3.7,3.159.083,5.179-.608,10.036-.895,15.778-.153,3.049-.116,8.592-.856,10.151-1.6,3.376-6.4,8.316-8.683,10.762s-2.6,9.488-3.383,15.531c-1.418,10.868-1.149,27.922-10.332,30.792-1.822.568-5.413,4.013-7.851,5.711s-8.589,5.357-12.7,8.078c-4.144,2.745-8,5.577-11.37,7.686a33.337,33.337,0,0,0-6.9,5.227c-1.559,1.627-3.287,3.711-5.941,1.7a18.053,18.053,0,0,1-6.295-9.379c-.391-1.321-.247-3.29-1.4-3.97C32.549,553.847,21.214,543.567,27.821,537c5.228-5.2,11.987-11.2,17.39-15.929,2.027-1.774,5.223-3.945,6.857-6.305a12.109,12.109,0,0,0,1.393-2.927c.27-.781,2.278-1.2,2.452-2,.249-1.143-.7-2.234-1.881-5.129-.633-1.554-2.857-3.347-3.5-4.69a91.632,91.632,0,0,1-4.458-12.726,43.755,43.755,0,0,1-1.593-17.89c1.368-9.709,6.977-19,17.092-28.9,1.966-1.924,3.211-3.089,5.279-4.9.707-.619,1.932-1.6,2.989-2.366" transform="translate(-18.774 -313.017)" fill="#fcd5cb" fill-rule="evenodd"/>
      <path id="Trazado_38142" data-name="Trazado 38142" d="M7.44,845.772c.2-.166,1.018-1.136,1.378-.828.6.517.941,1.834,1.418,2.5a74.4,74.4,0,0,0,5.092,6.31,20.958,20.958,0,0,0,5.3,4.223c1.1.622,2.877,1.322,3.632,2.383.51.716-.181,1.678-.182,2.448a10,10,0,0,0,1.568,4.015,45.187,45.187,0,0,0,2.883,3.885c.376.421,1.812,1.229,1.97,1.748.227.744-1.265,2.329-1.339,3.185-.25,2.847.429,5.6.867,8.414a31.042,31.042,0,0,0,1.985,7.09c1,2.238,3.727,4.721.029,6.133a9.919,9.919,0,0,1-2.7.415c-4.7-.05-7.233-8.928-11.081-11.032-4.729-2.586-8.225-5.678-10.209-10.936-.73-1.934-.193-4.04-.225-6.034-.046-2.957.132-4.679-.723-7.481-1.33-4.351-7.409-8.874-3.48-13.548a34.63,34.63,0,0,1,3.817-2.892" transform="translate(-1.687 -614.175)" fill="#fff" fill-rule="evenodd"/>
      <path id="Trazado_38143" data-name="Trazado 38143" d="M367.386,512.455c2.386-.542,3.291.144,4.664,1.664s3.867,4.011,6.291,6.436c2.881,2.881,8.15,5.023,10.16,8.642,1.615,2.907,2.216,7.665,3.58,10.052,1.076,1.882.427,3.4-.221,6.313-3,13.512-6.344,26.751-7.937,40.562-1.091,9.452-1.966,18-2.363,26.927-.327,7.326-1.621,17.571-1.338,24.914.2,5.186,1.617,8.83-.93,10.9a72.894,72.894,0,0,0-9.129,9.5c-6.368,7.748-21.229,19.477-24.573,18.574-1.065-.288-5.2-2.812-8.333-4.51-5.375-2.916-8.278-2.177-15.5-3.025a61.794,61.794,0,0,1-14.727-3.872c-1.562-.6-5.413-3.373-7.221-2.856-1.925.55-2.916,2.2-1.944,4.861a12.664,12.664,0,0,0,10.35,7.809c1.628.209,5.988,1.793,5.223,3.7-.537,1.343-2.774,2.937-5.783,3.848-6.655,2.014-15.205,5.821-21.658,7.878-3.471,1.105-9.313,2.864-12.079,5.16-.323.268-.7-.557-.968-2.488-.331-2.386-.827-8.13-.829-9.746,0-2.436-.855-7.371-1.017-9.053-.833-8.66.624-17.361,1.17-23.411a33.913,33.913,0,0,0-1.751-14.451c-1.717-4.7-4.843-9.16-4.9-14.221-.072-6.279,1.771-11.947,3.267-16.936.421-1.406-.11-1.209-1.814-1.1s-2.871.137-4.121.22c-2.765.184-5.495.385-9.451.549s-8.041.532-12.382.477c-8.007-.1-16.21.08-23.722-.256a200.076,200.076,0,0,1-27.5-3.537c-4.273-.8-7.506-2.755-10.141-4.153-2.289-1.214-6.7-5.767-7.553-7.684-.519-1.161,5.809-4.5,7.694-5.875.723-.527,2.816-1.63,3.569-2.113,1.121-.722,2.645-1.883,3.79-2.566,8.061-4.806,16.033-11.307,17.579-14.717,3.5-7.726,3.46-17.782,4.177-27.222a94.516,94.516,0,0,1,1.589-9.658,5.407,5.407,0,0,1,1.559-2.8c.342-.375,1.09-1.34,1.184-1.028.251.84-.125,2.585-.374,4.672-.419,3.5-.685,3.521-1.246,6.979a156.1,156.1,0,0,0-2.057,19.441,97.029,97.029,0,0,0,.156,11.124c.125.9,6.854-.436,7.072-1.091s.168-9.34.137-12.829a93.2,93.2,0,0,1,.863-13.647c1.976-14,3.811-29.216,4.437-43.336.2-4.417.464-9.068.283-13.312-.127-2.977-1.766-7.389-.611-8.408,2.05-1.808,6.861-2.513,9.351-3.034a27.351,27.351,0,0,1,9.216-.158,62.535,62.535,0,0,1,6.634,1.607c1.473.78,1.718,1.06,1.858,2.067.293,2.122-.428,8.108-.588,11.832a219.306,219.306,0,0,0,.233,22.044A131.82,131.82,0,0,0,252.37,529.6c1.225,4.9,4.114,14.834,6.041,18.712,1.539,3.1,2.163,4.2,5.192,3.136,1.807-.632,3.535-.285,5.964-1.41,1.785-.828,3.537-2.286,5.6-3.091,2.27-.886,4.045-.239,6.486-.567a54.911,54.911,0,0,0,6.613-1.7,144.681,144.681,0,0,0,19.356-7.581c7.44-3.37,11.155-8.467,18.443-13.052a48.747,48.747,0,0,1,10.1-4.754,113.97,113.97,0,0,1,16.549-4c5.408-.957,12.291-2.305,14.677-2.847" transform="translate(-125.163 -341.837)" fill="#ffc8bb" fill-rule="evenodd"/>
      <path id="Trazado_38144" data-name="Trazado 38144" d="M541.977,1319.368a4.271,4.271,0,0,0,.321-2.01c.1-1.186.213-2.358.269-3.545.015-.314-.172-1.652.068-1.891.551-.551,2-.241,2.7-.2a21.351,21.351,0,0,0,5.944-.134c1.348-.293,2.767-.314,4.087-.709.092-.028,1.306-.524,1.384-.406.125.187-1.862,1.4-2.06,1.521-2.637,1.647-4.7,2.8-7.531,4.289a30.575,30.575,0,0,0-3.04,1.824c-.226.149-2.334,1.564-2.145,1.266" transform="translate(-393.974 -952.612)" fill="#ffc8bb" fill-rule="evenodd"/>
      <path id="Trazado_38145" data-name="Trazado 38145" d="M534.7,1343.673c-.436-3.053,1.264-7.044,1.475-10.444a42.325,42.325,0,0,1,.446-5.577c.343-1.711.652-1.135,1.982-1.135a13.943,13.943,0,0,1,2.233.248c.537.717-1.662,1.876-2.388,3.813-1.674,4.465,3.21,4.864,6.138,4.681a37.957,37.957,0,0,0,4.974-1.213c5.064-1.1,7.08-1.59,12.043-2.83,1.343-.337,5.323-1.7,6.659-2.1a11.874,11.874,0,0,1,2.717-.693c.5.333.479.213-.72,1.3s-5.611,2.838-7.324,3.383c-4.581,1.458-6.573.913-11.218,1.758-1.336.243-3.708,1.213-4.016,2.751-.425,2.125,1.97,2.669,3.57,3.049a35.813,35.813,0,0,0,10.7.647c3.471-.183,7.548-1.362,10.915-2.11,3.818-.848,7.835-1.745,11.577-2.9a115,115,0,0,0,17.972-7.687c3.486-1.743,6.575-4.7,9.82-6.768a20.677,20.677,0,0,1,3.815-1.936,85.837,85.837,0,0,1,11.615-3.946c5.033-1.119,9.591-2.263,14.613-3.339a19.161,19.161,0,0,0,3.049-.819c.257-.1,1.017-.587,1.339-.371.288.192-.057,1.732-.075,1.859a47.412,47.412,0,0,0-.3,5.727c-.144,7.059-.026,14.2-.281,21.467-.046,1.306.173,3.648-.623,3.83-7.493,1.713-110.5.81-110.708-.649" transform="translate(-388.638 -953.292)" fill="#ffc8bb" fill-rule="evenodd"/>
      <path id="Trazado_38146" data-name="Trazado 38146" d="M956.7,178.382a.678.678,0,0,1-.094-.006.748.748,0,0,1-.65-.834c.874-6.991,4.9-12.562,8.783-17.949,1.042-1.443,2.12-2.936,3.112-4.424a.748.748,0,1,1,1.244.83c-1.008,1.511-2.093,3.015-3.142,4.469-3.779,5.235-7.687,10.647-8.512,17.259a.749.749,0,0,1-.741.655" transform="translate(-694.913 -112.554)" fill="#b45356"/>
      <path id="Trazado_38147" data-name="Trazado 38147" d="M912.063,288.145a.748.748,0,0,1-.335-.079,12.705,12.705,0,0,0-1.223-.493c-1.34-.495-2.86-1.054-3.58-2.252-1.649-2.751-.325-6.043,1.719-8.086.9-.9,1.857-1.775,2.872-2.7,2.8-2.556,5.692-5.2,7.263-8.343a.748.748,0,0,1,1.339.668c-1.7,3.393-4.695,6.131-7.593,8.78-1,.915-1.948,1.779-2.824,2.654-1.633,1.632-2.727,4.2-1.493,6.259.448.747,1.706,1.21,2.814,1.619a14.277,14.277,0,0,1,1.375.559.748.748,0,0,1-.335,1.416" transform="translate(-658.736 -193.201)" fill="#b45356"/>
      <path id="Trazado_38148" data-name="Trazado 38148" d="M963.635,450.883a.748.748,0,0,1-.745-.7c-.506-7.472-3.378-13.392-7.495-15.451-1.438-.718-5.54-.711-8.739-.4-5.641.549-12.077-2.069-13.442-8.131a11.628,11.628,0,0,1,.49-4.846,26.2,26.2,0,0,0,.885-7.925.747.747,0,0,1,.695-.8.727.727,0,0,1,.8.7,27.432,27.432,0,0,1-.92,8.36,10.7,10.7,0,0,0-.489,4.183c1.176,5.217,6.839,7.454,11.841,6.971,1.182-.114,7.194-.625,9.552.552,4.657,2.329,7.767,8.567,8.317,16.687a.747.747,0,0,1-.695.8l-.052,0" transform="translate(-678.304 -299.957)" fill="#b45356"/>
      <path id="Trazado_38149" data-name="Trazado 38149" d="M1105,285.758a7.051,7.051,0,0,1-3.207-.753.748.748,0,1,1,.669-1.337c2.7,1.35,5.539.16,8.215-1.177,6.161-3.082,10.494-10.736,10.079-17.806a6.032,6.032,0,0,0-2.744-4.933,7.385,7.385,0,0,0-6.715-.307,5.144,5.144,0,0,0-1.973,1.911,11.52,11.52,0,0,1-1.1,1.352.747.747,0,0,1-1.056-1.058,10.444,10.444,0,0,0,.953-1.178,6.424,6.424,0,0,1,2.609-2.409,8.876,8.876,0,0,1,8.08.423,7.486,7.486,0,0,1,3.441,6.112c.456,7.756-4.13,15.843-10.9,19.231a14.673,14.673,0,0,1-6.346,1.93" transform="translate(-800.635 -187.037)" fill="#b45356"/>
      <path id="Trazado_38150" data-name="Trazado 38150" d="M1116.241,309.96a.747.747,0,0,1-.528-1.276,8.058,8.058,0,0,1,3.657-1.824c.308-.092.615-.183.917-.283a.747.747,0,1,1,.474,1.418c-.318.106-.641.2-.965.3a6.849,6.849,0,0,0-3.026,1.448.746.746,0,0,1-.528.219" transform="translate(-810.893 -222.831)" fill="#b45356"/>
      <path id="Trazado_38151" data-name="Trazado 38151" d="M999.516,97.455a.748.748,0,0,1-.742-.666c-.052-.479-.116-.97-.179-1.47a23.972,23.972,0,0,1-.245-6.428c.379-2.557,2.374-4.879,3.84-6.4,5.4-5.61,13.254-5.272,20.19-4.968,3.018.131,5.743.141,8.541.082,1.307-.026,2.614-.053,3.92-.053a.748.748,0,0,1,0,1.5c-1.3,0-2.593.027-3.89.054s-2.615.054-3.923.054c-1.533,0-3.149-.07-4.714-.138-6.935-.3-14.111-.612-19.046,4.512-2.077,2.157-3.2,3.985-3.438,5.586a22.873,22.873,0,0,0,.249,6.02c.064.507.128,1.008.182,1.5a.748.748,0,0,1-.661.825.79.79,0,0,1-.084,0" transform="translate(-725.638 -56.247)" fill="#b45356"/>
      <path id="Trazado_38152" data-name="Trazado 38152" d="M1189.089,98.59a.749.749,0,0,1-.669-.414c-1.6-3.2-4.142-7.771-7.7-10.441a44.954,44.954,0,0,0-25.669-8.628.748.748,0,0,1,0-1.5,46.521,46.521,0,0,1,26.567,8.927c3.813,2.859,6.473,7.629,8.142,10.968a.748.748,0,0,1-.669,1.082" transform="translate(-839.104 -56.418)" fill="#b45356"/>
      <path id="Trazado_38153" data-name="Trazado 38153" d="M1275.4,236.92a.747.747,0,0,1-.747-.748c0-7.271,1.9-14.222,3.734-20.943a121.325,121.325,0,0,0,3.125-13.424,74.466,74.466,0,0,0,.106-22.255,43,43,0,0,0-1.38-5.687c-.379-1.3-.769-2.639-1.072-4a.748.748,0,0,1,1.46-.325c.292,1.315.676,2.633,1.048,3.907a44.389,44.389,0,0,1,1.424,5.887,75.94,75.94,0,0,1-.108,22.7,122.7,122.7,0,0,1-3.159,13.59c-1.811,6.627-3.684,13.479-3.684,20.55a.747.747,0,0,1-.747.748" transform="translate(-926.587 -122.815)" fill="#b45356"/>
      <path id="Trazado_38154" data-name="Trazado 38154" d="M1018.279,138.014a.748.748,0,0,1-.335-1.416,13.378,13.378,0,0,1,2.372-.837,12.426,12.426,0,0,0,2.2-.771c.561-.28,1.123-.571,1.69-.863,5.024-2.593,10.721-5.537,16.5-1.686a.748.748,0,0,1-.83,1.244c-5.039-3.359-10.092-.752-14.98,1.772-.572.3-1.14.589-1.706.872a13.76,13.76,0,0,1-2.466.873,12,12,0,0,0-2.109.735.748.748,0,0,1-.335.079" transform="translate(-739.68 -94.927)" fill="#b45356"/>
      <path id="Trazado_38155" data-name="Trazado 38155" d="M1071.668,178.809a.746.746,0,0,1-.609-.313,20.839,20.839,0,0,0-8.573-6.789,19.828,19.828,0,0,0-6.869-.942,23.158,23.158,0,0,1-7.072-.9,17.456,17.456,0,0,1-6.342-4.505.747.747,0,1,1,1.056-1.057,16.2,16.2,0,0,0,5.777,4.15,22.046,22.046,0,0,0,6.617.819,21.208,21.208,0,0,1,7.387,1.048,22.123,22.123,0,0,1,9.235,7.308.747.747,0,0,1-.607,1.182" transform="translate(-757.455 -119.276)" fill="#b45356"/>
      <path id="Trazado_38156" data-name="Trazado 38156" d="M1088.725,231.428a.747.747,0,0,1-.747-.748c0-4.37-.2-8.9-2.569-12.039-.854-1.13-1.513-1.9-2.043-2.517a14.6,14.6,0,0,1-2.358-3.411.748.748,0,0,1,1.339-.668,13.011,13.011,0,0,0,2.155,3.106c.543.633,1.219,1.421,2.1,2.589,2.649,3.509,2.87,8.316,2.87,12.94a.747.747,0,0,1-.747.748" transform="translate(-785.766 -153.841)" fill="#b45356"/>
      <path id="Trazado_38157" data-name="Trazado 38157" d="M1092.052,273.978a.747.747,0,0,1-.668-1.082c.864-1.726.07-4.015-.628-6.035l-.279-.812a.748.748,0,0,1,1.419-.473l.272.8c.8,2.3,1.7,4.9.551,7.194a.745.745,0,0,1-.668.413" transform="translate(-792.679 -192.682)" fill="#b45356"/>
      <path id="Trazado_38158" data-name="Trazado 38158" d="M1194.5,362.755c-13.572,0-23.364-8.725-24.365-21.711a.748.748,0,0,1,1.492-.114c.936,12.16,10.128,20.33,22.873,20.33a.748.748,0,0,1,0,1.5" transform="translate(-850.614 -247.33)" fill="#b45356"/>
      <path id="Trazado_38159" data-name="Trazado 38159" d="M1254.094,431.009a.747.747,0,0,1-.641-.362,9.125,9.125,0,0,1-.841-6.006.755.755,0,0,1,.86-.615.747.747,0,0,1,.615.86,7.652,7.652,0,0,0,.646,4.987.748.748,0,0,1-.255,1.026.738.738,0,0,1-.385.108" transform="translate(-910.449 -308.233)" fill="#b45356"/>
      <path id="Trazado_38160" data-name="Trazado 38160" d="M1017.306,490.429a.747.747,0,0,1-.747-.748c0-.676-.032-1.437-.065-2.246-.134-3.259-.3-7.314,1.375-9.827,1.64-2.46,4.231-3.982,6.738-5.453a37.218,37.218,0,0,0,3.514-2.238,215.494,215.494,0,0,1,19.2-12.375c3.793-2.257,7.713-4.591,11.467-7.02,7.273-4.705,16.686-9.749,24.948-7a.748.748,0,1,1-.472,1.419c-7.666-2.556-16.672,2.311-23.664,6.835-3.778,2.444-7.711,4.785-11.515,7.049a213.908,213.908,0,0,0-19.069,12.286,39.381,39.381,0,0,1-3.655,2.332c-2.361,1.386-4.8,2.819-6.251,4.993-1.405,2.107-1.25,5.894-1.126,8.935.034.831.066,1.613.066,2.307a.747.747,0,0,1-.747.748" transform="translate(-738.868 -321.845)" fill="#b45356"/>
      <path id="Trazado_38161" data-name="Trazado 38161" d="M1184.125,469.674a.748.748,0,0,1-.22-1.462c7.224-2.224,12.623-2.981,18.643-2.6a24.009,24.009,0,0,1,5.353,1.169l.152.045a2.566,2.566,0,0,1,.275.105c-.241-.712-.545-1.583-.717-2.076s-.292-.843-.3-.882a35,35,0,0,1-.777-5.359c-.109-1.18-.222-2.4-.42-3.6a.748.748,0,0,1,1.475-.246c.208,1.25.323,2.5.433,3.7a33.523,33.523,0,0,0,.739,5.13c.013.041.12.344.264.755,1.3,3.722,1.3,3.722.928,4.1-.662.661-1.5.215-1.948-.023a2.335,2.335,0,0,0-.382-.181l-.15-.045a22.885,22.885,0,0,0-5.016-1.109c-5.826-.361-11.072.371-18.11,2.538a.749.749,0,0,1-.22.034" transform="translate(-860.24 -330.136)" fill="#b45356"/>
      <path id="Trazado_38162" data-name="Trazado 38162" d="M931.339,758.049h-.026a.747.747,0,0,1-.721-.773c.366-10.487,2.114-36.571,3.26-47.012,3.12-28.411,13.047-65.692,17.412-76.522a.748.748,0,1,1,1.387.558c-4.338,10.764-14.206,47.843-17.312,76.127-1.144,10.415-2.888,36.438-3.252,46.9a.748.748,0,0,1-.747.722" transform="translate(-676.48 -460.349)" fill="#b45356"/>
      <path id="Trazado_38163" data-name="Trazado 38163" d="M940.636,1351.224a.747.747,0,0,1-.747-.747c0-3.955.07-9.562.138-14.984s.139-11.016.139-14.959a.747.747,0,0,1,1.495,0c0,3.952-.071,9.557-.139,14.978s-.139,11.018-.139,14.965a.747.747,0,0,1-.747.747" transform="translate(-683.239 -959.399)" fill="#b45356"/>
      <path id="Trazado_38164" data-name="Trazado 38164" d="M1335.938,772.787a.746.746,0,0,1-.731-.6l-.475-2.368c-2.865-14.3-5.829-29.091-6.707-44.037-.5-8.534-.364-17.236-.229-25.65.118-7.372.241-14.993-.07-22.456-.114-2.75-.291-5.569-.462-8.3a164.717,164.717,0,0,1-.433-20.46c.843-13.5,1.8-28.794.6-43.207a74.827,74.827,0,0,0-1.567-9.255c-.535-2.521-1.091-5.129-1.418-7.742a43.787,43.787,0,0,1-.248-4.471,35.687,35.687,0,0,0-.344-5.057,74.925,74.925,0,0,0-2.164-8.625c-.484-1.654-.985-3.364-1.409-5.058-.841-3.362-2.813-6.581-4.721-9.694-.613-1-1.218-1.988-1.774-2.962-4.613-8.073-10.974-18.405-19.3-26.726a.747.747,0,0,1,1.056-1.058c8.448,8.447,14.88,18.889,19.537,27.042.55.961,1.147,1.935,1.752,2.923,1.966,3.209,4,6.527,4.9,10.113.416,1.664.914,3.361,1.395,5a76.365,76.365,0,0,1,2.2,8.8,36.912,36.912,0,0,1,.365,5.271,42.349,42.349,0,0,0,.237,4.319c.319,2.548.866,5.124,1.4,7.616a75.9,75.9,0,0,1,1.594,9.442c1.211,14.521.251,29.877-.6,43.423a163.813,163.813,0,0,0,.433,20.274c.172,2.734.349,5.562.465,8.327.313,7.508.19,15.152.072,22.543-.135,8.387-.274,17.061.225,25.539.874,14.842,3.826,29.579,6.682,43.83l.474,2.37a.746.746,0,0,1-.587.878.674.674,0,0,1-.147.016" transform="translate(-940.85 -381.526)" fill="#b45356"/>
      <path id="Trazado_38165" data-name="Trazado 38165" d="M950.417,748.076a.747.747,0,0,1-.747-.747c0-3.355,1.98-5.837,3.894-8.237,1.482-1.857,2.88-3.61,3.289-5.651a18.086,18.086,0,0,0-.079-5.8,23.364,23.364,0,0,1-.23-5.179,52.064,52.064,0,0,1,1.934-8.785,64.653,64.653,0,0,0,1.655-6.8c1.593-9.551,2.111-19.333,2.612-28.794.687-12.956,1.4-26.354,4.871-39.385l.279-1.049c1.809-6.813,3.68-13.858,8.224-19.539a.748.748,0,0,1,1.168.934c-4.349,5.435-6.178,12.325-7.947,18.989l-.279,1.049c-3.435,12.881-4.141,26.2-4.824,39.081-.5,9.5-1.025,19.326-2.631,28.959a66.1,66.1,0,0,1-1.69,6.957,51.015,51.015,0,0,0-1.887,8.529,21.885,21.885,0,0,0,.228,4.852,19.46,19.46,0,0,1,.06,6.274c-.478,2.4-2.058,4.376-3.585,6.29-1.835,2.3-3.569,4.473-3.569,7.3a.747.747,0,0,1-.747.747" transform="translate(-690.349 -449.123)" fill="#b45356"/>
      <path id="Trazado_38166" data-name="Trazado 38166" d="M1082.064,951a.746.746,0,0,1-.632-1.144,7.805,7.805,0,0,1,2.8-2.377,9.863,9.863,0,0,0,1.862-1.32c1.672-1.659,3.425-3.261,5.12-4.811,1.393-1.275,2.787-2.549,4.15-3.863a94.909,94.909,0,0,0,17.2-23.262c.422-.775.877-1.555,1.337-2.342a29.811,29.811,0,0,0,3.56-7.662c1.81-7.5,3.342-15.215,4.822-22.674,1.674-8.429,3.4-17.145,5.552-25.645,2.251-8.907,5.32-17.965,12.477-23.878a.748.748,0,0,1,.952,1.154c-6.824,5.637-9.791,14.429-11.978,23.092-2.139,8.461-3.866,17.157-5.536,25.568-1.484,7.475-3.019,15.2-4.837,22.734a30.869,30.869,0,0,1-3.722,8.065c-.453.775-.9,1.543-1.317,2.3a96.308,96.308,0,0,1-17.47,23.622c-1.371,1.324-2.775,2.608-4.178,3.89-1.684,1.541-3.427,3.134-5.077,4.77a11.123,11.123,0,0,1-2.14,1.539,6.6,6.6,0,0,0-2.311,1.89.748.748,0,0,1-.635.35" transform="translate(-786.049 -604.7)" fill="#b45356"/>
      <path id="Trazado_38167" data-name="Trazado 38167" d="M972.125,1137.041a.717.717,0,0,1-.181-.023c-12.56-3.141-23.251-13.139-29.068-21.45-.969-1.385-1.8-2.858-2.594-4.284-.683-1.219-1.389-2.479-2.165-3.643-2.273-3.409-7.052-14.23-2.354-18.932a.748.748,0,0,1,1.059,1.056c-3.525,3.526-.273,12.829,2.538,17.045.809,1.213,1.529,2.5,2.225,3.742.781,1.394,1.589,2.835,2.514,4.159,7.226,10.319,18.033,18.312,28.206,20.856a.748.748,0,0,1-.181,1.473" transform="translate(-678.79 -791.261)" fill="#b45356"/>
      <path id="Trazado_38168" data-name="Trazado 38168" d="M791.527,1150.881a.747.747,0,0,1-.381-1.391l1.233-.726c7.445-4.383,14.475-8.524,20.847-14.542a99.379,99.379,0,0,0,6.832-7.424,71.562,71.562,0,0,1,10.011-10.193.747.747,0,1,1,.913,1.183,70.5,70.5,0,0,0-9.789,9.985,101.108,101.108,0,0,1-6.94,7.537c-6.495,6.134-13.6,10.315-21.116,14.743l-1.231.725a.738.738,0,0,1-.379.1" transform="translate(-574.845 -811.585)" fill="#b45356"/>
      <path id="Trazado_38169" data-name="Trazado 38169" d="M818.365,1288.492a.747.747,0,0,1-.456-1.338c2.277-1.757,5.409-2.835,8.172-3.787l.864-.3a140.468,140.468,0,0,1,19.2-5.18,144.152,144.152,0,0,0,38.42-13.587.748.748,0,0,1,.686,1.329,145.7,145.7,0,0,1-38.819,13.726,139.106,139.106,0,0,0-18.991,5.124l-.869.3c-2.654.914-5.663,1.949-7.746,3.556a.74.74,0,0,1-.456.156" transform="translate(-594.356 -919.005)" fill="#b45356"/>
      <path id="Trazado_38170" data-name="Trazado 38170" d="M542.2,1212.329c-2.788,0-4.6-.566-5.42-1.7a2.743,2.743,0,0,1,.052-3.139c1.1-1.634,3.357-3.15,6.9-4.635a35.211,35.211,0,0,1,4.181-1.357c1.083-.3,2.2-.613,3.261-1,2.366-.876,4.714-1.8,7.064-2.731,3.193-1.259,6.494-2.563,9.805-3.718.555-.193,1.177-.384,1.835-.587,2.769-.849,6.215-1.907,7.533-4.14.16-.271.1-.406.075-.472-.191-.453-1.074-1.151-4.193-1.91-4.309-1.049-8.54-2.663-10.786-7.451l-.176-.367c-.506-1.039-1.2-2.464-.91-3.752a3.293,3.293,0,0,1,1.76-2.46c2.084-.966,5.174.666,7.659,1.976a16.769,16.769,0,0,0,2.383,1.128,100.086,100.086,0,0,0,14.77,3.4c1.1.141,2.232.223,3.329.3a31.2,31.2,0,0,1,6.842,1.016,41.694,41.694,0,0,1,7.072,3.131c.889.462,1.778.924,2.678,1.359a.747.747,0,0,1-.65,1.346c-.914-.44-1.816-.91-2.717-1.379a40.58,40.58,0,0,0-6.817-3.026,29.632,29.632,0,0,0-6.518-.956c-1.117-.08-2.273-.164-3.412-.312a101.3,101.3,0,0,1-15-3.444,17.062,17.062,0,0,1-2.661-1.241c-2.077-1.094-4.921-2.592-6.334-1.942a1.878,1.878,0,0,0-.928,1.429,5.189,5.189,0,0,0,.795,2.773l.185.386c1.979,4.218,5.838,5.673,9.715,6.616,2.168.527,4.657,1.3,5.288,2.8a1.947,1.947,0,0,1-.165,1.813c-1.612,2.733-5.366,3.884-8.382,4.81-.639.2-1.243.381-1.781.568-3.283,1.145-6.57,2.442-9.75,3.7-2.36.932-4.718,1.862-7.094,2.741-1.117.413-2.267.734-3.379,1.043a33.8,33.8,0,0,0-4.005,1.3c-3.223,1.348-5.322,2.725-6.24,4.09a1.314,1.314,0,0,0-.082,1.428c.535.738,3.567,2.782,20.2-1.9a.747.747,0,1,1,.405,1.438c-7.186,2.025-12.663,3.037-16.393,3.037" transform="translate(-389.859 -852.417)" fill="#b45356"/>
      <path id="Trazado_38171" data-name="Trazado 38171" d="M540.824,1313.376a4.086,4.086,0,0,1-4.01-3.23,5.259,5.259,0,0,1,2.06-5.128,82.885,82.885,0,0,1,15.153-8.517,18.67,18.67,0,0,1,2.774-.926,17.919,17.919,0,0,0,2.37-.768c1.889-.813,3.826-1.571,5.7-2.3l1.106-.433a.748.748,0,1,1,.546,1.392l-1.107.435c-1.862.729-3.787,1.482-5.654,2.284a19.257,19.257,0,0,1-2.565.838,17.074,17.074,0,0,0-2.553.847,81.531,81.531,0,0,0-14.872,8.349,3.742,3.742,0,0,0-1.492,3.632,2.479,2.479,0,0,0,1.959,1.972,4.331,4.331,0,0,0,1.547-.021,6.168,6.168,0,0,1,1.812-.049.748.748,0,0,1-.236,1.477,5,5,0,0,0-1.382.054,8.761,8.761,0,0,1-1.155.1" transform="translate(-390.163 -939.212)" fill="#b45356"/>
      <path id="Trazado_38172" data-name="Trazado 38172" d="M549.737,1351.03a.772.772,0,0,1-.258-.046c-.241-.089-.509-.168-.786-.25a6.438,6.438,0,0,1-2.426-1.1,3.438,3.438,0,0,1-1.212-2.952,6.95,6.95,0,0,1,2.993-4.818,19.1,19.1,0,0,1,4.693-1.942c.717-.224,1.425-.445,2.1-.7,2.828-1.074,5.694-2.248,8.464-3.384,1.358-.557,2.717-1.114,4.077-1.661.911-.368,1.844-.65,2.746-.924a23.582,23.582,0,0,0,3.351-1.2.748.748,0,0,1,.644,1.351,25.071,25.071,0,0,1-3.56,1.281c-.871.266-1.772.538-2.622.881-1.357.546-2.713,1.1-4.068,1.657-2.78,1.139-5.655,2.317-8.5,3.4-.7.265-1.435.5-2.181.73a18.068,18.068,0,0,0-4.332,1.773,5.477,5.477,0,0,0-2.308,3.664,1.945,1.945,0,0,0,.694,1.714,5.322,5.322,0,0,0,1.875.806c.309.091.608.18.878.279a.748.748,0,0,1-.257,1.45" transform="translate(-396.213 -968.26)" fill="#b45356"/>
      <path id="Trazado_38173" data-name="Trazado 38173" d="M565.891,1378.845a.748.748,0,0,1-.144-1.482,205.783,205.783,0,0,0,27.589-7.324.748.748,0,0,1,.493,1.412,207.36,207.36,0,0,1-27.793,7.38.739.739,0,0,1-.145.015" transform="translate(-410.823 -995.899)" fill="#b45356"/>
      <path id="Trazado_38174" data-name="Trazado 38174" d="M591.372,1385.221h-.037c-3.2-.158-10.781-.827-11.977-3.638a2.669,2.669,0,0,1,.741-2.911c1.55-1.783,6.043-2.268,10.007-2.7a31.129,31.129,0,0,0,4.466-.663,20.333,20.333,0,0,0,8.872-4.99.748.748,0,1,1,1.084,1.03,21.491,21.491,0,0,1-9.522,5.392,30.648,30.648,0,0,1-4.74.718c-3.323.36-7.874.852-9.04,2.192-.475.546-.641,1-.493,1.344.564,1.326,4.954,2.448,10.674,2.729a.748.748,0,0,1-.036,1.495" transform="translate(-421.03 -995.966)" fill="#b45356"/>
      <path id="Trazado_38175" data-name="Trazado 38175" d="M632.654,1373.945a.748.748,0,0,1-.14-1.482c5.547-1.063,13.874-2.817,22.043-5.137a79.9,79.9,0,0,0,24.9-12.359.747.747,0,1,1,.913,1.183,81.461,81.461,0,0,1-25.4,12.615c-8.221,2.335-16.595,4.1-22.171,5.167a.7.7,0,0,1-.141.015" transform="translate(-459.355 -984.858)" fill="#b45356"/>
      <path id="Trazado_38176" data-name="Trazado 38176" d="M973.264,266.578a1.491,1.491,0,1,1,1.461-1.49,1.478,1.478,0,0,1-1.461,1.49m.033-1.49c0,.006,0,.008,0,.008Z" transform="translate(-706.439 -191.617)" fill="#b45356"/>
      <path id="Trazado_38177" data-name="Trazado 38177" d="M971.093,238.94a.748.748,0,0,1-.529-.219c-1.411-1.411-4.734-1.813-6.83-1.289a.748.748,0,0,1-.363-1.451c2.531-.631,6.4-.168,8.251,1.682a.748.748,0,0,1-.529,1.277" transform="translate(-699.898 -171.349)" fill="#b45356"/>
      <path id="Trazado_38178" data-name="Trazado 38178" d="M936.019,371.79a.748.748,0,0,1-.146-1.481c3.727-.746,5.97-2.627,6.666-5.591.512-2.17.168-2.592.164-2.6a3.737,3.737,0,0,0-1.238.075c-.252.04-.485.076-.679.088l-1.087.077a39.557,39.557,0,0,1-6,.128.748.748,0,0,1,.124-1.491,38.028,38.028,0,0,0,5.766-.129l1.1-.077c.157-.01.344-.041.546-.073a3.727,3.727,0,0,1,2.162.082c1.285.643.956,2.739.6,4.259-.842,3.584-3.476,5.844-7.827,6.715a.79.79,0,0,1-.149.014" transform="translate(-678.244 -262.131)" fill="#b45356"/>
      <path id="Trazado_38179" data-name="Trazado 38179" d="M740.79,275.9a.739.739,0,0,1-.39-.111.748.748,0,0,1-.245-1.029c3.754-6.091,9.514-10.482,18.127-13.817a.748.748,0,0,1,.54,1.395c-8.293,3.211-13.821,7.408-17.395,13.208a.747.747,0,0,1-.638.355" transform="translate(-537.965 -189.655)" fill="#b45356"/>
      <path id="Trazado_38180" data-name="Trazado 38180" d="M668.358,356.8a.748.748,0,0,1-.737-.626c-.049-.132-.782-1.99-1.426-3.414-.9-1.981-1.02-3.512-.375-4.68.969-1.757,3.5-2.325,5.855-2.649,3.524-.487,5.322-1.671,8.019-4.143a.747.747,0,1,1,1.01,1.1c-2.875,2.635-4.929,3.984-8.824,4.522-2.737.378-4.247.978-4.75,1.89-.4.727-.261,1.819.428,3.341.547,1.208,1.495,3.518,1.539,3.787a.747.747,0,0,1-.615.86.7.7,0,0,1-.123.01" transform="translate(-483.713 -247.953)" fill="#b45356"/>
      <path id="Trazado_38181" data-name="Trazado 38181" d="M669.327,514.043a.785.785,0,0,1-.2-.027.749.749,0,0,1-.525-.919c2.79-10.177.631-29.1-5.009-32.6a18.031,18.031,0,0,0-4.713-1.829c-2.8-.792-5.69-1.611-6.993-4.845-1.365-3.391-.179-7.437.866-11.006a36.1,36.1,0,0,0,1.1-4.373.747.747,0,0,1,1.477.229,37.019,37.019,0,0,1-1.14,4.565c-1.025,3.5-2.085,7.117-.914,10.027,1.028,2.554,3.338,3.207,6.012,3.965a19.189,19.189,0,0,1,5.1,2c6.633,4.124,8.371,24.385,5.663,34.265a.75.75,0,0,1-.722.551" transform="translate(-473.436 -332.797)" fill="#b45356"/>
      <path id="Trazado_38182" data-name="Trazado 38182" d="M856.27,424.562a14.044,14.044,0,0,1-7.2-1.972.748.748,0,1,1,.757-1.29c6.206,3.644,13.065,1.061,17.415-2.572,2.268-1.893,4.677-5.051,3.285-9.348a5.5,5.5,0,0,0-2.778-3.263,5.248,5.248,0,0,0-4.081-.256c-.118.041-.269.086-.44.137-1.534.459-1.807.739-1.834.866a.748.748,0,0,1-1.463-.309c.256-1.208,1.828-1.678,2.868-1.989.148-.044.28-.083.382-.119a6.728,6.728,0,0,1,5.236.332,7.08,7.08,0,0,1,3.532,4.139c1.306,4.03.01,7.819-3.749,10.957a19.2,19.2,0,0,1-11.929,4.686" transform="translate(-616.949 -293.732)" fill="#b45356"/>
      <path id="Trazado_38183" data-name="Trazado 38183" d="M868.6,436.372a.748.748,0,0,1-.336-1.416,7.561,7.561,0,0,1,6.124-.418.748.748,0,1,1-.514,1.4,6.088,6.088,0,0,0-4.939.35.749.749,0,0,1-.336.08" transform="translate(-630.873 -315.545)" fill="#b45356"/>
      <path id="Trazado_38184" data-name="Trazado 38184" d="M700.475,640.924a.748.748,0,0,1-.235-1.458,17.883,17.883,0,0,0,5.477-3.5,34.577,34.577,0,0,1,3.04-2.31,54.512,54.512,0,0,1,12.017-5.512,131.13,131.13,0,0,1,18.635-4.245c3.978-.7,8.092-1.428,12.111-2.4a.747.747,0,0,1,.351,1.453c-4.064.982-8.2,1.712-12.2,2.419a130.072,130.072,0,0,0-18.425,4.191,53.081,53.081,0,0,0-11.674,5.348,33.406,33.406,0,0,0-2.906,2.211,19.237,19.237,0,0,1-5.954,3.761.752.752,0,0,1-.235.039" transform="translate(-508.657 -451.776)" fill="#b45356"/>
      <path id="Trazado_38185" data-name="Trazado 38185" d="M501.492,693.574a.748.748,0,0,1-.338-1.415,11.778,11.778,0,0,1,3.589-.861,12.039,12.039,0,0,0,2.491-.5,20.731,20.731,0,0,0,3.083-1.638,19.355,19.355,0,0,1,3.929-1.978,11.736,11.736,0,0,1,3.685-.394,12.425,12.425,0,0,0,2.483-.139,67.535,67.535,0,0,0,8.771-2.378c14.1-4.673,27.872-11.8,41.193-18.687l2.374-1.227a.748.748,0,0,1,.686,1.329l-2.373,1.226c-13.374,6.916-27.2,14.068-41.41,18.777a68.851,68.851,0,0,1-8.976,2.431,13.984,13.984,0,0,1-2.749.162,9.931,9.931,0,0,0-3.214.318,17.96,17.96,0,0,0-3.626,1.838,22.028,22.028,0,0,1-3.307,1.748,12.758,12.758,0,0,1-2.837.593,10.922,10.922,0,0,0-3.118.714.746.746,0,0,1-.337.081" transform="translate(-364.008 -482.883)" fill="#b45356"/>
      <path id="Trazado_38186" data-name="Trazado 38186" d="M918.091,649.911a.746.746,0,0,1-.744-.685c-.57-6.859-3-8.424-6.683-10.794a41.559,41.559,0,0,1-4.338-3.09,42.488,42.488,0,0,1-3.829-3.789,39.047,39.047,0,0,0-3.828-3.767.747.747,0,0,1,.944-1.159,40.07,40.07,0,0,1,3.98,3.909,40.926,40.926,0,0,0,3.692,3.657,40.09,40.09,0,0,0,4.189,2.981c3.76,2.422,6.731,4.335,7.362,11.927a.747.747,0,0,1-.683.807.543.543,0,0,1-.063,0" transform="translate(-653.075 -455.394)" fill="#b45356"/>
      <path id="Trazado_38187" data-name="Trazado 38187" d="M373.91,922.466a22.552,22.552,0,0,1-7.159-1.027l-1.762-.644c-2.834-1.041-5.763-2.116-8.633-2.928-.843-.238-1.718-.422-2.645-.617a21.436,21.436,0,0,1-5.4-1.64.747.747,0,1,1,.68-1.331,20.357,20.357,0,0,0,5.029,1.508c.91.192,1.851.389,2.744.643,2.924.826,5.882,1.912,8.741,2.962l1.758.644a23.334,23.334,0,0,0,8.784.843c2.353-.221,4.7-.285,6.978-.346a63.939,63.939,0,0,0,11.638-1.043,12.863,12.863,0,0,1,5.006.213,11.62,11.62,0,0,0,4.423.223c3.038-.64,6.079-1.6,9.021-2.536a66.1,66.1,0,0,1,13.681-3.28l.64-.059c11.016-1.038,22.409-2.111,33.4-1.027a127.239,127.239,0,0,1,14.147,2.479c3.335.714,6.784,1.454,10.2,1.974a.747.747,0,0,1-.224,1.477c-3.46-.526-6.932-1.269-10.288-1.99a126.716,126.716,0,0,0-13.98-2.453c-10.85-1.071-22.167,0-33.112,1.028l-.639.061a64.937,64.937,0,0,0-13.37,3.215c-2.976.943-6.054,1.918-9.165,2.574a12.968,12.968,0,0,1-4.99-.213,11.679,11.679,0,0,0-4.438-.223,65.023,65.023,0,0,1-11.906,1.075c-2.249.061-4.575.123-6.879.34-.678.063-1.453.1-2.277.1" transform="translate(-252.903 -663.379)" fill="#b45356"/>
      <path id="Trazado_38188" data-name="Trazado 38188" d="M464.554,773.114a.725.725,0,0,1-.113-.008.746.746,0,0,1-.627-.851c.268-1.764,1.718-3.769,2.777-5.232l.44-.612c2.341-3.317,4.988-11.56,4.592-15.77a7.785,7.785,0,0,0-1.661-3.651,12.426,12.426,0,0,1-1.735-3.207.747.747,0,1,1,1.422-.46,11.109,11.109,0,0,0,1.549,2.826,9.057,9.057,0,0,1,1.913,4.352c.436,4.618-2.354,13.227-4.858,16.772l-.45.628c-.969,1.339-2.3,3.173-2.51,4.579a.748.748,0,0,1-.738.635" transform="translate(-337.157 -539.97)" fill="#b45356"/>
      <path id="Trazado_38189" data-name="Trazado 38189" d="M456.367,550.7a.749.749,0,0,1-.712-.52c-5.388-16.728-7.733-30.431-7.381-43.123.054-1.944.014-3.953-.023-5.9a86.026,86.026,0,0,1,.14-8.993c.067-.789.155-1.606.244-2.437a38.392,38.392,0,0,0,.329-7.339.748.748,0,0,1,.676-.813.76.76,0,0,1,.813.676,39.535,39.535,0,0,1-.332,7.637c-.088.819-.175,1.626-.241,2.405a85.113,85.113,0,0,0-.134,8.836c.038,1.961.078,3.988.022,5.966-.347,12.518,1.976,26.062,7.31,42.624a.749.749,0,0,1-.712.977" transform="translate(-325.814 -350.078)" fill="#b45356"/>
      <path id="Trazado_38190" data-name="Trazado 38190" d="M332.246,599.3a.748.748,0,0,1-.712-.519c-1.02-3.171-.7-5.9-.359-8.788.147-1.25.3-2.542.337-3.889.046-1.7.051-3.4.055-5.1,0-2.126.01-4.325.1-6.5.116-2.8.064-5.65.013-8.412a107.606,107.606,0,0,1,.211-11.587c.352-3.918.967-7.871,1.561-11.694.544-3.5,1.107-7.117,1.463-10.684.89-8.916,1.618-18.7,2.163-29.086a71.484,71.484,0,0,0-.721-17.1.748.748,0,1,1,1.473-.253,72.8,72.8,0,0,1,.741,17.435c-.546,10.408-1.276,20.217-2.168,29.156-.361,3.607-.927,7.246-1.473,10.764-.591,3.8-1.2,7.729-1.549,11.6a106.488,106.488,0,0,0-.2,11.426c.051,2.783.1,5.662-.014,8.5-.09,2.148-.1,4.332-.1,6.443,0,1.719-.009,3.434-.056,5.141-.04,1.414-.2,2.74-.347,4.023-.321,2.722-.624,5.293.3,8.155a.75.75,0,0,1-.712.977" transform="translate(-240.503 -352.606)" fill="#b45356"/>
      <path id="Trazado_38191" data-name="Trazado 38191" d="M285.168,373.238a.746.746,0,0,1-.623-.333,48.842,48.842,0,0,0-3.357-4.3,46.216,46.216,0,0,1-3.951-5.185,28.888,28.888,0,0,1-2.086-4.365,21.007,21.007,0,0,0-2.754-5.267c-.848-1.059-1.862-2.113-2.843-3.132a34.7,34.7,0,0,1-3.949-4.606,24.622,24.622,0,0,1-3.748-7.282c-.3-1.1-.92-3.379,1.159-4.157,2.151-.8,3.968,1.375,5.173,2.818.277.331.525.63.742.847a57.151,57.151,0,0,0,11.111,9.2,7.5,7.5,0,0,1,1.212.961,5.286,5.286,0,0,0,1.144.875.748.748,0,0,1-.669,1.337,6.506,6.506,0,0,1-1.484-1.109,6.307,6.307,0,0,0-.972-.781,60.251,60.251,0,0,1-11.4-9.428c-.242-.243-.523-.576-.832-.946-.991-1.186-2.347-2.813-3.5-2.376-.622.233-.676.76-.243,2.351a23.132,23.132,0,0,0,3.553,6.859,33.628,33.628,0,0,0,3.782,4.4c1,1.044,2.043,2.122,2.933,3.235a22.426,22.426,0,0,1,2.97,5.632,27.37,27.37,0,0,0,1.971,4.141,45,45,0,0,0,3.828,5.015,50.781,50.781,0,0,1,3.457,4.438.748.748,0,0,1-.622,1.162" transform="translate(-190.117 -243.11)" fill="#b45356"/>
      <path id="Trazado_38192" data-name="Trazado 38192" d="M297.783,330.183a.748.748,0,0,1-.733-.6,8.781,8.781,0,0,0-2.393-3.748c-.39-.436-.772-.864-1.109-1.293-.8-1.016-1.691-2.014-2.555-2.979a39.109,39.109,0,0,1-4.168-5.238c-1.238-1.98-2.494-4.586-1.2-7.174a.748.748,0,0,1,1.337.669c-.963,1.924.1,4.064,1.129,5.713a37.958,37.958,0,0,0,4.014,5.033c.878.983,1.787,2,2.616,3.053.318.4.68.808,1.048,1.219a10,10,0,0,1,2.746,4.452.748.748,0,0,1-.587.88.784.784,0,0,1-.147.014" transform="translate(-207.235 -224.43)" fill="#b45356"/>
      <path id="Trazado_38193" data-name="Trazado 38193" d="M452.706,457.243a.747.747,0,0,1-.731-.91c.21-.944.335-1.912.457-2.849.108-.838.221-1.705.393-2.57a.748.748,0,1,1,1.466.293c-.163.815-.267,1.618-.377,2.468-.126.97-.255,1.972-.48,2.98a.749.749,0,0,1-.729.586" transform="translate(-328.544 -327.348)" fill="#b45356"/>
      <path id="Trazado_38194" data-name="Trazado 38194" d="M455.625,310.541a.78.78,0,0,1-.083,0,.748.748,0,0,1-.662-.824,32.332,32.332,0,0,0-.2-6.616c-.309-3.133-.629-6.372.329-9.593.046-.155.111-.356.187-.59,1.125-3.482,1.036-4.55.763-4.833a1.328,1.328,0,0,0-1-.458h0a4.255,4.255,0,0,0-2.624,1.505c-2.142,2.21-3.482,5.648-3.981,10.218a.748.748,0,0,1-1.487-.163c.537-4.908,2.016-8.641,4.4-11.1a5.752,5.752,0,0,1,3.7-1.959h.006a2.841,2.841,0,0,1,2.071.915c1.126,1.168.411,3.768-.417,6.331-.071.221-.133.411-.176.556-.874,2.94-.583,5.894-.275,9.021a33.5,33.5,0,0,1,.2,6.926.749.749,0,0,1-.742.666" transform="translate(-324.841 -207.994)" fill="#b45356"/>
      <path id="Trazado_38195" data-name="Trazado 38195" d="M747.386,347.816a1.639,1.639,0,1,1,1.672-1.639,1.657,1.657,0,0,1-1.672,1.639m0-1.782a.166.166,0,0,0-.178.143c0,.156.355.156.355,0a.166.166,0,0,0-.177-.143" transform="translate(-542.086 -250.456)" fill="#b45356"/>
      <path id="Trazado_38196" data-name="Trazado 38196" d="M750.017,348.43a.771.771,0,0,1-.147-.014l-.639-.161a.748.748,0,0,1,.237-1.457h.138a.745.745,0,0,1,.417.127l.139.024a.748.748,0,0,1-.145,1.481" transform="translate(-544.272 -252.099)" fill="#b45356"/>
      <path id="Trazado_38197" data-name="Trazado 38197" d="M756.909,321.892a.747.747,0,0,1-.6-.3c-1.176-1.568-3.411-3.4-5.84-3.4a.748.748,0,0,1,0-1.5c2.981,0,5.654,2.154,7.037,4a.747.747,0,0,1-.6,1.2" transform="translate(-545.001 -230.218)" fill="#b45356"/>
      <path id="Trazado_38198" data-name="Trazado 38198" d="M672.819,426.678a7.436,7.436,0,0,1-2.368-.371.747.747,0,1,1,.475-1.417,7.982,7.982,0,0,0,6.082-.841,9.981,9.981,0,0,0,.894-.551c-.218-.039-.49-.082-.83-.129a21.064,21.064,0,0,1-6.483-2.076.748.748,0,1,1,.672-1.336,19.741,19.741,0,0,0,5.928,1.919c1.77.244,2.792.447,2.788,1.312,0,.638-.761,1.372-2.262,2.178a10.482,10.482,0,0,1-4.9,1.312m5.928-2.971h0Z" transform="translate(-487.004 -305.223)" fill="#b45356"/>
      <path id="Trazado_38199" data-name="Trazado 38199" d="M824.079,293.712a.742.742,0,0,1-.391-.111,18.653,18.653,0,0,1-4.13-3.259c-5.19-5.662-4.535-12.976-3.9-20.05.333-3.725.678-7.577.106-11.008-.448-2.687-2.447-8.1-4.838-9.318a1.975,1.975,0,0,0-1.909,0,.748.748,0,1,1-.669-1.337,3.493,3.493,0,0,1,3.257.006c3.19,1.626,5.2,7.826,5.634,10.4.6,3.62.251,7.569-.091,11.387-.633,7.061-1.23,13.731,3.514,18.907a17.259,17.259,0,0,0,3.811,3,.748.748,0,0,1-.393,1.384" transform="translate(-587.316 -180.443)" fill="#b45356"/>
      <path id="Trazado_38200" data-name="Trazado 38200" d="M835.262,239.573a.743.743,0,0,1-.534-.225c-4.887-5-11.951-5.664-18.783-6.31-1.188-.112-2.367-.224-3.526-.357-1.055-.121-2.121-.337-3.153-.546-2.459-.5-4.778-.968-7.085-.31a14.709,14.709,0,0,0-6.8,4.695.748.748,0,1,1-1.185-.911,16.127,16.127,0,0,1,7.58-5.221c2.656-.754,5.265-.228,7.793.283,1.046.212,2.034.412,3.026.526,1.15.132,2.319.243,3.5.354,7.1.671,14.441,1.365,19.71,6.753a.747.747,0,0,1-.534,1.27" transform="translate(-577.213 -167.201)" fill="#b45356"/>
      <path id="Trazado_38201" data-name="Trazado 38201" d="M838.769,522.6a.746.746,0,0,1-.689-.458c-2.716-6.453.465-13.515,3.541-20.344l.524-1.168a49.854,49.854,0,0,0,3.285-11.3,20.248,20.248,0,0,0,.193-5.761.748.748,0,0,1,1.484-.188,21.935,21.935,0,0,1-.207,6.224,51.272,51.272,0,0,1-3.39,11.638l-.527,1.171c-3.08,6.839-5.989,13.3-3.527,19.149a.747.747,0,0,1-.688,1.038" transform="translate(-608.483 -350.908)" fill="#b45356"/>
      <path id="Trazado_38202" data-name="Trazado 38202" d="M982.044,547.833a.748.748,0,0,1-.741-.654c-1.134-8.977-.169-20.467,2.581-30.736.759-2.844,3.5-7.843,6.079-12.358a.747.747,0,1,1,1.3.742c-1.532,2.681-5.12,8.962-5.932,12-2.7,10.092-3.653,21.368-2.541,30.163a.749.749,0,0,1-.648.836.859.859,0,0,1-.1,0" transform="translate(-713.006 -366.162)" fill="#b45356"/>
      <path id="Trazado_38203" data-name="Trazado 38203" d="M877.62,587.278a.74.74,0,0,1-.41-.123c-3.518-2.32-5.718-9.1-4.281-13.185a.748.748,0,0,1,1.411.5c-1.2,3.415.765,9.509,3.692,11.44a.747.747,0,0,1-.412,1.372" transform="translate(-634.239 -416.875)" fill="#b45356"/>
      <path id="Trazado_38204" data-name="Trazado 38204" d="M520.342,1045.711a.747.747,0,0,1-.744-.683c-.213-2.471-.453-4.945-.694-7.422-.628-6.467-1.278-13.155-1.417-19.753a92.418,92.418,0,0,1,.661-11.05,76.8,76.8,0,0,0,.57-12.672c-.293-4.27-1.822-7.658-3.3-10.933-1.8-3.978-3.653-8.09-3.141-13.6a74.39,74.39,0,0,1,4.272-17.8.747.747,0,1,1,1.391.547,73.874,73.874,0,0,0-4.174,17.391c-.477,5.113,1.219,8.868,3.014,12.842,1.534,3.4,3.12,6.908,3.43,11.447a77.844,77.844,0,0,1-.574,12.923,91.345,91.345,0,0,0-.653,10.87c.138,6.542.785,13.2,1.41,19.64.241,2.481.481,4.961.695,7.437a.747.747,0,0,1-.68.809.592.592,0,0,1-.065,0" transform="translate(-372.328 -691.554)" fill="#b45356"/>
      <path id="Trazado_38205" data-name="Trazado 38205" d="M532.57,1380.489a.747.747,0,0,1-.742-.665,12.734,12.734,0,0,1,.68-4.76,19.735,19.735,0,0,0,.588-2.563c.394-2.935.557-5.971.714-8.907l.031-.561a.771.771,0,0,1,.787-.707.748.748,0,0,1,.706.787l-.031.561c-.159,2.965-.324,6.031-.725,9.026a21.293,21.293,0,0,1-.628,2.76,11.477,11.477,0,0,0-.636,4.2.748.748,0,0,1-.66.826q-.043,0-.084,0" transform="translate(-386.574 -990.322)" fill="#b45356"/>
      <path id="Trazado_38206" data-name="Trazado 38206" d="M286.552,745.2a.747.747,0,0,1-.6-1.2,27.647,27.647,0,0,0,4.6-8.377c1.1-3.843,1.031-8.036.966-12.091a71.943,71.943,0,0,1,.147-7.612l.046-.5a191.854,191.854,0,0,1,2.568-20.231.748.748,0,0,1,1.466.292A190.622,190.622,0,0,0,293.2,715.56l-.046.5a70.828,70.828,0,0,0-.141,7.452c.066,4.165.135,8.472-1.023,12.527a28.692,28.692,0,0,1-4.838,8.863.745.745,0,0,1-.6.3" transform="translate(-207.762 -504.922)" fill="#b45356"/>
      <path id="Trazado_38207" data-name="Trazado 38207" d="M310.971,819.763a.747.747,0,1,1,0-1.495,10.561,10.561,0,0,0,2.594-.466,11.7,11.7,0,0,1,2.936-.51.747.747,0,1,1,0,1.494,10.448,10.448,0,0,0-2.556.461,11.812,11.812,0,0,1-2.973.515" transform="translate(-225.512 -594.118)" fill="#b45356"/>
      <path id="Trazado_38208" data-name="Trazado 38208" d="M239.725,929.8c-13.966,0-28.33-.149-42.31-2.945-7.6-1.519-15.983-3.982-20.479-10.726a.748.748,0,1,1,1.244-.83c4.194,6.291,12.225,8.631,19.528,10.091,14.665,2.932,29.824,2.934,44.5,2.913h2.519a.747.747,0,1,1,0,1.494h-5" transform="translate(-128.53 -665.124)" fill="#b45356"/>
      <path id="Trazado_38209" data-name="Trazado 38209" d="M503.289,142.771a12.545,12.545,0,0,1-2.868-.355l-.346-.08a8.186,8.186,0,0,1-3.91-1.665.748.748,0,0,1,1.034-1.079,7.024,7.024,0,0,0,3.209,1.286l.354.081c6.132,1.44,8.717-2.306,11.714-6.641.663-.96,1.349-1.953,2.088-2.9l.116-.149c2.786-3.587,4.986-6.419,6.411-10.757.831-2.53.4-5.649-.011-8.666a40.66,40.66,0,0,1-.456-4.516,23.647,23.647,0,0,1,.835-5.777,26.2,26.2,0,0,0,.8-4.8,34.612,34.612,0,0,0-1.931-13.338.748.748,0,1,1,1.408-.5,36.064,36.064,0,0,1,2.017,13.9,27.259,27.259,0,0,1-.835,5.078,22.2,22.2,0,0,0-.8,5.409,39.639,39.639,0,0,0,.443,4.346c.437,3.184.889,6.478-.05,9.335-1.505,4.584-3.776,7.507-6.65,11.208l-.116.149c-.713.918-1.387,1.893-2.039,2.837-2.589,3.746-5.254,7.6-10.417,7.6" transform="translate(-360.513 -59.908)" fill="#b45356"/>
      <path id="Trazado_38210" data-name="Trazado 38210" d="M518.242,155.021a3.552,3.552,0,0,1-2.678-1.483,10.382,10.382,0,0,1-1.719-3.029,14.955,14.955,0,0,1,2.082-13.984c1.463-1.816,3.551-2.767,5.2-2.366a3.416,3.416,0,0,1,2.471,2.969.748.748,0,1,1-1.465.3c-.212-1.037-.669-1.648-1.359-1.815-1.057-.257-2.608.521-3.68,1.851a13.41,13.41,0,0,0-1.839,12.542,8.9,8.9,0,0,0,1.447,2.56c.69.806,1.345,1.1,1.948.888a.748.748,0,0,1,.5,1.408,2.69,2.69,0,0,1-.909.161" transform="translate(-372.904 -97.457)" fill="#b45356"/>
      <path id="Trazado_38211" data-name="Trazado 38211" d="M536.892,169.707a.749.749,0,0,1-.7-.5,18.38,18.38,0,0,1-.549-2.012,17.833,17.833,0,0,0-.538-1.976.748.748,0,0,1,1.408-.5,19.2,19.2,0,0,1,.587,2.142,16.865,16.865,0,0,0,.5,1.846.747.747,0,0,1-.452.956.739.739,0,0,1-.252.044" transform="translate(-388.952 -119.378)" fill="#b45356"/>
      <path id="Trazado_38212" data-name="Trazado 38212" d="M344.74,48.728a.744.744,0,0,1-.517-.208c-4.792-4.588-6.7-11.338-5.361-19.007A38.112,38.112,0,0,1,358.275,3.075c11.74-6.421,27.935-1.975,37.862,5.737a26.193,26.193,0,0,1,5.116,5.9c.6.855,1.2,1.71,1.848,2.529a.748.748,0,1,1-1.177.924c-.659-.84-1.277-1.716-1.893-2.592a24.685,24.685,0,0,0-4.811-5.577c-9.541-7.411-25.048-11.716-36.227-5.606A36.6,36.6,0,0,0,340.336,29.77c-.883,5.067-.746,12.246,4.921,17.67a.748.748,0,0,1-.517,1.288" transform="translate(-246.028 0.005)" fill="#b45356"/>
      <path id="Trazado_38213" data-name="Trazado 38213" d="M405.382,218.528a.746.746,0,0,1-.684-.446c-3.484-7.9-7.117-13.528-11.107-17.211-1.848-1.706-4.526-2.744-6.889-3.66l-.2-.079c-1.39-.539-2.781-1.159-4.126-1.757-3.248-1.445-6.6-2.939-10.14-3.384a.747.747,0,0,1,.186-1.483c3.754.472,7.215,2.011,10.562,3.5,1.329.591,2.7,1.2,4.059,1.728l.205.08c2.487.964,5.306,2.057,7.362,3.955,4.145,3.825,7.894,9.616,11.461,17.706a.748.748,0,0,1-.683,1.049" transform="translate(-270.112 -138.481)" fill="#b45356"/>
      <path id="Trazado_38214" data-name="Trazado 38214" d="M290.188,224.53a.749.749,0,0,1-.691-.461c-6.726-16.175,11.88-26.982,17.743-29.908a.748.748,0,0,1,.668,1.337c-5.57,2.781-23.26,13.018-17.03,28a.747.747,0,0,1-.691,1.035" transform="translate(-209.396 -141.084)" fill="#b45356"/>
      <path id="Trazado_38215" data-name="Trazado 38215" d="M332.709,308.509c-4.22,0-6.889-2.755-9.478-5.428-.533-.549-1.07-1.1-1.626-1.642-1.517-1.467-3.106-2.938-4.717-4.432-7.892-7.31-16.052-14.87-19.586-24.9a.748.748,0,1,1,1.41-.5c3.411,9.684,11.433,17.116,19.191,24.3,1.62,1.5,3.216,2.98,4.74,4.453.568.549,1.117,1.115,1.661,1.676,2.858,2.95,5.327,5.5,9.669,4.88.984-.14,1.365-.722,1.952-1.74a7.292,7.292,0,0,1,1.185-1.653c1.579-1.535,3.15-3.036,4.758-4.536a17.305,17.305,0,0,1,2.349-1.72c1.5-.976,3.051-1.987,3.526-3.408.8-2.384-.929-3.985-2.756-5.681a18.175,18.175,0,0,1-2-2.053,8.134,8.134,0,0,0-2.349-1.783,9.139,9.139,0,0,1-2.692-2.086,33.137,33.137,0,0,1-2.795-4.577c-.5-.926-.972-1.8-1.478-2.626a11,11,0,0,1-1.356-4.861,16.724,16.724,0,0,0-.479-2.823,19.16,19.16,0,0,0-7.214-9.71.747.747,0,0,1,.883-1.206,20.673,20.673,0,0,1,7.768,10.5,17.953,17.953,0,0,1,.528,3.071,9.678,9.678,0,0,0,1.145,4.245c.526.859,1.031,1.794,1.519,2.7a32.081,32.081,0,0,0,2.659,4.37,7.954,7.954,0,0,0,2.274,1.717,9.341,9.341,0,0,1,2.768,2.152,16.855,16.855,0,0,0,1.832,1.875c1.9,1.761,4.26,3.952,3.157,7.25-.639,1.917-2.493,3.123-4.128,4.188a15.984,15.984,0,0,0-2.145,1.559c-1.6,1.494-3.164,2.987-4.737,4.516a5.95,5.95,0,0,0-.932,1.328,4.04,4.04,0,0,1-3.036,2.473,10.5,10.5,0,0,1-1.475.107" transform="translate(-216.089 -186.322)" fill="#b45356"/>
      <path id="Trazado_38216" data-name="Trazado 38216" d="M417.4,262.927a.747.747,0,0,1-.737-.634,25.283,25.283,0,0,0-3.693-10.156.748.748,0,1,1,1.248-.824,26.77,26.77,0,0,1,3.922,10.752.747.747,0,0,1-.625.852.735.735,0,0,1-.115.009" transform="translate(-300.112 -182.443)" fill="#b45356"/>
      <path id="Trazado_38217" data-name="Trazado 38217" d="M491.99,325.323a.748.748,0,0,1-.674-1.071c.757-1.581.669-3.823.591-5.8-.028-.711-.055-1.4-.046-2.031a87.126,87.126,0,0,1,1.01-10.4c.144-1.05.287-2.092.416-3.117a.748.748,0,0,1,1.484.186c-.13,1.031-.273,2.078-.418,3.134a85.873,85.873,0,0,0-1,10.219c-.009.608.017,1.267.044,1.951.085,2.153.18,4.592-.737,6.507a.747.747,0,0,1-.675.425" transform="translate(-357.102 -219.713)" fill="#b45356"/>
      <path id="Trazado_38218" data-name="Trazado 38218" d="M445.755,409.44c-1.364,0-2.39-1.152-3.3-2.177-.742-.833-1.509-1.694-2.286-1.792a.747.747,0,0,1,.186-1.483c1.335.167,2.292,1.242,3.218,2.281.8.9,1.566,1.754,2.3,1.669,3.9-.472,10.578-5.673,10.266-9.961-.037-.5-.529-1.95-4.294-4.462a.748.748,0,1,1,.83-1.244c3.172,2.116,4.839,4,4.956,5.6.377,5.192-6.949,11-11.579,11.554a2.488,2.488,0,0,1-.3.017" transform="translate(-319.497 -285.063)" fill="#b45356"/>
      <path id="Trazado_38219" data-name="Trazado 38219" d="M457.025,454.674a1.314,1.314,0,0,1-.649-.172c-1.2-.67-1.014-2.891-.6-4.221.147-.468.472-1.311.726-1.968l.1-.266a.747.747,0,0,1,1.395.538l-.1.268c-.242.625-.554,1.429-.694,1.876a3.884,3.884,0,0,0-.095,2.464,5.21,5.21,0,0,0,.954-.886,10.891,10.891,0,0,0,2.814-6.238.748.748,0,0,1,1.484.187,12.421,12.421,0,0,1-3.168,7.028,3.219,3.219,0,0,1-2.172,1.389m.1-1.46h0Z" transform="translate(-331.091 -323.786)" fill="#b45356"/>
      <path id="Trazado_38220" data-name="Trazado 38220" d="M463.883,450.188a4.2,4.2,0,0,1-.537-.034.747.747,0,1,1,.186-1.483c1.506.193,2.781-.859,3.8-3.113a22.98,22.98,0,0,0,1.589-6.1.747.747,0,1,1,1.483.186,24.507,24.507,0,0,1-1.71,6.536c-1.464,3.23-3.34,4.013-4.814,4.013" transform="translate(-336.347 -318.976)" fill="#b45356"/>
      <path id="Trazado_38221" data-name="Trazado 38221" d="M476.318,443.78a1.665,1.665,0,0,1-.893-.259.748.748,0,0,1,.795-1.267.2.2,0,0,0,.181.019,4.149,4.149,0,0,0,1.7-1.791c1.157-2.041,2.636-6.206,1.681-8.69a.748.748,0,0,1,1.4-.537c1.147,2.985-.434,7.594-1.776,9.964-.2.358-1.284,2.162-2.636,2.5a1.834,1.834,0,0,1-.449.057" transform="translate(-345.349 -313.144)" fill="#b45356"/>
      <path id="Trazado_38222" data-name="Trazado 38222" d="M490.727,434.437a.748.748,0,0,1,0-1.5c.557,0,.825-.8,1.1-1.774l.068-.243c.578-2.024,1.438-5.038.5-6.912a.748.748,0,1,1,1.337-.669c1.2,2.394.241,5.745-.392,7.963l-.073.261c-.3,1.073-.8,2.87-2.536,2.87" transform="translate(-356.183 -307.441)" fill="#b45356"/>
      <path id="Trazado_38223" data-name="Trazado 38223" d="M218.253,278.487a.739.739,0,0,1-.114-.009.747.747,0,0,1-.625-.853,7.525,7.525,0,0,1,2.286-3.919c.249-.274.5-.549.734-.833a33.487,33.487,0,0,0,3.8-6.254l.3-.593a18.357,18.357,0,0,0,1.141-3.113,22.287,22.287,0,0,1,1.025-2.906c.318-.691.677-1.416,1.046-2.162a33.451,33.451,0,0,0,2.529-6.03,35.671,35.671,0,0,1,2.858-8.152,51.744,51.744,0,0,1,6.979-9.361.748.748,0,0,1,1.1,1.01,50.309,50.309,0,0,0-6.771,9.071,34.514,34.514,0,0,0-2.721,7.806,34.442,34.442,0,0,1-2.637,6.319c-.363.733-.716,1.446-1.028,2.124a20.933,20.933,0,0,0-.951,2.712,19.8,19.8,0,0,1-1.242,3.364l-.3.591a34.6,34.6,0,0,1-3.982,6.529c-.25.3-.513.591-.777.882a6.3,6.3,0,0,0-1.916,3.141.748.748,0,0,1-.738.634" transform="translate(-158.112 -170.146)" fill="#b45356"/>
      <path id="Trazado_38224" data-name="Trazado 38224" d="M253.144,414.5a.746.746,0,0,1-.6-.306,20.472,20.472,0,0,0-5.081-4.336c-.422-.289-.838-.574-1.239-.859-5.684-4.031-13.278-8.823-21.616-10.113a.747.747,0,1,1,.229-1.477c8.647,1.337,16.434,6.244,22.252,10.37.394.28.8.56,1.219.844a21.538,21.538,0,0,1,5.442,4.686.748.748,0,0,1-.6,1.189" transform="translate(-162.813 -288.886)" fill="#b45356"/>
      <path id="Trazado_38225" data-name="Trazado 38225" d="M240.033,433.309a.745.745,0,0,1-.518-.209c-.469-.451-.989-.978-1.534-1.531-.914-.927-1.859-1.886-2.772-2.7-5.388-4.8-11.757-10.17-18.14-13.626-.7-.379-1.4-.775-2.1-1.173-1.408-.8-2.865-1.624-4.325-2.3-.088-.041-.237-.092-.414-.155-1.182-.422-2.181-.833-2.431-1.607-.437-1.365.326-3.058,1.064-4.695a10.935,10.935,0,0,0,.88-2.353.747.747,0,1,1,1.477.229,11.709,11.709,0,0,1-.993,2.738c-.593,1.315-1.265,2.807-1,3.623a7.411,7.411,0,0,0,1.509.656c.231.083.423.153.538.206,1.517.7,3,1.54,4.437,2.354.692.393,1.382.784,2.074,1.158,6.517,3.529,12.97,8.969,18.422,13.824.951.846,1.955,1.867,2.843,2.767.535.543,1.045,1.06,1.506,1.5a.748.748,0,0,1-.518,1.287" transform="translate(-150.964 -292.468)" fill="#b45356"/>
      <path id="Trazado_38226" data-name="Trazado 38226" d="M116.847,521.021a.739.739,0,0,1-.414-.125c-.547-.364-1.087-.745-1.626-1.126a22.473,22.473,0,0,0-5.083-2.972c-.486-.18-1.267-.367-2.095-.566-1.969-.472-4.2-1.008-5.189-2a6.574,6.574,0,0,1-1.237-2.7,9,9,0,0,0-.532-1.5,15.975,15.975,0,0,0-1.677-2.341,15.547,15.547,0,0,1-1.916-2.756,31.024,31.024,0,0,1-1.579-4.058c-.223-.664-.445-1.328-.691-1.982-3.212-8.565-4.622-17.735-3.772-24.529,1.121-8.982,5.5-17.224,13.777-25.938l.614-.647c3.674-3.873,7.145-7.531,11.6-10.5a.748.748,0,0,1,.83,1.244c-4.317,2.878-7.732,6.478-11.346,10.288l-.615.647c-8.047,8.471-12.3,16.445-13.378,25.094-.821,6.566.558,15.47,3.689,23.818.251.67.479,1.351.708,2.032a29.537,29.537,0,0,0,1.5,3.865,14.213,14.213,0,0,0,1.741,2.485,17.317,17.317,0,0,1,1.828,2.566,9.7,9.7,0,0,1,.652,1.785,6.192,6.192,0,0,0,.862,2.074c.69.69,2.881,1.216,4.481,1.6a22.049,22.049,0,0,1,2.263.617,23.932,23.932,0,0,1,5.427,3.153c.529.374,1.057.746,1.593,1.1a.747.747,0,0,1-.415,1.369" transform="translate(-66.002 -317.783)" fill="#b45356"/>
      <path id="Trazado_38227" data-name="Trazado 38227" d="M35.574,747.386a.747.747,0,0,1-.567-1.234,118.46,118.46,0,0,1,13.635-12.865c2.179-1.847,4.432-3.758,6.574-5.705.328-.3.685-.588,1.044-.881a12.675,12.675,0,0,0,1.719-1.579,5.41,5.41,0,0,0,.981-1.788A4.686,4.686,0,0,1,61.8,720.3a.748.748,0,0,1,.669,1.339,3.3,3.3,0,0,0-2.109,2.212,6.85,6.85,0,0,1-1.233,2.223A13.726,13.726,0,0,1,57.2,727.86c-.338.275-.674.548-.982.829-2.161,1.965-4.424,3.883-6.613,5.739a117.242,117.242,0,0,0-13.467,12.7.744.744,0,0,1-.568.26" transform="translate(-25.317 -523.556)" fill="#b45356"/>
      <path id="Trazado_38228" data-name="Trazado 38228" d="M262.359,667.385a.747.747,0,0,1-.584-1.214c.531-.663,1.107-1.3,1.685-1.937a23.318,23.318,0,0,0,2.592-3.215c2.511-4.018,2.721-9.821,2.721-15.421,0-4.646-.113-9.37-.223-13.936s-.224-9.305-.224-13.967a.748.748,0,0,1,1.5,0c0,4.643.113,9.366.223,13.931s.224,9.309.224,13.973c0,5.817-.228,11.859-2.949,16.214a24.74,24.74,0,0,1-2.753,3.425c-.557.615-1.113,1.228-1.625,1.868a.749.749,0,0,1-.585.28" transform="translate(-190.175 -448.479)" fill="#b45356"/>
      <path id="Trazado_38229" data-name="Trazado 38229" d="M40.269,831.725a5.263,5.263,0,0,1-1.68-.267c-4.974-1.659-9.542-6.368-11.821-9.026-2.722-3.176-4.507-5.6-4.507-10.186a.748.748,0,0,1,1.5,0c0,4.08,1.567,6.2,4.146,9.213,2.179,2.542,6.527,7.037,11.16,8.581,2.793.932,6.31-1.787,8.639-3.587.291-.225.566-.437.821-.629,6.3-4.728,12.847-8.21,19.774-11.9L71,812.482c1.091-.584,2.258-1.147,3.445-1.72,3.279-1.581,6.669-3.216,9.062-5.609a.747.747,0,0,1,1.057,1.056c-2.572,2.574-6.078,4.265-9.47,5.9-1.168.563-2.314,1.117-3.389,1.693L69,815.245c-6.875,3.659-13.369,7.116-19.58,11.774-.251.187-.52.4-.805.616-2.178,1.683-5.3,4.09-8.347,4.09" transform="translate(-16.182 -585.134)" fill="#b45356"/>
      <path id="Trazado_38230" data-name="Trazado 38230" d="M282.58,687.165a.747.747,0,0,1-.608-1.182c2.887-4.044,3.426-7.783,4.107-12.518l.239-1.633c.525-3.5.876-7.137,1.216-10.651a148.578,148.578,0,0,1,1.924-14.754c.536-2.682,2.245-4.36,3.9-5.982.5-.493,1.013-.994,1.505-1.535a28.484,28.484,0,0,0,4.212-6.249.748.748,0,1,1,1.337.67,30.007,30.007,0,0,1-4.443,6.585c-.512.562-1.042,1.084-1.563,1.6-1.627,1.6-3.033,2.978-3.479,5.208-.95,4.746-1.433,9.757-1.9,14.6-.341,3.534-.695,7.189-1.226,10.729l-.238,1.624c-.683,4.741-1.271,8.834-4.37,13.173a.745.745,0,0,1-.609.313" transform="translate(-204.875 -459.603)" fill="#b45356"/>
      <path id="Trazado_38231" data-name="Trazado 38231" d="M118.638,868.706a.747.747,0,0,1-.621-1.162c2.232-3.349,5.691-5.6,9.035-7.788.851-.555,1.692-1.1,2.5-1.663,3.6-2.49,7.335-4.876,10.951-7.183a206.473,206.473,0,0,0,18.106-12.485.748.748,0,0,1,.934,1.168,208.07,208.07,0,0,1-18.236,12.577c-3.6,2.3-7.331,4.678-10.9,7.151-.819.568-1.673,1.125-2.535,1.687-3.219,2.1-6.546,4.272-8.609,7.365a.747.747,0,0,1-.622.332" transform="translate(-85.699 -609.362)" fill="#b45356"/>
      <path id="Trazado_38232" data-name="Trazado 38232" d="M88.54,923.775a.745.745,0,0,1-.392-.111A15.176,15.176,0,0,1,81.86,915.2a.748.748,0,0,1,1.425-.453,13.7,13.7,0,0,0,5.648,7.647.747.747,0,0,1-.393,1.383" transform="translate(-59.481 -664.58)" fill="#b45356"/>
      <path id="Trazado_38233" data-name="Trazado 38233" d="M19.062,888.7a.744.744,0,0,1-.333-.079c-5.67-2.834-12.281-6.919-13.092-13.409a39.71,39.71,0,0,1-.206-5.065,25.35,25.35,0,0,0-.667-7.207,18.335,18.335,0,0,0-2.079-4.113c-2.118-3.489-4.519-7.442-.567-11.393A10.585,10.585,0,0,1,4.2,845.921a12.931,12.931,0,0,0,1.41-.936.747.747,0,1,1,.936,1.165A14.139,14.139,0,0,1,4.976,847.2a9.438,9.438,0,0,0-1.8,1.285c-3.122,3.123-1.223,6.25.788,9.561A19.622,19.622,0,0,1,6.2,862.524a26.866,26.866,0,0,1,.725,7.622,38.708,38.708,0,0,0,.194,4.876c.724,5.786,6.941,9.59,12.277,12.256a.748.748,0,0,1-.335,1.417" transform="translate(0 -614.129)" fill="#b45356"/>
      <path id="Trazado_38234" data-name="Trazado 38234" d="M77.161,936.415a.747.747,0,1,1,0-1.494,1.247,1.247,0,0,0,.965-.49,4.554,4.554,0,0,0,.832-3.135,16.866,16.866,0,0,0-1.245-3.9,23.853,23.853,0,0,1-1.128-3.188,44.591,44.591,0,0,1-.766-13.678.74.74,0,0,1,.812-.677.749.749,0,0,1,.677.813,42.336,42.336,0,0,0,.727,13.179,22.432,22.432,0,0,0,1.062,2.986,18.193,18.193,0,0,1,1.34,4.252,5.994,5.994,0,0,1-1.183,4.326,2.726,2.726,0,0,1-2.094,1.005" transform="translate(-54.966 -661.401)" fill="#b45356"/>
      <path id="Trazado_38235" data-name="Trazado 38235" d="M82.849,979.146c-3.322,0-5.746-3.232-7.432-5.481a.748.748,0,1,1,1.2-.9c1.916,2.556,4.3,5.742,7.521,4.664,1.849-.615,2.02-1.111,2.036-1.2.131-.79-.5-1.772-1.113-2.722a10.239,10.239,0,0,1-.932-1.653,51.141,51.141,0,0,1-2.89-15.35.748.748,0,0,1,1.5,0,50.135,50.135,0,0,0,2.782,14.8,9.321,9.321,0,0,0,.8,1.4c.73,1.133,1.558,2.418,1.331,3.777-.216,1.3-1.837,1.977-3.038,2.376a5.514,5.514,0,0,1-1.758.3" transform="translate(-54.715 -694.772)" fill="#b45356"/>
      <path id="Trazado_38236" data-name="Trazado 38236" d="M355.494,472.611a.748.748,0,0,1-.336-1.416c5.908-2.965,14.1-3.829,21.375-2.253a13.266,13.266,0,0,1,1.516.452,9.774,9.774,0,0,0,2.061.539.748.748,0,0,1-.182,1.485,11.15,11.15,0,0,1-2.364-.61,12.051,12.051,0,0,0-1.348-.4c-6.959-1.508-14.772-.693-20.389,2.127a.742.742,0,0,1-.335.08" transform="translate(-257.878 -340.326)" fill="#b45356"/>
      <path id="Trazado_38237" data-name="Trazado 38237" d="M360.371,523.442a.748.748,0,0,1-.25-1.452,42.608,42.608,0,0,1,16.414-2.375l.967.031a16.064,16.064,0,0,1,6.3,1.012.747.747,0,0,1-.643,1.349,15.05,15.05,0,0,0-5.7-.867l-.984-.031a41.043,41.043,0,0,0-15.855,2.29.744.744,0,0,1-.25.043" transform="translate(-261.423 -377.695)" fill="#b45356"/>
      <path id="Trazado_38238" data-name="Trazado 38238" d="M949.852,258.954a.747.747,0,0,1-.686-.452,1.019,1.019,0,0,0-.711-.675c-.214,0-.329.215-.378.341a.748.748,0,0,1-1.392-.546,1.923,1.923,0,0,1,1.746-1.29,2.38,2.38,0,0,1,2.108,1.579.747.747,0,0,1-.686,1.043" transform="translate(-688.141 -186.335)" fill="#b45356"/>
      <path id="Trazado_38239" data-name="Trazado 38239" d="M959.376,268.989a5.186,5.186,0,0,1-.736-.054A4.435,4.435,0,0,1,955.43,267c-2.057-3.073-.618-8.712.155-11.743l.129-.511a.747.747,0,1,1,1.45.363l-.131.518c-.663,2.6-2.044,8.023-.36,10.541a2.964,2.964,0,0,0,2.179,1.288c2.257.323,3.385-1.446,4.956-4.4,1.123-2.111,2.284-4.293,4.371-4.814,2.249-.557,24.935,2.92,26.667,3.26a.748.748,0,0,1-.287,1.468c-3.244-.637-24.35-3.683-26.017-3.277-1.442.36-2.4,2.16-3.413,4.066-1.31,2.464-2.783,5.232-5.752,5.232" transform="translate(-693.766 -184.771)" fill="#b45356"/>
      <path id="Trazado_38240" data-name="Trazado 38240" d="M540.626,1323.374a.747.747,0,0,1-.748-.747c0-1.179.083-2.39.164-3.562s.163-2.38.163-3.558a.748.748,0,0,1,1.5,0c0,1.229-.085,2.466-.167,3.66s-.16,2.332-.16,3.459a.747.747,0,0,1-.748.747" transform="translate(-392.457 -955.745)" fill="#b45356"/>
    </g>
  </g>
</svg>
