<svg xmlns="http://www.w3.org/2000/svg" xmlns:xlink="http://www.w3.org/1999/xlink" width="551.526" height="391.842" viewBox="0 0 551.526 391.842">
  <defs>
    <clipPath id="clip-path">
      <rect id="Rectángulo_3805" data-name="Rectángulo 3805" width="551.526" height="391.841" fill="none"/>
    </clipPath>
  </defs>
  <g id="Grupo_16575" data-name="Grupo 16575" transform="translate(0 -0.001)">
    <g id="Grupo_16574" data-name="Grupo 16574" transform="translate(0 0.001)" clip-path="url(#clip-path)">
      <path id="Trazado_38241" data-name="Trazado 38241" d="M1222.481,208.836s-2.381,10.919-3.77,15.09c-5.137,15.415-20.6,25.635-35.845,29.791-12.585,3.431-25.72-1.554-32.339-12.587a51.714,51.714,0,0,1-7.328-20.709,25.264,25.264,0,0,1,.637-7.966c.172-.861,3.709-6.924,3.709-6.924l-4.243.936s-3.586.228-5.042-.863a26.14,26.14,0,0,1-6.082-5.543,173.67,173.67,0,0,1-14.214-21.491c-4.182-7.576-3.526-10.6-4.744-15.478a57.244,57.244,0,0,0-3-9.736c-2-5.179-2.164-8.185-3.03-13.387a12.706,12.706,0,0,1,.158-3.664c1.42-9.932,11.059-11.116,19.118-12.267a20.828,20.828,0,0,1,7.169-.159c11,2.539,17.321,12.316,27.242,16.569,3.822,1.639,8.957,3.561,13.223,2.707,5.12-1.024,9.084-6.1,14.5-1.592,7.911,6.593,1.627,24.488,1.627,24.488a112.713,112.713,0,0,0,1.676,14.157,58.925,58.925,0,0,0,3.885,11.226c2.249,5.249,7.93,9.767,12.351,11.79,3.061,1.4,14.341,5.614,14.341,5.614" transform="translate(-796.494 -88.936)" fill="#ffe4d0" fill-rule="evenodd"/>
      <path id="Trazado_38242" data-name="Trazado 38242" d="M1587.272,698.494s4.068,10.325,6.693,16.184c3.552,7.928,8.706,21.814,10.539,26.914,1.071,2.984,4.416,10.964,4.028,11.741-.5,1.009-4.5,2.909-8.748,5.481-4.672,2.83-9.252,5.451-12.068,7.058-2.484,1.421-12.646,6.078-12.138,6.078,7.531,0,19.606.162,23.81.594,2.408.248,16.755.555,21.416,1.192s18.893,1.976,18.893,1.976,3.722-3.375,4.382-4.812a37.248,37.248,0,0,0,1.843-8.328,55.758,55.758,0,0,0-1.648-12.9c-.691-3.167-3.715-12.174-6.515-22.185-2.091-7.481-4.089-16.42-4.726-19.036-1.491-6.117-2.386-12.5-3.725-17.411-.545-2-2.04-7.687-2.04-7.687s-5.978,1.021-7.764,1.021c-2.584,0-4.924.942-7.43,1.521a59.841,59.841,0,0,0-16.887,6.585c-2.209,1.288-7.917,6.011-7.917,6.011" transform="translate(-1133.511 -491.63)" fill="#ffe4d0" fill-rule="evenodd"/>
      <path id="Trazado_38243" data-name="Trazado 38243" d="M661.33,636.2s-4.415,8.3-6.085,11.033c-3.378,5.524-8.164,11.766-11.306,17.5-1.949,3.558-4.669,6.712-7.1,9.939-6.31,8.363-13.193,15.508-24.191,15.939-4.8.188-8.306.9-12.881.607a49.479,49.479,0,0,1-11.006-1.834,28.22,28.22,0,0,1-8.03-3.6c-2.984-2.137-4.266-4.354-6.14-7.436-1.73-2.845-3.452-7.219-6.433-9.042-2.626-1.607-5.77-4.023-8.351-5.718-2.29-1.5-5.278-4.348-8.093-4.936-1.785-.373-4.464.8-6.739.665a11.543,11.543,0,0,1-3.84-1.181,15.345,15.345,0,0,0-8.43-.523s-4.236-.131-5.346-.315c-1.5-.251-3.194-.813-4.19-.094-3.44,2.5,2.626,6.791,2.626,6.791s-2.307,1.848-3.039,2.327a5.219,5.219,0,0,0-1.639,2.812c-.374,1.8,1.776,2.823,3.13,3.375,2.515,1.027,4.747,3.08,6.929,4.642.533.383,1.684,1.545,1.276,1.832,0,0-2-.206-2.11-.191-1.191.155-4.855-.918-5.394.936-1.318,4.539,5.634,9.232,5.634,9.232a16.325,16.325,0,0,0-.288,2.446c.035.87,1.178,2.091,1.634,2.788,1.778,2.715,5.682,3.987,8.524,5,4.274,1.518,8,2.594,12.094,4.446,2.266,1.022,7.581,3.718,10.119,3.981,4.8.494,8.245.427,12.845,2.19,4.106,1.572,9.042,4.767,12.367,6.107s9.663,3.569,11.439,4.2a74.9,74.9,0,0,0,19.888,3.755c3.387.243,10.794.584,14.139-.394,10.451-3.052,15.047-9.118,22.4-17.067,2.813-3.045,4.667-5.277,7.263-8.463,4.379-5.376,11-14.987,16.624-21.069,3.37-3.646,13.83-16.642,13.83-16.642a9.044,9.044,0,0,0-2.693-1.419,30.509,30.509,0,0,1-6.722-3.651c-5.559-4.149-10.848-8.441-16.16-12.857-2.051-1.7-6.546-6.109-6.546-6.109" transform="translate(-374.873 -457.701)" fill="#ffe4d0" fill-rule="evenodd"/>
      <path id="Trazado_38244" data-name="Trazado 38244" d="M165.576,704.219c.145-4.754-.066-9.679,1-14.348a38.708,38.708,0,0,1,4.561-10.679c5.106-8.7,11.2-16.638,17.242-24.7a66.2,66.2,0,0,1,5.785-7.119c.9-.9,2.083-2.475,3.448-2.669,1.857-.266,3.5.8,5.116,1.446a9.142,9.142,0,0,1,3.113,2.185,26.166,26.166,0,0,1,5.824,9.4c.979,2.448,1.663,5.969,2.446,7.927a6.544,6.544,0,0,0,2.79,3.473c.97.728,4.116.524,4.4,1.958.416,2.081-.831,3.522-.88,5.724a10.646,10.646,0,0,0,.979,4.306s-2.827,1.928-2.545,4.187c.3,2.361,3.866,1.734,3.866,1.734s1,4.25,1.125,4.894c.527,2.633.57,4.385-1.209,6.609a17.068,17.068,0,0,1-8.919,5.427c-3.427.857-9.052,1.86-9.052,1.86l-2.741,5.285a7.688,7.688,0,0,1,1.245,1.333c.515.772.918,2.821.446,3.672-1.424,2.562-6.608,2.558-8.9,2.558a69.812,69.812,0,0,1-22.136-4.117c-.955-.327-7.549-5.453-7.549-5.453s.513-4.118.537-4.894" transform="translate(-118.735 -463.794)" fill="#ffedde" fill-rule="evenodd"/>
      <path id="Trazado_38245" data-name="Trazado 38245" d="M460.961,994.67c1.787,1.839,4.27,1.925,7.052,2.564a28.943,28.943,0,0,1,4.349,1.662c.931.4,3.249,1.381,3.449-.222.149-1.19.3-2.33-.325-3.182-1.009-1.381-3.219-2.238-4.569-3.047-.557-.334-1.134-1.724-.439-2.3,1.606-1.339,3.117-2.206,4.687-3.579a10.407,10.407,0,0,1,5.652-2.906c2.391-.342,4.879,2.209,7.23.445.469-.352,1.1-.409.869-1.545a7.6,7.6,0,0,0-1.684-3.242,21.006,21.006,0,0,0-3.09-3.094,22.957,22.957,0,0,0-3.77-1.464c-1.513-.6-4.167-1.507-6.417-1.11-2.316.409-4.234,2.137-6.208,2.772-2.324.745-4.09,1.224-4.09,1.224a37.807,37.807,0,0,0-2.19,4.767,19.754,19.754,0,0,0-1.389,7.875c.124,1.115.094,3.575.881,4.385" transform="translate(-330.964 -700.404)" fill="#ffedde" fill-rule="evenodd"/>
      <path id="Trazado_38246" data-name="Trazado 38246" d="M535.027,1043.494a12.08,12.08,0,0,1,1.022-2.222c.509-.9,1.11-1.033,2.27-2.748.449-.664,1.4-3.012,1.991-3.9,1.619-2.431,3.039-1.515,5.727-1.515,1.112,0,3.279-.846,4.4-.784a11.547,11.547,0,0,1,7.13,3.224,14.879,14.879,0,0,1,2.679,2.294c.679.906,1.442,3.963.04,4.764-1.789,1.023-3.813-.825-5.729.742-2.182,1.785-2.642,7.618-5.727,8.131-1.925.321-3.2-.57-4.6-1.622-1.43-1.073-2.558-2.639-4-3.672a44.309,44.309,0,0,0-5.194-2.689" transform="translate(-384.916 -742.685)" fill="#ffedde" fill-rule="evenodd"/>
      <path id="Trazado_38247" data-name="Trazado 38247" d="M1194.555,351.782s-4.033.651-6.018.981c-1.7.284-7.37.71-7.37.71a21.313,21.313,0,0,0,2.527,3.658,8.86,8.86,0,0,0,3.694,1.818c2.539.636,5.193-2.009,6.182-3.987a28.613,28.613,0,0,0,.985-3.181" transform="translate(-849.771 -253.084)" fill="#fff" fill-rule="evenodd"/>
      <path id="Trazado_38248" data-name="Trazado 38248" d="M1082.257,65.828s-3.768.554-9.363-2.548-6.112-11-3.491-16.9a86.78,86.78,0,0,1,6.482-11.136c2.8-3.913,9.458-6.744,12.8-10.083,3.637-3.638,5.239-5.921,9.1-9.3a56.186,56.186,0,0,1,25.635-13.024,31.593,31.593,0,0,1,11.2-.647c3.665.611,7.6,1.14,11.139,2.658,7.49,3.21,13.87,9.995,17.975,16.836,1.826,3.042,3.1,7.05,4.406,10.314.59,1.471,1.218,3.711,2.784,5.1s3.479-.928,9.1.406c4.137.981,9.16,3.247,10.611,12.176.959,5.917-3.5,15.914-9.308,17.573-2.733.782-7.913.342-7.913.342s-3.545,5.893-6.9,8.408c-.815.611-5.575,4.125-6.494,2.9-.58-.772.728-1.564,1.052-2.281a46.748,46.748,0,0,0,2.152-5.822c1.318-4.393.6-11.46-3.136-14.444-1.549-1.24-4.37-.952-6.072.009-1.824,1.03-2.517,2.816-3.83,3.8-5.339,4-13.453,5.012-20.181,3.89-6.867-1.145-10.776-4.4-16.068-8.809-6.057-5.048-10.569-12.406-18.338-14.349-3.487-.872-11.845,1.163-14.278,4.2-2.375,2.967-2.409,6.751-1.9,10.312.354,2.472,2.826,10.415,2.826,10.415" transform="translate(-768.269 -1.381)" fill="#f9a2a2" fill-rule="evenodd"/>
      <path id="Trazado_38249" data-name="Trazado 38249" d="M104.693,683.388c1.69,1.482,4.454-.425,5.769-2.949s.444-3.439.211-4.84c-.5-3.014-.157-4.915,1.906-6.978.793-.791,2-.858,2.963-1.243a16.928,16.928,0,0,0,5.354-3.154,20.271,20.271,0,0,0,4.014-5.066c.789-1.579,2.279-5.913,2.279-5.913s4.188-2.893,5.576-5.208a51.255,51.255,0,0,0,2.893-6.785,12.406,12.406,0,0,0,4.833-4.46,10.2,10.2,0,0,0,1.269-9.478c-.36-1.078-2.263-5-2.263-5a20.839,20.839,0,0,1,3.946,1,39.8,39.8,0,0,1,5.47,5.312c.622.778,2.682,3.839,2.682,3.839a11.373,11.373,0,0,0,2.209-4.576c.679-3.548-.5-6.393-3.087-8.975s-7.337-4.415-11.1-5.085c-4.178-.745-6.106-.976-9.846-.509-2.106.263-5.372,2.218-7.437,2.632-2.724.544-5.739-.021-8.506.286a46.756,46.756,0,0,0-12.091,2.921C96.862,620.987,87.474,629.794,86,634.941c-1.094,3.83.508,5.893-.736,9.626-1.548,4.639-2.939,6.746-2.367,11.887.8,7.206,3.555,12.891,9.2,17.411,3.925,3.14,8.8,6.2,12.588,9.524" transform="translate(-59.547 -441.071)" fill="#fad5a9" fill-rule="evenodd"/>
      <path id="Trazado_38250" data-name="Trazado 38250" d="M488.707,706.808a1.293,1.293,0,0,0-.5-1.052,4.523,4.523,0,0,0-4.781.472c-2.875,2.155-4.312,3.246-7.744,6.145a57.043,57.043,0,0,1-9.028,6.464c-4.49,2.566-10.624,2.353-15.524,1.372-1.042-.208-2.6-.589-1.86,1.26,1.045,2.612,6.009,2.816,8.263,2.816,2.446,0,5.237-.109,7.469-1.224,2.855-1.429,4.9-3.391,7.43-5.292,2.157-1.616,4.46-3.151,6.688-4.636.9-.6,3.573-2.215,3.573-2.215s.088-2.236,1.529-3.1a3.959,3.959,0,0,1,2.946-.476Z" transform="translate(-323.079 -507.395)" fill="#dfddde" fill-rule="evenodd"/>
      <path id="Trazado_38251" data-name="Trazado 38251" d="M468.446,744.487c1.255-1.133-3.891-2.812-5.127-3.245-.58-.2-1.706.7-2.349.633s-2.239-.67-2.89-.678c-1.6-.015-2.255,1.076-3.339,1.83-.7.486-2.357.5-3.018,1.243-1.961,2.208,3.062,2.591,4.506,2.7,4.086.3,9.1.338,12.217-2.482" transform="translate(-324.663 -533.243)" fill="#ffcc9d" fill-rule="evenodd"/>
      <path id="Trazado_38252" data-name="Trazado 38252" d="M1057.506,498.373l-4.589,3.712s-7.082-1.084-9.181-2.442c-2.612-1.691-5.2-2.8-7.715-4.639-3.214-2.357-5.375-4.818-8.3-7.521-2.034-1.878-6.935-9.082-6.935-9.082s7.627-14.936,10.272-19.7c3.6-6.475,8.872-15.521,13.115-21.583,2.994-4.279,4.73-6.512,9.018-9.655,5.627-4.127,13.812-6.976,20.338-8.9,3.164-.931,6.834-1.693,6.834-1.693l5.4-.781a25.652,25.652,0,0,0-2.457,6.069,33.341,33.341,0,0,0-.109,14.184c2.149,9.028,9.028,17.736,18.462,20.355a39.726,39.726,0,0,0,11.315,1.246,48.188,48.188,0,0,0,35.623-15.16c3.033-3.249,7.66-9.736,8.661-14.075.488-2.118,2.6-9.529,2.6-9.529s11.478,3.031,14.455,3.952,18.488,6.47,26.636,12.072a42.573,42.573,0,0,1,8.839,8.82c5.128,6.41,8.7,14.167,11.349,21.684,1.3,3.7,2.3,6.908,3.307,10.725,1.131,4.3,4.2,15.935,4.2,15.935s-3.087,2.887-5.3,4.629c-6.214,4.88-15.411,8.063-23.65,9.161-2.185.291-11.1.739-11.1.739l10.515,26.06s.082,6.515-.311,10.927c-.352,3.97-.291,7.709-.563,12.6a101.852,101.852,0,0,0,.218,11.2l-11.853,6.741s-8.439-3.258-8.783-3.5c-5-3.435-9.593-7.508-14.442-11.145-6.751-5.063-13.339-10.448-20.406-15.069-10.338-6.758-21.638-12.481-32.807-17.738-10.025-4.718-20.363-8.994-30.609-13.185a151.747,151.747,0,0,1-14.912-6.593c-3.566-1.919-7.142-8.836-7.142-8.836" transform="translate(-734.387 -299.356)" fill="#fffbf0" fill-rule="evenodd"/>
      <path id="Trazado_38253" data-name="Trazado 38253" d="M1162.14,594.894s-.9-4.881-1.1-6.906c-.5-5.055.351-10.443.451-13.642a76.77,76.77,0,0,0-.4-11.342,68.374,68.374,0,0,0-2.8-8.843,82.987,82.987,0,0,1-7.948-19.709,168.508,168.508,0,0,1-4.248-20.4c-.146-.876-1.509-5.667-1.364-6.539a4.759,4.759,0,0,1,1.646-2.541s-2-5.93-2.54-8.091c-1.655-6.623-1.918-8.324-.985-14.857.9-6.309,2.093-14.887,3.639-21.074,2.284-9.134,4.454-17.326,7.061-27.157,1.264-4.77,2.553-11.514,2.553-11.514l8.926-2.694,3.946-.4s-1.851,5.428-2.137,6.288c-1.488,4.467-1.564,7.645-2.859,12.178-1.5,5.243-3.037,12.039-4.346,17.272a170.119,170.119,0,0,0-3.676,16.879c-.563,3.942-1.067,11.831-.6,15.86.61,5.221,3.011,15.57,3.011,15.57s9.851.973,14.085,1.819c6.521,1.3,15.34,1.891,22.744,2.308,6.561.368,22.187-.182,24.667-.458,6.052-.673,19.054-2.578,19.054-2.578s-.855-4.8-1.121-6.389a45.419,45.419,0,0,1-.071-12.773c.283-2.831.819-9.012,2.049-13.006s3.012-11.239,5.018-17.924c.755-2.518,3.663-10.858,6.142-17.135,1.627-4.115,5.431-13.284,5.431-13.284l10.038,3.431s-1.331,3.379-2.151,5.018-4.66,11.83-6.145,16.439a210.59,210.59,0,0,0-7.215,27.312,67.746,67.746,0,0,0-1.645,15.141,123.161,123.161,0,0,0,1.843,12.9,28.763,28.763,0,0,1,4.9,2.893c1.255,1.255,1.258,5.167,1.482,9.076s.522,14.211,1.842,23.451a98.4,98.4,0,0,0,4.2,17.852,92.137,92.137,0,0,0,6.582,14.889c.441.736,3.918,4.388,3.918,4.388l-10.553,5.328s-11.986-.26-18,.6c-7.189,1.027-14.594.556-21.76,1.579-1.834.263-3.781-.261-5.617,0-12.688,1.813-25.239,3.546-37.729,6.669-4.99,1.248-9.99,2.278-14.917,3.511-1.334.333-3.3.6-3.3.6" transform="translate(-821.824 -301.575)" fill="#b2ddee" fill-rule="evenodd"/>
      <path id="Trazado_38254" data-name="Trazado 38254" d="M1389.951,928.521a5.62,5.62,0,0,0,.609,2.56c.719,1.151,1.7,1.74,2.214,3.012.93,2.323.464,10.236.464,10.236l-.352,13.538a6.56,6.56,0,0,1-1.635,3.416c-.812.974-7.812,2.863-11.218,2.6-1.921-.148-5.582-.267-7.466-.594-3.316-.578-6.9-1.645-7.348-5.636-.229-2.016-.229-11.364-.229-16.13,0-1.825-.252-5.722.445-7.467.8-2.008,2.073-2.082,2.525-4.123a5.464,5.464,0,0,0-.26-2.3c-.382-1.531-.593-2.551.26-3.937.57-.925,6.049-2.352,11.418-2.333,4.1.015,9.033.609,10.535,2.11,1.112,1.112.037,5.051.037,5.051" transform="translate(-981.988 -662.857)" fill="#f3f3f3" fill-rule="evenodd"/>
      <path id="Trazado_38255" data-name="Trazado 38255" d="M1396.3,980.513c-1.177-1.991-3.089-.473-4.976-1.821-1.864-1.33-2.948-3.333-4.984-4.327-1.9-.93-2.646-.372-4.86-.055-2.585.369-6.333-1.6-8.4.669-.54.594-.5,4.227-.52,4.9-.109,3.178.092,6.769.185,9.954.075,2.527-.407,4.394,1,6.687,1.43,2.321,4.033,2.237,6.833,2.593,3.53.446,8.6.409,11.331-.327,1.815-.49,3.9-1.263,4.276-2.138s.125-3.784.255-4.921c.309-2.711.6-9.952-.149-11.217" transform="translate(-987.448 -700.623)" fill="#ffcc9d" fill-rule="evenodd"/>
      <path id="Trazado_38256" data-name="Trazado 38256" d="M233.678,908.7a3.054,3.054,0,0,0,.576-1.3,12.091,12.091,0,0,0-2.608-.215,65.529,65.529,0,0,1-8.87,1.376c-6.6,0-10.119-1.557-15.62-5.485-4.582-3.273-9.048-8.608-12.539-12.972-1.922-2.4-3.6-5.513-6.054-7.351-1.832-1.375-2.908.475-4.467.864-2.776.694-5.687,1.576-8.649,1.154-5.823-.833-11.381-1.3-17.008-3.172-1.84-.614-3.667-1.415-5.476-2.018-1.7-.567-5.445-2.229-5.445-2.229s-1.51,2.867-1.906,3.658c-1.561,3.124-5.012,9.073-5.012,9.073s7.142,17.014,9.173,23.108c1.975,5.927,5.987,16.6,8.521,22.306,3.639,8.187,6.136,13.524,14.559,17.737,6.024,3.012,14.061-2.86,19.624-4.249,12.1-3.026,28.548-3.22,36.454-4.618C236.647,943,261.86,940.1,261.86,940.1s-1.01-1.974-1.373-2.579a13.442,13.442,0,0,0-7.687-5.01,34.683,34.683,0,0,0-14.039,1.091c-1.754.439-9.345.048-9.345.048L225.67,927.3s3.133,0,3.178,0a5.774,5.774,0,0,0,2.751-.9,22.544,22.544,0,0,1-1.566-5.17c-.236-4.249.982-9.339,3.645-12.529" transform="translate(-101.152 -631.198)" fill="#c8e7df" fill-rule="evenodd"/>
      <path id="Trazado_38257" data-name="Trazado 38257" d="M264.455,877.093s1.784,2.014,1.464,3.019-2.135,2.1-2.458,2.184a25.613,25.613,0,0,1-6.6.56c-.362,0-4.345-.091-4.345-.091a27.237,27.237,0,0,0,2.333,2.194c1.2.649,2.239,1.117,3.476,1.693,1.9.887,3.587,1.435,5.406,2.5a3.279,3.279,0,0,1,1.773,2.121,26.771,26.771,0,0,1,5,3.636c2.846,2.575,5.172,6.534,6.567,8.528a32.185,32.185,0,0,1,2.333,4.62s7.049.591,9.273.187c1.058-.193,3.085-.28,3.851-1.239a3.972,3.972,0,0,0,.473-2.366,36.668,36.668,0,0,0-1.754-7.1c-.942-2.589-4.208-4.893-6.585-6.767s-5.493-3.612-7.515-6.309c-1.764-2.354-4.248-6-6.524-7.822a27.6,27.6,0,0,0-4.391-1.921Z" transform="translate(-181.671 -629.3)" fill="#fffbf0" fill-rule="evenodd"/>
      <path id="Trazado_38258" data-name="Trazado 38258" d="M1514.589,489.337a.746.746,0,0,1-.481-1.316c8.738-7.365,5.231-22.518.138-37.8-3.784-11.351-7.61-28.453-10.685-42.194-1.405-6.28-2.618-11.7-3.659-15.863-4.428-17.718-10.143-35.729-21.864-47.452-9.609-9.606-31.7-15.834-41.13-18.494-2.228-.627-3.7-1.043-4.328-1.305-1.437-.6-3.065-1.156-4.79-1.748-6.259-2.147-14.048-4.819-18.988-11.735-6.376-8.927-7.461-20.881-7.925-25.986a.747.747,0,0,1,.677-.811.765.765,0,0,1,.811.676c.452,4.984,1.513,16.657,7.653,25.254,4.661,6.527,11.884,9,18.256,11.191,1.748.6,3.4,1.165,4.88,1.782.547.228,2.062.655,4.158,1.246,9.544,2.691,31.9,8.993,41.78,18.875,11.977,11.98,17.775,30.219,22.257,48.145,1.044,4.177,2.259,9.61,3.667,15.9,3.067,13.707,6.884,30.767,10.645,42.047,5.257,15.777,8.826,31.469-.593,39.409a.751.751,0,0,1-.481.175" transform="translate(-1007.837 -204.776)" fill="#864833"/>
      <path id="Trazado_38259" data-name="Trazado 38259" d="M1620.035,740.5a.747.747,0,0,1-.72-.549c-2.452-8.987-7.166-20.052-12.157-31.767-5.527-12.976-11.244-26.392-13.767-37.049a.746.746,0,1,1,1.452-.344c2.5,10.532,8.186,23.89,13.688,36.808,5.011,11.763,9.745,22.873,12.223,31.958a.746.746,0,0,1-.523.917.759.759,0,0,1-.2.026" transform="translate(-1146.325 -482.173)" fill="#864833"/>
      <path id="Trazado_38260" data-name="Trazado 38260" d="M1568.623,941.693a.747.747,0,0,1-.27-1.443c9.983-3.859,17.519-8.414,24.167-12.433,9.868-5.966,17.667-10.681,27.841-9.38a.747.747,0,0,1-.19,1.481c-9.662-1.24-17.262,3.361-26.879,9.175-6.7,4.05-14.3,8.642-24.4,12.55a.766.766,0,0,1-.27.05" transform="translate(-1127.983 -660.598)" fill="#864833"/>
      <path id="Trazado_38261" data-name="Trazado 38261" d="M1651.154,864.038a.747.747,0,0,1-.742-.682,110.7,110.7,0,0,1,.207-19.129,102.325,102.325,0,0,0,.328-15.721.746.746,0,0,1,.692-.8.731.731,0,0,1,.8.692,103.693,103.693,0,0,1-.329,15.937,109.435,109.435,0,0,0-.209,18.889.746.746,0,0,1-.679.807c-.022,0-.043,0-.065,0" transform="translate(-1187.122 -595.479)" fill="#864833"/>
      <path id="Trazado_38262" data-name="Trazado 38262" d="M897.772,527.465a.746.746,0,0,1-.519-1.282c14.989-14.515,25.916-34.526,36.483-53.879,4.631-8.481,9-16.492,13.7-24.072.8-1.289,1.6-2.723,2.452-4.239,3.164-5.648,7.1-12.677,14.095-17.8,2.88-2.109,12.058-6.991,26.187-10.37a.746.746,0,0,1,.347,1.452c-13.9,3.323-22.856,8.074-25.651,10.122-6.731,4.932-10.582,11.8-13.677,17.327-.858,1.532-1.669,2.979-2.485,4.3-4.676,7.546-9.04,15.539-13.66,24-10.621,19.451-21.6,39.564-36.756,54.236a.745.745,0,0,1-.519.21" transform="translate(-645.35 -299.141)" fill="#864833"/>
      <path id="Trazado_38263" data-name="Trazado 38263" d="M636.947,744.53q-1.246,0-2.574-.067c-10.15-.515-17.558-2.959-22.648-7.471a20.432,20.432,0,0,1-4.906-6.692,30.755,30.755,0,0,0-2.7-4.488c-2.868-3.842-5.226-5.287-8.8-7.473-.685-.42-1.412-.866-2.193-1.358-.61-.385-1.388-.946-2.245-1.564-1.961-1.414-4.4-3.175-5.97-3.6a11.693,11.693,0,0,0-5.046.283l-.671.133c-1.721.329-3.736-.426-5.513-1.095-.7-.262-1.352-.509-1.916-.662a2.605,2.605,0,0,0-2.365.57,2.144,2.144,0,0,0-.647,2.027c.375,2.106,2.576,3.4,6.006,4.8a17.812,17.812,0,0,0,4.348.932c2.658.351,5.4.714,7.323,2.774a9.986,9.986,0,0,1,2.282,4.672,34.24,34.24,0,0,0,1.517,4.435,27.428,27.428,0,0,0,10.263,11.639.746.746,0,1,1-.738,1.3,29.121,29.121,0,0,1-10.9-12.353,35.79,35.79,0,0,1-1.58-4.612,8.6,8.6,0,0,0-1.939-4.061c-1.553-1.667-3.92-1.981-6.426-2.312a19.159,19.159,0,0,1-4.717-1.029c-3.9-1.6-6.414-3.142-6.91-5.922a3.638,3.638,0,0,1,1.109-3.39,4.04,4.04,0,0,1,3.762-.91c.632.171,1.322.43,2.052.7,1.593.6,3.4,1.283,4.706,1.026l.661-.13a12.728,12.728,0,0,1,5.728-.259c1.832.5,4.287,2.268,6.453,3.83.827.6,1.578,1.14,2.167,1.512.775.49,1.5.931,2.176,1.346,3.583,2.2,6.172,3.783,9.213,7.855a32.027,32.027,0,0,1,2.831,4.69,18.99,18.99,0,0,0,4.573,6.265c4.827,4.279,11.937,6.6,21.735,7.1a59.626,59.626,0,0,0,14.825-1.319,53.991,53.991,0,0,1,7.96-1.069.78.78,0,0,1,.77.722.747.747,0,0,1-.721.771,52.766,52.766,0,0,0-7.738,1.043,65.606,65.606,0,0,1-12.6,1.408" transform="translate(-408.076 -510.003)" fill="#864833"/>
      <path id="Trazado_38264" data-name="Trazado 38264" d="M526.757,715.752a.73.73,0,0,1-.3-.061c-3.348-1.441-4.769-3.454-4.226-5.982.574-2.681,3.3-2.15,4.93-1.834.315.061.612.12.874.153a15.468,15.468,0,0,0,2.251.05,12.281,12.281,0,0,1,3.4.232c.106.029.219.061.335.1a.746.746,0,1,1-.458,1.42l-.269-.079a11.109,11.109,0,0,0-2.973-.179,16.63,16.63,0,0,1-2.477-.061c-.289-.038-.619-.1-.968-.169-2.057-.4-2.955-.393-3.186.682-.241,1.121-.155,2.786,3.357,4.3a.746.746,0,0,1-.3,1.432" transform="translate(-375.633 -509.078)" fill="#864833"/>
      <path id="Trazado_38265" data-name="Trazado 38265" d="M547.653,742.657a6.943,6.943,0,0,1-3.01-.983,27.739,27.739,0,0,1-2.8-1.721,15.036,15.036,0,0,0-2.239-1.344.746.746,0,1,1,.6-1.364,16.329,16.329,0,0,1,2.47,1.472,26.094,26.094,0,0,0,2.653,1.634c2.408,1.255,2.753.752,2.938.479.049-.072.094-.137.139-.194a.593.593,0,0,0-.015-.482c-.329-1-1.791-2.3-3.948-2.874l-.872-.223c-.467-.118-.98-.248-1.515-.393a.746.746,0,1,1,.392-1.44c.525.143,1.029.27,1.487.386l.888.227c2.811.745,4.529,2.47,4.984,3.851a1.951,1.951,0,0,1-.238,1.883,2.2,2.2,0,0,1-1.921,1.086" transform="translate(-387.891 -528.926)" fill="#864833"/>
      <path id="Trazado_38266" data-name="Trazado 38266" d="M521.152,744.222a.747.747,0,0,1-.605-1.182,3.678,3.678,0,0,1,1.334-1.14.746.746,0,1,1,.679,1.329,2.2,2.2,0,0,0-.8.682.746.746,0,0,1-.607.31" transform="translate(-374.397 -533.689)" fill="#864833"/>
      <path id="Trazado_38267" data-name="Trazado 38267" d="M532.144,766.656a.748.748,0,0,1-.7-.488c-.391-1.06-1.632-2.322-3.686-3.747-.966-.672-2.154-1.439-3.533-2.28-.275-.168-.542-.32-.818-.478a25.014,25.014,0,0,1-2.558-1.63,2.744,2.744,0,0,1-.55-.536.746.746,0,1,1,1.181-.912,1.271,1.271,0,0,0,.251.245,23.5,23.5,0,0,0,2.418,1.538c.288.165.568.325.854.5,1.4.856,2.619,1.638,3.608,2.328,2.342,1.627,3.728,3.084,4.235,4.457a.745.745,0,0,1-.442.958.736.736,0,0,1-.259.047" transform="translate(-374.208 -544.104)" fill="#864833"/>
      <path id="Trazado_38268" data-name="Trazado 38268" d="M538.13,796.024l.311-.678-.44.619a6.539,6.539,0,0,1-1.519-.876c-.294-.208-.719-.507-1.395-.969-1.844-1.261-4.255-4.726-3.84-7.289a3.349,3.349,0,0,1,2.675-2.734c1.458-.418,3.242.134,4.675.576.266.083.517.16.745.224a16.288,16.288,0,0,0,3.734.465,23.141,23.141,0,0,1,3.768.4,2.9,2.9,0,0,1,2.433,2.519,4.553,4.553,0,0,1-2.371,4.427,12.713,12.713,0,0,1-9.756.427.746.746,0,1,1,.568-1.379,11.243,11.243,0,0,0,8.491-.369,3.036,3.036,0,0,0,1.59-2.9,1.434,1.434,0,0,0-1.258-1.268,22.019,22.019,0,0,0-3.535-.365,17.647,17.647,0,0,1-4.067-.519c-.24-.067-.5-.149-.783-.235-1.179-.364-2.8-.863-3.824-.568a1.943,1.943,0,0,0-1.613,1.539c-.3,1.862,1.739,4.813,3.209,5.817.685.468,1.116.772,1.414.982a5.345,5.345,0,0,0,1.28.739l-.182.738Z" transform="translate(-382.164 -563.999)" fill="#864833"/>
      <path id="Trazado_38269" data-name="Trazado 38269" d="M647.91,851.519a99.763,99.763,0,0,1-18.921-1.729,100.85,100.85,0,0,1-28.732-10.922c-.991-.536-1.862-1.009-2.622-1.392-2.95-1.487-6.139-1.7-8.951-1.892a20.232,20.232,0,0,1-4.505-.612,132.5,132.5,0,0,1-13.783-5.351,32.058,32.058,0,0,0-6.736-2.347c-3.813-1-7.415-1.947-10.736-5.923a3.781,3.781,0,0,1-.875-1.491l-.114-.315a3.758,3.758,0,0,1,0-3.3c.878-1.511,2.963-1.853,5.171-2.212.654-.108,1.316-.216,1.941-.357.876-.2,1.6-.389,2.235-.552,1.953-.507,3.13-.813,4.846-.385a2.982,2.982,0,0,1,2.313,2.3c.242,1.348-.519,2.739-2.089,3.816a25.686,25.686,0,0,1-6.742,3.019.747.747,0,0,1-.394-1.44,24.586,24.586,0,0,0,6.292-2.809c1.049-.72,1.6-1.587,1.464-2.321a1.492,1.492,0,0,0-1.207-1.116c-1.345-.339-2.269-.1-4.107.38-.644.168-1.388.36-2.28.563-.655.149-1.347.262-2.031.375-1.769.29-3.6.589-4.122,1.491a2.454,2.454,0,0,0,.106,2.03l.121.334a2.413,2.413,0,0,0,.615,1.036c3.016,3.609,6.239,4.456,9.97,5.437a33.1,33.1,0,0,1,7.035,2.461,130.887,130.887,0,0,0,13.555,5.257,19.416,19.416,0,0,0,4.156.545c2.808.191,6.3.427,9.522,2.05.771.389,1.655.867,2.661,1.412A99.462,99.462,0,0,0,629.3,848.33c7.26,1.564,19.44,2.173,26.07,1.3a.747.747,0,0,1,.194,1.481,61.414,61.414,0,0,1-7.657.407" transform="translate(-396.809 -584.565)" fill="#864833"/>
      <path id="Trazado_38270" data-name="Trazado 38270" d="M933.63,773.916a.746.746,0,0,1-.288-1.434c9.031-3.775,22.055-20.528,30.672-31.613,2.192-2.821,4.087-5.258,5.7-7.22,1.174-1.427,2.481-3.06,3.877-4.8,6.548-8.167,14.7-18.331,20.392-22.031a.746.746,0,1,1,.813,1.25c-5.5,3.571-13.9,14.058-20.04,21.715-1.4,1.746-2.713,3.383-3.887,4.814-1.6,1.948-3.488,4.376-5.675,7.188-9.234,11.879-21.881,28.149-31.274,32.074a.742.742,0,0,1-.288.058" transform="translate(-671.148 -508.421)" fill="#864833"/>
      <path id="Trazado_38271" data-name="Trazado 38271" d="M1109.726,174.167a.746.746,0,0,1-.687-.454c-1.163-2.734-6.7-16.733-1.538-23.88a.747.747,0,1,1,1.21.875c-3.64,5.038-1.359,15.227,1.7,22.421a.745.745,0,0,1-.4.979.73.73,0,0,1-.291.06" transform="translate(-795.215 -107.572)" fill="#864833"/>
      <path id="Trazado_38272" data-name="Trazado 38272" d="M1160.17,287.6a.736.736,0,0,1-.114-.008c-2.383-.365-5.536-2.381-5.084-5.724a7.361,7.361,0,0,1,.95-2.418c1-1.874,2.13-4,.346-8.223a.747.747,0,0,1,1.376-.58c2.06,4.879.635,7.553-.4,9.5a6.261,6.261,0,0,0-.79,1.916c-.312,2.314,2.1,3.784,3.831,4.048a.746.746,0,0,1-.111,1.484" transform="translate(-830.894 -194.388)" fill="#864833"/>
      <path id="Trazado_38273" data-name="Trazado 38273" d="M1205.742,358.148c-4.394,0-7.888-2.231-10.805-6.829a.746.746,0,1,1,1.26-.8c3.419,5.389,7.517,7.12,13.264,5.615,9.361-2.447,18.873-10.741,25.445-22.187a.746.746,0,0,1,1.295.744c-6.768,11.785-16.621,20.342-26.362,22.887a16.224,16.224,0,0,1-4.1.569" transform="translate(-859.594 -239.984)" fill="#864833"/>
      <path id="Trazado_38274" data-name="Trazado 38274" d="M1361.614,218.966a.746.746,0,0,1-.165-1.474c3.523-.795,5.8-3.5,7.085-5.628,2.631-4.347,3.656-10.431,2.493-14.8-.834-3.131-3.179-5.241-5.975-5.377-2.723-.113-5.02,1.61-6.158,4.659a.747.747,0,0,1-1.4-.522c1.357-3.634,4.317-5.779,7.629-5.628,3.459.168,6.342,2.713,7.346,6.483,1.26,4.728.166,11.288-2.659,15.955-2.062,3.408-4.841,5.591-8.033,6.312a.76.76,0,0,1-.165.018" transform="translate(-976.593 -136.83)" fill="#864833"/>
      <path id="Trazado_38275" data-name="Trazado 38275" d="M1370.855,237.235a.746.746,0,0,1-.676-1.062c.108-.229.214-.475.327-.738a16.592,16.592,0,0,1,2.765-4.615.746.746,0,1,1,1.131.972,15.077,15.077,0,0,0-2.526,4.234c-.12.276-.231.536-.344.779a.747.747,0,0,1-.676.43" transform="translate(-985.702 -165.873)" fill="#864833"/>
      <path id="Trazado_38276" data-name="Trazado 38276" d="M1184.228,161.527c-8.949,0-18.489-9.856-23.755-15.3-1.184-1.222-2.118-2.187-2.768-2.757-6.3-5.509-11.105-6.942-14.7-4.384a.747.747,0,0,1-.866-1.217c4.24-3.015,9.654-1.554,16.548,4.478.7.61,1.651,1.6,2.858,2.842,5.406,5.585,15.467,15.979,24.116,14.742a.746.746,0,1,1,.21,1.478,11.569,11.569,0,0,1-1.643.115" transform="translate(-821.468 -98.097)" fill="#864833"/>
      <path id="Trazado_38277" data-name="Trazado 38277" d="M1073.934,128.161a.746.746,0,0,1-.292-.059c-5.983-2.536-8.9-7.1-8.434-13.212.805-10.546,12.156-23.932,19.727-25.854a.747.747,0,0,1,.367,1.447c-6.419,1.629-17.812,14.109-18.606,24.52-.418,5.485,2.115,9.43,7.528,11.724a.747.747,0,0,1-.292,1.433" transform="translate(-766.312 -64.039)" fill="#864833"/>
      <path id="Trazado_38278" data-name="Trazado 38278" d="M1233.539,31.377a.748.748,0,0,1-.717-.538c-6.27-21.609-22.457-27.41-31.548-28.945-14.455-2.44-32.364,6.553-40.674,16.284a.746.746,0,1,1-1.134-.969c8.572-10.039,27.1-19.311,42.055-16.786,7.6,1.283,25.993,6.773,32.734,30a.748.748,0,0,1-.717.954" transform="translate(-834.03 -0.001)" fill="#864833"/>
      <path id="Trazado_38279" data-name="Trazado 38279" d="M1203.887,262.814c-.828-1.4-.654-3.079.388-3.742s2.56-.06,3.388,1.345.655,3.079-.388,3.742-2.56.06-3.388-1.345" transform="translate(-865.741 -186.192)" fill="#864833" fill-rule="evenodd"/>
      <path id="Trazado_38280" data-name="Trazado 38280" d="M1188.366,233.349a.747.747,0,0,1-.4-1.375c2.35-1.5,7.039-2.617,11.8-1.505a.746.746,0,1,1-.338,1.453c-4.145-.963-8.5-.072-10.657,1.31a.748.748,0,0,1-.4.117" transform="translate(-854.414 -165.483)" fill="#864833"/>
      <path id="Trazado_38281" data-name="Trazado 38281" d="M1118.726,246.455a.747.747,0,0,1-.445-1.346c1.426-1.056,3.872-1.211,6.706-.419a.746.746,0,1,1-.4,1.437c-3.484-.971-5.026-.107-5.415.182a.746.746,0,0,1-.445.146" transform="translate(-804.312 -175.679)" fill="#864833"/>
      <path id="Trazado_38282" data-name="Trazado 38282" d="M1132.477,270.706c-.754-1.4-.6-3.079.352-3.742s2.324-.06,3.078,1.343.594,3.079-.352,3.742-2.326.061-3.078-1.343" transform="translate(-814.399 -191.87)" fill="#864833" fill-rule="evenodd"/>
      <path id="Trazado_38283" data-name="Trazado 38283" d="M1331.107,209.335a.741.741,0,0,1-.511-.2c-3.861-3.642-9.7-3.84-15.882-4.05-7.279-.248-14.807-.5-20.638-6.062a.746.746,0,1,1,1.029-1.08c5.419,5.167,12.659,5.412,19.66,5.651,6.471.22,12.584.428,16.854,4.456a.746.746,0,0,1-.511,1.289" transform="translate(-930.835 -142.256)" fill="#864833"/>
      <path id="Trazado_38284" data-name="Trazado 38284" d="M1418.089,177.839a.746.746,0,0,1-.315-1.422c3.156-1.471,6.4-6.583,7.886-12.431,1.89-7.429.794-14.638-3-19.778a.747.747,0,0,1,1.2-.887c4.065,5.5,5.25,13.169,3.25,21.034-1.617,6.351-5.113,11.742-8.7,13.415a.738.738,0,0,1-.315.07" transform="translate(-1019.684 -102.893)" fill="#864833"/>
      <path id="Trazado_38285" data-name="Trazado 38285" d="M1437.889,112.568a.746.746,0,0,1-.706-.99,7.98,7.98,0,0,1,6.1-5.075,9.313,9.313,0,0,1,8.824,2.872.746.746,0,0,1-1.1,1.007,7.818,7.818,0,0,0-7.421-2.417,6.5,6.5,0,0,0-4.995,4.1.746.746,0,0,1-.706.5" transform="translate(-1033.928 -76.48)" fill="#864833"/>
      <path id="Trazado_38286" data-name="Trazado 38286" d="M1456.793,157.556a7.433,7.433,0,0,1-1.632-.178.746.746,0,1,1,.326-1.456c4.552,1.011,10.063-3.386,11.764-9.436,1.417-5.04.592-10.7-2.1-14.43a11.193,11.193,0,0,0-8.907-4.649.748.748,0,0,1-.713-.779.7.7,0,0,1,.78-.713,12.639,12.639,0,0,1,10.05,5.265c2.952,4.08,3.867,10.246,2.332,15.708-1.713,6.09-6.993,10.666-11.9,10.667" transform="translate(-1046.472 -90.585)" fill="#864833"/>
      <path id="Trazado_38287" data-name="Trazado 38287" d="M1264.152,424.626a.747.747,0,0,1-.724-.565c-.679-2.719-3.622-9.657-5.568-11.6a.746.746,0,0,1,1.056-1.055c2.185,2.185,5.256,9.478,5.961,12.3a.747.747,0,0,1-.544.905.724.724,0,0,1-.181.023" transform="translate(-904.789 -295.82)" fill="#864833"/>
      <path id="Trazado_38288" data-name="Trazado 38288" d="M588.856,1065.572a.892.892,0,0,1-.248-.047.763.763,0,0,1-.536-.85.744.744,0,0,1,.19-.392c.333-.606,1.741-3.594,2.69-5.9a4.37,4.37,0,0,1,4.4-2.4c.286.022.591.07.9.121,1.009.166,1.655.232,2.058-.252a.966.966,0,0,0,.117-1.02,1.9,1.9,0,0,0-1.294-1.171c-3.391-.528-5.53.074-6.731,1.891a.746.746,0,1,1-1.245-.822c1.538-2.331,4.223-3.163,8.2-2.544a3.372,3.372,0,0,1,2.462,2.118,2.457,2.457,0,0,1-.366,2.5c-.978,1.172-2.4.939-3.446.77-.266-.044-.526-.088-.772-.1a2.91,2.91,0,0,0-2.913,1.478c-2.4,5.84-2.986,6.622-3.475,6.622" transform="translate(-423.071 -756.835)" fill="#864833"/>
      <path id="Trazado_38289" data-name="Trazado 38289" d="M597.534,1046.6a.746.746,0,0,1-.742-.678,3.142,3.142,0,0,0-2.393-2.807,6.688,6.688,0,0,0-6.54,1.713.747.747,0,0,1-1.147-.956,8.094,8.094,0,0,1,8.13-2.182,4.626,4.626,0,0,1,3.436,4.1.747.747,0,0,1-.675.812l-.069,0" transform="translate(-421.975 -749.193)" fill="#864833"/>
      <path id="Trazado_38290" data-name="Trazado 38290" d="M577.382,1036.243a.746.746,0,0,1-.469-1.327l.517-.426a11.8,11.8,0,0,1,3.226-2.106,6.439,6.439,0,0,1,4.666.373,4.143,4.143,0,0,1,2.293,2.249.747.747,0,0,1-1.41.493,2.7,2.7,0,0,0-1.509-1.388,5.035,5.035,0,0,0-3.5-.335,10.454,10.454,0,0,0-2.814,1.866l-.531.434a.737.737,0,0,1-.468.166" transform="translate(-414.85 -742.528)" fill="#864833"/>
      <path id="Trazado_38291" data-name="Trazado 38291" d="M563.33,1034.486a.746.746,0,0,1-.528-1.274c3.7-3.7,6.876-4.876,9.431-3.49a.746.746,0,1,1-.711,1.312c-1.908-1.035-4.487.051-7.665,3.233a.745.745,0,0,1-.527.219" transform="translate(-404.742 -740.412)" fill="#864833"/>
      <path id="Trazado_38292" data-name="Trazado 38292" d="M533.99,1044.718h-.015a.747.747,0,0,1-.732-.761c.035-1.816,1.147-3.026,2.128-4.094.24-.261.481-.523.708-.8a8.677,8.677,0,0,0,1.074-2c.622-1.42,1.327-3.027,2.918-3.644a10.174,10.174,0,0,1,3.732-.525c.522-.006,1.048-.011,1.581-.06a.759.759,0,0,1,.811.677.747.747,0,0,1-.676.811c-.573.051-1.137.058-1.7.065a8.9,8.9,0,0,0-3.209.423c-1.013.394-1.536,1.588-2.09,2.853a9.86,9.86,0,0,1-1.294,2.358c-.242.29-.5.57-.756.85-.918,1-1.71,1.862-1.734,3.114a.746.746,0,0,1-.746.731" transform="translate(-383.633 -743.057)" fill="#864833"/>
      <path id="Trazado_38293" data-name="Trazado 38293" d="M474.443,1010.906a4.435,4.435,0,0,1-2.176-.794,6.067,6.067,0,0,0-1.086-.55c-.8-.268-1.469-.443-2.126-.616-.514-.136-1.023-.271-1.586-.444-.6-.185-1.182-.328-1.743-.468a10,10,0,0,1-5.255-2.546.746.746,0,0,1,1.055-1.055,8.573,8.573,0,0,0,4.56,2.153c.586.146,1.192.3,1.821.491.542.166,1.033.3,1.528.427.686.181,1.379.364,2.217.643a7.214,7.214,0,0,1,1.37.679c1.057.622,1.479.794,2.075.3a1.2,1.2,0,0,0,.469-.943,4.29,4.29,0,0,0-1.614-2.828,5.924,5.924,0,0,0-1.39-.687c-1.205-.49-2.572-1.045-2.951-2.217a2.386,2.386,0,0,1,.374-2.039c.166-.268.585-.593,2.8-2.176.923-.659,1.877-1.341,2.194-1.615,1.878-1.631,4.389-3.405,7.168-2.719.345.088.684.183,1.022.281a12.036,12.036,0,0,0,2.273.5c1.468.136,2.7-.115,2.937-.594a1.209,1.209,0,0,0,.168-.778c-.134-.372-.986-.764-1.888-1.179-.372-.171-.772-.356-1.193-.566-2.535-1.266-4.8-2.4-8.862-.322a.746.746,0,1,1-.679-1.329c4.728-2.42,7.57-1,10.077.251.537.268.923.446,1.28.611,1.3.6,2.325,1.068,2.67,2.032a2.441,2.441,0,0,1-.231,1.934c-.771,1.583-3.346,1.525-4.415,1.429a13.5,13.5,0,0,1-2.55-.551c-.321-.092-.643-.185-.972-.267-2.094-.525-4.122.917-5.829,2.4-.37.319-1.309.991-2.3,1.7-.9.641-2.249,1.607-2.452,1.822a.953.953,0,0,0-.168.72c.165.51,1.279.964,2.092,1.294a6.477,6.477,0,0,1,1.829.961,5.608,5.608,0,0,1,2.1,3.972,2.683,2.683,0,0,1-1.013,2.061,2.47,2.47,0,0,1-1.6.622" transform="translate(-331.121 -711.232)" fill="#864833"/>
      <path id="Trazado_38294" data-name="Trazado 38294" d="M522.743,986.342A.746.746,0,0,1,522,985.6c0-2.36-4.416-4.125-6.685-4.371a11.289,11.289,0,0,0-6.325,1.1.746.746,0,0,1-.828-1.242,12.529,12.529,0,0,1,7.314-1.346c2.707.293,8.017,2.375,8.017,5.855a.746.746,0,0,1-.746.746" transform="translate(-365.347 -704.807)" fill="#864833"/>
      <path id="Trazado_38295" data-name="Trazado 38295" d="M515.772,978.583a.747.747,0,0,1-.676-.427c-.143-.228-.828-.713-3.269-1.742-2.415-1.019-6.176-1.338-8.724.36a.746.746,0,0,1-.828-1.242c3.005-2,7.361-1.661,10.132-.494,2.28.961,3.672,1.676,4.044,2.488a.745.745,0,0,1-.678,1.057" transform="translate(-361.114 -700.797)" fill="#864833"/>
      <path id="Trazado_38296" data-name="Trazado 38296" d="M471.142,976.934a.746.746,0,0,1-.228-1.457l1.187-.375a23.311,23.311,0,0,0,5.172-2.062c2.459-1.434,6.676-2.154,9.659-.663a.746.746,0,0,1-.668,1.335c-2.419-1.208-6.088-.634-8.239.616a24.808,24.808,0,0,1-5.478,2.2l-1.178.373a.776.776,0,0,1-.228.035" transform="translate(-338.419 -698.967)" fill="#864833"/>
      <path id="Trazado_38297" data-name="Trazado 38297" d="M190.34,820.2q-.579,0-1.2-.06c-3.653-.353-8.13-2.406-9.231-5.517-.953-2.691-.855-4.937.288-6.676a7.557,7.557,0,0,1,5.972-3.011.737.737,0,0,1,.8.7.746.746,0,0,1-.694.794c-1.033.068-3.572.436-4.826,2.342-.873,1.328-.916,3.129-.128,5.357.759,2.147,4.334,4.179,7.968,4.53,2.665.258,4.685-.433,5.547-1.895a.746.746,0,1,1,1.286.758c-1.022,1.733-3.095,2.682-5.781,2.682" transform="translate(-128.969 -579.096)" fill="#864833"/>
      <path id="Trazado_38298" data-name="Trazado 38298" d="M204.447,830.559a.825.825,0,0,1-.117-.009,16.151,16.151,0,0,0-3.987-.178l-.581.032a.772.772,0,0,1-.779-.714.747.747,0,0,1,.713-.778l.559-.029a17.53,17.53,0,0,1,4.306.192.746.746,0,0,1-.115,1.484" transform="translate(-143.155 -596.288)" fill="#864833"/>
      <path id="Trazado_38299" data-name="Trazado 38299" d="M343.856,726.2a.746.746,0,0,1-.543-1.258,3.516,3.516,0,0,0,.97-2.45,1.726,1.726,0,0,0-.506-1.236,2.252,2.252,0,0,0-1.593-.532,6.4,6.4,0,0,1-1.974-.395c-1.73-.678-2.718-1.957-3.3-4.282a.746.746,0,1,1,1.447-.365c.537,2.141,1.316,2.833,2.4,3.256a4.884,4.884,0,0,0,1.544.3,3.705,3.705,0,0,1,2.477.91,3.2,3.2,0,0,1,1,2.284,4.98,4.98,0,0,1-1.375,3.536.743.743,0,0,1-.543.235" transform="translate(-242.367 -514.481)" fill="#864833"/>
      <path id="Trazado_38300" data-name="Trazado 38300" d="M356.26,779.418a3.708,3.708,0,0,1-2.414-.8,2.449,2.449,0,0,1-.913-2.155,4.949,4.949,0,0,1,1.844-3.373c.3-.3.631-.63,1-1.048a.747.747,0,1,1,1.117.991c-.394.443-.749.8-1.063,1.112a3.5,3.5,0,0,0-1.415,2.478.967.967,0,0,0,.387.848,2.945,2.945,0,0,0,2.68.262.746.746,0,1,1,.42,1.431,5.823,5.823,0,0,1-1.644.249" transform="translate(-253.902 -555.255)" fill="#864833"/>
      <path id="Trazado_38301" data-name="Trazado 38301" d="M295.68,656.339a.748.748,0,0,1-.689-.458c-2.521-6.024-7.533-12.223-12.237-12.414a.747.747,0,0,1-.715-.777.734.734,0,0,1,.776-.716c5.574.227,10.933,7.069,13.553,13.33a.748.748,0,0,1-.689,1.035" transform="translate(-202.908 -461.859)" fill="#864833"/>
      <path id="Trazado_38302" data-name="Trazado 38302" d="M289.886,707.91a.746.746,0,0,1-.672-1.07,7.391,7.391,0,0,1,5.9-4.335.746.746,0,1,1,.179,1.481,5.9,5.9,0,0,0-4.729,3.5.747.747,0,0,1-.673.423" transform="translate(-208.017 -505.401)" fill="#864833"/>
      <path id="Trazado_38303" data-name="Trazado 38303" d="M307.865,732.187l4.257-1.027c.548,1.491.04,2.93-1.134,3.214s-2.573-.7-3.122-2.187" transform="translate(-221.488 -526.021)" fill="#864833" fill-rule="evenodd"/>
      <path id="Trazado_38304" data-name="Trazado 38304" d="M279.629,826.675a26.614,26.614,0,0,1-5.2-.453.747.747,0,0,1,.3-1.464c4.524.92,11.7.324,17.862-1.49,6.947-2.046,9.748-5.47,8.564-10.468a.746.746,0,0,1,1.452-.344c1.385,5.842-1.843,9.961-9.595,12.244a49.415,49.415,0,0,1-13.385,1.975" transform="translate(-197.007 -584.094)" fill="#864833"/>
      <path id="Trazado_38305" data-name="Trazado 38305" d="M255.4,624.517a.746.746,0,0,1-.743-.687c-.317-3.987-3-7.472-7.547-9.814-6.89-3.547-16.073-3.4-22.333.36A.746.746,0,0,1,224,613.1c6.788-4.072,16.345-4.236,23.784-.407,5.026,2.588,7.992,6.5,8.352,11.021a.746.746,0,0,1-.685.8c-.02,0-.04,0-.06,0" transform="translate(-160.896 -438.802)" fill="#864833"/>
      <path id="Trazado_38306" data-name="Trazado 38306" d="M102.974,771.043a.744.744,0,0,1-.5-.191,39.565,39.565,0,0,0-6.646-4.813,44.183,44.183,0,0,1-4.765-3.215c-8.856-6.991-12.556-18.32-9-27.553a.746.746,0,1,1,1.392.536c-3.325,8.627.182,19.256,8.529,25.844a42.313,42.313,0,0,0,4.616,3.112,40.855,40.855,0,0,1,6.869,4.978.746.746,0,0,1-.5,1.3" transform="translate(-58.077 -528.635)" fill="#864833"/>
      <path id="Trazado_38307" data-name="Trazado 38307" d="M90.667,647.018a.747.747,0,0,1-.734-.614c-1.152-6.4,3.874-12.539,5.441-14.269,9.674-10.668,20.425-11.094,25.016-11.277.73-.029,1.307-.052,1.646-.108a.746.746,0,1,1,.244,1.472,17.01,17.01,0,0,1-1.831.127,31.786,31.786,0,0,0-23.968,10.789c-1.452,1.6-6.109,7.274-5.078,13a.746.746,0,0,1-.6.867.821.821,0,0,1-.133.012" transform="translate(-64.579 -446.58)" fill="#864833"/>
      <path id="Trazado_38308" data-name="Trazado 38308" d="M211.2,777.562a.746.746,0,0,1-.193-1.467c3.368-.905,5.084-3.943,5.931-6.333a.746.746,0,1,1,1.406.5c-.966,2.727-2.956,6.2-6.95,7.274a.738.738,0,0,1-.194.026" transform="translate(-151.407 -553.435)" fill="#864833"/>
      <path id="Trazado_38309" data-name="Trazado 38309" d="M368.945,976.924a.747.747,0,0,1-.676-.428,10.892,10.892,0,0,0-5.58-5.552c-.19-.095-.363-.181-.513-.262-3.527-1.9-8.243-1.1-12.406-.4-.972.163-1.913.322-2.8.44-6.384.857-15.761.946-24.174-3.487a12.5,12.5,0,0,1-3.938-3.647c-.366-.459-.739-.927-1.148-1.389a15.679,15.679,0,0,0-3.018-2.459,14.815,14.815,0,0,1-3.971-3.536,75.141,75.141,0,0,1-5.442-9.4c-3.761-7.284-7.314-14.164-15.285-17.2a.746.746,0,1,1,.532-1.394c8.5,3.242,12.355,10.7,16.079,17.912a73.992,73.992,0,0,0,5.329,9.215,13.455,13.455,0,0,0,3.6,3.176,17.046,17.046,0,0,1,3.291,2.7c.426.481.815.968,1.2,1.447a10.991,10.991,0,0,0,3.467,3.256c8.065,4.248,17.112,4.153,23.281,3.329.874-.118,1.8-.274,2.753-.434,4.4-.742,9.383-1.582,13.359.558.139.075.3.153.473.241a12.4,12.4,0,0,1,6.265,6.253.748.748,0,0,1-.675,1.064" transform="translate(-208.284 -667.747)" fill="#864833"/>
      <path id="Trazado_38310" data-name="Trazado 38310" d="M411.148,1014.525a.748.748,0,0,1-.611-.316c-.5-.713-.959-1.373-1.391-2-1.223-1.768-2.279-3.294-3.6-4.871-1-1.2-2.024-2.339-3.037-3.472a56.412,56.412,0,0,1-6.87-8.786c-.947-1.59-1.891-3.336-2.886-5.338a.746.746,0,0,1,1.337-.665c.978,1.968,1.9,3.68,2.831,5.238a55.391,55.391,0,0,0,6.7,8.554c1.024,1.144,2.057,2.3,3.07,3.511,1.362,1.628,2.436,3.18,3.679,4.979.43.621.885,1.278,1.384,1.987a.745.745,0,0,1-.18,1.039.733.733,0,0,1-.429.137" transform="translate(-282.506 -711.278)" fill="#864833"/>
      <path id="Trazado_38311" data-name="Trazado 38311" d="M406.318,982.865a30.176,30.176,0,0,1-10-1.413.746.746,0,1,1,.526-1.4c3.823,1.44,9.28,1.4,12.187,1.246a32.009,32.009,0,0,0,3.639-.462c2.266-.379,4.406-.738,6.322.134a.746.746,0,1,1-.616,1.358c-1.5-.681-3.338-.377-5.46-.021a33.021,33.021,0,0,1-3.806.48c-.78.041-1.737.074-2.8.074" transform="translate(-284.78 -705.049)" fill="#864833"/>
      <path id="Trazado_38312" data-name="Trazado 38312" d="M458.833,1002.7a.744.744,0,0,1-.661-.4c-2.076-3.944-.608-11.535,1.316-15.029,1.834-3.331,1.906-3.466,2.61-3.169a.771.771,0,0,1,.43.921.744.744,0,0,1-.241.364c-.134.2-.5.813-1.491,2.6-1.743,3.166-3.058,10.279-1.3,13.616a.746.746,0,0,1-.66,1.093" transform="translate(-328.897 -707.918)" fill="#864833"/>
      <path id="Trazado_38313" data-name="Trazado 38313" d="M440.879,1050.973a.746.746,0,0,1-.3-1.43,5.087,5.087,0,0,1,2.532-.156c1.339.131,2.606.252,3.609-.77a.746.746,0,1,1,1.066,1.044c-1.5,1.533-3.413,1.347-4.818,1.213a4.275,4.275,0,0,0-1.791.036.745.745,0,0,1-.3.063" transform="translate(-316.646 -754.248)" fill="#864833"/>
      <path id="Trazado_38314" data-name="Trazado 38314" d="M140.882,887.6a.746.746,0,0,1-.673-1.068c1.291-2.7,3.4-6.437,4.948-9.165.708-1.252,1.305-2.307,1.663-2.981a.747.747,0,0,1,1.318.7c-.362.679-.966,1.748-1.682,3.013-1.533,2.711-3.632,6.422-4.9,9.075a.746.746,0,0,1-.674.424" transform="translate(-100.819 -628.775)" fill="#864833"/>
      <path id="Trazado_38315" data-name="Trazado 38315" d="M196.552,955.668a.747.747,0,0,1-.739-.647c-1.562-11.726,1.675-24.923,10.885-27.456a.747.747,0,0,1,.4,1.44c-8.387,2.306-11.279,14.734-9.8,25.818a.747.747,0,0,1-.641.84.734.734,0,0,1-.1.006" transform="translate(-140.604 -667.303)" fill="#864833"/>
      <path id="Trazado_38316" data-name="Trazado 38316" d="M303.791,730.551a.747.747,0,0,1-.084-1.488,8.138,8.138,0,0,0,4.322-1.643.747.747,0,0,1,1.023,1.088,9.709,9.709,0,0,1-5.174,2.039.822.822,0,0,1-.086,0" transform="translate(-218.021 -523.185)" fill="#864833"/>
      <path id="Trazado_38317" data-name="Trazado 38317" d="M290.131,868.931a.762.762,0,0,1-.28-.054.747.747,0,0,1-.412-.972,25.405,25.405,0,0,1,2.752-5.3c.448-.682.955-1.455,1.592-2.587a.746.746,0,1,1,1.3.731c-.662,1.176-1.183,1.972-1.645,2.675a23.938,23.938,0,0,0-2.617,5.036.746.746,0,0,1-.692.466" transform="translate(-208.193 -618.454)" fill="#864833"/>
      <path id="Trazado_38318" data-name="Trazado 38318" d="M76.641,723.639a3.159,3.159,0,0,1-2.282-.991.746.746,0,0,1,1.055-1.055c1.322,1.324,2.9-.05,3.351-.5a.746.746,0,1,1,1.055,1.055,4.687,4.687,0,0,1-3.179,1.491" transform="translate(-53.339 -518.621)" fill="#864833"/>
      <path id="Trazado_38319" data-name="Trazado 38319" d="M276.35,652.211a.747.747,0,0,1-.5-1.3,7.732,7.732,0,0,0,2.179-6.093,15.014,15.014,0,0,0-5.35-10.8.746.746,0,1,1,.937-1.16,16.558,16.558,0,0,1,5.9,11.92,9.185,9.185,0,0,1-2.667,7.241.745.745,0,0,1-.5.194" transform="translate(-195.973 -455.178)" fill="#864833"/>
      <path id="Trazado_38320" data-name="Trazado 38320" d="M224.015,698.644a.747.747,0,0,1-.072-1.49c2.374-.232,7.149-2.788,9.86-7.534,1.8-3.156,3.276-8.372.055-15.306a.747.747,0,0,1,1.354-.63c3.489,7.512,1.865,13.216-.113,16.676-2.727,4.775-7.74,7.959-11.01,8.281l-.073,0" transform="translate(-160.627 -484.361)" fill="#864833"/>
      <path id="Trazado_38321" data-name="Trazado 38321" d="M193.528,881.282c-10.085,0-26.113-4.218-30.472-8.393a.746.746,0,0,1,1.032-1.079c5.954,5.7,31.536,10.457,36.017,6.7.313-.262,1.144-.96-.182-2.94a.746.746,0,0,1,1.24-.831c1.8,2.691.712,4.233-.1,4.914-1.362,1.144-4.106,1.632-7.537,1.632" transform="translate(-117.142 -627.061)" fill="#864833"/>
      <path id="Trazado_38322" data-name="Trazado 38322" d="M319.859,907.4a22.549,22.549,0,0,1-6.153-.722.747.747,0,0,1,.472-1.417c2.53.847,9.452.975,11.8-.383,1.55-.895.9-3.383-.1-6.542-.213-.668-.417-1.312-.574-1.9-.635-2.4-2.544-3.895-7.156-7.508-.825-.646-1.733-1.357-2.731-2.15a37.414,37.414,0,0,1-6.316-6.7c-2.36-3.01-4.224-5.387-7.957-6.507a.746.746,0,1,1,.428-1.428c4.187,1.255,6.279,3.924,8.7,7.014a36.131,36.131,0,0,0,6.07,6.454c.995.791,1.9,1.5,2.723,2.144,4.747,3.72,6.915,5.417,7.678,8.3.151.568.348,1.189.554,1.834.954,2.994,2.141,6.719-.573,8.285-1.55.895-4.255,1.23-6.87,1.23" transform="translate(-216.272 -627.424)" fill="#864833"/>
      <path id="Trazado_38323" data-name="Trazado 38323" d="M526.695,750.975a12.852,12.852,0,0,1-5.712-1.63.747.747,0,0,1,.7-1.318c2.131,1.138,4.567,1.7,5.926,1.357a2.331,2.331,0,0,0,1.643-1.63c.108-.942-1.152-1.737-1.913-2.127a.747.747,0,0,1,.681-1.329c2.445,1.254,2.826,2.665,2.715,3.627a3.786,3.786,0,0,1-2.763,2.908,5.344,5.344,0,0,1-1.279.141" transform="translate(-374.528 -535.417)" fill="#864833"/>
      <path id="Trazado_38324" data-name="Trazado 38324" d="M455.146,737.331c-4.636,0-8.775-1.439-9.809-3.586a2.581,2.581,0,0,1,.711-3.11.746.746,0,0,1,1.055,1.055c-.742.742-.509,1.226-.421,1.408.825,1.713,5.617,3.2,10.8,2.609,4.657-.525,8.693-3.678,12.967-7.015a66.173,66.173,0,0,1,6.475-4.656l2.574-1.592a.76.76,0,0,1,1.039.238.732.732,0,0,1-.23,1.017l-2.606,1.611a65.33,65.33,0,0,0-6.334,4.558c-4.248,3.319-8.641,6.75-13.717,7.323a22.331,22.331,0,0,1-2.5.14" transform="translate(-320.21 -519.671)" fill="#864833"/>
      <path id="Trazado_38325" data-name="Trazado 38325" d="M456.061,720.337a19.011,19.011,0,0,1-7.886-1.666.746.746,0,0,1,.612-1.362c4.655,2.1,10,2.039,15.878-.163,2.571-.965,5.307-3.236,7.644-5.33.089-.08,8.982-8.024,10.64-8.629,1.109-.4,4.282-.366,5.346.624a1.283,1.283,0,0,1,.391,1.322c-.085.3-.309.526-1,1.033a.746.746,0,1,1-.886-1.2c.107-.079.195-.146.265-.2a7,7,0,0,0-3.609-.177c-.887.323-6.512,5.075-10.155,8.338-2.44,2.188-5.313,4.565-8.116,5.616a26,26,0,0,1-9.127,1.794" transform="translate(-322.115 -505.725)" fill="#864833"/>
      <path id="Trazado_38326" data-name="Trazado 38326" d="M449.959,743.82a.747.747,0,0,1-.733-.611c-.434-2.353,1.976-2.833,3-3.039a4.643,4.643,0,0,0,.656-.158,2.894,2.894,0,0,0,.684-.661,4.127,4.127,0,0,1,1.1-1,4.9,4.9,0,0,1,3.6-.287,2,2,0,0,1,.677.447c.162.147.178.153.249.159a4.609,4.609,0,0,0,1.344-.188,5.8,5.8,0,0,1,1.8-.226,3.208,3.208,0,0,1,1.937.872,3.032,3.032,0,0,0,.735.491,6,6,0,0,0,.715.245,2.888,2.888,0,0,1,2.093,1.653.746.746,0,1,1-1.335.668,1.448,1.448,0,0,0-1.178-.889,7.527,7.527,0,0,1-.882-.3,4.407,4.407,0,0,1-1.094-.71,1.767,1.767,0,0,0-1.106-.538,4.334,4.334,0,0,0-1.336.188,5.555,5.555,0,0,1-1.818.224,1.784,1.784,0,0,1-1.132-.545.761.761,0,0,0-.194-.15,3.443,3.443,0,0,0-2.339.186,2.88,2.88,0,0,0-.7.671,4.158,4.158,0,0,1-1.077.988,3.726,3.726,0,0,1-1.109.33c-1.568.313-1.961.593-1.83,1.3a.748.748,0,0,1-.6.87.9.9,0,0,1-.136.012" transform="translate(-323.151 -530.829)" fill="#864833"/>
      <path id="Trazado_38327" data-name="Trazado 38327" d="M87.815,884.428a17.324,17.324,0,0,1-5.438-1.052c-6.665-2.222-12.358-8.679-21.73-35.106-9.226-26.016-13.773-35.794-21.954-50.291-8.656-15.338-14.679-16.755-22.88-17.167a.746.746,0,0,1-.708-.783.721.721,0,0,1,.783-.707c9.756.488,15.851,3.3,24.106,17.922,8.227,14.582,12.8,24.406,22.06,50.527,9.169,25.853,14.568,32.112,20.8,34.188,5.48,1.827,7.372.851,10.809-.92,3.3-1.7,7.828-4.033,17.737-4.914,10.92-.971,24.329-2.758,37.3-4.487,8.3-1.1,16.133-2.148,23.057-2.948,8.356-.962,15.512-2.064,15.583-2.076a.746.746,0,0,1,.229,1.475c-.072.012-7.255,1.118-15.641,2.084-6.91.8-14.74,1.841-23.03,2.944-12.983,1.73-26.409,3.52-37.36,4.494-9.619.854-13.993,3.109-17.186,4.754-2.241,1.155-4,2.061-6.527,2.061" transform="translate(-10.866 -560.666)" fill="#864833"/>
      <path id="Trazado_38328" data-name="Trazado 38328" d="M537.043,1016.756a.74.74,0,0,1-.5-.2l-7.47-6.847a.746.746,0,1,1,1.009-1.1l7.469,6.846a.746.746,0,0,1-.5,1.3" transform="translate(-380.456 -725.488)" fill="#864833"/>
      <path id="Trazado_38329" data-name="Trazado 38329" d="M318.029,1048.794a6.984,6.984,0,0,1-.711-.028,6.874,6.874,0,0,1-5.008-2.654c-2.093-2.746-2.55-7.38-1.4-14.169a.747.747,0,0,1,1.472.251c-1.066,6.269-.691,10.649,1.112,13.013a5.372,5.372,0,0,0,3.97,2.076c6.221.609,88.721-10.734,89.554-10.847,2.264-.076,8.095-.908,8.821-3.9,1.087-4.482,2.438-17.64.723-20.5-2.068-3.447-21.173-20.18-26.7-23.753-.629-.407-1.211-.825-1.781-1.236a14.82,14.82,0,0,0-4.535-2.505c-1.358-.4-4.667-.124-5.826.014a.746.746,0,1,1-.178-1.481c.458-.054,4.529-.523,6.424.035a15.963,15.963,0,0,1,4.987,2.726c.55.4,1.112.8,1.719,1.194,5.271,3.411,24.832,20.349,27.165,24.24,2.156,3.591.417,17.622-.552,21.619-1.142,4.711-9.78,5.026-10.147,5.037-3.234.449-78.983,10.874-89.116,10.874" transform="translate(-223.236 -707.085)" fill="#864833"/>
      <path id="Trazado_38330" data-name="Trazado 38330" d="M481.348,1059.132a.737.737,0,0,1-.474-.17l-6.959-5.739a.746.746,0,1,1,.949-1.151l6.959,5.738a.746.746,0,0,1-.475,1.322" transform="translate(-340.755 -756.773)" fill="#864833"/>
      <path id="Trazado_38331" data-name="Trazado 38331" d="M15.431,889.426a.747.747,0,0,1-.685-.449c-4.051-9.346-7.306-27.286-8.207-32.562-2.1-12.273-2.907-24.776-3.693-36.868-.517-7.972-1.052-16.214-1.951-24.3A127.277,127.277,0,0,1,0,781.221c0-2.646.347-6.145,2-7.8,3.906-3.906,12.9-4.45,20.119-4.886l1.281-.078a.732.732,0,0,1,.791.7.747.747,0,0,1-.7.792l-1.285.079c-6.6.4-15.647.944-19.153,4.452-1.007,1.007-1.562,3.4-1.562,6.743a125.824,125.824,0,0,0,.886,13.862c.9,8.119,1.438,16.379,1.957,24.368.783,12.052,1.592,24.516,3.674,36.713.894,5.234,4.121,23.026,8.106,32.218a.748.748,0,0,1-.389.983.736.736,0,0,1-.3.061" transform="translate(0 -552.853)" fill="#864833"/>
      <path id="Trazado_38332" data-name="Trazado 38332" d="M629.552,1227.811a.71.71,0,0,1-.205-.029.746.746,0,0,1-.513-.923c.641-2.243,2.805-9.648,3.76-10.709.791-.877,2.568-.922,5.4-.925,1.81,0,5.179,0,5.281-.844.418-3.439,1.641-24.594,1.97-31.611.069-1.469.141-2.775.207-3.943.349-6.31.466-8.435-1.268-11.037a.746.746,0,0,1,1.242-.828c2.011,3.016,1.876,5.447,1.516,11.946-.064,1.165-.136,2.466-.2,3.931-.288,6.151-1.538,28.083-1.979,31.721-.262,2.151-3.566,2.153-6.762,2.156-1.557,0-3.909,0-4.3.433-.511.594-2.147,5.613-3.433,10.12a.748.748,0,0,1-.717.541" transform="translate(-452.383 -839.313)" fill="#864833"/>
      <path id="Trazado_38333" data-name="Trazado 38333" d="M200.289,1218.847a.634.634,0,0,1-.1-.007.747.747,0,0,1-.639-.84c3.167-23.317,6.489-46.46,9.245-51.006a.746.746,0,1,1,1.277.772c-2.607,4.3-6.034,28.289-9.042,50.435a.746.746,0,0,1-.739.646" transform="translate(-143.557 -839.317)" fill="#864833"/>
      <path id="Trazado_38334" data-name="Trazado 38334" d="M57.257,1067.378a.745.745,0,0,1-.666-.408c-5.327-10.492-13.8-28.488-16.745-35.967-4.687-11.906-7.88-23.158-11.261-35.071-1.6-5.632-3.251-11.457-5.075-17.353-2.628-8.489-4.941-15.114-8.777-16.743a.746.746,0,1,1,.583-1.373c4.426,1.88,6.876,8.811,9.619,17.676,1.829,5.912,3.484,11.745,5.086,17.384,3.371,11.878,6.554,23.1,11.214,34.932,2.624,6.669,10.889,24.42,16.686,35.838a.748.748,0,0,1-.327,1,.762.762,0,0,1-.338.08" transform="translate(-10.273 -690.946)" fill="#864833"/>
      <path id="Trazado_38335" data-name="Trazado 38335" d="M53.347,1153.994a14.892,14.892,0,0,1-3.568-.472c-2.848-.717-6.085-2.383-5.835-4.714a34.3,34.3,0,0,1,1.117-5.308c.445-1.673.948-3.571,1.361-5.988.86-5.039,5.383-23.385,5.575-24.164a.746.746,0,0,1,1.449.359c-.047.189-4.7,19.071-5.554,24.056-.424,2.484-.937,4.417-1.39,6.121a33.191,33.191,0,0,0-1.076,5.084c-.112,1.048,1.959,2.412,4.715,3.108,3.031.767,5.763.491,6.217-.622,1.324-3.253,3.9-13.522,3.924-13.625a.746.746,0,1,1,1.447.361c-.106.427-2.625,10.477-3.989,13.827-.577,1.416-2.333,1.979-4.395,1.979" transform="translate(-31.605 -800.573)" fill="#864833"/>
      <path id="Trazado_38336" data-name="Trazado 38336" d="M43.276,1255.977a.713.713,0,0,1-.184-.023.746.746,0,0,1-.541-.906l1.514-5.978a.747.747,0,0,1,1.448.367L44,1255.414a.747.747,0,0,1-.723.563" transform="translate(-30.597 -898.217)" fill="#864833"/>
      <path id="Trazado_38337" data-name="Trazado 38337" d="M73.865,1267.31a.781.781,0,0,1-.182-.022.746.746,0,0,1-.543-.905l2.454-9.812a.746.746,0,1,1,1.447.362l-2.454,9.812a.746.746,0,0,1-.723.566" transform="translate(-52.604 -903.613)" fill="#864833"/>
      <path id="Trazado_38338" data-name="Trazado 38338" d="M99.757,1250.074a10.588,10.588,0,0,1-7.973-3.653.746.746,0,1,1,1.08-1.029,9.187,9.187,0,0,0,9.061,2.981.747.747,0,0,1,.267,1.469,13.651,13.651,0,0,1-2.435.232" transform="translate(-65.885 -895.811)" fill="#864833"/>
      <path id="Trazado_38339" data-name="Trazado 38339" d="M307.313,1312.529a.746.746,0,0,1-.587-1.206c10.413-13.345,20.76-17.758,30.39-20.537,11.792-3.4,49.673-7.288,60.884,11.054a.747.747,0,0,1-1.274.779c-10.169-16.64-45.976-14.214-59.2-10.4-9.388,2.709-19.476,7.011-29.628,20.021a.747.747,0,0,1-.589.287" transform="translate(-220.555 -926.574)" fill="#864833"/>
      <path id="Trazado_38340" data-name="Trazado 38340" d="M1051.743,659.517a.851.851,0,0,1-.1-.007c-17.969-2.468-31.214-20.74-32.221-24.761a.747.747,0,1,1,1.449-.362c1.076,4.3,14.471,21.378,30.977,23.645a.746.746,0,0,1-.1,1.485" transform="translate(-733.388 -455.992)" fill="#864833"/>
      <path id="Trazado_38341" data-name="Trazado 38341" d="M1620.526,701.2a17.976,17.976,0,0,1-3.26-.255.746.746,0,1,1,.274-1.466c7.808,1.456,31.175-4.144,38.775-13.846a.747.747,0,0,1,1.175.921c-7.163,9.142-26.859,14.646-36.963,14.646" transform="translate(-1163.077 -493.06)" fill="#864833"/>
      <path id="Trazado_38342" data-name="Trazado 38342" d="M1268.988,457.592c-6.685,0-12.636-1.334-16.784-3.519-8.349-4.392-13.838-15.308-14.136-22.9-.285-7.323.411-11.124,2.982-16.267a.746.746,0,0,1,1.335.667c-2.44,4.881-3.1,8.512-2.825,15.541.245,6.26,5.016,17.262,13.337,21.641,8.245,4.34,23.96,5.161,38.034-1.656,9.152-4.434,20.817-13.778,24.419-33.116a.746.746,0,1,1,1.466.273c-3.716,19.952-15.772,29.6-25.234,34.187a52.324,52.324,0,0,1-22.6,5.152" transform="translate(-890.665 -298.2)" fill="#864833"/>
      <path id="Trazado_38343" data-name="Trazado 38343" d="M1166.286,809.807a.745.745,0,0,1-.727-.579,43.765,43.765,0,0,1-.9-15.712,71.189,71.189,0,0,0,.143-13.069c-.656-8.019-3.437-13.414-6.126-18.632a45.2,45.2,0,0,1-4.275-10.267c-.9-3.809-1.779-8.351-2.625-12.742-1.184-6.141-2.3-11.941-3.438-15.6a3.526,3.526,0,0,1,.72-3.561c3.559-3.988,16.868-3.387,23.2-2.181,8.847,1.688,25.645,3.02,36.772,3.331,10.662.3,22.113-1.455,29.691-2.615l2.071-.315c9.831-1.481,15.828-1.064,18.866,1.306,2.577,2.01,2.619,5.771,2.691,12a123.8,123.8,0,0,0,2.444,25.321c4.4,21.537,9.242,28.738,13.4,32.94a.746.746,0,1,1-1.061,1.049c-4.314-4.358-9.329-11.768-13.8-33.692a125.189,125.189,0,0,1-2.474-25.6c-.065-5.78-.106-9.271-2.116-10.838-2.654-2.074-8.457-2.4-17.725-1.009l-2.067.315c-7.631,1.169-19.17,2.93-29.958,2.633-11.187-.313-28.089-1.655-37.011-3.357-7.238-1.382-19.033-1.4-21.807,1.708a2.025,2.025,0,0,0-.408,2.124c1.162,3.74,2.287,9.581,3.479,15.762.842,4.377,1.716,8.9,2.61,12.681a44.143,44.143,0,0,0,4.15,9.928c2.63,5.1,5.607,10.878,6.287,19.193a72.573,72.573,0,0,1-.141,13.317,42.5,42.5,0,0,0,.866,15.252.745.745,0,0,1-.728.914" transform="translate(-826.012 -515.516)" fill="#864833"/>
      <path id="Trazado_38344" data-name="Trazado 38344" d="M1144.674,511.643c-4.234-13.056-5.109-15.752-1.944-33.688,1.843-10.44,4.073-18.926,6.434-27.91,1.707-6.493,3.472-13.207,5.279-21.305a.747.747,0,0,1,1.458.325c-1.815,8.126-3.583,14.853-5.293,21.36-2.354,8.953-4.577,17.411-6.409,27.79-3.1,17.568-2.245,20.2,1.863,32.87l-.678.328Z" transform="translate(-820.749 -308.029)" fill="#864833"/>
      <path id="Trazado_38345" data-name="Trazado 38345" d="M1188.689,501.84a.748.748,0,0,1-.725-.567c-4.057-16.4-4.2-24.549-.7-39.607,3.186-13.7,10.381-42.378,11.217-44.049a.747.747,0,0,1,1.335.668c-.681,1.394-7.527,28.361-11.1,43.72-3.437,14.781-3.294,22.782.694,38.91a.746.746,0,0,1-.545.9.763.763,0,0,1-.179.022" transform="translate(-852.364 -300.154)" fill="#864833"/>
      <path id="Trazado_38346" data-name="Trazado 38346" d="M1480.868,514.911a.745.745,0,0,1-.733-.62c-3.791-21.881,2.916-44.157,17.491-80.145a.747.747,0,0,1,1.384.56c-14.469,35.726-21.133,57.8-17.406,79.332a.744.744,0,0,1-.608.861.639.639,0,0,1-.128.012" transform="translate(-1064.108 -312.004)" fill="#864833"/>
      <path id="Trazado_38347" data-name="Trazado 38347" d="M1523.606,522.966a.745.745,0,0,1-.7-.477c-6.482-16.748,5.088-55.217,15.374-77.184a.747.747,0,0,1,1.353.632c-9.883,21.1-21.59,59.855-15.337,76.012a.744.744,0,0,1-.426.965.735.735,0,0,1-.27.051" transform="translate(-1094.282 -320.059)" fill="#864833"/>
      <path id="Trazado_38348" data-name="Trazado 38348" d="M994.2,1276.236a.745.745,0,0,1-.417-.127c-10.834-7.285-18.623-20.875-19.1-29-.473-8.014-.417-13.8-.417-13.857a.747.747,0,0,1,.747-.739h.007a.747.747,0,0,1,.739.754c0,.058-.056,5.8.414,13.755.448,7.606,8.133,20.912,18.446,27.846a.746.746,0,0,1-.417,1.366" transform="translate(-700.915 -886.714)" fill="#864833"/>
      <path id="Trazado_38349" data-name="Trazado 38349" d="M1598.019,1010.807a.753.753,0,0,1-.2-.026c-29.888-8.2-65.374-12.532-102.622-12.532-13.089,0-26.126.545-38.747,1.62a.771.771,0,0,1-.806-.681.746.746,0,0,1,.68-.806c12.662-1.079,25.741-1.625,38.873-1.625,37.38,0,73,4.352,103.016,12.585a.746.746,0,0,1-.2,1.466" transform="translate(-1047.24 -717.1)" fill="#864833"/>
      <path id="Trazado_38350" data-name="Trazado 38350" d="M1065.685,1005.2a.669.669,0,0,1-.095-.006.746.746,0,0,1-.647-.834c2.3-18.274,10.818-22.454,21.6-27.746,5.766-2.831,12.3-6.039,18.824-12.024a.746.746,0,1,1,1.009,1.1c-6.68,6.13-13.319,9.39-19.176,12.264-10.378,5.094-18.574,9.119-20.776,26.594a.747.747,0,0,1-.739.653" transform="translate(-766.152 -693.816)" fill="#864833"/>
      <path id="Trazado_38351" data-name="Trazado 38351" d="M1769.918,715.139a.727.727,0,0,1-.077,0,.745.745,0,0,1-.666-.818c.45-4.434,8.133-49.375,14.421-84.365,2.86-15.912,2.418-24.97-1.428-29.367-2.432-2.778-6.336-3.891-12.655-3.607-2.759.123-5.338.264-7.773.4-10.679.579-18.4,1-26.39-.68a.746.746,0,1,1,.306-1.461c7.8,1.638,15.437,1.225,26,.65,2.44-.133,5.024-.273,7.788-.4,6.826-.3,11.088.965,13.844,4.115,4.174,4.772,4.722,14.212,1.775,30.616-6.283,34.962-13.958,79.843-14.407,84.251a.744.744,0,0,1-.74.671" transform="translate(-1248.042 -428.22)" fill="#864833"/>
      <path id="Trazado_38352" data-name="Trazado 38352" d="M1186.028,356.778c-5.386,0-7.816-5.947-7.84-6.011a.748.748,0,0,1,.642-1.02s2.5-.174,5.944-.384a56.473,56.473,0,0,0,7.548-1.275.746.746,0,0,1,.915.808c-.033.3-.871,7.27-6.434,7.841a7.579,7.579,0,0,1-.774.04m-5.988-5.617c.876,1.562,3.005,4.458,6.61,4.091,3.233-.332,4.469-3.7,4.9-5.459a49.94,49.94,0,0,1-6.685,1.06c-2.055.125-3.774.238-4.823.307" transform="translate(-847.59 -250.412)" fill="#864833"/>
      <path id="Trazado_38353" data-name="Trazado 38353" d="M1383.93,926.022c-4.176,0-12.074-.764-12.074-3.651s7.9-3.651,12.074-3.651,12.075.764,12.075,3.651-7.9,3.651-12.075,3.651m0-5.81c-6.874,0-10.582,1.532-10.582,2.159s3.708,2.159,10.582,2.159,10.582-1.532,10.582-2.159-3.708-2.159-10.582-2.159" transform="translate(-986.959 -660.958)" fill="#864833"/>
      <path id="Trazado_38354" data-name="Trazado 38354" d="M1383.721,936.334c-5,0-9.387-.765-11.178-1.949a2.577,2.577,0,0,1-.851-2.108l-.007-.472c-.012-.687-.028-1.834-.026-1.847a.746.746,0,1,1,1.487.114c0,.029.021,1.074.031,1.708l.009.5a1.6,1.6,0,0,0,.187.867c1.235.815,5,1.7,10.35,1.7,7.162,0,10.572-1.465,10.724-2.048,0-.042-.013-2.711-.016-2.863a.75.75,0,0,1,.7-.764.773.773,0,0,1,.789.663c.01.1.019,2.946.019,2.974,0,2.787-7.678,3.53-12.214,3.53" transform="translate(-986.817 -668.474)" fill="#864833"/>
      <path id="Trazado_38355" data-name="Trazado 38355" d="M1378.82,932.407a.746.746,0,0,1-.281-1.437,27.663,27.663,0,0,1,9.8-1.432h.557a24.483,24.483,0,0,1,8.76,1.144.746.746,0,0,1-.533,1.393,23.024,23.024,0,0,0-8.222-1.045l-.561,0a26.628,26.628,0,0,0-9.236,1.32.726.726,0,0,1-.281.056" transform="translate(-991.432 -668.741)" fill="#864833"/>
      <path id="Trazado_38356" data-name="Trazado 38356" d="M1378.435,980.157a40.266,40.266,0,0,1-8.74-.846c-4.281-1.042-6.169-2.785-6.312-5.829-.124-2.659-.23-15.736-.23-21.033a7.794,7.794,0,0,1,1.007-4.089,12.248,12.248,0,0,1,.813-1.108,4,4,0,0,0,1.2-3.188.747.747,0,1,1,1.49-.111,5.45,5.45,0,0,1-1.523,4.227,11.047,11.047,0,0,0-.719.975,6.408,6.408,0,0,0-.777,3.293c0,5.285.105,18.325.228,20.963.092,1.936,1.006,3.434,5.174,4.45,3.988.971,12.114,1.169,16.23-.038,3.354-.982,4.6-2.036,4.6-3.885,0-.716.029-2.437.067-4.644.094-5.429.233-13.633.117-17.2a6.726,6.726,0,0,0-.988-3.25,4.723,4.723,0,0,0-.471-.575,5.8,5.8,0,0,1-1.752-4.226.746.746,0,0,1,1.492,0,4.331,4.331,0,0,0,1.372,3.232,6.3,6.3,0,0,1,.618.768,8.271,8.271,0,0,1,1.221,4c.116,3.6-.024,11.829-.117,17.271-.038,2.2-.067,3.908-.067,4.619,0,3.212-2.727,4.454-5.673,5.317a31.761,31.761,0,0,1-8.263.9" transform="translate(-980.699 -678.616)" fill="#864833"/>
      <path id="Trazado_38357" data-name="Trazado 38357" d="M1383.359,997.464a37.751,37.751,0,0,1-6.843-.558c-1.408-.27-4.71-.9-5.539-3.619-.475-1.555-.528-7.391-.544-14.287-.006-2.077-.01-3.872-.045-4.639-.082-1.751.507-3.877,3.778-4.073a9.638,9.638,0,0,1,2.611.34,10.758,10.758,0,0,0,2.572.345,15.29,15.29,0,0,0,1.6-.191,6.811,6.811,0,0,1,4.195.312,8.993,8.993,0,0,1,3.083,2.567,12.707,12.707,0,0,0,1.554,1.568,5.619,5.619,0,0,0,2.41.775c1.5.262,3.367.589,3.521,2.609a142.527,142.527,0,0,1-.452,15.428c-.327,1.443-1.888,2.408-4.639,2.867a45.459,45.459,0,0,1-7.262.555m-8.922-25.693c-.061,0-.123,0-.181.006-1.767.106-2.456.834-2.379,2.513.038.8.042,2.525.048,4.705.01,4.632.029,12.385.48,13.857.565,1.855,3.247,2.369,4.391,2.587a43.267,43.267,0,0,0,13.579,0c2.007-.335,3.256-.964,3.429-1.726a149.453,149.453,0,0,0,.418-14.984c-.057-.745-.595-.956-2.291-1.252a6.74,6.74,0,0,1-3.075-1.074,13.852,13.852,0,0,1-1.746-1.75,7.765,7.765,0,0,0-2.555-2.183,5.469,5.469,0,0,0-3.376-.21,16.8,16.8,0,0,1-1.752.206,11.12,11.12,0,0,1-2.969-.376,10.23,10.23,0,0,0-2.022-.315" transform="translate(-985.898 -698.051)" fill="#864833"/>
      <path id="Trazado_38358" data-name="Trazado 38358" d="M262.848,911.123a.746.746,0,0,1-.609-.313c-1.677-2.357-3.861-3.118-6.173-3.923-.515-.179-1.027-.357-1.532-.554a17.222,17.222,0,0,1-5.981-3.871.747.747,0,1,1,1.06-1.052,15.7,15.7,0,0,0,5.461,3.533c.488.188.985.361,1.483.535,2.431.845,4.946,1.721,6.9,4.466a.747.747,0,0,1-.607,1.179" transform="translate(-178.662 -648.346)" fill="#864833"/>
      <path id="Trazado_38359" data-name="Trazado 38359" d="M134.879,868.717a9.569,9.569,0,0,1-3.53-.657,3.253,3.253,0,0,1-1.976-3.024,2.28,2.28,0,0,1,1.717-2.122c2.283-.7,4.3.357,6.072,1.29l.221.115c.165.088.387.182.626.286,1.063.459,2.066.893,2.143,1.745a1.151,1.151,0,0,1-.592,1.083,8.56,8.56,0,0,1-4.682,1.286m-2.272-4.537a3.672,3.672,0,0,0-1.082.162.788.788,0,0,0-.661.756,1.776,1.776,0,0,0,1.038,1.577,7.969,7.969,0,0,0,6.461-.261c-.3-.162-.706-.337-.946-.44-.278-.121-.535-.233-.726-.332l-.223-.118a8.733,8.733,0,0,0-3.861-1.344m6.539,2.631-.387-.641a.154.154,0,0,0-.023.026l.41.615-.41-.615Z" transform="translate(-93.074 -620.647)" fill="#864833"/>
      <path id="Trazado_38360" data-name="Trazado 38360" d="M138.35,880.461a1.285,1.285,0,0,1-.993-.435c-.834-.948-.142-2.922.119-3.369a8.021,8.021,0,0,1,3.7-2.86,17.654,17.654,0,0,0,2.279-1.132c.542-.313.969-.56,1.448-.308s.516.735.564,1.4a3,3,0,0,1-1.606,2.526,6.942,6.942,0,0,0-.678.563c-.26.259-.508.529-.758.8-.328.356-.656.71-1,1.044a19.814,19.814,0,0,1-2.212,1.579,2.2,2.2,0,0,1-.859.2m5.594-6.356a18.7,18.7,0,0,1-2.2,1.071,6.7,6.7,0,0,0-2.982,2.233,3.454,3.454,0,0,0-.3,1.542,1.336,1.336,0,0,0,.166-.058c.15-.092,1.533-1.064,1.763-1.284.327-.312.633-.645.941-.978.262-.284.525-.568.8-.841a8.38,8.38,0,0,1,.828-.692c.522-.4.879-.691.989-.993" transform="translate(-98.533 -627.528)" fill="#864833"/>
      <path id="Trazado_38361" data-name="Trazado 38361" d="M235.89,1075.227a.752.752,0,0,1-.179-.022c-7.544-1.849-18.814-16.478-23.72-25.884a.747.747,0,1,1,1.324-.691c4.882,9.36,15.9,23.446,22.752,25.126a.746.746,0,0,1-.177,1.47" transform="translate(-152.453 -754.133)" fill="#864833"/>
      <path id="Trazado_38362" data-name="Trazado 38362" d="M1029.3,1118.578a.73.73,0,0,1-.246-.042c-35.386-12.388-54.873-29.277-54.873-47.555,0-27.357,43.892-51.233,111.818-60.825a.746.746,0,1,1,.21,1.478c-66.115,9.336-110.536,33.186-110.536,59.347,0,17.341,19.637,34.16,53.874,46.147a.746.746,0,0,1-.246,1.45" transform="translate(-700.857 -726.736)" fill="#864833"/>
      <path id="Trazado_38363" data-name="Trazado 38363" d="M1001.17,1353.255h0a.746.746,0,0,1-.742-.751l.052-9.266a.747.747,0,0,1,.746-.742h0a.747.747,0,0,1,.742.751l-.053,9.266a.747.747,0,0,1-.746.742" transform="translate(-719.739 -965.838)" fill="#864833"/>
    </g>
  </g>
</svg>
