<svg xmlns="http://www.w3.org/2000/svg" xmlns:xlink="http://www.w3.org/1999/xlink" width="511.409" height="386.308" viewBox="0 0 511.409 386.308">
  <defs>
    <clipPath id="clip-path">
      <rect id="Rectángulo_3806" data-name="Rectángulo 3806" width="511.409" height="386.308" transform="translate(0 0)" fill="none"/>
    </clipPath>
  </defs>
  <g id="Grupo_16577" data-name="Grupo 16577" transform="translate(0 -0.004)">
    <g id="Grupo_16576" data-name="Grupo 16576" transform="translate(0 0.004)" clip-path="url(#clip-path)">
      <path id="Trazado_38364" data-name="Trazado 38364" d="M1165.85,90.159c10.517,13.742,26.3,29.059,26.8,47.77.171,6.494-2.551,10.678-4.631,16.542-2.915,8.216-4.424,18.954-1.588,27.261,1.55,4.537,5.055,8.044,7.94,11.778,2.925,3.785,5.795,7.786,9.262,11.116,4.246,4.075,9.641,8.773,8.866,15.35-.237,2.022-1.207,3.844-1.588,5.823-.882,4.588-1.975,8.037-5.822,11.115-2.033,1.628-4.62,2.337-6.616,3.971-3.8,3.109-6.656,6.444-12.042,5.955-6.224-.566-10.041-6.513-15.747-7.94-5.062-1.266-9.278,7.181-14.689,5.559-2.683-.806-5.984-4.985-7.676-7.014-1.461-1.754-2.548-3.781-3.969-5.559-3.764-4.7-8.032-9.744-8.6-16.011-.46-5.058,1.99-8.541,3.045-13.233,1.086-4.839,9-10.575,7.92-17.847-.652-4.4-3.706-12.021-4.108-15.039-.351-2.624-3.1-3.774-6.019-8.418-2.412-3.834-5.825-9.735-7.152-15.1a119.937,119.937,0,0,1-3.069-20.048c-.131-1.942-.348-4.205-.29-5.992.117-3.605,2.888-9.5,4.247-12.835a42.72,42.72,0,0,1,3.573-6.22,46.661,46.661,0,0,1,4.5-5.823c4.172-4.84,12.769-12.75,19.982-10.586a16.518,16.518,0,0,1,7.476,5.426" transform="translate(-827.531 -62.001)" fill="#feede5" fill-rule="evenodd"/>
      <path id="Trazado_38365" data-name="Trazado 38365" d="M1268.112,684.221c.858.086,1.106,1.764,1.69,2.479a16.761,16.761,0,0,0,5.415,4.085c2.935,1.467,5.962,1.977,9.009,3.052a21.851,21.851,0,0,1,8.073,5.365c4.189,4.589,5.759,11.27,6.6,17.229.443,3.148.926,6.853.4,10.042a36.21,36.21,0,0,1-6.5,14.914c-1.643,2.166-4.054,4.017-6.054,5.858-2.5,2.3-3.635,3.936-7.143,4.588a11.536,11.536,0,0,1-3.789.371,18.778,18.778,0,0,1-2.866-.748,13.3,13.3,0,0,1-3.611-2.361c-3.823-3.379-10.021-12-9.71-17.608.287-5.182.819-11.149.2-16.473a16.712,16.712,0,0,0-2.6-7.176c-1.418-2.488-5.134-7.384-6.25-10.006-1.134-2.668-1.888-6.637-.11-6.233.993.225,1.748,2.7,2.9,4.069,1.328,1.569,1.818,1.673,1.951,1.051.2-.929-.469-9.989-.189-11.191a2.014,2.014,0,0,1,1.767-1.371c.98-.111,1.159,2.165,1.217,2.873.322,3.908,1.225,7.51,1.632,7.107a5.381,5.381,0,0,0,1.031-3.783c-.322-3.022.45-6.394,1.631-6.694.91-.231,1.841,2.058,1.83,3.866,0,.879,1.391-.012,1.477-.578.278-1.807,1.138-2.815,2-2.729" transform="translate(-918.468 -502.405)" fill="#feede5" fill-rule="evenodd"/>
      <path id="Trazado_38366" data-name="Trazado 38366" d="M1695.312,633.274a10.072,10.072,0,0,1-1.928-2.555,34.323,34.323,0,0,1-2.363-5.786,33.531,33.531,0,0,1-.964-17.26c.3-1.517,1.1-4.433,2.8-4.773a15.582,15.582,0,0,1,4.725.723,43.54,43.54,0,0,0,7.183,1.06,127.751,127.751,0,0,1,20.394,3.76c1.975.508,5.755.538,7.714,1.109,5.4,1.575,8.837,3.518,11.041,8.871a37.075,37.075,0,0,1,1.928,5.641c1.136,5.875-2.968,7.673-9.361,9.734-8.763,2.825-18.142,1.988-26.542,1.586a72.02,72.02,0,0,1-10.818-1.529c-1.664-.37-2.938-.39-3.806-.583" transform="translate(-1241.493 -443.037)" fill="#feede5" fill-rule="evenodd"/>
      <path id="Trazado_38367" data-name="Trazado 38367" d="M489.155,759.342c2.236.761,6.289,6.86,8.23,9.9a33.948,33.948,0,0,1,5.127,14.266c.229,1.518.95,2.935.042,4.3-1.277,1.915-8.361,5.445-10.273,5.967a8.9,8.9,0,0,1-4.763.326c-2.618-.3-4.053-.637-6.161-.942-5.891-.853-14.555-2.632-21.8-4.407-12.118-2.968-23.512-7.014-35.364-10.934a191.03,191.03,0,0,0-22.644-6.363c-4.786-.937-8.764-2.474-12.945-2.748-4.682-.309-7.095,1.932-11.443,2.921a44.876,44.876,0,0,0-8.17,2.812c-.516.239.915.785.279,2.058s-1.733.949-1.515,1.395a1.385,1.385,0,0,1-1.173,2.025c-2.266,0-6.01.3-8.9.188-1.239-.048-4.14-.132-4.379.7-1.748,6.122-8.163,6.481-7.051,2.712a20.021,20.021,0,0,0,1.085-5.911c.081-2.658-.275-7.93-.271-8.054.081-2.44.271-4.962.894-6.236a51.259,51.259,0,0,1,4.636-6.138c2.364-2.872,3.082-6.9,6.472-7.943,3.93-1.217,16.646,3.362,25.11,4.53,6.854.947,18.009.7,24.575,1.583,6.107.825,10.358,1.331,15.513,1.856,9.6.98,13.458,1.151,23.049,2.252,8.278.951,14.446,1.492,21.368,1.962a50.981,50.981,0,0,1,12.885,2.764c.958.368,4.99-3.164,5.526-3.611.4-.331,1.545-1.406,2.064-1.229" transform="translate(-254.359 -550.456)" fill="#feede5" fill-rule="evenodd"/>
      <path id="Trazado_38368" data-name="Trazado 38368" d="M1357.247,752.345c-.562-1.914,3.711-5.454,5.067-6.6a37.649,37.649,0,0,1,11.854-6.555,9.483,9.483,0,0,1,5.067-.6c1.359.272,2.007,1.708,2.7,2.742,1.832,2.748,3.965,5.367,5.811,8.136,6.3,9.456,13.863,17.34,15.911,28.945a66.265,66.265,0,0,1,.523,10.834c-.012,1.486-.952,2.391-2.164,3.451-1.972,1.726-5.913,1.929-8.217,2.58s-7.464,3.3-12.626,5.156c-6.078,2.19-9.442,2.857-16.82,4.765-6.276,1.622-13.758,2.065-19.458,2.562-8.674.756-18.73.178-26.086.21-8.155.034-14.977-.885-23.1-1.025-2.829-.048-6.451-.139-9.3-.139a3.567,3.567,0,0,0-2.567,1.044c-.464.626-1.819,4.533-3.133,6.851-1.532,2.7-2.527,4.926-4.9,8.468a11.6,11.6,0,0,0-2.433,6.45c-.245,1.843-.691,7.753-.037,10.154.838,3.07,4.288,5.342,2.658,7.261-1.113,1.311-3.015,1.122-4.406,1.53-1.454.427-2.308-.474-3.84-.716-1.956-.311-1.625,1.849-5.4.475-2.816-1.026-5.581-5.369-6.742-7.547a45.039,45.039,0,0,0-2.661-5.108c-.144-.2-.649.112-.785.515a16.159,16.159,0,0,0-.416,3.722c-.368,3.135,1.171,3.524,4.923,4.678.6.186,3.01,1.966,2.45,2.9-.956,1.6-2.744,1.731-5.415,1.854-5,.229-8.6-1.241-11.082-5.9-.771-1.449-.46-5.639-.4-7.866.083-3.327.117-6.952-3.533-7.884-1.187-.3-7.45,2.634-9.59,5.47-2.09,2.77-3.529,6.873-5.669,10.187-1.044,1.616-2.9,3.314-4.856,3.59a2.873,2.873,0,0,1-2.279-1.128c-1.058-2.095,1.031-9.907,4-14.269,2.6-3.815,3.424-5.86,7.089-8.792,2.915-2.332,6.444-4.568,9.283-7.029,3.6-3.123,5.377-6.989,8.3-10.608a156.172,156.172,0,0,1,15.648-16.943c2.494-2.216,4.253-5.178,7.339-6.562a23.15,23.15,0,0,1,5.2-1.665c4.616-.835,11.734-.118,18.3-.348,5.541-.195,13.431-.843,18.725-2.3,5.866-1.61,10.843-3.026,17.382-5.442,6.412-2.369,12.132-5,18.639-7.07,3.093-.984,6.247-1.62,9.341-2.547,3.123-.937,5.6-.544,5.233-1.753-.173-.561-3.341-7.477-3.533-8.134" transform="translate(-893.639 -542.682)" fill="#feede5" fill-rule="evenodd"/>
      <path id="Trazado_38369" data-name="Trazado 38369" d="M1160.605,1239.17c.184-2.192,4.7-2.214,6.6-2.208a59.765,59.765,0,0,1,16.4,2.09c1.77.511,4.682,1.14,5.712,2.926.551.957-.449,2.566-.878,3.3-1.8,3.071-3.157,6.748-4.94,10.044-1.108,2.051-1.234,4.626-1.321,6.97-.11,2.941,1.157,6.624.653,9.551-.314,1.824-1.091,4.589-2.952,5.5-3.2,1.561-7.985.471-10.385.074s-3.5-.789-5.78-.166c-5.058,1.38-6.336,4.874-15.757,3.574a12,12,0,0,1-4.139-1.4c-.948-.572-1.766-2-2.658-2.663a5.329,5.329,0,0,1-1.4-1.181c-2.358-3.534.433-3.922,2.523-4.59,1.394-.445,3.963-.086,5.029-.669,3.555-1.943,6.053-5.12,8.209-8.479.947-1.476,1.512-2.133,2.357-3.652a13.913,13.913,0,0,0,1.823-4.515c1.047-3.624.029-7.279.481-11.01.081-.671.3-2.038.422-3.487" transform="translate(-836.938 -909.031)" fill="#feede5" fill-rule="evenodd"/>
      <path id="Trazado_38370" data-name="Trazado 38370" d="M1566.372,1301.53c2.107-.724,3.973,2.188,4.771,3.785,2.017,4.035.94,8.286-.809,12.131a8.055,8.055,0,0,1-1.941,2.719c-.123.114-.784.905-1.068.743-.242-.138-.213-.773-.226-.937-.1-1.37-.082-2.738-.129-4.109-.063-1.838-.112-3.7-.226-5.532-.138-2.209-.416-4.421-.485-6.632-.016-.51-.423-1.983.113-2.167" transform="translate(-1150.907 -956.398)" fill="#feede5" fill-rule="evenodd"/>
      <path id="Trazado_38371" data-name="Trazado 38371" d="M1143.62,3.981c.8.086,3.827-.489,4.706-.54a34.171,34.171,0,0,1,12.217,2.31c7.948,3.406,14.031,10.91,16.9,19.522,3.681,11.046,4.068,21.54,5.739,32,1.524,9.544,4.839,17.5.1,28.644a16.591,16.591,0,0,1-5.411,6.853,101.483,101.483,0,0,1-9.85,5.994c-.78.434-3.182,2.077-4.165,1.914-.558-.094.282-.9.512-1.413.245-.554,1.077-1.761,1.309-2.321.888-2.156,2.083-4.133,2.375-6.479.876-7-1.111-7.838,1.542-19.407.45-1.961-.348-6.414-1.129-8.258-.621-1.47-2.71-1.176-8.508-7.773a102.927,102.927,0,0,1-8.512-10.927c-2.724-4.1-5.664-12.306-6.992-14.259-.139-.2-1.524,1.6-3.77,3.567s-8.443,5.518-12.521,7.117c-5.2,2.04-11.884,5.708-14.913,10.757-1.714,2.856-3.839,7.262-3.693,10.808.211,5.117.47,8.211,1.042,13.361.215,1.936.743,4.224,1.064,6.149.111.663.49,1.676.616,2.32.219,1.1-1.226.572-1.5.39a21.7,21.7,0,0,1-4.552-5.065c-2.562-5.394-3.707-11.078-2.394-24.048.647-6.4-.487-13.147,1.169-21.394,1.255-6.256,5-12.447,9.014-17.384a35.329,35.329,0,0,1,19.545-12.244,17.23,17.23,0,0,1,5.374-.475c.669,0,3.886.194,4.684.281" transform="translate(-810.793 -2.515)" fill="#efa5a5" fill-rule="evenodd"/>
      <path id="Trazado_38372" data-name="Trazado 38372" d="M1074.52,389.52a56.935,56.935,0,0,1,1.445-5.648c.106-.388.063-1.691.642-1.413.8.384,1.025,1.164,1.552,1.779,1.838,2.142,2.3,1.416,2.86,3.862,1.115,4.878,2.242,7.084,3.474,11.923.615,2.413,1.868,9.86,1.736,12.378a15.564,15.564,0,0,1-1.016,4.728c-.964,1.886-3.622,2.2-3.783,3.127-.82,4.728-1.6,8.813-2.49,13.524-.812,4.311-1.593,9.677-1.967,14.153-.567,6.8.578,9.143.209,20.289-.2,6.02-1.651,22.518-6.709,31.066a65.807,65.807,0,0,1-7.716,9.885,63.267,63.267,0,0,0-9.407,11.95c-1.485,2.418-4.383,7.8-3.09,10.717.175.394.338,3.428.947,3.5a13.754,13.754,0,0,1-1.425-.272c-.38-.328-.715-.716-1.08-1.068a14.183,14.183,0,0,1-2.782-3.893c-2.051-4.1-3.808-8.928-3.515-13.439.632-9.717,5.635-21.036,6.063-30.763.368-8.37-1.016-14.933-1.865-23.561-.722-7.345-.758-16.7,1.336-23.821,3.369-11.458,11.533-20.848,17.54-31.134,2.537-4.342,5.4-8.226,7.563-13.525a28.282,28.282,0,0,0,1.479-4.347" transform="translate(-766.028 -281.037)" fill="#efa5a5" fill-rule="evenodd"/>
      <path id="Trazado_38373" data-name="Trazado 38373" d="M1244.474,371.51c.8-1.4,2.117-4.086,2.437-4.578,1.523-2.342,5.86-6.075,8.773-8.132a107.775,107.775,0,0,1,9.275-6.339,48.788,48.788,0,0,1,11.655-5.042c6.205-1.652,14.154-2.663,19.864-.5a62.518,62.518,0,0,1,16.266,10.008c6.332,5.273,9.36,9.1,11.44,19.673a37.109,37.109,0,0,1,.748,9.895,77.7,77.7,0,0,1-1.566,9.68c-.394,1.734,3.284.813,4.6,1.292,2.732.994,7.273,4.747,8.073,7.944.121.48-2.391-.465-4.3-.06s-4.041.381-5.867,1.112c-6.244,2.5-9.909,5.328-16.084,9.339a21,21,0,0,1-5.432,2.206c-.922.132.836,2.493,1.289,3.748a22.907,22.907,0,0,1,1.384,9.289c-.615,4.306-1.338,7.971-6.912,13.455a5.757,5.757,0,0,1-5.439.716c-2.318-.994-4.591-7.759-4.947-9.916a28.307,28.307,0,0,1-.112-10.924c1.07-6.746,6.159-12.165.5-17.82-1.734-1.734-5.451-2.064-7.694-.975a4.666,4.666,0,0,0-2.169,3.412c.023,1.44-2.892,1.6-4.342.8-1.851-1.028-.785-3.568-.95-5.384-.309-3.4-2.366-8.845-4.906-11.3-3.538-3.414-12.711-5.339-19.027-5.671a56.8,56.8,0,0,1-6.38-.95c-.887-.147-3.025-3.443-3.406-4.46-1.052-2.8-.241-5.655,1.4-8.287.689-1.1,1.265-1.265,1.817-2.234" transform="translate(-911.836 -254.042)" fill="#eac6b0" fill-rule="evenodd"/>
      <path id="Trazado_38374" data-name="Trazado 38374" d="M1174.891,573.826c3.368,6.819,7.159,12.96,10.5,19.581.84,1.667,2.817,4.73,3.649,6.4.109.219,1.012,2.175,1.434,1.838.938-.752,2.569-3.636,3.288-4.672,1.812-2.619,3.2-4.646,5.053-7.234.688-.963,1.118-1.577,1.716-2.573.124-.207.464-1.107.8-1.107s.528,2.389.656,2.986a9.369,9.369,0,0,0,2.532,4.56,76.763,76.763,0,0,0,7.271,7.4c.554.443,2.3,1.813,3.321,1.926.338.038-1.3,3.341-2.034,4.556-.064.107-.793-.906-.812-1.012a4.869,4.869,0,0,0-.957-2.507c-.744-.447-1.014-.286-1.417.208a6.277,6.277,0,0,0-.934,2.04c-.058.2-.826,4.518-.969,4.591-.2.1-.708-4.159-.751-4.266-.45-1.125.124-2.193-.774-3.091-.2-.2-1.113-.475-1.4-.115-1.635,2.043-.512,6.158-.92,7.344-.078.231.016,2.605-.984,2.658-.666.036-1.149-2.525-1.27-3-.349-1.4.318-8.268-2.737-7.047-1.092.437-1.037,2.316-1.037,3.309,0,2.439.482,4.624.482,6.974,0,.547.068,2.281-.435,2.658-.676.507-1.521-.765-1.745-1.138-.468-.777-1.538-4.749-3.059-3.988-1.249.625-.66,3.614-.339,4.471.162.434.8,1.637.2,1.788-2.876.718-8.048-.7-10.7-1.23a51.785,51.785,0,0,1-5.634-1.729c-1.039-.346-4.75-1.335-4.79-2.434s.33-6.068.377-10.9-.732-9.771.245-17.906a72.253,72.253,0,0,1,1.279-7.567c.161-.625.6-2.368.905-1.755" transform="translate(-861.35 -421.605)" fill="#fff" fill-rule="evenodd"/>
      <path id="Trazado_38375" data-name="Trazado 38375" d="M938.261,520.683a13.739,13.739,0,0,1,4.1-2c.117-.022.876-.285.967-.194.292.291-1.274,2.191-1.419,2.453-1.577,2.838-3.257,5.61-4.71,8.517a48.643,48.643,0,0,0-5.636,22.61c0,7.679,1.507,17.078,2.073,24.707.354,4.781.563,6.854-.034,11.6-.455,3.614-.678,8.966-2.015,12.31-.244.608-.509,2.189-1.1,2.581-.362.241-.757-1.641-.775-1.806-.228-2.06-.619-4.135-.9-6.195-.006-.043,0-1.518-.452-1.29-.828.415-1.621,1.68-2.289,2.348-.572.572-2.176,2.218-2.779,2.81-1.584,1.554-2.953,2.611-4.869,4.457a128.775,128.775,0,0,1-11.356,9.484c-1.8,1.37-3.461,2.9-5.406,4.152-.165.106-1.636,1.166-1.655,1.006-.1-.842-.245-2.375-.3-3.287a35.59,35.59,0,0,0-2.038-8.71,41,41,0,0,0-6.939-12.016c-.916-1.177-2.127-2.293-3.068-3.469-.338-.423-1.524-1.16-1.159-1.749.718-1.164,3.058-3.472,4.1-4.7,3.281-3.859,6.358-7.812,9.286-11.959,2.722-3.857,5.541-7.309,8.039-11.342,5.727-9.245,10.915-19.248,17.587-27.826a72.264,72.264,0,0,1,8.642-9.346,42.737,42.737,0,0,1,4.1-3.153" transform="translate(-651.432 -381.02)" fill="#fff" fill-rule="evenodd"/>
      <path id="Trazado_38376" data-name="Trazado 38376" d="M1564.556,483.569c-.327.026-1.923-2.612-2.07-2.923a11.244,11.244,0,0,0-2.843-3.1c-.844-.681-2.048-1.744-3.186-1.745-1.251,0-3.671.913-4.661-.033-.8-.765-.046-2.621.2-3.369.295-.9.444-2.328.648-3.255a24.548,24.548,0,0,0,.5-5.042c-.011-2.409-.054-4.087-.231-6.474a31.416,31.416,0,0,1-.484-3.2c.034-1.044.273-2.039,1.48-2.24,3.462-.576,6.231,1.534,8.755,3.338a37.376,37.376,0,0,1,5.474,4.637,77.1,77.1,0,0,1,8.692,11.065,64.92,64.92,0,0,0,4.657,6.015c.189.233,10.545,14.353,10.435,14.715-.059.192-3.63-1.466-3.821-1.547-2.338-.988-8-3.341-9.321-3.754a43.377,43.377,0,0,0-9.616-2.338c-2.075-.2-3.716-.829-4.61-.758" transform="translate(-1140.135 -332.243)" fill="#fff" fill-rule="evenodd"/>
      <path id="Trazado_38377" data-name="Trazado 38377" d="M1712.306,716.878c.547-.681,2.962.5,3.828.6,3.464.4,6.672,1.189,10.188,1.463a91.921,91.921,0,0,0,12.391.228c1.2-.07,3.4-.708,4.336.317.237.26,1.68,1.831,1.418,2.262-.18.3-.8.275-1.079.342a23.792,23.792,0,0,0-3.929.955c-4.008,1.69-7.743,3.1-11.941,6.3a22.341,22.341,0,0,0-4.326,4.057c-.214.278-1.369,2.433-1.914,2.272-.605-.18-1.05-1.394-1.327-1.888-.8-1.422-1.69-3.943-2.469-5.378-1.358-2.5-3.833-3.53-5.205-6.062-.734-1.352-.084-2.416-.066-3.884,0-.453-.133-1.293.094-1.578" transform="translate(-1258.078 -526.672)" fill="#fff" fill-rule="evenodd"/>
      <path id="Trazado_38378" data-name="Trazado 38378" d="M1028.851,771.913c-.384-1.186,2.245-4.064,3.891-6.482s10.628-12.3,14.091-17.348c2.306-3.36,4.851-11.412,5.809-18.789.285-2.2.219-2.514.433-4.767s.322-4.262.424-4.245a17.905,17.905,0,0,1,3.625,1.372c2.054,1.027,6.406,1.971,8.653,2.644,3.641,1.093,8.915-.032,9.764,1.274s3.171,5.015,4.5,7c1.28,1.92,3.625,4.616,4.018,6.976,1.609,9.652-1.855,20.118,2.237,27.539,1.954,3.545,5.375,8.383,9.546,10.469,1.537.769,3.706,1.97,5.415,1.6.206-.044,3.2-.56,3.249-.281.12.641-1.893,2.755-2.487,3.42-2.389,2.67-4.192,4.979-6.482,5.413-5.938,1.124-10.134,3.934-15.85,9.411a39.731,39.731,0,0,0-9.2,14.308c-.946,2.359-1.129,6.011-1.538,7-1.276,3.072-2.894,6.265-3.734,10.5-.457,2.3-.548,3.026.691,4.124.143.127-.433,1.073-.631,2.56-.418,3.134-.327,6.7-.473,10a64.863,64.863,0,0,0-.059,10.633c.178,1.451,1.229,2.48,1.3,3.408.194,2.582.1,6.1.082,8.907a20.5,20.5,0,0,1-.578,6.41c-1.555,5.581-7.528,12.094-11.53,15.257-1.518,1.2-3.468.9-5.916,1.02-1.878.093-5.167,2.005-2.388,4.323,2.139,1.782,3.709,4.408,6.263,5.127a20.367,20.367,0,0,0,9.5.253c2.6-.584,5.947-2.861,8.411-3.409,5.376-1.194,11.559,3.169,16.183-.3a5.361,5.361,0,0,0,2.2-3.56,24.874,24.874,0,0,0,.174-6.429,25.838,25.838,0,0,1-.561-7.12c.234-2.487,1.839-4.664,2.761-6.968a61.093,61.093,0,0,1,3.865-8.067c.345-.489,1.224-.106,1.808-1.166.71-1.289.594-3.01,1.193-4.507a29.869,29.869,0,0,0,2.007-11.853c-.161-2.464-.125-3.826-.357-6.982-.14-1.905-.642-5.055,1.8-4.747a10.48,10.48,0,0,0,7.872-1.991c.28-.216,2.02,1.005,3.869,1.144a7.334,7.334,0,0,0,3.984-.485,13.443,13.443,0,0,0,3.256.689,10.617,10.617,0,0,0,4.919-1.647c1.374-.807,15.184,2.169,17.573,4.167.559.467.573,2.93,1.143,5.594s1.5,9.058,2.055,13.923c.636,5.573.869,7.641,1.292,13.713.636,9.13,0,43.952,0,43.952s-136.385,1.568-136.232,0c.391-4.009,1.087-32.294,2.806-45.363.388-2.947.911-10.468,1.83-15.069,1.77-8.869,2.175-15.36,5.582-23.449,2.273-5.4,4.578-11.679,6.86-17.758,2.908-7.743,5.445-13.924,4.6-22.4a92.482,92.482,0,0,0-3.509-18.949" transform="translate(-742.741 -529.328)" fill="#ffecd5" fill-rule="evenodd"/>
      <path id="Trazado_38379" data-name="Trazado 38379" d="M1507.124,1166.243c-.076-.342-.728-3.021-.524-2.988,1.128.188,2.251.87,3.406,1.1,1.442.288,4.555.151,5.607,1.467,1.358,1.7,1.567,4.5,1.938,6.55,1.095,6.016,2.505,11.989,3.512,18.025.353,2.118,1.609,6.407,1.774,8.55.416,5.4.785,8.015.881,13.479.021,1.19,0,23.5,0,27.652h0s-11.8.3-11.877,0c-.123-.493-.045,5.852,0,0,.007-.859,0,5.9,0,0,0-2.192,0-19.791,0-19.918.01-.611-.167-20.521-1.1-28.924-.475-4.272-.524-7.86-.891-11.214s-.943-6.863-1.676-10.584c-.052-.261-1.01-3.023-1.048-3.2" transform="translate(-1107.155 -854.865)" fill="#dfe2eb" fill-rule="evenodd"/>
      <path id="Trazado_38380" data-name="Trazado 38380" d="M1347.575,589.99c.823.033.193,4.228.271,6.075.194,4.569,1.4,14.107,6.846,14.886,3.6.514,6.107-2.458,7.678-5.375,2.667-4.952,3.665-8.4,2.946-14.152a17.881,17.881,0,0,0-1.7-5.13c-.337-.626-1.589-1.843-1.087-2.345a8.514,8.514,0,0,1,2.14-.884c3.092-1.121,5.445-3.436,7.544-4.485,3.181-1.591,4.828-3.5,8.041-4.989a40.06,40.06,0,0,1,5.664-2.058,32.662,32.662,0,0,1,7.643-.479c3.764.152,12.405,1.374,17.759,3.852,1.1.511,7.87,3.209,9.982,4.325,2.214,1.169,22.881,2.554,23.414,3.919,1.011,2.592,3.693,20.231.582,28.295-.4,1.046-4.407.706-10.164.1-3.306-.35-10.813-1.995-11.217-1.6-.738.721,5.246,10.146,5.48,10.535,1.943,3.239,2.822,5.778,4.51,9.156,1.334,2.668,2.512,5.7,3.4,7.579.15.319.4.844-.229,1.009-.482.126-1.007.229-1.817.413-1.277.29-2.154.491-3.909.91-2.192.525-3.336.865-5.528,1.437a50.931,50.931,0,0,0-5.172,1.607c-7.089,2.726-10.31,3.683-20.528,7.778a77.864,77.864,0,0,1-12.1,3.555,115.869,115.869,0,0,1-11.684,2.144,107.482,107.482,0,0,1-11.389.775c-5.652,0-10.7-.47-12.6-.076a38.548,38.548,0,0,0-5.023.936,12.588,12.588,0,0,0-2.434.91c-.17.171-.948.187-.948-.054,0-.75,1.107-1.723,1.916-3.85s-.109-1.277-3.277-1.967c-4.247-.926-19-8.811-22.25-14.5-.259-.454.566-7.274.8-14.708.306-9.607.311-20.551,3.744-23.824,4.178-3.984,9.819-5.122,14-6.316,1.771-.506,3.4-1.94,5.2-2.549a11.047,11.047,0,0,1,3.5-.859" transform="translate(-970.26 -419.639)" fill="#ffc8bb" fill-rule="evenodd"/>
      <path id="Trazado_38381" data-name="Trazado 38381" d="M1259.212,973.767c.037.644-2.1,2.972-2.942,4.329-1.36,2.192-3.754,4.918-5.226,7.022-3.245,4.635-6.022,5.81-10.438,9.063-2.154,1.587-4.593,3.162-6,5.434a43.9,43.9,0,0,1-2.958,4.413,6.19,6.19,0,0,1,.08-3.351,29.639,29.639,0,0,1,2.76-6.972c4.09-7.736,11.725-16.224,19.111-18.682,1.57-.522,5.579-1.867,5.614-1.258" transform="translate(-904.975 -715.498)" fill="#ffc8bb" fill-rule="evenodd"/>
      <path id="Trazado_38382" data-name="Trazado 38382" d="M1356.524,1111.842c-.069.433-2.843-.931-3.428-1.193-2.719-1.215-3.118-1.5-2.429-4.744.243-1.147.357-2.311.6-3.46.041-.188.055-1.03.358-1,.4.039.682,1.315.776,1.578.583,1.643,1.288,3.231,2.009,4.806.5,1.084,2.183,3.58,2.115,4.014" transform="translate(-992.373 -809.44)" fill="#f9eac3" fill-rule="evenodd"/>
      <path id="Trazado_38383" data-name="Trazado 38383" d="M1436.362,1028.031a5,5,0,0,1-2.134-.285c-.25-.166-.162-1.54-.348-1.859-1.379-2.357-2.572-4.155-2.806-7.422-.34-4.771-.037-10.424,2.816-14.741,1.3-1.977,3.268-5.791,4.418-7.86,1.267-2.283,2.111-5.316,3.678-7.407.754-1,2-.768,3.1-.768,2.983,0,5.537-.021,8.521.09,11.3.416,24.985,1.343,37.829,1.343,9.323,0,22.408-1.791,29.546-2.93,3.878-.619,8.139-3.348,9.572-.124a34.11,34.11,0,0,1,2.758,7.395c1.466,7.34,1.726,12.692.769,18.7-1.3,8.142-4.918,17.879-10.193,24.19-3.77,4.511-12.1,6.892-17.285,7.325-4.562.381-9.869,3.365-14.058,5.052-2.416.971-3.618.837-7.76,2.186s-9.457,1.953-13.177,4.245c-.627.386-4.728,4.961-5.642,4.412-1-.6-.981-4.5-1.155-5.251-.958-4.155-2.833-13.335-4.563-17.266-1.824-4.148-10.989-6.092-18.973-8.01a22.8,22.8,0,0,0-4.915-1.019" transform="translate(-1051.599 -723.518)" fill="#ffc8bb" fill-rule="evenodd"/>
      <path id="Trazado_38384" data-name="Trazado 38384" d="M1214.965,1093.861c.922-.56,1.358.4,2.423-.13a13.68,13.68,0,0,0,5.048-4.988c1.3-2.417,2.831-7.022,5.905-9.9,1.947-1.822,6.953-5.763,9.951-3.9a3.854,3.854,0,0,1,1.819,2.908c.276,3.594-.3,8.207.542,11.8.578,2.455,2.242,3.829,3.908,5.016.712.508,3.14.892,3.369,1.806.363,1.453,0,3.16.085,4.662.283,5.112.7,9.463-.375,14.481-.436,2.029-1.113,4.106-1.665,6.1-.23.827-.646,2.872-1.567,3.061-2.395.494-28.556-3.8-29.354-4.962-2.574-3.743-1.729-9.279-1.543-13.554.119-2.749.173-5.84.519-8.572.159-1.26.312-3.448.935-3.826" transform="translate(-891.589 -789.607)" fill="#ffc8bb" fill-rule="evenodd"/>
      <path id="Trazado_38385" data-name="Trazado 38385" d="M206.043,939.866a6.21,6.21,0,0,1,2.3-1.187Z" transform="translate(-151.419 -689.826)" fill="#fff2e4" fill-rule="evenodd"/>
      <path id="Trazado_38386" data-name="Trazado 38386" d="M83.941,1058.329l132.993-19.974,112.7,27.2-122.7,35.266Z" transform="translate(-61.687 -763.077)" fill="#c4bec1" fill-rule="evenodd"/>
      <path id="Trazado_38387" data-name="Trazado 38387" d="M167.435,955.165l-.143-29.157a19.468,19.468,0,0,1-4.253-2.961,3.381,3.381,0,0,1-.45-4.531c1.052-1.616,4.658-1.932,4.658-1.932l-.037-7.518a6.069,6.069,0,0,1,2.7-2.867c1.967-1.012,9.894-2.98,12.987-3.374s8.376-.787,10.85-1.124,9.614-.337,12.875-.562,14.842.112,16.922.225,8.039.9,10.57,1.181,7.027.787,9.107,1.293,5.4,1.349,6.747,2.362,2.3,1.518,2.192,3.373-.619,45.594-.619,45.594a4.732,4.732,0,0,1-2.08,2.924,28.32,28.32,0,0,1-5.678,2.586c-1.236.339-6.859,2.193-8.6,2.362s-6.8,1.069-8.208,1.181-5.341.674-9.052.674-5.79.169-7.421.169-4.5.224-6.745.055-6.635-.225-8.433-.505-7.084-.675-8.1-.9a43.4,43.4,0,0,1-6.747-1.349c-2.586-.9-3.935-1.294-5.621-2.025a37.289,37.289,0,0,1-4.723-2.249,13.15,13.15,0,0,1-2.7-2.924" transform="translate(-118.991 -662.182)" fill="#d8d6d7" fill-rule="evenodd"/>
      <path id="Trazado_38388" data-name="Trazado 38388" d="M203.013,931.313l4.394-1.6,7.248-1.027,7.818-.856,8.5-.456,11.528-.342,13.01.628,9.816.913,7.989,1.312,3.766,1.542-7.647,2.225-9.358,1.142-10.672.627-9.987.229-10.043-.229-9.472-.627-8.275-1.085-6.391-1.254Z" transform="translate(-149.192 -681.268)" fill="#fff2e4" fill-rule="evenodd"/>
      <path id="Trazado_38389" data-name="Trazado 38389" d="M342.9,891l5.926-19.6,1.976-4.574,4.679-.208-8.941,24.693Z" transform="translate(-251.995 -636.867)" fill="#d8d6d7" fill-rule="evenodd"/>
      <path id="Trazado_38390" data-name="Trazado 38390" d="M8.062,1181.826c1.43.193,3.512-.79,4.857-1.155,4.247-1.151,8.543-2.3,12.852-3.2,8.4-1.749,17.265-3.487,25.881-2.783a100.769,100.769,0,0,1,12.024,2.014c4.45.921,8.593,4.053,11.21,5.49s4.064,2.323,3.831,3.95c-.252,1.763-1.448,2.784-2.715,3.84a49.056,49.056,0,0,1-10.964,6.739c-13.318,5.8-32.625,5.432-44.323,2.109-2.217-.63-2.866-1.475-4.978-2.339-1.319-.54-2.974-1.675-4.245-2.31-2.692-1.345-6.6-3.892-8.288-6.584a3.076,3.076,0,0,1,.416-3.668,7.857,7.857,0,0,1,2.843-1.481c.412-.177,1.15-.683,1.6-.622" transform="translate(-2.039 -863.15)" fill="#fff" fill-rule="evenodd"/>
      <path id="Trazado_38391" data-name="Trazado 38391" d="M21.28,1151.291c-4.812-2.883-6.676-8.546-6.969-14.023-.167-3.118.591-6.487,2.939-8.65,3.191-2.938,5.38-1.791,8.649-2.155,4.99-.554,9.912-2.277,14.582.448,2.937,1.714,4.42,5.231,4.646,8.4.02.278.253,2.644-.279,2.91-.152.076-1.27-.852-1.54-.979a18,18,0,0,0-4.562-1.4,13.365,13.365,0,0,0-10.72,2.435c-2.513,1.675-5.646,5.091-5.934,8.117a17.348,17.348,0,0,0,.28,4.2.759.759,0,0,1-1.091.7" transform="translate(-10.501 -827.057)" fill="#efa5a5" fill-rule="evenodd"/>
      <path id="Trazado_38392" data-name="Trazado 38392" d="M159.106,1176.012c-.17-.128-1.107-1.258-1.44-1.637a27.081,27.081,0,0,1-3.232-4.145,13.829,13.829,0,0,1,.139-13.192c2.274-4.447,8.4-4.265,12.818-4.667,2.549-.231,5.688-1.424,8.246-.785a9.414,9.414,0,0,1,4.485,3.054,15.564,15.564,0,0,1,3.712,13.808c-.321,1.418-.556,4.3-2.182,4.818a39.876,39.876,0,0,1-3.914.847,89.081,89.081,0,0,1-10.942,1.778c-1.766.15-3.528.374-5.3.374a5.052,5.052,0,0,1-1.685-.02,1.925,1.925,0,0,1-.7-.234" transform="translate(-112.307 -846.152)" fill="#efa5a5" fill-rule="evenodd"/>
      <path id="Trazado_38393" data-name="Trazado 38393" d="M178.547,1137.483c.027-.329-.587-.9-.779-1.137a14.118,14.118,0,0,0-3.176-3.1c-.149-.1-1.734-.755-1.494-1.043.39-.47,1.394-.466,1.93-.561a16.866,16.866,0,0,1,6.182.171c.706.146,1.343.307,2.04.5a17.16,17.16,0,0,1,3.021,1.387,11.184,11.184,0,0,1,2.3,1.635c.2.184.608.51.67.825.1.483-2.273.573-2.6.669a24.06,24.06,0,0,1-5.995,1.059c-.2.01-2.141.08-2.1-.4" transform="translate(-127.19 -831.479)" fill="#f3c39f" fill-rule="evenodd"/>
      <path id="Trazado_38394" data-name="Trazado 38394" d="M43.73,1180.892a12.3,12.3,0,0,1-.4-4.423c.459-4.962,2.541-9.614,7.371-11.653,6.129-2.585,12.993-1.74,17.1,2.364,2.78,2.78,4.451,7.156,5.137,10.972a13.108,13.108,0,0,1-.231,5.247c-.1.473-.274,1.514-.726,1.816-1.177.785-3.7.231-5.017.231-4.124,0-8.372-.223-12.471-.632A56.655,56.655,0,0,1,47.6,1183.8a21.3,21.3,0,0,1-2.311-.522,4.918,4.918,0,0,1-.8-.44,13.559,13.559,0,0,1-.759-1.947" transform="translate(-31.806 -854.931)" fill="#f3c39f" fill-rule="evenodd"/>
      <path id="Trazado_38395" data-name="Trazado 38395" d="M126.814,1147.823c-1.113-1.48-1.84-3.675-3.232-5.122-.782-.812-2.092-1.568-2.625-2.551-.176-.324.272-1.3.279-1.71a13.065,13.065,0,0,0-.547-4.123,9.223,9.223,0,0,0-2.348-3.553c-.173-.181-.839-.994-.481-1.2a12.33,12.33,0,0,1,6.232-1.047c4.063.247,7.551.977,10.7,3.593a25.79,25.79,0,0,1,2.631,2.618c.172.189.808.728.833,1,.014.151-.941.121-1.065.131a17.066,17.066,0,0,0-2.239.172,11.7,11.7,0,0,0-5.9,3.573c-1.619,1.717-1.814,3.993-1.887,6.2-.017.541.07,2.581-.352,2.018" transform="translate(-86.537 -829.314)" fill="#eef2d1" fill-rule="evenodd"/>
      <path id="Trazado_38396" data-name="Trazado 38396" d="M1154.631,271.6c-.285,0-.566-.01-.847-.028-4.84-.323-8.1-2.931-11.544-5.692l-.317-.255c-12.3-9.84-15.986-25.187-17.089-33.46-.439-3.3-.719-6.874-.99-10.334-.172-2.191-.34-4.357-.547-6.416a.738.738,0,1,1,1.468-.148c.208,2.069.378,4.246.55,6.449.269,3.44.546,7,.981,10.254,1.073,8.054,4.65,22.985,16.548,32.5l.318.255c3.4,2.726,6.341,5.08,10.719,5.372a15.457,15.457,0,0,0,6.846-1.346.738.738,0,0,1,.552,1.369,17.707,17.707,0,0,1-6.65,1.477" transform="translate(-825.497 -157.708)" fill="#8d6962"/>
      <path id="Trazado_38397" data-name="Trazado 38397" d="M1327.649,339.929a.739.739,0,0,1-.607-1.157,37.741,37.741,0,0,0,5.082-10.762.738.738,0,1,1,1.417.413,39.3,39.3,0,0,1-5.284,11.187.738.738,0,0,1-.609.319" transform="translate(-975.134 -240.662)" fill="#8d6962"/>
      <path id="Trazado_38398" data-name="Trazado 38398" d="M1187.68,432a.738.738,0,0,1-.411-1.352c3.3-2.2,3.295-5.455,2.957-9.168a78.2,78.2,0,0,0-3.052-14.638c-.2-.7-.483-1.446-.78-2.231a15.094,15.094,0,0,1-1.3-5.152.738.738,0,1,1,1.476,0,14.075,14.075,0,0,0,1.206,4.629c.295.778.6,1.583.819,2.348a79.577,79.577,0,0,1,3.1,14.91c.366,4.037.366,7.88-3.608,10.529a.732.732,0,0,1-.408.124" transform="translate(-870.913 -293.016)" fill="#8d6962"/>
      <path id="Trazado_38399" data-name="Trazado 38399" d="M1133.978,114.647a.737.737,0,0,1-.691-1c2.877-7.674,10.085-10.833,17.056-13.887,7.3-3.2,14.2-6.222,16.789-13.993a.738.738,0,1,1,1.4.467c-2.8,8.392-10.321,11.69-17.6,14.878-7,3.067-13.607,5.963-16.267,13.053a.737.737,0,0,1-.691.479" transform="translate(-832.806 -62.661)" fill="#8d6962"/>
      <path id="Trazado_38400" data-name="Trazado 38400" d="M1127.015,158.171a.738.738,0,0,1-.737-.738c0-4.87,1.127-9.2,3.769-14.488a.739.739,0,0,1,1.321.661c-2.535,5.066-3.616,9.2-3.616,13.827a.738.738,0,0,1-.737.738" transform="translate(-827.689 -104.749)" fill="#8d6962"/>
      <path id="Trazado_38401" data-name="Trazado 38401" d="M1346.817,238.871a.738.738,0,0,1-.685-1.012c1.875-4.69,1.39-8.606.084-13.042a.738.738,0,1,1,1.415-.417c1.648,5.6,1.611,9.656-.13,14.007a.737.737,0,0,1-.684.464" transform="translate(-989.219 -164.521)" fill="#8d6962"/>
      <path id="Trazado_38402" data-name="Trazado 38402" d="M1266.416,24.073a.738.738,0,0,1-.737-.738c0-.991.024-1.944.049-2.87.1-3.836.189-7.147-1.615-10.752a.739.739,0,0,1,1.322-.661c1.966,3.935,1.87,7.586,1.768,11.451-.024.914-.05,1.854-.05,2.831a.738.738,0,0,1-.737.738" transform="translate(-928.926 -6.354)" fill="#8d6962"/>
      <path id="Trazado_38403" data-name="Trazado 38403" d="M1109.341,84.3a.736.736,0,0,1-.472-.171c-9.134-7.611-8.346-17.852-7.651-26.887.232-3.006.255-6.091.277-9.075a78.694,78.694,0,0,1,1.172-15.642,41.19,41.19,0,0,1,9.191-17.77c2.224-2.6,14.124-15.377,29.844-12.143a.738.738,0,1,1-.3,1.446c-14.9-3.068-26.3,9.173-28.425,11.658a39.706,39.706,0,0,0-8.867,17.112c-1.061,5.038-1.1,10.279-1.14,15.349-.023,3.008-.047,6.12-.281,9.177-.835,10.843-.812,19.029,7.122,25.641a.738.738,0,0,1-.472,1.305" transform="translate(-808.99 -1.54)" fill="#8d6962"/>
      <path id="Trazado_38404" data-name="Trazado 38404" d="M1055.786,511.727a.692.692,0,0,1-.164-.019.736.736,0,0,1-.557-.882c1.887-8.359.869-16.833-.115-25.027-1.093-9.1-2.225-18.509.518-27.982,3.218-11.117,9.245-20.135,15.627-29.683l2.307-3.45c2.754-4.094,5.355-7.961,7.2-12.64l.254-.621a17.135,17.135,0,0,0,1.266-3.818.738.738,0,1,1,1.475,0,15.412,15.412,0,0,1-1.377,4.382l-.244.6c-1.9,4.83-4.546,8.761-7.346,12.923l-2.306,3.446c-6.316,9.45-12.281,18.377-15.436,29.274-2.658,9.184-1.546,18.442-.469,27.394,1,8.319,2.032,16.921.089,25.528a.738.738,0,0,1-.719.577" transform="translate(-774.398 -299.003)" fill="#8d6962"/>
      <path id="Trazado_38405" data-name="Trazado 38405" d="M1070.2,610.611a.738.738,0,0,1-.685-.465c-2.567-6.413.342-12.132,5.869-19.283,1.726-2.234,3.648-4.39,5.506-6.474,4.351-4.878,8.461-9.487,10.438-15.168,3.421-9.838,4.762-22.528,4.1-38.794-.349-8.568,1.081-16.222,2.465-23.624,1.262-6.749,2.567-13.727,2.567-21.5a.738.738,0,1,1,1.475,0c0,7.911-1.317,14.958-2.591,21.773-1.432,7.659-2.783,14.892-2.441,23.292.681,16.684-.647,29.183-4.179,39.34-2.072,5.958-6.474,10.893-10.729,15.665-1.841,2.065-3.745,4.2-5.44,6.394-5.342,6.912-7.982,12.046-5.668,17.832a.74.74,0,0,1-.684,1.012" transform="translate(-785.284 -356.102)" fill="#8d6962"/>
      <path id="Trazado_38406" data-name="Trazado 38406" d="M1042.711,856.281a.736.736,0,0,1-.693-.486c-3.153-8.672-.777-18.087,1.773-24.459a.737.737,0,1,1,1.369.548c-2.452,6.133-4.749,15.174-1.756,23.407a.736.736,0,0,1-.441.945.712.712,0,0,1-.252.046" transform="translate(-764.659 -610.6)" fill="#8d6962"/>
      <path id="Trazado_38407" data-name="Trazado 38407" d="M865.034,598.6a.738.738,0,0,1-.41-1.352c5.208-3.474,8.834-8.2,12.673-13.212q.834-1.088,1.677-2.177l1.016-1.3c4.3-5.52,8.747-11.227,12.083-17.062,2.023-3.542,10.022-17.36,12.179-20.237l1.588-2.13c4.53-6.1,8.808-11.856,15.508-16.323a.738.738,0,0,1,.819,1.228c-6.486,4.325-10.691,9.984-15.142,15.976l-1.59,2.135c-2.091,2.789-10.187,16.772-12.081,20.084-3.387,5.927-7.867,11.676-12.2,17.236l-1.015,1.3q-.841,1.083-1.67,2.168c-3.744,4.883-7.615,9.933-13.027,13.542a.731.731,0,0,1-.409.124" transform="translate(-635.161 -385.58)" fill="#8d6962"/>
      <path id="Trazado_38408" data-name="Trazado 38408" d="M886.947,836.2a.738.738,0,0,1-.1-1.468c9.816-1.4,32.626-22.317,39.843-29.533a.737.737,0,0,1,1.043,1.043c-7.833,7.835-30.412,28.486-40.677,29.951a.806.806,0,0,1-.105.007" transform="translate(-651.267 -591.574)" fill="#8d6962"/>
      <path id="Trazado_38409" data-name="Trazado 38409" d="M604.817,776.559a.736.736,0,0,1-.3-.062c-7.166-3.139-15.391-3.767-23.345-4.374-1.685-.129-3.356-.256-5-.406-13.284-1.212-27.54-2.573-41.784-4.308-3-.365-6.092-.552-9.087-.73a99.443,99.443,0,0,1-13.955-1.5.738.738,0,1,1,.3-1.446,98.378,98.378,0,0,0,13.748,1.474c3.017.181,6.137.369,9.178.739,14.224,1.733,28.467,3.092,41.74,4.3,1.635.149,3.3.276,4.975.4,8.077.616,16.429,1.254,23.825,4.493a.739.739,0,0,1-.3,1.415" transform="translate(-375.354 -561.249)" fill="#8d6962"/>
      <path id="Trazado_38410" data-name="Trazado 38410" d="M615.124,850.276a.785.785,0,0,1-.129-.011c-11.082-1.954-23.946-4.357-36.386-8.141-5.336-1.623-10.712-3.431-15.91-5.181-12.117-4.078-24.646-8.293-37.469-10.407a.738.738,0,0,1-.608-.848.728.728,0,0,1,.848-.608c12.94,2.132,25.527,6.367,37.7,10.464,5.189,1.747,10.554,3.552,15.869,5.168,12.362,3.76,25.175,6.153,36.213,8.1a.738.738,0,0,1-.127,1.464" transform="translate(-385.532 -606.335)" fill="#8d6962"/>
      <path id="Trazado_38411" data-name="Trazado 38411" d="M369.07,831.3a10.2,10.2,0,0,1-2.8-.394.738.738,0,0,1,.4-1.42c4.027,1.141,7.437-.812,11.045-2.879,1.278-.731,2.6-1.488,3.937-2.084a66.03,66.03,0,0,1,8.485-2.894,50.335,50.335,0,0,0,10.638-3.987.738.738,0,1,1,.721,1.288,51.4,51.4,0,0,1-10.947,4.116,65.028,65.028,0,0,0-8.3,2.824c-1.269.566-2.558,1.3-3.8,2.017-2.939,1.684-5.958,3.413-9.381,3.413" transform="translate(-268.773 -600.806)" fill="#8d6962"/>
      <path id="Trazado_38412" data-name="Trazado 38412" d="M361.289,819.178a.739.739,0,0,1-.644-.379c-1.8-3.216.455-4.874,2.443-6.337,1.747-1.284,3.577-2.5,5.346-3.671,2.508-1.663,5.1-3.382,7.47-5.315a.738.738,0,0,1,.933,1.143c-2.425,1.98-5.05,3.719-7.588,5.4-1.755,1.164-3.569,2.366-5.287,3.63-2.156,1.587-3.143,2.437-2.03,4.428a.739.739,0,0,1-.643,1.1" transform="translate(-264.551 -590.344)" fill="#8d6962"/>
      <path id="Trazado_38413" data-name="Trazado 38413" d="M396.685,800.931a.74.74,0,0,1-.71-.939c.375-1.325-.111-2.68-1.576-4.4a.738.738,0,0,1,1.123-.959c1.129,1.323,2.551,3.357,1.872,5.755a.738.738,0,0,1-.709.538" transform="translate(-289.709 -583.781)" fill="#8d6962"/>
      <path id="Trazado_38414" data-name="Trazado 38414" d="M385.823,806.769a.7.7,0,0,1-.2-.028l-.058-.016c-1.03-.293-2.949-.837-3.9-.308a.738.738,0,0,1-.721-1.288c1.482-.827,3.7-.2,5.019.174a.765.765,0,0,1,.538.92.723.723,0,0,1-.687.544" transform="translate(-279.681 -591.383)" fill="#8d6962"/>
      <path id="Trazado_38415" data-name="Trazado 38415" d="M343.333,783.117a.741.741,0,0,1-.685-1.013c1.41-3.527,1.346-7.178,1.279-11.044a35.583,35.583,0,0,1,.656-9.3,5.6,5.6,0,0,1,1.134-1.832l.256-.327c.333-.445.674-.892,1.018-1.341,1.116-1.461,2.27-2.972,3.231-4.509.243-.387.5-.835.769-1.311,1.427-2.495,3.2-5.6,6.027-5.915a8.543,8.543,0,0,1,2.784.286c.354.078.707.156,1.062.211l.529.081c2.141.329,4.356.668,6.532,1.12,1.468.305,2.941.626,4.416.946,3.152.686,6.412,1.4,9.6,1.928a.738.738,0,0,1-.243,1.456c-3.226-.537-6.5-1.252-9.674-1.941-1.469-.321-2.937-.64-4.4-.943-2.139-.444-4.333-.781-6.457-1.106l-.53-.082c-.386-.059-.77-.143-1.155-.228a7.063,7.063,0,0,0-2.3-.259c-2.079.231-3.647,2.974-4.907,5.18-.282.494-.548.958-.8,1.361-1,1.6-2.173,3.134-3.31,4.622-.34.446-.679.889-1.01,1.33-.077.1-.174.226-.28.359a5.9,5.9,0,0,0-.858,1.273,33.956,33.956,0,0,0-.612,8.915c.067,3.841.136,7.814-1.384,11.617a.74.74,0,0,1-.685.465" transform="translate(-251.769 -548.594)" fill="#8d6962"/>
      <path id="Trazado_38416" data-name="Trazado 38416" d="M349.84,875.331a4.534,4.534,0,0,1-1.441-.248.738.738,0,0,1,.467-1.4c2.121.71,3.422-.885,4.725-3.492a.738.738,0,1,1,1.32.661c-.709,1.417-2.24,4.479-5.071,4.479" transform="translate(-255.663 -639.195)" fill="#8d6962"/>
      <path id="Trazado_38417" data-name="Trazado 38417" d="M372.739,823.233a.739.739,0,0,1-.721-.9,15.088,15.088,0,0,0,.333-3.212.738.738,0,0,1,1.476,0,16.567,16.567,0,0,1-.368,3.532.739.739,0,0,1-.72.579" transform="translate(-273.379 -601.423)" fill="#8d6962"/>
      <path id="Trazado_38418" data-name="Trazado 38418" d="M386.964,854.594a.738.738,0,1,1,0-1.475c1.278,0,2.6-.084,3.883-.166.976-.061,1.952-.124,2.922-.151.18-.006.388,0,.61,0a4.266,4.266,0,0,0,1.645-.163c.372-.2.371-.348.37-.4-.006-.435-.758-1.235-1.52-1.617a.738.738,0,1,1,.661-1.319c.93.465,2.318,1.625,2.335,2.917a1.9,1.9,0,0,1-1.152,1.719,5.048,5.048,0,0,1-2.367.337c-.2,0-.38-.006-.538,0-.955.028-1.915.089-2.874.15-1.3.082-2.652.167-3.977.167" transform="translate(-283.833 -624.089)" fill="#8d6962"/>
      <path id="Trazado_38419" data-name="Trazado 38419" d="M426.459,848.458a.738.738,0,0,1-.41-1.351,2.176,2.176,0,0,0,.942-1.141.57.57,0,0,0-.155-.476.738.738,0,0,1,1.157-.918,2.052,2.052,0,0,1,.457,1.623,3.592,3.592,0,0,1-1.581,2.139.729.729,0,0,1-.409.124" transform="translate(-312.857 -620.463)" fill="#8d6962"/>
      <path id="Trazado_38420" data-name="Trazado 38420" d="M1041.849,743.317a.739.739,0,0,1-.716-.56c-1.342-5.367-1.2-10.96-1.058-16.369.155-6.058.317-12.322-1.641-18.2a.738.738,0,0,1,1.4-.466c2.04,6.119,1.875,12.514,1.715,18.7-.137,5.31-.277,10.8,1.015,15.974a.738.738,0,0,1-.537.895.7.7,0,0,1-.179.023" transform="translate(-763.106 -519.732)" fill="#8d6962"/>
      <path id="Trazado_38421" data-name="Trazado 38421" d="M1008.637,1056.566h-.028a.737.737,0,0,1-.71-.765c.652-17.1,4.6-65.508,7.89-76.7,1.684-5.73,3.9-11.351,6.041-16.787,1.166-2.958,2.371-6.016,3.475-9.051.247-.684.5-1.368.759-2.055,1.552-4.172,3.157-8.484,3.5-12.907a71.054,71.054,0,0,0-3.357-25.277.738.738,0,1,1,1.4-.466,72.7,72.7,0,0,1,3.43,25.856c-.357,4.629-2,9.042-3.587,13.308-.254.685-.508,1.366-.755,2.046-1.11,3.054-2.318,6.121-3.487,9.087-2.131,5.407-4.334,11-6,16.662-3.091,10.507-7.092,57.032-7.83,76.341a.738.738,0,0,1-.737.71" transform="translate(-740.694 -670.258)" fill="#8d6962"/>
      <path id="Trazado_38422" data-name="Trazado 38422" d="M1550.706,1244.464a.781.781,0,0,1-.107-.007.738.738,0,0,1-.625-.836c2.3-15.78-2.514-38.441-6.308-49.823a.738.738,0,0,1,1.4-.466c3.3,9.908,8.882,33.215,6.368,50.5a.737.737,0,0,1-.729.632" transform="translate(-1134.396 -876.597)" fill="#8d6962"/>
      <path id="Trazado_38423" data-name="Trazado 38423" d="M1600.37,491.273a.736.736,0,0,1-.567-.265c-1.8-2.16-4.483-5.836-7.589-10.093-6.828-9.356-16.179-22.168-21.427-25.8l-.663-.464c-2.23-1.561-4.534-3.177-7.213-3.177a.738.738,0,0,1,0-1.476c3.145,0,5.643,1.752,8.06,3.445l.657.459c5.452,3.775,14.5,16.178,21.778,26.144,3.092,4.236,5.762,7.9,7.532,10.018a.739.739,0,0,1-.567,1.211" transform="translate(-1148.023 -330.699)" fill="#8d6962"/>
      <path id="Trazado_38424" data-name="Trazado 38424" d="M1854.518,785.1a.737.737,0,0,1-.735-.691l-.041-.653c-.124-1.975-.3-4.791-.461-6.878a38.1,38.1,0,0,0-2.966-11.348c-1.539-3.846-4.156-7.43-6.688-10.894-.87-1.19-1.731-2.369-2.537-3.542q-1.258-1.829-2.516-3.688c-3.111-4.578-6.327-9.31-9.772-13.617a.738.738,0,0,1,1.153-.922c3.48,4.352,6.714,9.109,9.839,13.71q1.258,1.851,2.511,3.681c.8,1.161,1.651,2.328,2.513,3.508,2.586,3.538,5.259,7.2,6.867,11.217a39.478,39.478,0,0,1,3.068,11.783c.16,2.095.338,4.918.461,6.9l.04.652a.738.738,0,0,1-.689.783h-.048" transform="translate(-1343.849 -538.373)" fill="#8d6962"/>
      <path id="Trazado_38425" data-name="Trazado 38425" d="M1518.317,962.136c-7.943,0-15.834-.359-23.6-.714-7.786-.354-15.837-.722-23.791-.722a.738.738,0,0,1,0-1.475c7.988,0,16.055.367,23.859.723,16.027.728,32.6,1.486,48.939-.966a140.088,140.088,0,0,0,27.506-7.253c1.211-.454,2.5-1.055,3.857-1.691,3.294-1.54,6.7-3.131,9.979-3.131a.738.738,0,1,1,0,1.475c-2.951,0-6.205,1.522-9.354,2.993-1.388.649-2.7,1.263-3.963,1.736a141.59,141.59,0,0,1-27.806,7.332,172.562,172.562,0,0,1-25.624,1.693" transform="translate(-1080.425 -695.873)" fill="#8d6962"/>
      <path id="Trazado_38426" data-name="Trazado 38426" d="M1468.08,839.722a.738.738,0,0,1,0-1.475c8.849,0,19.39-.416,30.474-3.494,6.577-1.827,12.9-4.251,19.008-6.6,12.419-4.766,24.151-9.268,38.007-9.268a.738.738,0,0,1,0,1.475c-13.584,0-25.191,4.455-37.479,9.17-6.144,2.358-12.5,4.8-19.143,6.642-11.253,3.127-21.919,3.547-30.868,3.547" transform="translate(-1078.334 -601.793)" fill="#8d6962"/>
      <path id="Trazado_38427" data-name="Trazado 38427" d="M1432.171,1041.75a.739.739,0,0,1-.716-.56,9.61,9.61,0,0,0-1.314-2.619,9.9,9.9,0,0,1-1.708-3.859,37.525,37.525,0,0,1,.295-11.574,16.235,16.235,0,0,1,2.83-6.047c.479-.738.931-1.434,1.326-2.144,1.614-2.907,3.117-5.926,4.571-8.846l.845-1.7a.739.739,0,0,1,1.322.661l-.846,1.7c-1.461,2.935-2.971,5.969-4.6,8.9-.419.756-.907,1.506-1.379,2.233a15.149,15.149,0,0,0-2.611,5.485,36.091,36.091,0,0,0-.289,11.122,8.7,8.7,0,0,0,1.5,3.282,10.8,10.8,0,0,1,1.5,3.046.738.738,0,0,1-.537.9.709.709,0,0,1-.179.023" transform="translate(-1049.505 -737.826)" fill="#8d6962"/>
      <path id="Trazado_38428" data-name="Trazado 38428" d="M1397,1114.963a4.614,4.614,0,0,1-.753-.063c-4.59-.766-6.016-5.772-7.161-9.795a25.8,25.8,0,0,0-1.429-4.183.739.739,0,0,1,1.321-.661,26.881,26.881,0,0,1,1.528,4.44c1.137,4,2.314,8.13,5.983,8.742a4.919,4.919,0,0,0,2.4-.36,6.6,6.6,0,0,1,2.039-.425.737.737,0,1,1,0,1.475,5.406,5.406,0,0,0-1.583.354,7.42,7.42,0,0,1-2.345.475" transform="translate(-1019.715 -808.272)" fill="#8d6962"/>
      <path id="Trazado_38429" data-name="Trazado 38429" d="M1364.259,1111.044c-3.589,0-7.707-2.345-10.84-10.851-.13-.353-.331-.781-.548-1.241a9.453,9.453,0,0,1-1.146-3.475.737.737,0,1,1,1.475,0,8.964,8.964,0,0,0,1.007,2.848c.237.5.455.972.6,1.358,2.925,7.942,6.953,11.125,11.975,9.449a.738.738,0,0,1,.466,1.4,9.471,9.471,0,0,1-2.988.511" transform="translate(-993.369 -804.514)" fill="#8d6962"/>
      <path id="Trazado_38430" data-name="Trazado 38430" d="M1354.4,1109.4a.726.726,0,0,1-.33-.079,14.326,14.326,0,0,0-2.019-.748,9.076,9.076,0,0,1-3.867-1.943c-.758-.759-.541-2.263-.382-3.362.027-.186.051-.351.063-.477l.054-.63c.042-.515.084-1.031.165-1.544.171-1.086.368-2.064.6-2.991a.738.738,0,0,1,1.432.36c-.222.883-.41,1.819-.573,2.86-.076.477-.113.955-.151,1.433l-.055.651c-.015.144-.041.334-.072.549a4.2,4.2,0,0,0-.034,2.109,7.931,7.931,0,0,0,3.267,1.579,15.256,15.256,0,0,1,2.234.836.738.738,0,0,1-.33,1.4" transform="translate(-990.373 -806.219)" fill="#8d6962"/>
      <path id="Trazado_38431" data-name="Trazado 38431" d="M1323.181,1102.028a14.4,14.4,0,0,1-3.49-.442c-3.941-.986-6.943-3.416-7.833-6.342a21.653,21.653,0,0,1-.567-7.126,21.767,21.767,0,0,0-.347-6,.738.738,0,1,1,1.432-.358,23.161,23.161,0,0,1,.391,6.407,20.271,20.271,0,0,0,.5,6.649c.74,2.434,3.338,4.479,6.78,5.341,3.479.871,6.892.261,8.7-1.549a.738.738,0,1,1,1.043,1.045,9.26,9.26,0,0,1-6.616,2.378" transform="translate(-963.383 -794.561)" fill="#8d6962"/>
      <path id="Trazado_38432" data-name="Trazado 38432" d="M1213.783,958.163a.738.738,0,0,1-.738-.738c0-7.785,4.648-15.121,8.143-19.96a18.04,18.04,0,0,1,5.224-4.389c.5-.321,1-.642,1.488-.975a39.741,39.741,0,0,0,8.045-6.9c1.936-2.323,3.758-4.848,5.522-7.29,2.059-2.853,4.189-5.8,6.529-8.476a108.326,108.326,0,0,1,8.509-8.446c.773-.709,1.522-1.437,2.27-2.163a48.073,48.073,0,0,1,5.483-4.809c3.678-2.626,8.507-3.017,11.057-3.017a.738.738,0,1,1,0,1.475c-2.374,0-6.857.357-10.2,2.744a46.474,46.474,0,0,0-5.312,4.665c-.758.736-1.517,1.475-2.3,2.193a107.274,107.274,0,0,0-8.4,8.331c-2.293,2.621-4.4,5.541-6.442,8.366-1.778,2.462-3.615,5.008-5.584,7.371a41.172,41.172,0,0,1-8.347,7.181c-.5.34-1.01.668-1.522,1a16.688,16.688,0,0,0-4.825,4.012c-3.375,4.674-7.864,11.739-7.864,19.1a.738.738,0,0,1-.738.738" transform="translate(-891.454 -654.784)" fill="#8d6962"/>
      <path id="Trazado_38433" data-name="Trazado 38433" d="M1305.506,1054.211a.738.738,0,0,1-.738-.738,4.614,4.614,0,0,0-.126-.9,4.65,4.65,0,0,1-.122-1.64,16,16,0,0,1,1.39-4.177l.326-.749a.738.738,0,1,1,1.357.581l-.333.762a14.715,14.715,0,0,0-1.28,3.791,3.39,3.39,0,0,0,.108,1.136,5.793,5.793,0,0,1,.155,1.192.738.738,0,0,1-.737.738" transform="translate(-958.654 -768.375)" fill="#8d6962"/>
      <path id="Trazado_38434" data-name="Trazado 38434" d="M1218.861,1093.882a3.307,3.307,0,0,1-1.868-.575.738.738,0,0,1,.819-1.228,1.924,1.924,0,0,0,1.541.271c1.707-.369,3.568-2.49,4.4-3.826a33.206,33.206,0,0,0,1.9-3.7,29.337,29.337,0,0,1,2.413-4.522c1.961-2.835,5.823-6.01,10.025-6.71a.738.738,0,0,1,.243,1.456,15.172,15.172,0,0,0-9.055,6.1,27.8,27.8,0,0,0-2.286,4.3,34.406,34.406,0,0,1-1.985,3.868c-.894,1.431-3.025,3.987-5.343,4.487a3.812,3.812,0,0,1-.8.089" transform="translate(-894.114 -788.962)" fill="#8d6962"/>
      <path id="Trazado_38435" data-name="Trazado 38435" d="M1345,1063.66a.736.736,0,0,1-.688-.475,8.635,8.635,0,0,1-.426-4.832.738.738,0,1,1,1.455.242,7.194,7.194,0,0,0,.347,4.062.741.741,0,0,1-.688,1" transform="translate(-987.491 -777.319)" fill="#8d6962"/>
      <path id="Trazado_38436" data-name="Trazado 38436" d="M1375.521,1079.7a.736.736,0,0,1-.672-.434,8.613,8.613,0,0,1-.9-3.528.738.738,0,1,1,1.475,0,7.166,7.166,0,0,0,.771,2.917.736.736,0,0,1-.366.977.725.725,0,0,1-.305.067" transform="translate(-1009.698 -790.005)" fill="#8d6962"/>
      <path id="Trazado_38437" data-name="Trazado 38437" d="M1281.93,251.21q-.528,0-1.056-.048a8.2,8.2,0,0,1-1.6-.354,5.662,5.662,0,0,0-1.582-.31.738.738,0,0,1,0-1.476,6.869,6.869,0,0,1,2,.371,6.992,6.992,0,0,0,1.321.3,10.222,10.222,0,0,0,5.523-1.05.738.738,0,0,1,.661,1.32,11.77,11.77,0,0,1-5.261,1.248" transform="translate(-938.417 -182.668)" fill="#8d6962"/>
      <path id="Trazado_38438" data-name="Trazado 38438" d="M1171.619,256.72a4.856,4.856,0,0,1-.569-.033,10.3,10.3,0,0,1-1.763-.412,6.727,6.727,0,0,0-1.892-.378.738.738,0,0,1,0-1.476,7.939,7.939,0,0,1,2.314.44,9.09,9.09,0,0,0,1.515.361,6.573,6.573,0,0,0,2.368-.325,9.264,9.264,0,0,1,2.361-.4.738.738,0,0,1,0,1.476,8.015,8.015,0,0,0-1.989.349,9.212,9.212,0,0,1-2.344.395" transform="translate(-857.364 -186.972)" fill="#8d6962"/>
      <path id="Trazado_38439" data-name="Trazado 38439" d="M1293.283,257.534a2.117,2.117,0,0,1-1.484-.738.739.739,0,0,1,1.045-1.044c.3.3.432.306.444.306s.152-.015.46-.428a.738.738,0,0,1,1.182.885,2.164,2.164,0,0,1-1.536,1.015c-.037,0-.074,0-.112,0" transform="translate(-949.171 -187.644)" fill="#8d6962"/>
      <path id="Trazado_38440" data-name="Trazado 38440" d="M1180.3,260.817a2.471,2.471,0,0,1-1.456-.532,1.38,1.38,0,0,1-.618-1.354.746.746,0,0,1,.875-.568.737.737,0,0,1,.584.7,1.1,1.1,0,0,0,.638.275c0-.018.007-.07.007-.155a.738.738,0,1,1,1.475,0,1.511,1.511,0,0,1-.812,1.479,1.565,1.565,0,0,1-.693.153m-.631-1.581v0Z" transform="translate(-865.849 -189.858)" fill="#8d6962"/>
      <path id="Trazado_38441" data-name="Trazado 38441" d="M1266.913,217.615a.738.738,0,0,1-.439-1.333c2.674-1.97,10.307-2.526,13.076-1.39a.738.738,0,0,1-.56,1.366c-2.381-.978-9.387-.447-11.642,1.213a.734.734,0,0,1-.436.144" transform="translate(-930.497 -157.495)" fill="#8d6962"/>
      <path id="Trazado_38442" data-name="Trazado 38442" d="M1174.919,222.579a.736.736,0,0,1-.33-.078c-3.033-1.517-8.534-1-11.176-.057a.738.738,0,0,1-.5-1.391c2.846-1.013,8.732-1.672,12.332.128a.738.738,0,0,1-.33,1.4" transform="translate(-854.255 -161.716)" fill="#8d6962"/>
      <path id="Trazado_38443" data-name="Trazado 38443" d="M1213.331,263.854a.735.735,0,0,1-.442-.147,8,8,0,0,1-1.435-1.432,5.714,5.714,0,0,1-.824-1.355c-1.074-2.472.034-3.919,1.01-5.2a7.574,7.574,0,0,0,1.3-2.18,8.131,8.131,0,0,0-.427-6.077.738.738,0,0,1,1.321-.66,9.506,9.506,0,0,1,.506,7.2,8.858,8.858,0,0,1-1.53,2.61c-.938,1.225-1.557,2.034-.829,3.711a4.294,4.294,0,0,0,.632,1.033,6.417,6.417,0,0,0,1.158,1.16.738.738,0,0,1-.442,1.329" transform="translate(-889.355 -181.077)" fill="#8d6962"/>
      <path id="Trazado_38444" data-name="Trazado 38444" d="M1216.648,357.943a20.089,20.089,0,0,1-8.752-2.079.738.738,0,1,1,.661-1.321c4.258,2.131,10.523,2.972,14.912.047a.738.738,0,1,1,.819,1.227,13.666,13.666,0,0,1-7.64,2.125" transform="translate(-887.37 -260.494)" fill="#8d6962"/>
      <path id="Trazado_38445" data-name="Trazado 38445" d="M897.916,814.209c-.026,0-.053,0-.08,0a.738.738,0,0,1-.656-.812,14.927,14.927,0,0,0-.341-3.966c-.059-.342-.118-.681-.169-1.012a38.476,38.476,0,0,0-7.729-17.127l-.429-.559a20.811,20.811,0,0,0-4.419-4.711.738.738,0,1,1,.8-1.242,21.808,21.808,0,0,1,4.794,5.056l.424.553a39.973,39.973,0,0,1,8.019,17.8c.05.322.108.651.166.986a15.974,15.974,0,0,1,.354,4.375.738.738,0,0,1-.733.66" transform="translate(-649.462 -576.639)" fill="#8d6962"/>
      <path id="Trazado_38446" data-name="Trazado 38446" d="M1749.521,748.26a.728.728,0,0,1-.429-.138.737.737,0,0,1-.169-1.029c3.847-5.358,10.126-9.618,17.682-11.992a13.748,13.748,0,0,1,2.189-.438,11.981,11.981,0,0,0,1.838-.358.738.738,0,0,1,.442,1.408,13.158,13.158,0,0,1-2.07.411,12.662,12.662,0,0,0-1.956.386c-7.253,2.279-13.264,6.344-16.926,11.444a.737.737,0,0,1-.6.307" transform="translate(-1285.163 -539.609)" fill="#8d6962"/>
      <path id="Trazado_38447" data-name="Trazado 38447" d="M1252.465,515.89a.737.737,0,0,1-.681-.454,22.867,22.867,0,0,0-1.4-2.66,24.206,24.206,0,0,1-1.528-2.941,28.089,28.089,0,0,1-2.231-10.785.738.738,0,1,1,1.475,0,26.631,26.631,0,0,0,2.123,10.227,22.457,22.457,0,0,0,1.438,2.758,24.293,24.293,0,0,1,1.481,2.833.737.737,0,0,1-.4.965.726.726,0,0,1-.283.057" transform="translate(-916.134 -366.205)" fill="#8d6962"/>
      <path id="Trazado_38448" data-name="Trazado 38448" d="M1268.846,584.956a.737.737,0,0,1-.33-.078c-2.706-1.353-1.736-4.173-1.027-6.231a8.8,8.8,0,0,0,.62-2.448.737.737,0,1,1,1.475,0,9.65,9.65,0,0,1-.7,2.928c-.783,2.274-1.155,3.708.292,4.431a.738.738,0,0,1-.33,1.4" transform="translate(-930.899 -422.901)" fill="#8d6962"/>
      <path id="Trazado_38449" data-name="Trazado 38449" d="M1290.278,625.118a.743.743,0,0,1-.443-.147c-5.71-4.283-11.547-9.889-11.547-18.994a.738.738,0,1,1,1.475,0c0,8.455,5.54,13.749,10.959,17.812a.738.738,0,0,1-.443,1.328" transform="translate(-939.399 -444.785)" fill="#8d6962"/>
      <path id="Trazado_38450" data-name="Trazado 38450" d="M1390.724,586.137a4.726,4.726,0,0,1-2.67-.765.738.738,0,0,1,.819-1.228c1.991,1.331,5.337-.2,6.971-1.653,3.323-2.953,4.705-9.013,1.583-12.7a6.4,6.4,0,0,0-6.727-1.543,3.54,3.54,0,0,0-2.506,3.434.737.737,0,1,1-1.475,0,4.954,4.954,0,0,1,3.472-4.82,7.838,7.838,0,0,1,8.362,1.975c3.655,4.32,2.1,11.355-1.73,14.76a10.113,10.113,0,0,1-6.1,2.542" transform="translate(-1019.085 -416.243)" fill="#8d6962"/>
      <path id="Trazado_38451" data-name="Trazado 38451" d="M1398.841,600.606a.738.738,0,0,1-.661-1.068,4.594,4.594,0,0,1,2.753-2.781.738.738,0,1,1,.547,1.371c-1.181.472-1.415.94-1.979,2.071a.739.739,0,0,1-.661.408" transform="translate(-1027.451 -438.512)" fill="#8d6962"/>
      <path id="Trazado_38452" data-name="Trazado 38452" d="M1242.983,457.17a.734.734,0,0,1-.461-.162,9.787,9.787,0,0,1-3.99-7.1c-.163-2.96,1.193-6.036,3.82-8.662a.738.738,0,1,1,1.043,1.044c-2.324,2.325-3.528,5-3.389,7.537a8.36,8.36,0,0,0,3.439,6.032.738.738,0,0,1-.461,1.314" transform="translate(-910.174 -324.107)" fill="#8d6962"/>
      <path id="Trazado_38453" data-name="Trazado 38453" d="M1289.161,495.117a.738.738,0,0,1-.549-.244c-3.136-3.485-7.4-4.618-11.907-5.818-4.767-1.268-9.7-2.578-13.153-6.9a.738.738,0,0,1,1.153-.923c3.151,3.94,7.634,5.131,12.379,6.393,4.521,1.2,9.2,2.445,12.626,6.257a.738.738,0,0,1-.549,1.232" transform="translate(-928.452 -353.452)" fill="#8d6962"/>
      <path id="Trazado_38454" data-name="Trazado 38454" d="M1361.041,554.595a.738.738,0,0,1-.7-.961c.6-1.906,1.212-5.5-1.471-8.188a.738.738,0,0,1,1.043-1.044c2.4,2.4,3.05,5.834,1.837,9.676a.739.739,0,0,1-.7.516" transform="translate(-998.456 -399.918)" fill="#8d6962"/>
      <path id="Trazado_38455" data-name="Trazado 38455" d="M1258.3,368.08a.738.738,0,0,1-.66-1.068c1.653-3.305,15.959-15.789,27.884-20.264,5.858-2.2,17.82-2.927,22.138-1.847,6.266,1.567,10.827,4.936,15.722,8.852a.739.739,0,0,1-.923,1.153c-4.926-3.942-9.17-7.076-15.157-8.573-3.72-.931-15.4-.4-21.262,1.8-11.72,4.4-25.667,16.713-27.084,19.543a.736.736,0,0,1-.659.408" transform="translate(-924.172 -253.102)" fill="#8d6962"/>
      <path id="Trazado_38456" data-name="Trazado 38456" d="M1520.389,444.2a.737.737,0,0,1-.59-1.181l.913-1.209c2.455-3.236,4.995-6.582,6.137-10.466,3.283-11.167,3.057-26.835-7.424-37.316a.738.738,0,0,1,1.043-1.044c10.94,10.939,11.2,27.2,7.8,38.777-1.218,4.143-3.84,7.6-6.376,10.941l-.909,1.2a.735.735,0,0,1-.59.3" transform="translate(-1116.45 -288.645)" fill="#8d6962"/>
      <path id="Trazado_38457" data-name="Trazado 38457" d="M1282.924,581.066a4.6,4.6,0,0,1-2.863-1.244.738.738,0,0,1,.923-1.153,3.245,3.245,0,0,0,1.94.921.738.738,0,0,1,0,1.476" transform="translate(-940.5 -425.141)" fill="#8d6962"/>
      <path id="Trazado_38458" data-name="Trazado 38458" d="M1277.219,559.565a.738.738,0,0,1-.365-.1,4.315,4.315,0,0,0-2.364-.8.738.738,0,0,1,0-1.476,5.73,5.73,0,0,1,3.1.992.738.738,0,0,1-.368,1.379" transform="translate(-936.067 -409.477)" fill="#8d6962"/>
      <path id="Trazado_38459" data-name="Trazado 38459" d="M1475.939,582.884a.738.738,0,0,1-.21-1.446l.791-.231a17.358,17.358,0,0,0,3.737-1.384c1.84-1.052,3.627-2.275,5.354-3.458a57.357,57.357,0,0,1,7.911-4.807c7.537-3.548,20.993-5.461,42.285,5.573a.738.738,0,1,1-.679,1.311c-20.756-10.756-33.741-8.956-40.977-5.548a56.221,56.221,0,0,0-7.7,4.688c-1.753,1.2-3.564,2.44-5.456,3.522a18.487,18.487,0,0,1-4.062,1.521l-.779.227a.732.732,0,0,1-.21.031" transform="translate(-1084.109 -417.997)" fill="#8d6962"/>
      <path id="Trazado_38460" data-name="Trazado 38460" d="M1323.9,659.49h-.027a.737.737,0,0,1-.711-.764c.407-11.537,9.055-13.868,15.369-15.57l.791-.215a23.184,23.184,0,0,0,4.038-1.7,32.917,32.917,0,0,1,3.046-1.388c.873-.327,1.8-.589,2.7-.842l.984-.282a.738.738,0,0,1,.416,1.416l-1,.287c-.907.256-1.763.5-2.579.8-.964.363-1.908.831-2.908,1.327a24.163,24.163,0,0,1-4.306,1.8l-.794.215c-6.2,1.671-13.91,3.75-14.279,14.2a.738.738,0,0,1-.738.711" transform="translate(-972.374 -469.374)" fill="#8d6962"/>
      <path id="Trazado_38461" data-name="Trazado 38461" d="M1722.281,743.786a.737.737,0,0,1-.682-.458c-.317-.773-1.775-3.85-3.319-7.108-1.6-3.382-3.26-6.879-4.036-8.626-.435-.978-1.5-2.771-2.636-4.669-3.508-5.886-4.238-7.337-3.345-8.073a.738.738,0,0,1,1.143.871c.157.89,2.142,4.218,3.47,6.447,1.155,1.937,2.245,3.767,2.715,4.825.77,1.73,2.423,5.219,4.021,8.593,1.619,3.418,3.019,6.37,3.35,7.177a.739.739,0,0,1-.4.964.727.727,0,0,1-.281.056" transform="translate(-1255.129 -525.215)" fill="#8d6962"/>
      <path id="Trazado_38462" data-name="Trazado 38462" d="M1407.778,817.644a.737.737,0,0,1-.636-1.111c5.865-9.983,4.753-24.644,4.273-28.9a.739.739,0,0,1,1.468-.166c.492,4.371,1.628,19.437-4.468,29.813a.738.738,0,0,1-.638.364" transform="translate(-1034.019 -578.221)" fill="#8d6962"/>
      <path id="Trazado_38463" data-name="Trazado 38463" d="M1312.565,746.541a.729.729,0,0,1-.338-.083.737.737,0,0,1-.318-.994,18.049,18.049,0,0,0,1.45-5.9l.067-.508c.508-3.814.915-14.205,1.185-21.082.087-2.192.16-4.069.22-5.335a.723.723,0,0,1,.772-.7.739.739,0,0,1,.7.772c-.061,1.263-.134,3.135-.22,5.323-.27,6.9-.678,17.338-1.2,21.219l-.068.506a19.066,19.066,0,0,1-1.6,6.381.738.738,0,0,1-.656.4" transform="translate(-964.047 -523.197)" fill="#8d6962"/>
      <path id="Trazado_38464" data-name="Trazado 38464" d="M1302.4,828.7c-4.032,0-8.107-2.457-11.926-7.23a25.894,25.894,0,0,1-5.182-9.532c-.993-3.64-.66-7.606-.34-11.44.089-1.056.177-2.1.233-3.108a37.265,37.265,0,0,0-.232-5.428c-.131-1.427-.266-2.9-.266-4.375a.738.738,0,0,1,1.475,0c0,1.4.132,2.846.261,4.241a38.431,38.431,0,0,1,.234,5.644c-.057,1.024-.144,2.079-.234,3.148-.311,3.707-.632,7.541.293,10.929a24.463,24.463,0,0,0,4.91,9c2.974,3.718,7.662,7.84,13.044,6.368a6.848,6.848,0,0,0,3.01-1.769.738.738,0,0,1,1.319.661c-.6,1.207-3.03,2.287-3.941,2.533a10.085,10.085,0,0,1-2.659.36" transform="translate(-944.059 -578.249)" fill="#8d6962"/>
      <path id="Trazado_38465" data-name="Trazado 38465" d="M1256.744,731.207a.739.739,0,0,1-.661-.409,42.9,42.9,0,0,0-3.4-5.368,32.092,32.092,0,0,1-4.578-8.047c-.012-.036-1.114-3.816.083-5.109a1.43,1.43,0,0,1,1.458-.39c.872.218,1.317,1.291,1.641,2.074.063.15.115.282.163.377a13.334,13.334,0,0,0,2.674,3.366.738.738,0,0,1-1.043,1.045,14.558,14.558,0,0,1-2.951-3.75c-.059-.118-.128-.284-.206-.473a3.961,3.961,0,0,0-.668-1.219c-.346.354-.052,2.709.25,3.612a31.017,31.017,0,0,0,4.384,7.665,44.81,44.81,0,0,1,3.517,5.557.739.739,0,0,1-.661,1.069" transform="translate(-916.868 -523.117)" fill="#8d6962"/>
      <path id="Trazado_38466" data-name="Trazado 38466" d="M1269.366,696.763a.738.738,0,0,1-.738-.737c0-1.7-.136-3.965-.256-5.964a39.155,39.155,0,0,1-.152-4.968,2.936,2.936,0,0,1,2.2-2.442,1.556,1.556,0,0,1,1.687,1,12.174,12.174,0,0,1,.823,3.994l.064.7a32.568,32.568,0,0,0,.81,4.692.738.738,0,1,1-1.431.358,34.178,34.178,0,0,1-.846-4.9l-.066-.717a10.915,10.915,0,0,0-.7-3.524.348.348,0,0,0-.089-.137.584.584,0,0,0-.305.121,1.662,1.662,0,0,0-.682,1.056,44.69,44.69,0,0,0,.162,4.687c.12,2.019.257,4.308.257,6.052a.738.738,0,0,1-.738.737" transform="translate(-931.973 -501.661)" fill="#8d6962"/>
      <path id="Trazado_38467" data-name="Trazado 38467" d="M1291.63,693.58a.743.743,0,0,1-.727-.875,32.507,32.507,0,0,0,.1-3.374,33.213,33.213,0,0,1,.291-5.688,2.741,2.741,0,0,1,1.1-1.578,1.236,1.236,0,0,1,1-.1c1.3.434,1.765,3.1,2.327,7.114a20.481,20.481,0,0,0,.45,2.61.745.745,0,0,1-.345.984.732.732,0,0,1-.977-.325,13.541,13.541,0,0,1-.591-3.064c-.215-1.537-.7-5.009-1.265-5.816a1.725,1.725,0,0,0-.275.537,35.184,35.184,0,0,0-.246,5.335,28.47,28.47,0,0,1-.128,3.639.739.739,0,0,1-.724.6" transform="translate(-948.662 -501.123)" fill="#8d6962"/>
      <path id="Trazado_38468" data-name="Trazado 38468" d="M1306.2,694.516a.737.737,0,0,1-.737-.737c0-.071.461-7.432,2.5-8.924a1.524,1.524,0,0,1,1.382-.244.738.738,0,1,1-.445,1.408c-.992.215-1.96,6.166-1.96,7.76a.737.737,0,0,1-.737.737" transform="translate(-959.368 -503.062)" fill="#8d6962"/>
      <path id="Trazado_38469" data-name="Trazado 38469" d="M1739.412,611.866a.735.735,0,0,1-.436-.143,35.687,35.687,0,0,0-10.432-5.638,82.35,82.35,0,0,0-14.583-2.557,97.985,97.985,0,0,1-12.606-2,.738.738,0,0,1,.358-1.432,97,97,0,0,0,12.415,1.964,83.556,83.556,0,0,1,14.846,2.612,37.093,37.093,0,0,1,10.875,5.861.738.738,0,0,1-.436,1.333" transform="translate(-1249.897 -440.989)" fill="#8d6962"/>
      <path id="Trazado_38470" data-name="Trazado 38470" d="M1733.466,711.676c-3.485,0-6.964-.172-10.316-.4a80.062,80.062,0,0,1-9.659-1.458l-.829-.161c-.854-.165-2.618-.451-3.212-.494a.738.738,0,0,1,.108-1.473c.73.054,2.617.37,3.382.518l.83.16a77.66,77.66,0,0,0,9.48,1.436c11.5.793,24.506.891,33.741-4.386a.738.738,0,0,1,.733,1.281c-6.837,3.907-15.562,4.98-24.259,4.98" transform="translate(-1255.753 -518.332)" fill="#8d6962"/>
      <path id="Trazado_38471" data-name="Trazado 38471" d="M1855.283,643.09a.739.739,0,0,1-.661-1.068c.474-.951.345-3.047.023-4.593-1.008-4.839-4.76-9.925-8.729-11.83a22.181,22.181,0,0,0-4.144-1.328c-.9-.225-1.825-.458-2.7-.75a.738.738,0,1,1,.466-1.4c.824.274,1.684.49,2.6.719a23.292,23.292,0,0,1,4.423,1.429c4.344,2.085,8.443,7.613,9.535,12.86.13.62.728,3.8-.147,5.552a.738.738,0,0,1-.661.41" transform="translate(-1351.141 -457.162)" fill="#8d6962"/>
      <path id="Trazado_38472" data-name="Trazado 38472" d="M1722.517,1046.114a.738.738,0,0,1-.119-1.465c3.652-.6,7.495-1.462,10.862-3.687,4.564-3.013,8.286-8.484,11.062-16.261,4.662-13.059,4.389-25.589-.788-36.232a.739.739,0,0,1,1.329-.646c5.354,11.009,5.648,23.933.85,37.376-2.887,8.084-6.8,13.8-11.638,17-3.6,2.376-7.623,3.284-11.436,3.91a.688.688,0,0,1-.121.01" transform="translate(-1265.318 -725.637)" fill="#8d6962"/>
      <path id="Trazado_38473" data-name="Trazado 38473" d="M1508.954,1164.417a.754.754,0,0,1-.1-.006c-.916-.125-1.836-.244-2.758-.364-5.367-.7-10.917-1.417-16.106-3.249-4.246-1.5-8.508-3.243-12.63-4.932-9.3-3.809-18.918-7.748-29.027-9.123a.738.738,0,1,1,.2-1.463c10.3,1.4,20,5.376,29.387,9.22,4.1,1.682,8.349,3.42,12.561,4.907,5.043,1.78,10.515,2.49,15.8,3.176.926.12,1.85.24,2.767.365a.738.738,0,0,1-.1,1.469" transform="translate(-1063.895 -841.648)" fill="#8d6962"/>
      <path id="Trazado_38474" data-name="Trazado 38474" d="M1231.711,998.5a.717.717,0,0,1-.179-.023.738.738,0,0,1-.536-.9c2.143-8.6,8.967-17.943,16.981-23.253a32.995,32.995,0,0,1,8.269-3.519c.724-.233,1.446-.465,2.155-.708a.738.738,0,0,1,.478,1.4c-.717.246-1.448.481-2.182.717a31.9,31.9,0,0,0-7.906,3.344c-7.727,5.121-14.3,14.116-16.364,22.381a.738.738,0,0,1-.716.56" transform="translate(-904.629 -712.889)" fill="#8d6962"/>
      <path id="Trazado_38475" data-name="Trazado 38475" d="M1302.721,1276.316a.724.724,0,0,1-.263-.049.738.738,0,0,1-.427-.953c1.115-2.92,2.514-5.8,3.868-8.576.729-1.5,1.457-2.995,2.146-4.5a.738.738,0,1,1,1.343.613c-.694,1.521-1.428,3.03-2.162,4.538-1.339,2.752-2.724,5.6-3.816,8.456a.74.74,0,0,1-.69.476" transform="translate(-956.813 -927.284)" fill="#8d6962"/>
      <path id="Trazado_38476" data-name="Trazado 38476" d="M1211.774,1260.834a.738.738,0,0,1-.448-1.324c1.564-1.194,1.325-5.869,1.2-8.381-.033-.63-.061-1.184-.064-1.613-.014-1.67.065-3.35.141-4.976l.016-.346a.732.732,0,0,1,.772-.7.741.741,0,0,1,.7.772l-.017.345c-.074,1.606-.153,3.266-.14,4.9,0,.412.032.944.063,1.549.162,3.171.407,7.964-1.774,9.629a.735.735,0,0,1-.448.151" transform="translate(-889.977 -913.83)" fill="#8d6962"/>
      <path id="Trazado_38477" data-name="Trazado 38477" d="M354.388,891.964a.741.741,0,0,1-.692-.995l8.7-23.613a.738.738,0,1,1,1.385.509l-8.7,23.616a.739.739,0,0,1-.692.483" transform="translate(-259.893 -637.057)" fill="#8d6962"/>
      <path id="Trazado_38478" data-name="Trazado 38478" d="M342.15,902.962a.747.747,0,0,1-.21-.031.737.737,0,0,1-.5-.917l5.616-19.046a.738.738,0,0,1,1.417.418l-5.616,19.047a.74.74,0,0,1-.708.53" transform="translate(-250.9 -648.496)" fill="#8d6962"/>
      <path id="Trazado_38479" data-name="Trazado 38479" d="M222.846,915.15c-20.85,0-43.009-2.993-43.009-8.543s22.159-8.544,43.009-8.544l2.115.017a.738.738,0,0,1-.006,1.475h-.006l-2.109-.017c-25.727,0-41.527,4.118-41.527,7.069s15.8,7.068,41.533,7.068,41.533-4.117,41.533-7.068c0-2.324-9.552-5.432-27.253-6.61a.738.738,0,0,1,.1-1.473c6.716.447,28.63,2.352,28.63,8.083,0,5.55-22.16,8.543-43.009,8.543" transform="translate(-132.16 -659.978)" fill="#8d6962"/>
      <path id="Trazado_38480" data-name="Trazado 38480" d="M222.831,1113.286c-19.794,0-41.528-3.718-42.818-10.609a.738.738,0,1,1,1.451-.271c.847,4.523,16.9,9.406,41.367,9.406,22.723,0,38.74-4.412,41.1-8.677a.738.738,0,1,1,1.292.714c-3.022,5.469-20.849,9.438-42.389,9.438" transform="translate(-132.28 -809.704)" fill="#8d6962"/>
      <path id="Trazado_38481" data-name="Trazado 38481" d="M498.021,974.741h-.007a.738.738,0,0,1-.731-.745l.445-47.124a.738.738,0,0,1,.738-.73h.007a.737.737,0,0,1,.731.745l-.444,47.124a.739.739,0,0,1-.738.731" transform="translate(-365.448 -680.613)" fill="#8d6962"/>
      <path id="Trazado_38482" data-name="Trazado 38482" d="M179.745,940.774a.737.737,0,0,1-.738-.729l-.069-11.825a.737.737,0,0,1,.734-.742h0a.737.737,0,0,1,.738.733l.069,11.818a.737.737,0,0,1-.73.746Z" transform="translate(-131.5 -681.595)" fill="#8d6962"/>
      <path id="Trazado_38483" data-name="Trazado 38483" d="M180.217,1022.268a.737.737,0,0,1-.738-.733l-.166-28.41a.738.738,0,0,1,.734-.741h0a.738.738,0,0,1,.738.734l.166,28.407a.738.738,0,0,1-.734.742Z" transform="translate(-131.775 -729.293)" fill="#8d6962"/>
      <path id="Trazado_38484" data-name="Trazado 38484" d="M182.7,965.308a35.159,35.159,0,0,1-10.777-1.689c-.04-.013-3.987-1.522-4.1-3.5-.029-.509.172-1.225,1.293-1.748l.287-.134a19.614,19.614,0,0,1,1.852-.8.738.738,0,1,1,.485,1.393c-.533.186-1.157.481-1.708.74l-.292.138c-.339.157-.445.3-.443.325.032.571,2.035,1.831,3.093,2.184,5.128,1.708,11.573,2.107,16.038.99a.738.738,0,1,1,.358,1.432,25.5,25.5,0,0,1-6.086.668" transform="translate(-123.329 -703.58)" fill="#8d6962"/>
      <path id="Trazado_38485" data-name="Trazado 38485" d="M176.773,968.942a38.575,38.575,0,0,1-10.091-1.423,10.1,10.1,0,0,1-5.708-3.718,3.713,3.713,0,0,1-.472-3.574,5.125,5.125,0,0,1,3.4-3.188.738.738,0,0,1,.358,1.432,3.647,3.647,0,0,0-2.365,2.25,2.278,2.278,0,0,0,.262,2.2,8.592,8.592,0,0,0,4.922,3.18,34.512,34.512,0,0,0,12.718,1.2c.227-.027.483-.05.756-.073,1.159-.1,2.747-.242,3.37-.968a4.645,4.645,0,0,0,.1-1.409.737.737,0,0,1,.392-1.362,1.01,1.01,0,0,1,.918.627,4.211,4.211,0,0,1-.286,3.1c-1.015,1.185-2.95,1.354-4.362,1.479-.256.022-.5.043-.709.068a26.92,26.92,0,0,1-3.2.18m7.634-3.983h0Z" transform="translate(-117.765 -703.301)" fill="#8d6962"/>
      <path id="Trazado_38486" data-name="Trazado 38486" d="M351.619,1205.3a.748.748,0,0,1-.241-.041l-70.1-24.173a.739.739,0,0,1,.482-1.4l70.1,24.173a.739.739,0,0,1-.241,1.437" transform="translate(-206.341 -866.912)" fill="#8d6962"/>
      <path id="Trazado_38487" data-name="Trazado 38487" d="M91.776,1115.723a.738.738,0,0,1-.241-.041l-9.49-3.271a.738.738,0,1,1,.481-1.4l9.491,3.271a.739.739,0,0,1-.241,1.437" transform="translate(-59.929 -816.444)" fill="#8d6962"/>
      <path id="Trazado_38488" data-name="Trazado 38488" d="M546.158,1175.25a.739.739,0,0,1-.2-1.449l122.556-35.041a.739.739,0,0,1,.406,1.42l-122.557,35.041a.756.756,0,0,1-.2.029" transform="translate(-400.824 -836.843)" fill="#8d6962"/>
      <path id="Trazado_38489" data-name="Trazado 38489" d="M90.763,1100.028a.738.738,0,0,1-.106-1.468l23.434-3.426a.738.738,0,0,1,.213,1.461l-23.433,3.426a.811.811,0,0,1-.108.007" transform="translate(-66.159 -804.798)" fill="#8d6962"/>
      <path id="Trazado_38490" data-name="Trazado 38490" d="M500.387,1040.707a.738.738,0,0,1-.106-1.468l22.039-3.222a.738.738,0,1,1,.216,1.46L500.5,1040.7a.829.829,0,0,1-.108.007" transform="translate(-367.187 -761.354)" fill="#8d6962"/>
      <path id="Trazado_38491" data-name="Trazado 38491" d="M695.936,1064.258l-.035-.012-112.009-26.924a.737.737,0,1,1,.345-1.434l112.078,26.943-.138.729Z" transform="translate(-428.681 -761.248)" fill="#8d6962"/>
      <path id="Trazado_38492" data-name="Trazado 38492" d="M200.406,930.771a.737.737,0,0,1-.464-1.311c3.366-2.711,18.917-4.6,37.819-4.6l1.9.011a.738.738,0,0,1,0,1.475h0l-1.892-.011c-20.509,0-34.314,2.2-36.888,4.278a.732.732,0,0,1-.463.163" transform="translate(-146.733 -679.667)" fill="#8d6962"/>
      <path id="Trazado_38493" data-name="Trazado 38493" d="M413.683,931.242a.732.732,0,0,1-.355-.093c-2.994-1.647-12.02-3.036-23.556-3.625a.739.739,0,0,1,.076-1.475c11.923.61,20.966,2.034,24.191,3.808a.738.738,0,0,1-.356,1.385" transform="translate(-285.925 -680.545)" fill="#8d6962"/>
      <path id="Trazado_38494" data-name="Trazado 38494" d="M38.753,1212.965c-18.786,0-38.753-2.991-38.753-8.533,0-1.684,1.668-3.129,5.1-4.421a.738.738,0,0,1,.52,1.382c-3.741,1.406-4.145,2.594-4.145,3.039,0,3.338,15.309,7.058,37.277,7.058s37.278-3.72,37.278-7.058c0-.876-1.336-1.915-3.666-2.852a.738.738,0,0,1,.551-1.37c3.089,1.242,4.59,2.623,4.59,4.221,0,5.542-19.967,8.533-38.754,8.533" transform="translate(0 -881.841)" fill="#8d6962"/>
      <path id="Trazado_38495" data-name="Trazado 38495" d="M38.377,1231.56c-9.839,0-19.2-1.634-23.849-4.162-.107-.059-.3-.156-.562-.29-8.774-4.459-13.33-8.2-13.928-11.438a.738.738,0,1,1,1.451-.269c.345,1.869,2.906,5.188,13.146,10.39.28.143.485.248.6.309,4.447,2.421,13.532,3.985,23.143,3.985,8.074,0,16.051-1.23,21.339-3.29,3.225-1.258,15.051-6.949,16.4-10.912a.738.738,0,1,1,1.4.476c-1.849,5.425-17.11,11.752-17.262,11.81-5.449,2.124-13.627,3.391-21.875,3.391" transform="translate(-0.018 -892.742)" fill="#8d6962"/>
      <path id="Trazado_38496" data-name="Trazado 38496" d="M157.4,1174.193a.737.737,0,0,1-.522-.216c-2.208-2.208-4.295-4.294-5.253-7.691-1.7-6.017-.894-13.318,6.447-15.765a17.555,17.555,0,0,1,4.817-.648,27.052,27.052,0,0,0,2.763-.207c.769-.113,1.509-.256,2.231-.394,3.2-.62,6.232-1.2,9.666,1.222,4.893,3.453,6.677,11.122,5.523,16.248a9.28,9.28,0,0,1-2.009,4.56.739.739,0,0,1-1.044-1.045,8.088,8.088,0,0,0,1.613-3.839c1.054-4.682-.677-11.713-4.934-14.717-2.918-2.06-5.4-1.584-8.535-.979-.743.143-1.5.289-2.3.406a28.62,28.62,0,0,1-2.915.221,16.472,16.472,0,0,0-4.411.573c-6.357,2.119-7.006,8.6-5.494,13.963.854,3.027,2.718,4.891,4.876,7.05a.738.738,0,0,1-.522,1.259" transform="translate(-110.881 -844.19)" fill="#8d6962"/>
      <path id="Trazado_38497" data-name="Trazado 38497" d="M70.481,1182.93a.727.727,0,0,1-.33-.079.737.737,0,0,1-.33-.99c1.233-2.464.882-6.653.035-9.505a15.072,15.072,0,0,0-7.326-9.105c-6.8-3.449-14.944-1.367-18.548,4.74a13.762,13.762,0,0,0-1.352,9.288l.047.266c.274,1.607.492,2.022.6,2.127a.711.711,0,0,1,.3.974.763.763,0,0,1-1.016.313c-.733-.367-1.047-1.439-1.342-3.166l-.042-.24a15.269,15.269,0,0,1,1.531-10.312c4-6.776,13-9.109,20.487-5.307a16.575,16.575,0,0,1,8.073,10c.715,2.406,1.492,7.344-.13,10.586a.738.738,0,0,1-.661.408" transform="translate(-30.052 -852.556)" fill="#8d6962"/>
      <path id="Trazado_38498" data-name="Trazado 38498" d="M20.336,1150.61a.752.752,0,0,1-.233-.039c-4.1-1.367-6.13-5.94-6.975-8.544-.774-2.384-2.31-8.432.121-13.04a8.9,8.9,0,0,1,5.6-4.448,14.165,14.165,0,0,1,4.344-.349,17.949,17.949,0,0,0,2.925-.086l1.172-.173c3.472-.521,7.407-1.115,10.757.352a10.642,10.642,0,0,1,6.028,11.444.738.738,0,0,1-1.447-.291,9.118,9.118,0,0,0-5.172-9.8c-2.962-1.3-6.672-.737-9.946-.245l-1.183.174a19.1,19.1,0,0,1-3.168.1,12.873,12.873,0,0,0-3.892.288,7.467,7.467,0,0,0-4.713,3.722c-1.505,2.852-1.514,7.3-.023,11.895.61,1.884,2.421,6.394,6.037,7.6a.739.739,0,0,1-.233,1.439" transform="translate(-8.77 -825.546)" fill="#8d6962"/>
      <path id="Trazado_38499" data-name="Trazado 38499" d="M135.868,1133.9a.737.737,0,0,1-.634-.358c-3.293-5.487-13.381-8.276-19.282-5.328a.738.738,0,0,1-.659-1.321c6.6-3.3,17.507-.275,21.207,5.891a.738.738,0,0,1-.633,1.117" transform="translate(-84.428 -827.148)" fill="#8d6962"/>
      <path id="Trazado_38500" data-name="Trazado 38500" d="M187.548,1135.141a.737.737,0,0,1-.614-.328c-2.917-4.376-9.436-4.688-13.064-4.49a11.843,11.843,0,0,0-2.751.68l-.512-1.385a13,13,0,0,1,3.181-.768c3.944-.224,11.05.158,14.374,5.144a.737.737,0,0,1-.613,1.147" transform="translate(-125.377 -829.546)" fill="#8d6962"/>
      <path id="Trazado_38501" data-name="Trazado 38501" d="M197.809,1165.444a6.117,6.117,0,0,1-3.108-1.251l-.328-.21a.738.738,0,1,1,.782-1.252l.345.22c.88.567,1.979,1.272,2.807.915a3.8,3.8,0,0,0,.768-.5,5.853,5.853,0,0,1,.921-.613.739.739,0,0,1,.66,1.321,4.465,4.465,0,0,0-.683.464,5.126,5.126,0,0,1-1.085.688,2.719,2.719,0,0,1-1.079.221" transform="translate(-142.587 -854.397)" fill="#8d6962"/>
      <path id="Trazado_38502" data-name="Trazado 38502" d="M205.107,1149.726a.738.738,0,0,1-.646-.38c-.96-1.729-1.868-5.827-.256-7.841a.738.738,0,1,1,1.153.922c-1.028,1.285-.47,4.647.393,6.2a.739.739,0,0,1-.287,1,.729.729,0,0,1-.358.094" transform="translate(-149.419 -838.678)" fill="#8d6962"/>
      <path id="Trazado_38503" data-name="Trazado 38503" d="M59.728,1137.829a4.375,4.375,0,0,1-.692-.055,6.17,6.17,0,0,1-3.311-1.8.738.738,0,1,1,1.044-1.042,4.7,4.7,0,0,0,2.5,1.388,2.735,2.735,0,0,0,2.454-.849.738.738,0,1,1,1.044,1.042,4.216,4.216,0,0,1-3.035,1.319" transform="translate(-40.793 -833.889)" fill="#8d6962"/>
      <path id="Trazado_38504" data-name="Trazado 38504" d="M67.679,1124.2a.738.738,0,0,1-.673-.434,8.163,8.163,0,0,1-.253-6.448.738.738,0,1,1,1.419.406c-.611,2.139-.731,3.431.178,5.432a.738.738,0,0,1-.367.977.727.727,0,0,1-.3.067" transform="translate(-48.66 -820.715)" fill="#8d6962"/>
      <path id="Trazado_38505" data-name="Trazado 38505" d="M582.563,904.542a.738.738,0,0,1-.738-.735l-.1-36.2a.738.738,0,0,1,.736-.74h0a.738.738,0,0,1,.738.735l.1,36.2a.738.738,0,0,1-.736.74Z" transform="translate(-427.502 -637.052)" fill="#8d6962"/>
      <path id="Trazado_38506" data-name="Trazado 38506" d="M535.753,910.127h0a.738.738,0,0,1-.736-.74l.11-37.154a.737.737,0,0,1,.738-.735h0a.738.738,0,0,1,.736.74l-.111,37.154a.737.737,0,0,1-.738.735" transform="translate(-393.177 -640.456)" fill="#8d6962"/>
      <path id="Trazado_38507" data-name="Trazado 38507" d="M536.382,868.859a.738.738,0,0,1-.079-1.472l12.162-1.333a.738.738,0,0,1,.161,1.468l-12.162,1.333c-.028,0-.055,0-.082,0" transform="translate(-393.64 -636.452)" fill="#8d6962"/>
      <path id="Trazado_38508" data-name="Trazado 38508" d="M490.747,866.147a.858.858,0,0,1-.109-.007l-16.16-2.388a.738.738,0,0,1,.216-1.461l16.16,2.388a.738.738,0,0,1-.107,1.468" transform="translate(-348.226 -633.684)" fill="#8d6962"/>
      <path id="Trazado_38509" data-name="Trazado 38509" d="M535.542,1007.319a.738.738,0,0,1-.125-1.466l12.551-2.166a.737.737,0,1,1,.251,1.453l-12.551,2.166a.641.641,0,0,1-.126.012" transform="translate(-393.022 -737.591)" fill="#8d6962"/>
      <path id="Trazado_38510" data-name="Trazado 38510" d="M509.923,1006.242a.74.74,0,0,1-.2-.029l-8.941-2.555a.738.738,0,0,1,.406-1.42l8.941,2.555a.739.739,0,0,1-.2,1.449" transform="translate(-367.623 -736.514)" fill="#8d6962"/>
      <path id="Trazado_38511" data-name="Trazado 38511" d="M473.546,875.168h-.011a.737.737,0,0,1-.727-.748l.168-10.872a.738.738,0,0,1,.738-.727h.011a.737.737,0,0,1,.727.748l-.168,10.872a.738.738,0,0,1-.738.727" transform="translate(-347.461 -634.079)" fill="#8d6962"/>
      <path id="Trazado_38512" data-name="Trazado 38512" d="M538.844,860.7a.713.713,0,0,1-.1-.006l-15.623-2.119a.738.738,0,1,1,.2-1.463l15.623,2.119a.738.738,0,0,1-.1,1.469" transform="translate(-383.966 -629.875)" fill="#8d6962"/>
      <path id="Trazado_38513" data-name="Trazado 38513" d="M475.486,860.023a.738.738,0,0,1-.07-1.473l12.595-1.211a.753.753,0,0,1,.805.665.739.739,0,0,1-.664.806l-12.595,1.211-.072,0" transform="translate(-348.888 -630.05)" fill="#8d6962"/>
      <path id="Trazado_38514" data-name="Trazado 38514" d="M201.531,1225.107a.739.739,0,0,1-.212-1.446l220.309-65.989a.738.738,0,0,1,.423,1.415l-220.308,65.989a.78.78,0,0,1-.212.031" transform="translate(-147.56 -850.739)" fill="#8d6962"/>
      <path id="Trazado_38515" data-name="Trazado 38515" d="M450.776,1295.977a.739.739,0,0,1-.24-1.437L601.8,1242.618a.738.738,0,1,1,.478,1.4l-151.267,51.923a.736.736,0,0,1-.24.041" transform="translate(-330.728 -913.158)" fill="#8d6962"/>
      <path id="Trazado_38516" data-name="Trazado 38516" d="M165.353,395.38a.738.738,0,0,1-.04-1.475L367.42,382.821a.738.738,0,0,1,.082,1.474L165.394,395.379h-.041" transform="translate(-120.974 -281.331)" fill="#8d6962"/>
      <path id="Trazado_38517" data-name="Trazado 38517" d="M928.829,341.514a.737.737,0,0,1-.737-.726l-.237-14.149a.738.738,0,0,1,.726-.751.718.718,0,0,1,.75.726l.236,14.149a.737.737,0,0,1-.725.751Z" transform="translate(-681.87 -239.492)" fill="#8d6962"/>
      <path id="Trazado_38518" data-name="Trazado 38518" d="M158.147,366.27h0a.739.739,0,0,1-.735-.742l.108-21.058a.738.738,0,0,1,.738-.735h0a.739.739,0,0,1,.735.742l-.108,21.059a.738.738,0,0,1-.738.735" transform="translate(-115.678 -252.608)" fill="#8d6962"/>
      <path id="Trazado_38519" data-name="Trazado 38519" d="M88.949,418.616a.61.61,0,0,1-.077,0l-22.453-2.322a.738.738,0,0,1,.151-1.468l22.453,2.322a.738.738,0,0,1-.075,1.472" transform="translate(-48.324 -304.846)" fill="#8d6962"/>
      <path id="Trazado_38520" data-name="Trazado 38520" d="M1195.739,599.749c-.6,0-1.382-1.16-7.194-11.9-3.417-6.311-7.2-13.489-8.985-17.067a.739.739,0,0,1,1.321-.661c3.423,6.849,12.817,24.38,14.993,27.783.79-.994,2.327-3.42,3.606-5.44a83.379,83.379,0,0,1,4.727-7.011.738.738,0,0,1,1.134.945c-1.13,1.357-2.9,4.152-4.614,6.856-3.367,5.316-4.079,6.281-4.762,6.451a.9.9,0,0,1-.227.039" transform="translate(-866.789 -418.68)" fill="#8d6962"/>
      <path id="Trazado_38521" data-name="Trazado 38521" d="M1443.145,594.181a.738.738,0,0,1-.661-1.068c1.781-3.558,5.092-1.9,6.684-1.106a.738.738,0,1,1-.661,1.32,7.123,7.123,0,0,0-2.825-.935c-.549-.054-1.261.151-1.877,1.381a.739.739,0,0,1-.66.408" transform="translate(-1060.009 -434.262)" fill="#8d6962"/>
      <path id="Trazado_38522" data-name="Trazado 38522" d="M1461.691,635.46a.738.738,0,0,1-.472-1.3,19.16,19.16,0,0,0,5.729-21.437,19.555,19.555,0,0,0-2.275-4.128,29.283,29.283,0,0,1-1.831-3.037.737.737,0,1,1,1.319-.66,28.546,28.546,0,0,0,1.743,2.885,20.975,20.975,0,0,1,2.432,4.441,20.618,20.618,0,0,1-6.174,23.07.731.731,0,0,1-.472.171" transform="translate(-1073.638 -444.23)" fill="#8d6962"/>
      <path id="Trazado_38523" data-name="Trazado 38523" d="M1425.725,638.787a.737.737,0,0,1-.615-.328c-5.523-8.283-5.751-20.919-.518-28.767a.738.738,0,0,1,1.228.819c-4.844,7.265-4.611,19.435.518,27.128a.739.739,0,0,1-.2,1.023.731.731,0,0,1-.408.124" transform="translate(-1044.14 -447.815)" fill="#8d6962"/>
      <path id="Trazado_38524" data-name="Trazado 38524" d="M1443.143,689.082a.738.738,0,0,1-.738-.7c-.1-2.322-.22-3.415-.288-4.067a5.791,5.791,0,0,1,.185-2.517l.118-.58a.737.737,0,0,1,1.446.288l-.116.585a4.64,4.64,0,0,0-.165,2.068c.07.669.189,1.79.3,4.155a.739.739,0,0,1-.7.771Z" transform="translate(-1059.749 -500.18)" fill="#8d6962"/>
      <path id="Trazado_38525" data-name="Trazado 38525" d="M1570.672,548.122a.738.738,0,0,1-.6-.31c-3.013-4.239-7.08-8.347-9.457-7.157a.738.738,0,0,1-.661-1.32c3.791-1.894,8.719,3.962,11.321,7.622a.738.738,0,0,1-.6,1.166" transform="translate(-1146.092 -396.082)" fill="#8d6962"/>
      <path id="Trazado_38526" data-name="Trazado 38526" d="M1241.547,1178.7c-6.469,0-27.025-4.055-28.1-4.977-2.27-1.947-2.237-4.754-2.208-7.23l.007-.848c0-3.94.171-7.9.521-12.113.038-.46.053-.966.068-1.492a11.7,11.7,0,0,1,.786-4.738.738.738,0,0,1,1.319.661,10.752,10.752,0,0,0-.63,4.121c-.016.553-.032,1.086-.073,1.57-.347,4.169-.516,8.091-.516,11.991l-.006.865c-.027,2.363-.054,4.594,1.693,6.093,2.145,1.012,26.542,5.66,28.54,4.463a8.377,8.377,0,0,0,.823-2.724,12.81,12.81,0,0,1,.573-2.23c2.13-5.322,1.862-10.4,1.577-15.773-.1-1.892-.2-3.847-.2-5.855a.737.737,0,1,1,1.475,0c0,1.968.1,3.9.2,5.776.293,5.542.57,10.776-1.681,16.4a11.651,11.651,0,0,0-.495,1.965,8.662,8.662,0,0,1-1.144,3.373,1.956,1.956,0,0,1-1.464.651,9.271,9.271,0,0,1-1.063.051" transform="translate(-890.121 -842.844)" fill="#8d6962"/>
      <path id="Trazado_38527" data-name="Trazado 38527" d="M1193.8,725.016a45.354,45.354,0,0,1-18.451-4.465.739.739,0,1,1,.661-1.321,44.387,44.387,0,0,0,17.79,4.311.738.738,0,0,1,0,1.475" transform="translate(-863.452 -528.498)" fill="#8d6962"/>
      <path id="Trazado_38528" data-name="Trazado 38528" d="M1142.459,990.079a.757.757,0,0,1-.092,0l-1.208-.151c-12.508-1.558-26.686-3.325-37.786-9.669a.738.738,0,1,1,.733-1.28c10.844,6.2,24.865,7.943,37.236,9.485l1.209.15a.738.738,0,0,1-.09,1.47" transform="translate(-810.583 -719.367)" fill="#8d6962"/>
      <path id="Trazado_38529" data-name="Trazado 38529" d="M1127.052,1035.28c-1.573,0-32.4-3.753-38.5-11.248a.739.739,0,1,1,1.146-.932c5.367,6.6,34.849,10.706,37.359,10.706a.737.737,0,1,1,0,1.475" transform="translate(-799.84 -751.667)" fill="#8d6962"/>
      <path id="Trazado_38530" data-name="Trazado 38530" d="M1512.416,1233.483c-.024,0-.048,0-.073,0a.735.735,0,0,1-.662-.806c1.762-18-.822-43.3-4.336-57.364a.738.738,0,0,1,1.432-.358c3.5,13.987,6.218,39.021,4.373,57.866a.738.738,0,0,1-.733.666" transform="translate(-1107.715 -863.048)" fill="#8d6962"/>
      <path id="Trazado_38531" data-name="Trazado 38531" d="M1160.839,1352.075c-3.564,0-7.278-.821-9.311-2.339a.738.738,0,1,1,.884-1.182c3,2.243,10.84,2.746,14.46.925.454-.228.9-.466,1.339-.7a17.454,17.454,0,0,1,4.817-1.979,20.044,20.044,0,0,1,6.972.4c4.436.755,8.623,1.468,10.689-2.87a5.436,5.436,0,0,0,.37-1.791c.019-.191.037-.381.06-.568a17.743,17.743,0,0,0-.019-3.752l-.031-.417a20.357,20.357,0,0,0-.6-4.23.738.738,0,0,1,1.391-.492,20.737,20.737,0,0,1,.682,4.615l.03.412a18.844,18.844,0,0,1,.013,4.044c-.021.176-.039.354-.056.532a6.693,6.693,0,0,1-.507,2.282c-2.543,5.345-7.712,4.464-12.268,3.689a18.725,18.725,0,0,0-6.432-.406,16.054,16.054,0,0,0-4.413,1.833c-.453.242-.908.488-1.374.721a15.591,15.591,0,0,1-6.7,1.277" transform="translate(-846.028 -979.302)" fill="#8d6962"/>
      <path id="Trazado_38532" data-name="Trazado 38532" d="M1138.212,1336.264c-1.184-.787-3.367-2.236-2.093-4.553.955-1.736,3.323-1.9,5.413-2.04a10.111,10.111,0,0,0,2.97-.467c3.02-1.339,5.511-4.713,7.709-7.69.893-1.208,1.735-2.349,2.592-3.347a.738.738,0,0,1,1.119.964c-.822.955-1.649,2.075-2.525,3.26-2.306,3.124-4.921,6.664-8.3,8.163a10.743,10.743,0,0,1-3.468.589c-1.8.124-3.654.25-4.221,1.279-.533.97.036,1.563,1.6,2.6Z" transform="translate(-834.638 -968.52)" fill="#8d6962"/>
      <path id="Trazado_38533" data-name="Trazado 38533" d="M756.629,1024.272c-3.715,0-8-1.019-8.633-3.256a.738.738,0,0,1,1.421-.4c.258.915,2.908,2.183,7.212,2.183,4.414,0,7.231-1.371,7.231-2.314a.772.772,0,0,1,.719-.777.725.725,0,0,1,.753.664c0,2.6-4.377,3.9-8.7,3.9" transform="translate(-549.673 -749.372)" fill="#8d6962"/>
      <path id="Trazado_38534" data-name="Trazado 38534" d="M803.277,976.1a.738.738,0,0,1-.732-.652L800.627,959a.738.738,0,0,1,1.467-.171l1.918,16.445a.738.738,0,0,1-.648.818.652.652,0,0,1-.086.005" transform="translate(-588.369 -704.157)" fill="#8d6962"/>
      <path id="Trazado_38535" data-name="Trazado 38535" d="M748.293,975.778a.7.7,0,0,1-.1-.006.739.739,0,0,1-.633-.831l2.285-16.809a.738.738,0,0,1,1.463.2l-2.285,16.809a.737.737,0,0,1-.73.638" transform="translate(-549.369 -703.653)" fill="#8d6962"/>
      <path id="Trazado_38536" data-name="Trazado 38536" d="M763.475,960.018c-3.2,0-6.439-1-6.439-2.922a1.781,1.781,0,0,1,.023-.275.738.738,0,0,1,1.457.238l0,.037c0,.419,1.739,1.446,4.963,1.446,3.011,0,4.829-.919,4.959-1.41a.738.738,0,1,1,1.427.377c-.457,1.724-3.63,2.508-6.386,2.508" transform="translate(-556.338 -702.703)" fill="#8d6962"/>
      <path id="Trazado_38537" data-name="Trazado 38537" d="M794.255,944.685a.739.739,0,0,1-.658-.4l-2.315-4.531a.738.738,0,0,1,1.314-.672l2.315,4.531a.738.738,0,0,1-.321.993.73.73,0,0,1-.335.082" transform="translate(-581.445 -689.825)" fill="#8d6962"/>
      <path id="Trazado_38538" data-name="Trazado 38538" d="M757.6,944.958a.74.74,0,0,1-.657-1.075l2.46-4.8a.738.738,0,1,1,1.314.673l-2.46,4.8a.74.74,0,0,1-.658.4" transform="translate(-556.211 -689.824)" fill="#8d6962"/>
      <path id="Trazado_38539" data-name="Trazado 38539" d="M770.524,942.489c-1.624,0-3.45-.521-3.872-1.686a.736.736,0,0,1,.44-.942.746.746,0,0,1,.947.44,3.332,3.332,0,0,0,2.485.714,3.405,3.405,0,0,0,2.479-.705.738.738,0,0,1,1.271.752c-.513.867-1.985,1.428-3.75,1.428" transform="translate(-563.371 -690.663)" fill="#8d6962"/>
      <path id="Trazado_38540" data-name="Trazado 38540" d="M791.5,931.207h-.006a.737.737,0,0,1-.732-.744l.027-3.491a.738.738,0,0,1,.738-.731h.006a.737.737,0,0,1,.732.743l-.027,3.491a.738.738,0,0,1-.738.732" transform="translate(-581.121 -680.686)" fill="#8d6962"/>
      <path id="Trazado_38541" data-name="Trazado 38541" d="M766.3,931.305h-.036a.739.739,0,0,1-.7-.774l.163-3.38a.754.754,0,0,1,.773-.7.739.739,0,0,1,.7.774l-.163,3.38a.737.737,0,0,1-.736.7" transform="translate(-562.605 -680.839)" fill="#8d6962"/>
      <path id="Trazado_38542" data-name="Trazado 38542" d="M770.215,925.089c-1.984,0-3.988-.577-3.988-1.864s2-1.863,3.988-1.863,3.989.576,3.989,1.863-2,1.864-3.989,1.864m-2.309-1.864a7.047,7.047,0,0,0,4.619,0,7.07,7.07,0,0,0-4.619,0m4.866.16h0Z" transform="translate(-563.092 -677.099)" fill="#8d6962"/>
      <path id="Trazado_38543" data-name="Trazado 38543" d="M766.027,989.693a.74.74,0,0,1-.522-.215c-.485-.485-.914-1-1.33-1.5a10.1,10.1,0,0,0-2.561-2.429c-2.146-1.257-4.207.007-6.386,1.342l-.62.377c-.222.133-.48.256-.743.381a3.848,3.848,0,0,0-1,.586.738.738,0,0,1-1.042-1.045,4.925,4.925,0,0,1,1.414-.877c.217-.1.43-.2.613-.311l.61-.37c2.225-1.361,4.995-3.053,7.9-1.359a11.391,11.391,0,0,1,2.949,2.758c.394.471.8.96,1.241,1.4a.738.738,0,0,1-.522,1.26" transform="translate(-552.347 -722.813)" fill="#8d6962"/>
      <path id="Trazado_38544" data-name="Trazado 38544" d="M675.679,1023.485c-3.715,0-8-1.019-8.633-3.256a.738.738,0,0,1,1.421-.4c.258.915,2.908,2.183,7.212,2.183,4.414,0,7.231-1.371,7.231-2.314a.773.773,0,0,1,.7-.776.688.688,0,0,1,.768.628c0,.023.007.125.007.148,0,2.488-4.381,3.788-8.708,3.788" transform="translate(-490.184 -748.792)" fill="#8d6962"/>
      <path id="Trazado_38545" data-name="Trazado 38545" d="M722.33,975.319a.738.738,0,0,1-.732-.652l-1.918-16.445a.738.738,0,0,1,1.467-.171l1.918,16.445a.738.738,0,0,1-.648.818.672.672,0,0,1-.086,0" transform="translate(-528.882 -703.584)" fill="#8d6962"/>
      <path id="Trazado_38546" data-name="Trazado 38546" d="M667.345,975a.708.708,0,0,1-.1-.006.738.738,0,0,1-.632-.831l2.284-16.809a.738.738,0,0,1,1.463.2l-2.284,16.809a.738.738,0,0,1-.73.638" transform="translate(-489.881 -703.081)" fill="#8d6962"/>
      <path id="Trazado_38547" data-name="Trazado 38547" d="M682.525,959.24c-3.2,0-6.44-1-6.44-2.922a1.68,1.68,0,0,1,.025-.283.738.738,0,0,1,1.455.255l0,.029c0,.419,1.739,1.446,4.963,1.446,3.052,0,4.825-.906,4.96-1.412a.738.738,0,1,1,1.426.38c-.459,1.722-3.632,2.507-6.385,2.507" transform="translate(-496.848 -702.132)" fill="#8d6962"/>
      <path id="Trazado_38548" data-name="Trazado 38548" d="M713.307,943.907a.738.738,0,0,1-.657-.4l-2.315-4.532a.738.738,0,1,1,1.314-.671l2.315,4.532a.739.739,0,0,1-.657,1.074" transform="translate(-521.958 -689.253)" fill="#8d6962"/>
      <path id="Trazado_38549" data-name="Trazado 38549" d="M676.65,944.178a.739.739,0,0,1-.657-1.075l2.46-4.8a.738.738,0,1,1,1.314.673l-2.46,4.8a.739.739,0,0,1-.657.4" transform="translate(-496.721 -689.251)" fill="#8d6962"/>
      <path id="Trazado_38550" data-name="Trazado 38550" d="M689.573,941.7c-1.622,0-3.449-.521-3.872-1.686a.738.738,0,0,1,1.387-.5,3.32,3.32,0,0,0,2.485.716,3.41,3.41,0,0,0,2.48-.705.738.738,0,1,1,1.27.752c-.513.868-1.986,1.428-3.75,1.428" transform="translate(-503.882 -690.085)" fill="#8d6962"/>
      <path id="Trazado_38551" data-name="Trazado 38551" d="M710.549,930.428h-.006a.737.737,0,0,1-.732-.744l.027-3.491a.738.738,0,0,1,.738-.731h.006a.737.737,0,0,1,.732.743l-.027,3.491a.738.738,0,0,1-.738.732" transform="translate(-521.632 -680.113)" fill="#8d6962"/>
      <path id="Trazado_38552" data-name="Trazado 38552" d="M685.352,930.527h-.037a.739.739,0,0,1-.7-.773l.164-3.382a.738.738,0,1,1,1.474.072l-.164,3.381a.737.737,0,0,1-.736.7" transform="translate(-503.115 -680.266)" fill="#8d6962"/>
      <path id="Trazado_38553" data-name="Trazado 38553" d="M689.261,924.308c-1.986,0-3.989-.575-3.989-1.863s2-1.864,3.989-1.864,3.989.577,3.989,1.864-2,1.863-3.989,1.863m-2.31-1.863a7.069,7.069,0,0,0,4.62,0,7.055,7.055,0,0,0-4.62,0m4.867.16h0Z" transform="translate(-503.599 -676.526)" fill="#8d6962"/>
      <path id="Trazado_38554" data-name="Trazado 38554" d="M685.08,988.917a.736.736,0,0,1-.522-.216c-.485-.484-.914-1-1.329-1.493a10.078,10.078,0,0,0-2.561-2.43c-2.147-1.254-4.207.007-6.388,1.342l-.619.376c-.222.133-.48.257-.744.381a3.879,3.879,0,0,0-1,.586.738.738,0,1,1-1.042-1.045,4.93,4.93,0,0,1,1.412-.875c.217-.1.43-.2.614-.313l.609-.37c2.225-1.36,5-3.053,7.9-1.357a11.384,11.384,0,0,1,2.95,2.758c.395.472.8.959,1.241,1.4a.737.737,0,0,1-.522,1.259" transform="translate(-492.859 -722.243)" fill="#8d6962"/>
      <path id="Trazado_38555" data-name="Trazado 38555" d="M1285.148,143.2a.735.735,0,0,1-.33-.078c-2.419-1.211-4.846-3.652-6.794-5.614l-.557-.559c-7.1-7.1-12.677-15.7-15.314-23.6a.738.738,0,0,1,1.4-.467c2.528,7.582,8.12,16.191,14.958,23.029l.561.562c1.873,1.886,4.2,4.232,6.407,5.335a.738.738,0,0,1-.33,1.4" transform="translate(-927.514 -82.582)" fill="#8d6962"/>
      <path id="Trazado_38556" data-name="Trazado 38556" d="M1296.672,96.255a.738.738,0,0,1-.067-1.473c1.242-.115,9.331-4.761,11.424-7.286,4.9-5.914,6.1-14.848,3.67-27.313-.841-4.3-1.41-8.9-1.962-13.339-1.925-15.533-3.917-31.594-17.677-41.039-4.033-2.768-9.469-3.6-14.266-4.332l.17-1.467-.112.73.166-.721c4.952.757,10.567,1.616,14.878,4.574,14.308,9.82,16.34,26.217,18.307,42.074.548,4.416,1.113,8.983,1.945,13.237,2.524,12.926,1.221,22.261-3.982,28.537-2.118,2.555-10.5,7.635-12.423,7.815-.023,0-.047,0-.07,0" transform="translate(-939.036 -0.005)" fill="#8d6962"/>
      <path id="Trazado_38557" data-name="Trazado 38557" d="M1345,289.049a.738.738,0,0,1-.427-1.34,18.183,18.183,0,0,0,7.246-9.366.738.738,0,1,1,1.377.53,19.727,19.727,0,0,1-7.77,10.041.737.737,0,0,1-.425.136" transform="translate(-987.881 -204.204)" fill="#8d6962"/>
      <path id="Trazado_38558" data-name="Trazado 38558" d="M1568.272,1235.768a.738.738,0,0,1-.33-1.4,6.7,6.7,0,0,0,1.875-1.764,9.326,9.326,0,0,1,2.51-2.318,30.188,30.188,0,0,1,8.461-2.81c1.007-.227,2.025-.455,3.055-.726.87-.229,1.745-.521,2.67-.831a20.419,20.419,0,0,1,6.341-1.4.737.737,0,1,1,0,1.475,19.379,19.379,0,0,0-5.873,1.324c-.908.3-1.846.617-2.764.859-1.046.275-2.082.508-3.105.739a29.1,29.1,0,0,0-8.07,2.66,8.061,8.061,0,0,0-2.094,1.976,7.859,7.859,0,0,1-2.346,2.137.737.737,0,0,1-.33.078" transform="translate(-1151.964 -899.888)" fill="#8d6962"/>
      <path id="Trazado_38559" data-name="Trazado 38559" d="M1573.266,1321.512a.738.738,0,0,1-.523-1.259,14.056,14.056,0,0,0,3.477-10.847,7.446,7.446,0,0,0-3.334-5.694.738.738,0,1,1,.759-1.266,8.755,8.755,0,0,1,4.04,6.778,15.426,15.426,0,0,1-3.9,12.071.738.738,0,0,1-.523.216" transform="translate(-1155.634 -957.078)" fill="#8d6962"/>
      <path id="Trazado_38560" data-name="Trazado 38560" d="M155.81,322.334a.739.739,0,0,1-.727-.867l1.174-6.634a.738.738,0,0,1,1.453.257l-1.174,6.634a.738.738,0,0,1-.726.61" transform="translate(-113.96 -230.92)" fill="#8d6962"/>
      <path id="Trazado_38561" data-name="Trazado 38561" d="M814.127,97.466a.739.739,0,0,1-.662-.411L774.074,17.5a.738.738,0,1,1,1.323-.655L814.789,96.4a.739.739,0,0,1-.662,1.065" transform="translate(-568.802 -12.078)" fill="#8d6962"/>
      <path id="Trazado_38562" data-name="Trazado 38562" d="M156.69,326.87a.738.738,0,0,1-.02-1.476l201.65-5.789a.711.711,0,0,1,.759.716.737.737,0,0,1-.716.759L156.712,326.87h-.022" transform="translate(-114.608 -234.872)" fill="#8d6962"/>
      <path id="Trazado_38563" data-name="Trazado 38563" d="M141.152,342.09a.7.7,0,0,1-.07,0l-5.885-.554a.738.738,0,0,1,.138-1.469l5.885.554a.738.738,0,0,1-.068,1.473" transform="translate(-98.863 -249.907)" fill="#8d6962"/>
      <path id="Trazado_38564" data-name="Trazado 38564" d="M1321.364,698.387a.738.738,0,0,1-.738-.738,38.138,38.138,0,0,0-.808-6.5.738.738,0,1,1,1.441-.322,40.1,40.1,0,0,1,.842,6.823.738.738,0,0,1-.738.738" transform="translate(-969.907 -507.257)" fill="#8d6962"/>
      <path id="Trazado_38565" data-name="Trazado 38565" d="M1343.842,836.5c-8.586,0-17.161-6.441-20.449-9.21l-.47-.394c-1.936-1.619-4.347-3.636-5.462-5.864a.739.739,0,1,1,1.321-.661c.976,1.954,3.257,3.861,5.088,5.393l.473.4c3.164,2.666,11.4,8.864,19.5,8.864a.738.738,0,1,1,0,1.475" transform="translate(-968.131 -602.586)" fill="#8d6962"/>
      <path id="Trazado_38566" data-name="Trazado 38566" d="M1787.566,644.814a.726.726,0,0,1-.331-.079.737.737,0,0,1-.329-.99c1.205-2.411,1.438-5.5,1.643-8.217l.042-.568a51.288,51.288,0,0,0-1.915-19.518.738.738,0,0,1,1.4-.466,52.81,52.81,0,0,1,1.987,20.1l-.043.566c-.215,2.858-.46,6.1-1.8,8.767a.737.737,0,0,1-.659.408" transform="translate(-1312.982 -451.568)" fill="#8d6962"/>
      <path id="Trazado_38567" data-name="Trazado 38567" d="M346.369,512.645c-3.543,0-16.7-10.489-10.014-34.936s9.978-36.017,5.175-42.756,19.6,13.781,4.9,43.233,3.477,34.459-.065,34.459" transform="translate(-245.813 -318.697)" fill="#fff"/>
      <path id="Trazado_38568" data-name="Trazado 38568" d="M271.265,688.189c3.332,0,15.7-7.839,9.419-26.108s-9.386-26.916-4.868-31.952-18.438,10.3-4.613,32.308-3.271,25.752.061,25.752" transform="translate(-196.007 -462.37)" fill="#fff"/>
    </g>
  </g>
</svg>
